<svg xmlns="http://www.w3.org/2000/svg" xml:space="preserve" width="4608" height="3072" viewBox="0 0 1219.2 812.79998"><path d="M 0 0 L 0 812.79999 L 1219.2 812.79999 L 1219.2 0 L 0 0 z" style="fill:#fff;fill-opacity:1;stroke:none;stroke-width:12.7;stroke-linecap:butt;stroke-miterlimit:128;stroke-dasharray:none;stroke-opacity:1;paint-order:stroke fill markers"/><path d="M 0,0 V 812.79999 H 304.8 V 0 Z" style="fill:#002153;fill-opacity:1;stroke:none;stroke-width:12.7;stroke-linecap:butt;stroke-miterlimit:128;stroke-dasharray:none;stroke-opacity:1;paint-order:stroke fill markers"/><path d="M 914.39994,-1.1362305e-5 V 812.79998 H 1219.1999 V -1.1362305e-5 Z" style="fill:#cf0821;fill-opacity:1;stroke:none;stroke-width:12.7;stroke-linecap:butt;stroke-miterlimit:128;stroke-dasharray:none;stroke-opacity:1;paint-order:stroke fill markers"/><path d="m 609.59999,203.19999 -47.81175,167.34116 47.81175,-23.90586 -10.91114,40.91751 -108.61826,-28.96459 23.90586,47.81177 H 406.39998 l 167.34119,47.81175 -23.90589,-47.81175 40.91751,10.91116 -28.96455,108.61827 47.81175,-23.9059 v 107.57648 l 47.81176,-167.34119 -47.81176,23.90589 10.91114,-40.91751 108.61824,28.96455 -23.90587,-47.81175 h 107.57651 l -167.3412,-47.81177 23.9059,47.81177 -40.91755,-10.91114 28.96459,-108.61827 -47.81176,23.90589 z" style="fill:#002153;fill-opacity:1;stroke:none;stroke-width:8.46671;stroke-miterlimit:128;paint-order:stroke fill markers"/><path d="m 427.98447,606.73767 a 270.93329,270.93332 45 0 0 373.36868,-8.58452 c 105.80597,-105.80595 105.80596,-277.35166 0,-383.15758 -3.06934,-3.05804 -6.21121,-6.04241 -9.42349,-8.94993 l -0.98843,0.98843 C 898.51882,332.86312 857.01989,493.9147 777.4058,574.2058 a 237.06665,237.06667 45 0 1 -335.26288,0 237.06665,237.06667 45 0 1 -1e-5,-335.26289 270.93329,270.93332 45 0 0 -14.15844,367.79476 z" style="display:inline;fill:#cf0821;fill-opacity:1;stroke-width:1.05833;stroke-miterlimit:128"/><path d="m 418.19557,598.15315 c 3.19371,2.9395 6.45763,5.80184 9.7889,8.58452 C 320.43008,480.89334 361.77605,319.78843 442.14291,238.94291 a 237.06665,237.06667 45 0 1 335.2629,0 237.06665,237.06667 45 0 1 -10e-6,335.26289 270.93329,270.93332 45 0 0 8.58453,-373.36869 270.93329,270.93332 45 0 0 -367.79476,14.15846 c -105.80596,105.80594 -105.80595,277.35166 0,383.15758 z" style="fill:#002153;fill-opacity:1;stroke-width:1.05833;stroke-miterlimit:128"/></svg>