<svg xmlns="http://www.w3.org/2000/svg" xml:space="preserve" id="svg1" width="4608" height="3072" version="1.1" viewBox="0 0 1219.2 812.8"><defs id="defs1"><style id="style1">.cls-1{fill:#0283c0}.cls-2{fill:#fff}.cls-3{fill:#ef483f}</style></defs><path id="path16" d="M 727.89717 0 C 658.52247 69.683503 607.01154 151.41988 584.63873 227.48741 C 562.22572 303.69176 570.88697 368.03203 608.85173 406.36744 C 609.09244 406.36944 609.33129 406.4 609.57209 406.4 C 571.46493 368.2928 562.67116 303.99205 585.12604 227.64554 C 607.50617 151.55307 659.11109 69.711913 728.62219 0 L 727.89717 0 z M 728.66922 0 C 659.15446 69.713514 607.53485 151.55039 585.15395 227.64554 C 562.69904 303.99222 571.49276 368.29276 609.6 406.4 C 609.6 352.50826 648.84951 300.82294 718.71272 262.71575 C 788.57592 224.60855 883.33184 203.19999 982.13333 203.2 C 1069.0148 203.19999 1152.7508 219.76739 1219.2 249.67365 L 1219.2 0 L 728.66922 0 z" style="fill:#bf8040;fill-opacity:1;stroke-width:.264583;stroke-linecap:round;stroke-linejoin:round;stroke-miterlimit:128;paint-order:stroke fill markers"/><path id="path17" d="M 609.62791 406.39948 C 647.73507 444.50665 656.52883 508.80742 634.07396 585.15395 C 611.69377 661.24658 560.08867 743.08802 490.57729 812.8 L 491.30283 812.8 C 560.67754 743.11654 612.18845 661.38013 634.56127 585.31259 C 656.97428 509.10823 648.31304 444.76799 610.34827 406.43256 C 610.10756 406.43056 609.86871 406.39948 609.62791 406.39948 z M 609.6 406.4 C 609.6 460.29174 570.35049 511.97706 500.48728 550.08425 C 430.62408 588.19145 335.86816 609.60003 237.06667 609.6 C 146.87855 609.60001 64.36017 592.03709 0 562.91448 L 0 812.8 L 490.53078 812.8 C 560.04555 743.08649 611.66515 661.24908 634.04605 585.15395 C 656.50097 508.80724 647.70724 444.50723 609.6 406.4 z" style="fill:#6440bf;fill-opacity:1;stroke-width:.264583;stroke-linecap:round;stroke-linejoin:round;stroke-miterlimit:128;paint-order:stroke fill markers"/><path id="path18" d="M 406.73383 0 C 406.17594 11.217661 405.85999 22.510671 405.85998 33.866667 C 405.86001 132.74443 427.27574 227.57346 465.43929 297.53998 C 503.4755 367.273 555.09573 406.6438 609.0481 406.90591 C 609.21972 406.73711 609.41009 406.58991 609.58036 406.41964 C 555.68868 406.41961 504.00276 367.17057 465.89559 297.30743 C 432.40153 235.90166 411.80869 155.26483 407.31364 69.553377 C 411.80991 155.26059 432.40297 235.89241 465.89559 297.29555 C 504.00286 367.15882 555.68859 406.40827 609.58036 406.40827 C 571.47315 368.30107 562.67941 304.00042 585.13431 227.6538 C 607.51608 151.55581 659.13807 69.715204 728.65682 0 L 407.29504 0 C 406.73595 11.22348 406.38036 22.512724 406.38036 33.874935 C 406.38036 40.050034 406.46386 46.209311 406.62996 52.347709 C 406.46407 46.21324 406.37985 40.057938 406.37985 33.88682 C 406.37985 22.523854 406.69607 11.224234 407.25524 0 L 406.73383 0 z" style="fill:#bf4040;fill-opacity:1;stroke-width:.264583;stroke-linecap:round;stroke-linejoin:round;stroke-miterlimit:128;paint-order:stroke fill markers"/><path id="path19" d="M 610.1519 405.89357 C 609.98028 406.06237 609.78991 406.20958 609.61964 406.37985 C 663.51129 406.37985 715.19674 445.62944 753.30389 515.49257 C 791.41106 585.35571 812.81966 680.11177 812.81964 778.91318 C 812.81964 790.27615 812.50341 801.57578 811.94424 812.8 L 812.46565 812.8 C 813.02354 801.58234 813.3395 790.28934 813.3395 778.93333 C 813.33951 680.05559 791.92373 585.22605 753.76019 515.25951 C 715.72397 445.52647 664.10429 406.15568 610.1519 405.89357 z M 609.58036 406.40827 C 647.68756 444.51547 656.4808 508.81614 634.0259 585.16273 C 611.64586 661.25487 560.02953 743.08832 490.5189 812.8 L 811.90651 812.8 C 812.45528 801.64078 812.77985 790.36277 812.77985 778.9416 C 812.77987 680.14002 791.37135 585.38375 753.2641 515.52047 C 715.15687 445.65719 663.47214 406.40826 609.58036 406.40827 z" style="fill:#4040bf;fill-opacity:1;stroke-width:.264583;stroke-linecap:round;stroke-linejoin:round;stroke-miterlimit:128;paint-order:stroke fill markers"/><path id="path21" d="M 708.53298 369.23999 C 667.70946 369.64228 633.5917 381.92374 609.63204 405.65173 C 609.63004 405.89244 609.59948 406.13129 609.59948 406.37209 C 612.38738 403.5842 615.35687 401.002 618.41962 398.52865 C 615.3487 401.00729 612.38647 403.61353 609.59173 406.40827 C 663.48352 406.40827 715.16875 445.65772 753.27598 515.52099 C 791.38324 585.38426 812.79176 680.14001 812.79173 778.9416 C 812.79173 790.37543 812.41047 801.63285 811.85897 812.8 L 1171.915 812.8 L 1172.1729 812.8 L 1172.6514 812.8 A 0.52921956 0.52921956 0 0 0 1172.6664 812.75504 C 1171.0896 794.30055 1167.4142 774.76906 1161.4025 754.32915 C 1138.9144 677.86959 1087.0034 595.67218 1017.0862 525.75499 C 947.16902 455.8378 864.97166 403.92685 788.51208 381.43873 C 759.93541 373.03384 733.02709 368.99862 708.53298 369.23999 z M 708.29165 369.74487 C 709.97807 369.72656 711.72415 369.81549 713.43346 369.83789 C 711.71461 369.81514 709.97961 369.76315 708.2839 369.78156 C 703.39952 369.83461 698.62555 370.081 693.94111 370.47454 C 698.63483 370.07947 703.39714 369.79803 708.29165 369.74487 z M 718.43212 369.92832 C 720.49376 370.00223 722.58143 370.12771 724.67411 370.25957 C 722.58197 370.12751 720.49324 370.00248 718.43212 369.92832 z M 729.58854 370.62079 C 731.72235 370.7993 733.85839 370.98467 736.02226 371.2223 C 733.85878 370.98448 731.72198 370.79951 729.58854 370.62079 z M 691.86268 370.69003 C 687.99147 371.05969 684.1937 371.54785 680.46958 372.15196 C 684.19385 371.54716 687.99126 371.06032 691.86268 370.69003 z M 740.9155 371.83932 C 744.86529 372.34872 748.86034 372.95558 752.90236 373.65885 C 748.86048 372.95522 744.86517 372.34911 740.9155 371.83932 z M 677.58448 372.6465 C 673.94528 373.30313 670.38262 374.07693 666.89521 374.96109 C 670.38301 374.0761 673.9448 373.30385 677.58448 372.6465 z M 757.70672 374.50582 C 760.03454 374.95126 762.38495 375.45111 764.74092 375.96 C 762.38544 375.451 760.03407 374.95139 757.70672 374.50582 z M 664.79095 375.47631 C 656.4527 377.71901 648.57382 380.62562 641.19187 384.18275 C 648.57329 380.62375 656.45295 377.72068 664.79095 375.47631 z M 768.45645 376.79457 C 775.00112 378.29152 781.61165 379.94301 788.35395 381.92604 C 864.70057 404.38092 946.84111 456.24524 1016.7043 526.10846 C 1022.1699 531.574 1027.4833 537.138 1032.723 542.74517 C 1027.5055 537.16739 1022.1777 531.62621 1016.6966 526.14515 C 946.83327 456.28178 864.69244 404.41713 788.34568 381.96222 C 781.61271 379.98193 774.99232 378.2901 768.45645 376.79457 z M 639.07159 385.27519 C 636.19719 386.7293 633.40011 388.28225 630.68605 389.93951 C 633.40005 388.28135 636.19718 386.73014 639.07159 385.27519 z M 628.06657 391.58695 C 625.45575 393.27775 622.93233 395.07537 620.48306 396.96078 C 622.93228 395.07438 625.45573 393.27867 628.06657 391.58695 z M 1035.2676 545.5052 C 1039.4234 550.00203 1043.5028 554.53716 1047.5071 559.11264 C 1043.5107 554.55213 1039.4382 550.01321 1035.2676 545.5052 z M 1051.1643 563.30102 C 1055.1279 567.90645 1059.0119 572.54521 1062.8163 577.218 C 1059.0187 572.55883 1055.1423 567.91715 1051.1643 563.30102 z M 1065.243 580.1558 C 1069.4861 585.42955 1073.6094 590.74598 1077.6417 596.09075 C 1073.6177 590.76041 1069.5025 585.44405 1065.243 580.1558 z M 1082.3985 602.54513 C 1084.8617 605.89737 1087.2953 609.25482 1089.6725 612.62876 C 1087.2999 609.26147 1084.8657 605.90142 1082.3985 602.54513 z M 1094.7017 619.87276 C 1097.0162 623.26019 1099.2672 626.65742 1101.4925 630.06128 C 1099.2719 626.66235 1097.0193 623.26559 1094.7017 619.87276 z M 1105.7005 636.51309 C 1109.1433 641.93291 1112.4864 647.36654 1115.6947 652.81287 C 1112.4989 647.37997 1109.148 641.94492 1105.7005 636.51309 z M 1117.3809 655.77289 C 1120.1677 660.57143 1122.8629 665.37449 1125.461 670.18287 C 1122.8737 665.38512 1120.1685 660.58036 1117.3809 655.77289 z M 1127.7389 674.49371 C 1130.1825 679.11954 1132.5356 683.74335 1134.7984 688.36832 C 1132.5458 683.75385 1130.1816 679.12722 1127.7389 674.49371 z M 1136.3684 691.59086 C 1146.5196 712.73162 1154.8131 733.80826 1160.8868 754.45886 C 1161.5503 756.71487 1162.0683 758.91107 1162.6706 761.14217 C 1156.5319 738.62023 1147.7122 715.2694 1136.3684 691.59086 z M 1163.2773 763.4149 C 1164.3409 767.47712 1165.312 771.49863 1166.181 775.47825 C 1165.2808 771.47979 1164.3532 767.47178 1163.2773 763.4149 z M 1167.783 782.99768 C 1168.0027 784.14616 1168.2015 785.28442 1168.4057 786.4259 C 1168.1915 785.28053 1168.0123 784.14864 1167.783 782.99768 z" style="fill:#40bf40;fill-opacity:1;stroke-width:.264583;stroke-linecap:round;stroke-linejoin:round;stroke-miterlimit:128;paint-order:stroke fill markers"/><path id="path22" d="m 0,0 v 563.13669 0.58549 c 66.498881,29.88336 150.21414,46.41732 237.06667,46.41732 205.87809,4e-5 372.49623,-91.41426 373.03924,-203.1876 -0.1691,-0.17131 -0.316,-0.36199 -0.48627,-0.53226 0,94.41847 -114.67842,147.45925 -136.45214,157.18937 9.46823,-4.23169 18.58845,-8.73378 27.31978,-13.49634 C 570.35055,512.00543 609.6,460.31968 609.6,406.42791 571.4928,444.53511 507.19213,453.32886 430.84554,430.87396 354.49891,408.41908 272.35833,356.55476 202.49513,286.69154 132.63194,216.82835 80.767591,134.68773 58.31272,58.341142 52.294785,37.880253 48.828093,18.445957 47.284452,0 Z" style="fill:#9540bf;fill-opacity:1;stroke-width:.264583;stroke-linecap:round;stroke-linejoin:round;stroke-miterlimit:128;paint-order:stroke fill markers"/><path id="path23" d="M 982.13333 202.65998 C 883.25557 202.66 788.42603 224.07626 718.45951 262.23981 C 648.72646 300.27602 609.35568 351.89573 609.09357 405.8481 C 609.26236 406.01972 609.40958 406.21009 609.57985 406.38036 C 609.57988 352.48868 648.82943 300.80325 718.69257 262.69611 C 788.55571 224.58893 883.31175 203.18038 982.11318 203.18036 C 993.26552 203.18037 1004.3549 203.49116 1015.3742 204.02992 C 1004.4226 203.50165 993.33659 203.22842 982.13333 203.22842 C 883.33175 203.2284 788.57548 224.63692 718.7122 262.74417 C 648.84892 300.8514 609.59999 352.53613 609.6 406.42791 C 647.7072 368.32068 712.00787 359.52747 788.35446 381.98237 C 864.70109 404.43726 946.84162 456.30155 1016.7049 526.16478 C 1109.4192 618.87906 1164.452 726.3669 1171.8985 812.8 L 1219.2 812.8 L 1219.2 249.76615 L 1219.2 249.07782 C 1152.7011 219.19437 1068.9858 202.66002 982.13333 202.65998 z" style="fill:#bfbf40;fill-opacity:1;stroke-width:.264583;stroke-linecap:round;stroke-linejoin:round;stroke-miterlimit:128;paint-order:stroke fill markers"/><path id="path20" d="M 46.54858 0 A 0.52921956 0.52921956 0 0 0 46.533077 0.044958496 C 48.109906 18.499482 51.785258 38.030947 57.796989 58.47085 C 80.285092 134.93041 132.19605 217.12782 202.11324 287.04501 C 272.03041 356.9622 354.22782 408.87315 430.68741 431.36127 C 506.89185 453.77432 571.23198 445.11306 609.56744 407.14827 C 609.56901 406.90756 609.6 406.66871 609.6 406.42791 C 571.4928 444.53511 507.19213 453.32886 430.84554 430.87396 C 354.49891 408.41908 272.35833 356.55476 202.49513 286.69154 C 145.73129 229.9277 100.84947 165.059 73.970162 101.77828 C 100.85054 165.05266 145.72889 229.91341 202.48687 286.67139 C 272.3502 356.53474 354.4905 408.39939 430.83727 430.85432 C 507.18403 453.30925 571.48445 444.51555 609.59173 406.40827 C 555.69996 406.40827 504.01471 367.15883 465.90748 297.29555 C 427.80024 227.43227 406.39172 132.67652 406.39173 33.874935 C 406.39173 22.512726 406.74732 11.223478 407.3064 0 L 47.284452 0 L 47.060693 0 L 46.54858 0 z" style="display:inline;fill:#bf40bf;fill-opacity:1;stroke:none;stroke-width:1.05833;stroke-linecap:round;stroke-linejoin:round;stroke-miterlimit:128;stroke-dasharray:none;stroke-opacity:1;paint-order:stroke fill markers"/></svg>