<svg xmlns="http://www.w3.org/2000/svg" xml:space="preserve" id="svg1" width="4608" height="3072" version="1.1" viewBox="0 0 1219.2 812.8"><defs id="defs1"><style id="style1">.cls-1{fill:#0283c0}.cls-2{fill:#fff}.cls-3{fill:#ef483f}</style></defs><path id="path20" d="m 46.54858,0 a 0.52921956,0.52921956 0 0 0 -0.0155,0.0449585 c 1.576829,18.4545235 5.252181,37.9859885 11.263912,58.4258915 22.488103,76.45956 74.399058,158.65697 144.316248,228.57416 69.91717,69.91719 152.11458,121.82814 228.57417,144.31626 76.20444,22.41305 140.54457,13.75179 178.88003,-24.213 0.002,-0.24071 0.0326,-0.47956 0.0326,-0.72036 -38.1072,38.1072 -102.40787,46.90095 -178.75446,24.44605 C 354.49891,408.41908 272.35833,356.55476 202.49513,286.69154 145.73129,229.9277 100.84947,165.059 73.970162,101.77828 c 26.880378,63.27438 71.758728,128.13513 128.516708,184.89311 69.86333,69.86335 152.00363,121.728 228.3504,144.18293 76.34676,22.45493 140.64718,13.66123 178.75446,-24.44605 -53.89177,0 -105.57702,-39.24944 -143.68425,-109.11272 C 427.80024,227.43227 406.39172,132.67652 406.39173,33.874935 406.39173,22.512726 406.74732,11.223478 407.3064,0 H 47.284452 47.060693 Z" style="display:inline;fill:#bf40bf;fill-opacity:1;stroke:none;stroke-width:1.05833;stroke-linecap:round;stroke-linejoin:round;stroke-miterlimit:128;stroke-dasharray:none;stroke-opacity:1;paint-order:stroke fill markers"/><path id="path22" d="m 0,0 v 563.13669 0.58549 c 66.498881,29.88336 150.21414,46.41732 237.06667,46.41732 205.87809,4e-5 372.49623,-91.41426 373.03924,-203.1876 -0.1691,-0.17131 -0.316,-0.36199 -0.48627,-0.53226 0,94.41847 -114.67842,147.45925 -136.45214,157.18937 9.46823,-4.23169 18.58845,-8.73378 27.31978,-13.49634 C 570.35055,512.00543 609.6,460.31968 609.6,406.42791 571.4928,444.53511 507.19213,453.32886 430.84554,430.87396 354.49891,408.41908 272.35833,356.55476 202.49513,286.69154 132.63194,216.82835 80.767591,134.68773 58.31272,58.341142 52.294785,37.880253 48.828093,18.445957 47.284452,0 Z" style="display:inline;fill:#9540bf;fill-opacity:1;stroke-width:.264583;stroke-linecap:round;stroke-linejoin:round;stroke-miterlimit:128;paint-order:stroke fill markers"/><path id="path17" d="m 609.62791,406.39948 c 38.10716,38.10717 46.90092,102.40794 24.44605,178.75447 C 611.69377,661.24658 560.08867,743.08802 490.57729,812.8 h 0.72554 c 69.37471,-69.68346 120.88562,-151.41987 143.25844,-227.48741 22.41301,-76.20436 13.75177,-140.5446 -24.213,-178.88003 -0.24071,-0.002 -0.47956,-0.0331 -0.72036,-0.0331 z M 609.6,406.4 c 0,53.89174 -39.24951,105.57706 -109.11272,143.68425 C 430.62408,588.19145 335.86816,609.60003 237.06667,609.6 146.87855,609.60001 64.36017,592.03709 0,562.91448 V 812.8 H 490.53078 C 560.04555,743.08649 611.66515,661.24908 634.04605,585.15395 656.50097,508.80724 647.70724,444.50723 609.6,406.4 Z" style="display:inline;fill:#6440bf;fill-opacity:1;stroke-width:.264583;stroke-linecap:round;stroke-linejoin:round;stroke-miterlimit:128;paint-order:stroke fill markers"/><path id="path19" d="m 610.1519,405.89357 c -0.17162,0.1688 -0.36199,0.31601 -0.53226,0.48628 53.89165,0 105.5771,39.24959 143.68425,109.11272 38.10717,69.86314 59.51577,164.6192 59.51575,263.42061 0,11.36297 -0.31623,22.6626 -0.8754,33.88682 h 0.52141 c 0.55789,-11.21766 0.87385,-22.51066 0.87385,-33.86667 10e-6,-98.87774 -21.41577,-193.70728 -59.57931,-263.67382 C 715.72397,445.52647 664.10429,406.15568 610.1519,405.89357 Z m -0.57154,0.5147 c 38.1072,38.1072 46.90044,102.40787 24.44554,178.75446 C 611.64586,661.25487 560.02953,743.08832 490.5189,812.8 h 321.38761 c 0.54877,-11.15922 0.87334,-22.43723 0.87334,-33.8584 2e-5,-98.80158 -21.4085,-193.55785 -59.51575,-263.42113 -38.10723,-69.86328 -89.79196,-109.11221 -143.68374,-109.1122 z" style="display:inline;fill:#4040bf;fill-opacity:1;stroke-width:.264583;stroke-linecap:round;stroke-linejoin:round;stroke-miterlimit:128;paint-order:stroke fill markers"/><path id="path21" d="m 708.53298,369.23999 c -40.82352,0.40229 -74.94128,12.68375 -98.90094,36.41174 -0.002,0.24071 -0.0326,0.47956 -0.0326,0.72036 2.7879,-2.78789 5.75739,-5.37009 8.82014,-7.84344 -3.07092,2.47864 -6.03315,5.08488 -8.82789,7.87962 53.89179,0 105.57702,39.24945 143.68425,109.11272 38.10726,69.86327 59.51578,164.61902 59.51575,263.42061 0,11.43383 -0.38126,22.69125 -0.93276,33.8584 h 360.05607 0.2579 0.4785 a 0.52921956,0.52921956 0 0 0 0.015,-0.045 c -1.5768,-18.45449 -5.2522,-37.98598 -11.2639,-58.42589 C 1138.9144,677.86959 1087.0034,595.67218 1017.0862,525.75499 947.16902,455.8378 864.97166,403.92685 788.51208,381.43873 c -28.57667,-8.40489 -55.48499,-12.44011 -79.9791,-12.19874 z m -0.24133,0.50488 c 1.68642,-0.0183 3.4325,0.0706 5.14181,0.093 -1.71885,-0.0228 -3.45385,-0.0747 -5.14956,-0.0563 -4.88438,0.053 -9.65835,0.29944 -14.34279,0.69298 4.69372,-0.39507 9.45603,-0.67651 14.35054,-0.72967 z m 10.14047,0.18345 c 2.06164,0.0739 4.14931,0.19939 6.24199,0.33125 -2.09214,-0.13206 -4.18087,-0.25709 -6.24199,-0.33125 z m 11.15642,0.69247 c 2.13381,0.17851 4.26985,0.36388 6.43372,0.60151 -2.16348,-0.23782 -4.30028,-0.42279 -6.43372,-0.60151 z m -37.72586,0.0692 c -3.87121,0.36966 -7.66898,0.85782 -11.3931,1.46193 3.72427,-0.6048 7.52168,-1.09164 11.3931,-1.46193 z m 49.05282,1.14929 c 3.94979,0.5094 7.94484,1.11626 11.98686,1.81953 -4.04188,-0.70363 -8.03719,-1.30974 -11.98686,-1.81953 z m -63.33102,0.80718 c -3.6392,0.65663 -7.20186,1.43043 -10.68927,2.31459 3.4878,-0.88499 7.04959,-1.65724 10.68927,-2.31459 z m 80.12224,1.85932 c 2.32782,0.44544 4.67823,0.94529 7.0342,1.45418 -2.35548,-0.509 -4.70685,-1.00861 -7.0342,-1.45418 z m -92.91577,0.97049 c -8.33825,2.2427 -16.21713,5.14931 -23.59908,8.70644 7.38142,-3.559 15.26108,-6.46207 23.59908,-8.70644 z m 103.6655,1.31826 c 6.54467,1.49695 13.1552,3.14844 19.8975,5.13147 76.34662,22.45488 158.48716,74.3192 228.35035,144.18242 5.4656,5.46554 10.779,11.02954 16.0187,16.63671 -5.2175,-5.57778 -10.5453,-11.11896 -16.0264,-16.60002 -69.86333,-69.86337 -152.00416,-121.72802 -228.35092,-144.18293 -6.73297,-1.98029 -13.35336,-3.67212 -19.88923,-5.16765 z m -129.38486,8.48062 c -2.8744,1.45411 -5.67148,3.00706 -8.38554,4.66432 2.714,-1.65816 5.51113,-3.20937 8.38554,-4.66432 z m -11.00502,6.31176 c -2.61082,1.6908 -5.13424,3.48842 -7.58351,5.37383 2.44922,-1.8864 4.97267,-3.68211 7.58351,-5.37383 z M 1035.2676,545.5052 c 4.1558,4.49683 8.2352,9.03196 12.2395,13.60744 -3.9964,-4.56051 -8.0689,-9.09943 -12.2395,-13.60744 z m 15.8967,17.79582 c 3.9636,4.60543 7.8476,9.24419 11.652,13.91698 -3.7976,-4.65917 -7.674,-9.30085 -11.652,-13.91698 z m 14.0787,16.85478 c 4.2431,5.27375 8.3664,10.59018 12.3987,15.93495 -4.024,-5.33034 -8.1392,-10.6467 -12.3987,-15.93495 z m 17.1555,22.38933 c 2.4632,3.35224 4.8968,6.70969 7.274,10.08363 -2.3726,-3.36729 -4.8068,-6.72734 -7.274,-10.08363 z m 12.3032,17.32763 c 2.3145,3.38743 4.5655,6.78466 6.7908,10.18852 -2.2206,-3.39893 -4.4732,-6.79569 -6.7908,-10.18852 z m 10.9988,16.64033 c 3.4428,5.41982 6.7859,10.85345 9.9942,16.29978 -3.1958,-5.4329 -6.5467,-10.86795 -9.9942,-16.29978 z m 11.6804,19.2598 c 2.7868,4.79854 5.482,9.6016 8.0801,14.40998 -2.5873,-4.79775 -5.2925,-9.60251 -8.0801,-14.40998 z m 10.358,18.72082 c 2.4436,4.62583 4.7967,9.24964 7.0595,13.87461 -2.2526,-4.61447 -4.6168,-9.2411 -7.0595,-13.87461 z m 8.6295,17.09715 c 10.1512,21.14076 18.4447,42.2174 24.5184,62.868 0.6635,2.25601 1.1815,4.45221 1.7838,6.68331 -6.1387,-22.52194 -14.9584,-45.87277 -26.3022,-69.55131 z m 26.9089,71.82404 c 1.0636,4.06222 2.0347,8.08373 2.9037,12.06335 -0.9002,-3.99846 -1.8278,-8.00647 -2.9037,-12.06335 z m 4.5057,19.58278 c 0.2197,1.14848 0.4185,2.28674 0.6227,3.42822 -0.2142,-1.14537 -0.3934,-2.27726 -0.6227,-3.42822 z" style="display:inline;fill:#40bf40;fill-opacity:1;stroke-width:.264583;stroke-linecap:round;stroke-linejoin:round;stroke-miterlimit:128;paint-order:stroke fill markers;stroke:none;stroke-opacity:1"/><path id="path23" d="m 982.13333,202.65998 c -98.87776,2e-5 -193.7073,21.41628 -263.67382,59.57983 -69.73305,38.03621 -109.10383,89.65592 -109.36594,143.60829 0.16879,0.17162 0.31601,0.36199 0.48628,0.53226 3e-5,-53.89168 39.24958,-105.57711 109.11272,-143.68425 69.86314,-38.10718 164.61918,-59.51573 263.42061,-59.51575 11.15234,1e-5 22.24172,0.3108 33.26102,0.84956 -10.9516,-0.52827 -22.03761,-0.8015 -33.24087,-0.8015 -98.80158,-2e-5 -193.55785,21.4085 -263.42113,59.51575 -69.86328,38.10723 -109.11221,89.79196 -109.1122,143.68374 38.1072,-38.10723 102.40787,-46.90044 178.75446,-24.44554 76.34663,22.45489 158.48716,74.31918 228.35044,144.18241 92.7143,92.71428 147.7471,200.20212 155.1936,286.63522 H 1219.2 v -563.03385 -0.68833 c -66.4989,-29.88345 -150.2142,-46.4178 -237.06667,-46.41784 z" style="display:inline;fill:#bfbf40;fill-opacity:1;stroke-width:.264583;stroke-linecap:round;stroke-linejoin:round;stroke-miterlimit:128;paint-order:stroke fill markers"/><path id="path16" d="m 727.89717,0 c -69.3747,69.683503 -120.88563,151.41988 -143.25844,227.48741 -22.41301,76.20435 -13.75176,140.54462 24.213,178.88003 0.24071,0.002 0.47956,0.0326 0.72036,0.0326 C 571.46493,368.2928 562.67116,303.99205 585.12604,227.64554 607.50617,151.55307 659.11109,69.711913 728.62219,0 Z m 0.77205,0 C 659.15446,69.713514 607.53485,151.55039 585.15395,227.64554 562.69904,303.99222 571.49276,368.29276 609.6,406.4 c 0,-53.89174 39.24951,-105.57706 109.11272,-143.68425 69.8632,-38.1072 164.61912,-59.51576 263.42061,-59.51575 86.88147,-10e-6 170.61747,16.56739 237.06667,46.47365 V 0 Z" style="display:inline;fill:#bf8040;fill-opacity:1;stroke-width:.264583;stroke-linecap:round;stroke-linejoin:round;stroke-miterlimit:128;paint-order:stroke fill markers"/><path id="path18" d="m 406.73383,0 c -0.55789,11.217661 -0.87384,22.510671 -0.87385,33.866667 3e-5,98.877763 21.41576,193.706793 59.57931,263.673313 38.03621,69.73302 89.65644,109.10382 143.60881,109.36593 0.17162,-0.1688 0.36199,-0.316 0.53226,-0.48627 -53.89168,-3e-5 -105.5776,-39.24907 -143.68477,-109.11221 -33.49406,-61.40577 -54.0869,-142.0426 -58.58195,-227.754053 4.49627,85.707213 25.08933,166.339033 58.58195,227.742173 38.10727,69.86327 89.793,109.11272 143.68477,109.11272 C 571.47315,368.30107 562.67941,304.00042 585.13431,227.6538 607.51608,151.55581 659.13807,69.715204 728.65682,0 H 407.29504 c -0.55909,11.22348 -0.91468,22.512724 -0.91468,33.874935 0,6.175099 0.0835,12.334376 0.2496,18.472774 -0.16589,-6.134469 -0.25011,-12.289771 -0.25011,-18.460889 0,-11.362966 0.31622,-22.662586 0.87539,-33.88682 z" style="display:inline;fill:#bf4040;fill-opacity:1;stroke-width:.264583;stroke-linecap:round;stroke-linejoin:round;stroke-miterlimit:128;paint-order:stroke fill markers"/><path id="path1" d="M 609.6 101.6 A 304.80002 304.79999 0 0 0 304.8 406.4 A 304.80002 304.79999 0 0 0 609.6 711.2 A 304.80002 304.79999 0 0 0 914.4 406.4 A 304.80002 304.79999 0 0 0 609.6 101.6 z" style="fill:#b00020;stroke-width:67.7334;stroke-miterlimit:128;fill-opacity:1"/><path id="path3" d="M 575.73333 169.33333 A 25.399998 25.399998 0 0 0 550.33333 194.73333 A 25.399998 25.399998 0 0 0 575.73333 220.13333 C 641.19731 220.13332 694.26668 273.20269 694.26667 338.66667 C 694.26667 362.2035 687.37834 384.11851 675.54843 402.56044 L 509.02733 236.03882 A 25.4 25.4 0 0 0 484.49239 229.46506 A 25.4 25.4 0 0 0 473.10549 236.03882 A 25.4 25.4 0 0 0 473.10549 271.96118 L 639.62659 438.48228 C 621.18479 450.31195 599.26992 457.2 575.73333 457.2 C 544.36126 457.031 514.33546 444.43167 492.23662 422.16338 L 492.09399 422.30601 A 25.399998 25.399998 0 0 0 474.13333 414.86667 A 25.399998 25.399998 0 0 0 456.21815 422.35148 L 456.17267 422.30601 L 405.37267 473.10549 L 405.41866 473.15148 A 25.399998 25.399998 0 0 0 397.93333 491.06667 A 25.399998 25.399998 0 0 0 423.33333 516.46667 A 25.399998 25.399998 0 0 0 441.24852 508.98134 L 441.29451 509.02784 L 475.70481 474.61651 C 504.64441 496.10738 539.68727 507.80257 575.73333 508 C 613.32843 508 648.04807 495.72963 676.14529 475.00098 L 699.72266 498.57835 A 67.733338 67.733338 0 0 0 694.26667 524.93333 A 67.733338 67.733338 0 0 0 762 592.66667 A 67.733338 67.733338 0 0 0 829.73333 524.93333 A 67.733338 67.733338 0 0 0 816.07939 484.16941 L 834.58007 453.33409 A 25.4 25.4 0 0 0 825.86742 418.48608 A 25.4 25.4 0 0 0 791.01942 427.19925 L 772.51822 458.03406 A 67.733338 67.733338 0 0 0 762 457.2 A 67.733338 67.733338 0 0 0 735.6445 462.65651 L 712.06713 439.07914 C 732.79603 410.98182 745.06667 376.26202 745.06667 338.66667 C 745.06668 245.5717 669.93401 170.05006 577.00044 169.36537 A 25.399998 25.399998 0 0 0 575.73333 169.33333 z" style="fill:#ffd000;fill-opacity:1;stroke:none;stroke-width:67.7335;stroke-miterlimit:128"/></svg>