<svg xmlns="http://www.w3.org/2000/svg" xml:space="preserve" id="svg1" width="4608" height="3072" version="1.1" viewBox="0 0 1219.2 812.8"><defs id="defs1"><style id="style1">.cls-1{fill:#0283c0}.cls-2{fill:#fff}.cls-3{fill:#ef483f}</style></defs><path id="rect1" d="M 0 0 L 0 812.8 L 1219.2 812.8 L 1219.2 0 L 0 0 z" style="fill:#202020;stroke-width:16.9333;stroke-linecap:round;stroke-linejoin:round;stroke-miterlimit:128;fill-opacity:1"/><path id="path18" d="m 270.93359,101.59961 a 33.870052,33.870052 0 0 0 -33.86718,33.86719 v 541.86718 a 33.870052,33.870052 0 0 0 33.86718,33.86524 h 406.40039 a 33.870052,33.870052 0 0 0 33.86524,-33.86524 V 406.40039 A 33.870052,33.870052 0 0 0 677.33398,372.5332 H 541.86719 A 33.870052,33.870052 0 0 0 508,406.40039 V 508 H 440.26758 V 304.80078 h 338.66601 v 33.86524 a 33.866665,33.866665 0 0 0 33.86719,33.86718 33.866665,33.866665 0 0 0 33.86524,-33.86718 V 270.93359 A 33.870052,33.870052 0 0 0 812.80078,237.06641 H 406.40039 a 33.870052,33.870052 0 0 0 -33.86719,33.86718 v 270.9336 a 33.870052,33.870052 0 0 0 33.86719,33.86523 h 135.4668 a 33.870052,33.870052 0 0 0 33.86523,-33.86523 V 440.26758 H 643.4668 V 643.4668 H 304.80078 V 169.33398 H 914.40039 V 643.4668 H 812.80078 a 33.866665,33.866665 0 0 0 -33.86719,33.86718 33.866665,33.866665 0 0 0 33.86719,33.86524 h 135.46484 a 33.870052,33.870052 0 0 0 33.86719,-33.86524 V 135.4668 a 33.870052,33.870052 0 0 0 -33.86719,-33.86719 z" style="color:#000;fill:#705080;stroke-linecap:round;stroke-linejoin:round;stroke-miterlimit:128;-inkscape-stroke:none;fill-opacity:1;stroke:none"/></svg>