<svg xmlns="http://www.w3.org/2000/svg" xml:space="preserve" width="4608" height="3072" viewBox="0 0 1219.2 812.8"><path d="M 0 0 L 0 812.8 L 1219.2 812.8 L 1219.2 0 L 0 0 z" style="fill:#470000;stroke:none;stroke-width:4.23333;stroke-linecap:round;stroke-linejoin:round;fill-opacity:1"/><path d="m 336.24356,0 7.17941,8.3819173 c 27.29766,31.8701457 45.54968,75.2099857 49.70756,118.0325927 5.12496,52.78292 -10.18767,106.92693 -42.34006,149.71282 -7.80307,10.38372 -23.04339,26.2139 -34.30643,35.63349 -31.10046,26.01016 -70.52825,42.82824 -112.24121,47.87718 -10.15092,1.22866 -39.16558,1.16517 -49.30293,-0.10801 C 116.82091,354.74249 80.203685,339.70035 49.276062,316.12437 35.138134,305.34709 13.664248,282.45487 3.218925,267.02504 L 0,262.26978 v 200.97946 l 2.2861654,1.4087 c 11.2719786,6.94627 28.3946766,15.90301 30.3464676,15.87397 1.330527,-0.0198 3.423416,-0.59402 4.650879,-1.27641 1.227465,-0.68239 13.717321,-13.00183 27.754895,-27.37611 20.095909,-20.57791 26.31854,-26.36589 29.264364,-27.22056 3.205259,-0.92994 6.640229,-0.43297 23.973729,3.46801 17.77802,4.00101 20.56853,4.90093 22.9986,7.41557 2.15339,2.22832 5.28526,10.50819 14.14952,37.40547 9.81893,29.79404 11.81563,34.94816 14.51901,37.4835 l 3.13418,2.93987 15.82332,-0.5886 c 18.07228,-0.672 45.71109,-3.35849 50.65686,-4.92373 1.83589,-0.58102 3.96915,-2.04405 4.74028,-3.25148 0.77113,-1.20743 4.65435,-17.74018 8.62944,-36.73936 8.20778,-39.22951 8.43762,-40.08801 11.51558,-42.94053 1.24109,-1.15018 10.4105,-5.16866 20.37653,-8.92969 16.00318,-6.03934 18.50664,-6.71922 21.42712,-5.8229 1.81873,0.55819 15.96002,11.25286 31.42496,23.76599 15.46492,12.51313 29.27039,23.18803 30.67926,23.72207 1.66692,0.63184 3.52704,0.60662 5.32577,-0.0724 3.44648,-1.30089 49.30627,-35.90789 53.80499,-40.60269 1.95417,-2.03933 3.30212,-4.4993 3.30212,-6.0265 0,-1.4193 -5.94359,-18.22498 -13.20798,-37.34553 -8.07584,-21.25636 -13.19434,-36.14942 -13.17232,-38.32841 0.0441,-4.36317 0.32054,-4.84485 11.52178,-20.09851 6.11595,-8.32861 10.0183,-12.69475 12.12691,-13.56816 2.63138,-1.08996 7.95762,-0.76999 34.67023,2.08152 46.12795,4.92407 44.37861,4.85088 47.49788,1.98179 1.94849,-1.79221 5.67041,-10.80861 14.54898,-35.24694 10.37987,-28.57068 11.81083,-33.25878 11.00811,-36.06808 -0.77008,-2.69508 -6.03352,-7.01191 -31.82958,-26.10642 -19.47084,-14.41253 -31.60532,-24.0737 -32.7949,-26.11055 -1.74917,-2.995 -1.81058,-4.33938 -0.83457,-18.24798 0.81942,-11.67699 1.46332,-15.584 2.89595,-17.57722 1.20035,-1.67005 13.68615,-8.58023 35.83967,-19.83497 26.04305,-13.23075 34.34246,-17.90265 35.47174,-19.96777 1.35775,-2.48295 0.8765,-5.4923 -6.09576,-38.095352 -6.57784,-30.758715 -7.91579,-35.788167 -10.20661,-38.368717 l -2.63653,-2.969845 -38.00336,-2.373498 c -30.72669,-1.918924 -38.68347,-2.712961 -41.55354,-4.147034 -2.68866,-1.34343 -4.72083,-3.868651 -8.37675,-10.409701 -2.65475,-4.7497949 -4.82878,-8.978776 -4.83175,-9.39787562 z m -13.08757,31.032214 c -11.47292,0.03976 -13.54073,0.335312 -20.38791,2.914034 -7.1209,2.681809 -8.50013,2.855253 -21.05763,2.647384 -11.88586,-0.196751 -13.95123,0.02618 -17.88211,1.929081 -7.2818,3.52506 -11.86026,14.529347 -11.86026,28.505237 0,5.00825 -0.44326,6.494945 -2.7559,9.243363 l -2.75591,3.275253 4.02612,3.523299 c 8.17041,7.151443 25.03491,18.558455 27.36163,18.506885 0.57628,-0.0128 7.80701,-8.813868 16.06827,-19.557984 8.26126,-10.744114 17.63406,-22.465473 20.82819,-26.047505 5.59364,-6.272957 5.69528,-6.486126 2.75952,-5.787761 -1.6764,0.398786 -6.52716,2.342761 -10.7797,4.32015 -7.4059,3.443671 -7.85517,3.852759 -10.64948,9.699149 -1.60452,3.357054 -4.48577,7.480684 -6.40271,9.163782 -3.10153,2.723178 -4.03168,3.007664 -8.44807,2.583305 -6.33138,-0.608365 -10.22586,-4.115818 -11.69437,-10.533207 -0.96501,-4.217105 -0.79418,-5.147515 1.95492,-10.648963 5.75622,-11.519213 12.94057,-14.050819 20.32537,-7.162353 l 4.19974,3.917074 7.39749,-3.418396 c 10.78141,-4.981316 18.53954,-6.705487 28.31093,-6.292123 7.26457,0.307318 8.98534,0.765735 13.563,3.612183 2.88352,1.793017 5.23852,2.935915 5.23327,2.539896 -0.0343,-2.589859 -6.76731,-11.808905 -10.35648,-14.180529 -4.06319,-2.684846 -4.73465,-2.793752 -16.99792,-2.751254 z m -166.69216,8.382951 c -21.56257,-0.110288 -35.55585,4.864052 -48.99855,17.418058 -6.76652,6.319171 -8.567444,8.911496 -17.819072,25.64443 -5.660548,10.237934 -12.326324,23.415057 -14.812533,29.282447 -2.486207,5.8674 -6.416657,15.16917 -8.73435,20.67058 -8.474415,20.11532 -18.565032,33.2536 -31.332455,40.79596 -4.728515,2.79337 -10.256289,6.5466 -12.284005,8.34006 l -3.687113,3.26078 5.344893,0.0424 c 5.798822,0.0459 23.730612,-3.59029 24.600049,-4.98832 0.294397,-0.47338 3.449647,-3.00523 7.011459,-5.62602 8.063401,-5.93308 14.407612,-12.40963 19.346105,-19.7497 4.879598,-7.25251 6.916237,-11.15305 19.733163,-37.79355 15.336549,-31.877654 21.925209,-41.327404 34.547249,-49.550985 6.80244,-4.431967 14.33694,-7.372758 25.30956,-9.878467 6.5426,-1.494067 7.15814,-1.46769 13.27671,0.568441 4.36881,1.453845 7.57194,3.343642 10.03918,5.92367 4.52366,4.730448 9.291,12.280406 9.44955,14.964978 0.066,1.117599 1.32845,5.918287 2.80552,10.668082 1.47706,4.749796 3.62964,13.436851 4.78369,19.304251 6.62753,33.69569 12.96747,43.64532 30.43173,47.75781 6.96391,1.63985 29.74071,0.78328 41.22539,-1.5503 10.53033,-2.13965 26.97549,-2.43935 33.28427,-0.60668 12.92448,3.75451 21.49674,18.72959 23.62233,41.26673 0.81866,8.67996 -1.03474,18.34363 -5.63893,29.40338 -5.68682,13.66036 -9.11726,16.95257 -41.8052,40.11796 -16.26128,11.5241 -23.94754,19.69291 -29.75374,31.62236 -4.53613,9.32001 -4.60075,9.59815 -4.60075,19.78897 0,8.58621 1.41546,17.73813 2.55695,16.53336 0.15939,-0.16822 2.44182,-4.42087 5.07204,-9.45007 11.55115,-22.08683 23.4169,-36.11743 46.47727,-54.95633 28.68575,-23.43449 36.72799,-31.9417 42.83149,-45.30938 5.48753,-12.01862 6.18619,-16.41639 6.18619,-38.92579 v -20.32021 l -2.92954,-5.07979 c -11.26967,-19.54297 -21.80616,-25.73178 -47.78261,-28.06341 l -12.27987,-1.10174 -14.73192,4.84984 c -12.98713,4.2755 -15.81508,4.85939 -23.87606,4.92889 -8.0354,0.0693 -9.76777,-0.25011 -14.28854,-2.63446 -12.28039,-6.47693 -19.69263,-20.90004 -19.75073,-38.431246 -0.0194,-5.859781 -4.32153,-22.772072 -8.05067,-31.647681 C 192.98814,47.2597 180.40927,39.53764 156.46383,39.415165 Z M 283.67622,50.8 c -2.19983,0 -7.3241,8.230226 -7.3241,11.763623 0,6.871998 6.3449,8.833274 10.42624,3.222542 1.32106,-1.816098 2.90928,-4.504047 3.5295,-5.972762 1.00821,-2.387481 0.78102,-3.006424 -2.14457,-5.84202 C 286.36354,52.227 284.34461,50.8 283.67622,50.8 Z m -122.40854,12.11709 -8.24395,2.071191 c -12.37846,3.109648 -20.41714,7.463277 -28.05565,15.194938 -8.1559,8.25538 -13.2286,16.872499 -26.297617,44.673241 -5.619007,11.9529 -12.087951,24.88287 -14.37535,28.73313 -4.554089,7.66566 -13.994087,18.3037 -21.584729,24.3241 -4.481195,3.55418 -4.70062,3.93134 -2.860807,4.91598 3.458791,1.85109 5.933744,1.20908 17.125569,-4.44159 5.999885,-3.0293 12.171003,-5.8233 13.713892,-6.20893 3.684021,-0.92078 4.03429,-1.45971 22.048262,-33.93901 17.1463,-30.91485 21.41088,-37.64563 28.93881,-45.672147 10.95595,-11.681569 19.95285,-11.064304 32.99643,2.263945 l 6.52519,6.667292 -2.46084,2.04845 c -1.3534,1.1267 -2.70495,2.06397 -3.00343,2.08256 -0.29849,0.0186 -3.04196,-2.51628 -6.09627,-5.632726 -10.02071,-10.22457 -13.8112,-10.893254 -21.41626,-3.779614 -5.63731,5.27305 -12.84447,15.7924 -21.43849,31.29008 -3.09874,5.58799 -10.06177,18.0941 -15.47296,27.79107 -5.41117,9.69696 -9.62688,17.84225 -9.36842,18.1007 1.32324,1.32324 9.53843,-2.38166 16.59331,-7.48326 4.37664,-3.16489 10.21491,-7.26028 12.97388,-9.10074 4.11005,-2.74174 5.98056,-5.10054 10.35286,-13.05553 9.99743,-18.18942 14.29838,-21.66333 27.98175,-22.60121 L 177.8,120.61383 v 3.70106 3.70107 l -5.33404,0.006 c -11.59323,0.0123 -15.50716,2.93748 -23.65282,17.67851 l -3.87728,7.01662 2.96984,2.40296 c 1.63353,1.32177 3.9417,2.65732 5.12889,2.96777 4.77741,1.24935 5.90113,10.91962 2.15955,18.58492 -3.19789,6.55147 -19.60951,23.24626 -32.0461,32.59904 -16.78472,12.62273 -33.516324,20.47778 -56.345916,26.45317 -8.301704,2.17287 -8.889503,2.50173 -8.884212,4.96714 0.0098,4.54914 1.997772,10.07019 4.844149,13.45292 2.810153,3.33968 13.885722,11.03137 15.884818,11.03137 1.3711,0 15.181882,-9.79331 25.193811,-17.86506 10.74661,-8.66405 22.25121,-19.91688 40.73705,-39.84615 l 16.30546,-17.57929 2.52336,2.52336 2.52336,2.52336 -17.99528,19.32906 c -24.63506,26.46072 -35.97395,36.79522 -55.780058,50.83979 l -8.937439,6.3376 3.70365,6.77426 c 4.330655,7.92126 6.054535,10.02197 9.82524,11.97188 3.794787,1.96237 15.014067,3.10375 15.014067,1.52755 0,-1.53156 32.63754,-51.59397 39.95674,-61.28928 3.07716,-4.07614 9.33969,-11.92354 13.91698,-17.43821 l 8.32249,-10.02678 2.60397,2.60398 2.60398,2.60397 -5.53093,6.40685 c -13.77952,15.96308 -21.66903,26.96384 -43.0289,59.99478 -10.1496,15.69535 -12.84226,20.57652 -12.37547,22.43636 0.32812,1.30735 2.46222,4.49656 4.74235,7.08691 4.69185,5.33022 9.10875,7.04463 15.79025,6.12882 l 4.34702,-0.59583 4.70669,-13.84205 c 6.61339,-19.45139 15.26316,-39.43777 27.66032,-63.91031 5.86544,-11.57862 10.8308,-21.22771 11.03396,-21.44262 0.20316,-0.21492 1.72052,0.16916 3.37188,0.85318 l 3.0024,1.24334 -11.40343,23.0234 c -13.19803,26.6461 -19.19728,40.50719 -26.54929,61.34251 l -5.27565,14.95102 2.13424,1.94769 c 6.1876,5.64674 18.95539,9.46514 25.6465,7.66981 2.05052,-0.55019 2.21702,-1.41634 2.87682,-14.97221 0.38517,-7.91348 1.34077,-19.09546 2.12339,-24.84861 1.45792,-10.71735 13.25275,-63.14788 14.48904,-64.40692 0.37766,-0.38461 4.80121,-1.90683 9.83041,-3.38274 14.4794,-4.24926 24.99336,-2.23616 29.67002,5.68079 0.96604,1.63536 2.08735,2.97346 2.49235,2.97346 1.18908,0 14.97891,-17.15144 17.04341,-21.19819 2.31727,-4.54221 3.74172,-9.98215 4.62504,-17.66404 L 261.25795,177.8 h 3.58273 3.58273 l -0.73329,6.35 c -1.79414,15.53517 -4.94312,22.0717 -17.86506,37.08352 -9.57635,11.12516 -19.90887,30.90118 -20.83594,39.87871 l -0.57722,5.58777 2.85099,-3.55586 c 6.38702,-7.9674 16.77557,-18.01169 27.8169,-26.89448 14.37131,-11.56178 22.76867,-20.29282 25.65115,-26.67072 2.54856,-5.63904 2.88979,-16.32734 0.83044,-26.01753 -0.69226,-3.25742 -1.10474,-6.06134 -0.91622,-6.23115 0.18852,-0.1698 1.76022,-0.61215 3.49281,-0.98288 l 3.15019,-0.67438 1.40974,7.92148 c 1.98506,11.15652 1.62878,20.93275 -1.01596,27.87375 -2.76155,7.24755 -11.19884,16.57637 -24.89977,27.53165 -12.36008,9.88313 -22.40839,19.48367 -29.01787,27.72389 l -4.90875,6.11952 0.67335,10.86911 c 0.49722,8.02583 1.10784,11.3036 2.33319,12.52895 1.53529,1.53529 1.949,1.10016 5.53041,-5.81308 5.63268,-10.87284 17.42144,-22.2212 37.915,-36.49803 22.52145,-15.68958 25.68404,-18.66466 30.56144,-28.75277 7.60053,-15.72043 8.739,-28.48145 3.93051,-44.04951 -3.55995,-11.52577 -8.71241,-17.8005 -16.52199,-20.1197 -6.77532,-2.01205 -9.61745,-1.91215 -29.63488,1.0418 -28.21184,4.16318 -46.26757,3.03572 -56.62962,-3.5357 -10.75809,-6.82258 -16.80852,-19.08579 -22.09994,-44.79365 -2.8848,-14.015548 -5.21822,-22.062387 -10.53011,-36.315099 -2.62397,-7.040557 -5.52563,-10.152099 -11.57862,-12.416813 z m 79.77911,21.570776 -3.15795,2.206067 c -1.73678,1.213399 -3.16587,2.663144 -3.17552,3.221509 -0.01,0.558364 3.76801,4.672797 8.39484,9.143628 6.10647,5.90059 10.91062,9.43729 17.52606,12.90205 5.01247,2.62523 9.43271,4.45387 9.82266,4.06384 0.38996,-0.39003 1.38723,-2.33316 2.21588,-4.31808 l 1.50637,-3.60857 -7.80366,-4.6948 c -4.29198,-2.58206 -11.74646,-7.89467 -16.56591,-11.805483 z m -12.81989,9.344649 -5.96036,4.112411 c -5.91996,4.085104 -5.95582,4.140434 -5.33146,8.202084 1.39109,9.04954 3.76246,14.09929 9.15138,19.48822 2.91728,2.91726 6.84802,5.77545 8.73487,6.35155 5.25101,1.60324 15.73264,0.60608 25.02069,-2.38022 10.96005,-3.52388 10.97645,-4.87353 0.12454,-10.12445 -10.49883,-5.08007 -18.17556,-10.76454 -25.71936,-19.04328 z m -45.7538,45.656125 c 1.87395,0.0206 2.2845,1.22705 2.86442,5.09427 0.98507,6.56885 5.9803,16.27802 10.76265,20.91913 5.83327,5.66099 13.10454,8.83839 26.08937,11.40034 l 11.05152,2.18023 -0.39998,3.42253 c -0.46929,4.01985 -0.23383,3.99735 -13.38522,1.29656 -23.09648,-4.74313 -36.34938,-16.74376 -41.01456,-37.13933 l -1.42833,-6.24613 3.03754,-0.60772 c 1.01036,-0.20207 1.79794,-0.32673 2.42259,-0.31988 z m -11.24221,23.07146 c 0.24608,0 2.06475,3.21151 4.04162,7.13704 6.53225,12.97132 16.04415,20.91013 31.03428,25.90229 4.43814,1.47804 8.06927,2.81041 8.06927,2.96054 0,1.23316 -2.37416,6.65907 -2.89336,6.61252 -0.36443,-0.0327 -3.86312,-1.32823 -7.77472,-2.87941 -12.48137,-4.94959 -18.1364,-8.3671 -24.38404,-14.73502 -5.27413,-5.37567 -13.71596,-18.71992 -13.71596,-21.68136 0,-0.81279 4.24485,-3.3166 5.62291,-3.3166 z" style="fill:#fff;stroke:none;stroke-width:4.23333;stroke-linecap:round;stroke-linejoin:round"/></svg>