<svg xmlns="http://www.w3.org/2000/svg" xml:space="preserve" width="4608" height="3072" viewBox="0 0 1219.2 812.79998"><path d="M 1219.2,812.79999 V 0 H 0 v 812.79999 z" style="display:inline;fill:#fff;fill-opacity:1;stroke:none;stroke-width:12.7;stroke-linecap:butt;stroke-miterlimit:128;stroke-dasharray:none;stroke-opacity:1;paint-order:stroke fill markers"/><path d="M 897.46666 0 L 897.46666 812.79999 L 1219.2 812.79999 L 1219.2 0 L 897.46666 0 z M 609.59999 166.89575 C 527.23698 166.89575 451.37461 210.78879 409.10939 282.85612 C 405.85819 289.90031 404.77445 305.07259 406.39999 318.07722 C 441.07913 234.6309 521.2765 180.44325 609.59999 180.44325 C 718.51423 180.44325 811.71645 259.01339 830.68159 367.38532 C 831.76523 378.22256 837.18502 382.55708 838.26872 385.2664 C 827.97338 261.72247 728.80947 166.89575 609.59999 166.89575 z M 817.13616 339.20978 C 808.46632 338.12605 804.67129 349.50465 804.67129 360.34182 C 804.67129 370.09533 805.75508 374.97246 807.38068 374.97246 L 808.4664 374.97246 C 809.0082 379.30732 800.87927 391.76983 800.87927 405.31634 C 800.87927 413.4443 803.04725 428.07349 805.75649 438.91067 C 808.46589 449.74786 811.17321 470.88154 813.88261 476.30012 C 816.59201 481.71867 817.67773 501.22543 817.67773 506.644 C 817.67773 512.06266 817.13381 525.06799 813.88261 532.11222 C 771.07555 605.26327 693.04671 650.23834 609.59999 650.23834 C 484.97182 650.23834 382.55845 548.90949 376.05611 419.40489 C 374.97237 417.23742 371.17825 405.85739 368.46898 405.85739 C 364.67591 405.85739 352.75549 432.95111 356.00669 452.45817 C 377.68109 578.71145 484.42995 670.82933 609.59999 670.82933 C 723.39103 670.82933 824.17942 594.96851 857.23294 483.88725 C 857.77484 481.17799 858.31674 479.55108 857.23294 479.55108 C 855.60734 479.55108 852.35694 490.38918 850.18944 490.38918 C 849.64754 490.38918 849.10423 490.38905 849.10423 487.67979 C 849.10423 484.97047 850.7296 482.2604 852.3552 479.55108 C 858.85754 468.714 868.6126 455.1678 868.6126 443.24684 C 868.6126 435.11902 865.36164 429.15749 865.36164 421.02959 C 865.36164 406.39936 875.65558 384.72494 875.65558 367.38532 C 875.65558 360.34115 870.23881 356.00646 867.52947 355.4646 C 868.07131 363.05071 868.61321 365.75956 867.52947 376.59665 C 865.90387 392.85247 855.066 406.39994 853.4404 419.94645 C 852.8986 425.36509 852.35661 433.49395 850.73101 433.49395 C 848.02171 433.49395 848.021 415.06925 842.6023 402.60643 C 837.18376 390.1436 831.22395 386.89209 826.88905 373.34568 C 824.72155 367.92709 825.26251 363.05088 822.01131 352.21364 L 817.13616 339.20978 z M 813.88261 345.71171 C 815.50821 345.71171 816.59252 346.79551 816.59252 348.42111 C 816.59252 353.8397 813.34297 353.29836 811.71737 363.05174 L 810.09059 362.51017 C 810.63249 352.21479 812.25701 345.71171 813.88261 345.71171 z M 819.30192 385.80797 L 820.38712 386.35212 L 819.30192 391.76833 C 819.30192 395.56134 824.17966 400.43878 824.17966 411.81775 C 824.17966 418.32013 817.67796 419.94725 817.13616 428.07516 C 817.13616 433.49377 816.59315 435.65971 815.50939 435.65971 C 814.42559 435.65971 814.42582 423.7408 812.25842 415.61287 C 810.63292 410.19423 810.09059 407.4841 810.09059 404.77477 C 810.09059 399.35616 815.50892 391.22661 819.30192 385.80797 z M 817.13616 394.47824 C 815.51056 397.18756 813.88379 399.35675 812.79999 403.69163 C 815.50939 403.14977 818.21943 403.14977 820.92869 403.69163 L 817.13616 394.47824 z M 821.47026 410.73513 C 819.84466 411.81886 817.13616 413.44453 814.42676 413.44453 L 816.05095 421.57323 C 817.13475 418.86391 821.47026 415.61191 821.47026 410.73513 z" style="display:inline;fill:#881000;fill-opacity:1;stroke:none;stroke-width:12.7;stroke-linecap:butt;stroke-miterlimit:128;stroke-dasharray:none;stroke-opacity:1;paint-order:stroke fill markers"/><path d="M 0 0 L 0 812.79999 L 321.73333 812.79999 L 321.73333 0 L 0 0 z M 609.59999 141.97118 C 495.80907 141.97118 395.02057 217.83211 361.96705 328.91325 C 361.42519 331.62257 360.88332 333.24942 361.96705 333.24942 C 363.59265 333.24942 366.84309 322.41132 369.01055 322.41132 C 369.55242 322.41132 370.09575 322.4114 370.09575 325.12072 C 370.09575 327.83004 368.47039 330.54015 366.84479 333.24942 C 360.34239 344.08665 350.58738 357.63272 350.58738 369.55367 C 350.58738 377.68153 353.83835 383.64302 353.83835 391.77091 C 353.83835 406.4012 343.5444 428.07565 343.5444 445.41518 C 343.5444 452.45941 348.96119 456.79404 351.67052 457.3359 C 351.12866 449.74987 350.58679 447.04094 351.67052 436.20386 C 353.29612 419.94807 364.13398 406.40003 365.75958 392.85354 C 366.30144 387.4349 366.84338 379.30604 368.46898 379.30604 C 371.17824 379.30604 371.17908 397.73074 376.59768 410.19356 C 382.01628 422.65637 387.97606 425.90792 392.31093 439.45431 C 394.47839 444.87289 393.93747 449.74964 397.18867 460.58687 L 402.06383 473.59072 C 410.73362 474.67445 414.5287 463.29532 414.5287 452.45817 C 414.5287 442.70461 413.44432 437.82805 411.81879 437.82805 L 410.73358 437.82805 C 410.21969 433.71697 417.42339 422.2789 418.17705 409.55587 L 566.65894 449.34104 L 556.00223 409.56931 L 588.86069 418.37394 L 564.87456 507.89251 L 609.59999 495.90823 L 609.59999 609.59999 L 652.54104 449.34104 L 612.76931 459.99776 L 621.57394 427.13878 L 711.09302 451.12543 L 699.10874 406.39999 L 800.93715 406.39999 C 800.93102 406.07413 800.87927 405.62414 800.87927 405.31634 C 800.87927 404.61669 800.98188 403.93699 801.02293 403.24412 L 652.54104 363.45895 L 663.19775 403.23068 L 630.33878 394.42605 L 654.32543 304.90697 L 609.59999 316.89125 L 609.59999 203.2 L 566.65894 363.45895 L 606.43068 352.80223 L 597.62605 385.66069 L 508.10748 361.67456 L 520.09176 406.39999 L 418.26284 406.39999 C 418.10704 398.12023 416.05017 384.31636 413.44349 373.88984 C 410.73423 363.05266 408.0267 341.91896 405.31737 336.50039 C 402.6081 331.08179 401.52226 311.5751 401.52226 306.1565 C 401.52226 300.73793 402.06624 287.73242 405.31737 280.68829 C 448.12441 207.53725 526.15339 162.56165 609.59999 162.56165 C 734.22805 162.56165 836.64154 263.89071 843.14387 393.3951 C 844.22767 395.56256 848.02171 406.9426 850.73101 406.9426 C 854.04984 406.9426 863.59125 386.2005 863.74675 367.94653 C 863.76905 365.3388 863.5995 362.78022 863.1933 360.34182 C 841.51884 234.08871 734.76985 141.97118 609.59999 141.97118 z M 403.6906 377.1408 C 404.77433 377.1408 404.77414 389.05971 406.94156 397.18764 C 408.56702 402.60623 409.10939 405.31641 409.10939 408.02574 C 409.10939 413.44433 403.69109 421.57338 399.89807 426.99202 L 398.81286 426.44838 L 399.89807 421.03166 C 399.89807 417.2386 395.02033 412.36121 395.02033 400.98224 C 395.02033 394.47987 401.52196 392.85326 402.06383 384.72535 C 402.06383 379.3067 402.60686 377.1408 403.6906 377.1408 z M 403.14903 391.22728 C 402.06529 393.9366 397.72972 397.1886 397.72972 402.06538 C 399.35532 400.98165 402.06389 399.35546 404.77322 399.35546 L 403.14903 391.22728 z M 398.27129 409.10836 L 402.06383 418.32226 C 403.68938 415.61299 405.31631 413.44322 406.39999 409.10836 C 403.69071 409.65022 400.98062 409.65022 398.27129 409.10836 z M 380.93127 427.53359 C 391.22667 551.07743 490.39055 645.90475 609.59999 645.90475 C 691.96283 645.90475 767.82554 602.01166 810.09059 529.94439 C 812.52899 524.66123 813.74886 514.80693 813.52036 504.72319 C 813.44416 501.36195 813.20629 497.97392 812.79999 494.72277 C 778.1209 578.16908 697.92326 632.35726 609.59999 632.35726 C 500.6858 632.35726 407.48345 553.78713 388.5184 445.41518 C 387.43467 434.57795 382.01494 430.2429 380.93127 427.53359 z M 407.48262 449.74877 L 409.10939 450.29034 C 408.56753 460.58571 406.94297 467.0888 405.31737 467.0888 C 403.69183 467.0888 402.60746 466.005 402.60746 464.3794 C 402.60746 458.96082 405.85702 459.50213 407.48262 449.74877 z" style="opacity:1;fill:#000030;fill-opacity:1;stroke:none;stroke-width:1.00012;stroke-linecap:round;stroke-linejoin:round;stroke-miterlimit:128;stroke-dasharray:none;stroke-opacity:1;paint-order:stroke fill markers"/></svg>