<svg xmlns="http://www.w3.org/2000/svg" xml:space="preserve" width="4608" height="3072" viewBox="0 0 1219.2 812.79998"><path d="M 0 0 L 0 812.79999 L 1219.2 812.79999 L 1219.2 0 L 0 0 z" style="fill:#fff;fill-opacity:1;stroke:none;stroke-width:12.7;stroke-linecap:butt;stroke-miterlimit:128;stroke-dasharray:none;stroke-opacity:1;paint-order:stroke fill markers"/><path d="M 0 0 L 0 812.79999 L 304.8 812.79999 L 304.8 0 L 0 0 z M 617.70854 135.79068 A 270.93329 270.93332 45 0 0 418.19566 214.99566 C 312.3899 320.80138 312.38991 492.34743 418.19566 598.15315 C 421.38935 601.09263 424.65347 603.95497 427.98472 606.73763 C 320.43055 480.89356 361.77633 319.78839 442.14303 238.94303 A 237.06665 237.06667 45 0 1 777.40577 238.94303 A 237.06665 237.06667 45 0 1 808.1057 536.4086 A 270.93329 270.93332 45 0 0 785.99026 200.83735 A 270.93329 270.93332 45 0 0 617.70854 135.79068 z M 609.59999 203.2 L 561.78844 370.5412 L 609.59999 346.63517 L 598.68903 387.55257 L 490.07034 358.58844 L 513.97637 406.39999 L 406.39999 406.39999 L 573.7412 454.21155 L 549.83517 406.39999 L 590.75256 417.31096 L 561.78844 525.92965 L 609.59999 502.02361 L 609.59999 609.59999 L 657.41154 442.25879 L 609.59999 466.16482 L 620.51095 425.24742 L 729.12913 454.21155 L 705.22361 406.39999 L 812.79999 406.39999 L 645.45879 358.58844 L 669.36482 406.39999 L 628.4469 395.48903 L 657.41154 286.87034 L 609.59999 310.77638 L 609.59999 203.2 z" style="fill:#103070;fill-opacity:1;stroke:none;stroke-width:12.7;stroke-linecap:butt;stroke-miterlimit:128;stroke-dasharray:none;stroke-opacity:1;paint-order:stroke fill markers"/><path d="M 914.39999 0 L 914.39999 812.79999 L 1219.2 812.79999 L 1219.2 0 L 914.39999 0 z M 791.92943 206.04582 L 790.94138 207.03387 C 898.51886 332.8628 857.01978 493.91475 777.40577 574.20577 A 237.06665 237.06667 45 0 1 442.14303 574.20577 A 237.06665 237.06667 45 0 1 442.14303 238.94303 A 270.93329 270.93332 45 0 0 427.98472 606.73763 A 270.93329 270.93332 45 0 0 801.35314 598.15315 C 907.15901 492.3473 907.159 320.80147 801.35314 214.99566 C 798.28381 211.93762 795.14171 208.95334 791.92943 206.04582 z" style="fill:#b00020;fill-opacity:1;stroke:none;stroke-width:12.7;stroke-linecap:butt;stroke-miterlimit:128;stroke-dasharray:none;stroke-opacity:1;paint-order:stroke fill markers"/></svg>