<svg xmlns="http://www.w3.org/2000/svg" xml:space="preserve" width="4608" height="3072" viewBox="0 0 1219.2 812.79998"><path d="M 0 0 L 0 812.79999 L 1219.2 812.79999 L 1219.2 0 L 0 0 z" style="fill:#fff;fill-opacity:1;stroke:none;stroke-width:12.7;stroke-linecap:butt;stroke-miterlimit:128;stroke-dasharray:none;stroke-opacity:1;paint-order:stroke fill markers"/><path d="M 0,0 V 812.79999 H 304.8 V 0 Z" style="fill:#002153;fill-opacity:1;stroke:none;stroke-width:12.7;stroke-linecap:butt;stroke-miterlimit:128;stroke-dasharray:none;stroke-opacity:1;paint-order:stroke fill markers"/><path d="M 914.39994,-1.1362305e-5 V 812.79998 H 1219.1999 V -1.1362305e-5 Z" style="fill:#cf0821;fill-opacity:1;stroke:none;stroke-width:12.7;stroke-linecap:butt;stroke-miterlimit:128;stroke-dasharray:none;stroke-opacity:1;paint-order:stroke fill markers"/><path d="m 609.59999,203.19999 -47.81175,167.34116 47.81175,-23.90586 -10.91114,40.91751 -108.61826,-28.96459 23.90586,47.81177 H 406.39998 l 167.34119,47.81175 -23.90589,-47.81175 40.91751,10.91116 -28.96455,108.61827 47.81175,-23.9059 v 107.57648 l 47.81176,-167.34119 -47.81176,23.90589 10.91114,-40.91751 108.61824,28.96455 -23.90587,-47.81175 h 107.57651 l -167.3412,-47.81177 23.9059,47.81177 -40.91755,-10.91114 28.96459,-108.61827 -47.81176,23.90589 z" style="fill:#002153;fill-opacity:1;stroke:none;stroke-width:8.46671;stroke-miterlimit:128;paint-order:stroke fill markers"/><path d="M 596.60802 136.31829 A 270.93329 270.93332 0 0 0 338.66666 406.39999 C 338.66665 556.03221 459.9678 677.33334 609.59999 677.33332 C 613.9327 677.32533 618.26461 677.21395 622.59196 676.99846 L 622.59196 675.60061 C 457.54854 662.69487 373.01205 519.47003 372.53333 406.39999 A 237.06665 237.06667 0 0 1 609.59999 169.33333 A 237.06665 237.06667 0 0 1 846.66666 406.39999 A 270.93329 270.93332 0 0 0 596.60802 136.31829 z" style="display:inline;fill:#cf0821;fill-opacity:1;stroke-width:1.05833;stroke-miterlimit:128"/><path d="M 609.59999 135.46666 C 605.26315 135.64642 600.93123 135.93038 596.60802 136.31829 C 761.64584 149.25123 846.3282 292.40562 846.66666 406.39999 A 237.06665 237.06667 0 0 1 609.59999 643.46666 A 237.06665 237.06667 0 0 1 372.53333 406.39999 A 270.93329 270.93332 0 0 0 630.47469 676.4817 A 270.93329 270.93332 0 0 0 880.53332 406.39999 C 880.53333 256.76778 759.23218 135.46665 609.59999 135.46666 z" style="fill:#002153;fill-opacity:1;stroke-width:1.05833;stroke-miterlimit:128"/></svg>