<svg xmlns="http://www.w3.org/2000/svg" xml:space="preserve" id="svg1" width="4608" height="3072" version="1.1" viewBox="0 0 1219.2 812.8"><defs id="defs1"><style id="style1">.cls-1{fill:#0283c0}.cls-2{fill:#fff}.cls-3{fill:#ef483f}.st0{fill:#1a58a8}.st2{fill:none;stroke:#000;stroke-width:2;stroke-linecap:round;stroke-linejoin:round;stroke-miterlimit:10}</style></defs><path id="rect1" d="M 1219.2,812.8 V 0 H 0 v 812.8 z" style="fill:#2060c0;fill-opacity:1;fill-rule:evenodd;stroke:none;stroke-width:8.46667;stroke-linecap:round;stroke-linejoin:round"/><path id="path14" d="m 612.20382,379.3957 c 3.46884,-0.11563 13.29719,-12.48831 21.50675,-13.41338 8.20958,-0.92505 16.53477,-6.59105 16.07226,-13.76026 -0.23126,-3.70024 4.50947,-7.28484 14.80034,-18.26994 10.29086,-10.98508 9.25021,-23.24213 12.60342,-26.47984 6.93766,-6.47542 2.65944,10.40693 4.972,10.75383 2.31254,0.34689 22.89427,-13.29774 31.79761,-28.67687 8.90333,-15.37912 9.01896,-52.49715 13.64407,-51.45646 4.6251,1.04069 4.27822,4.85657 6.93766,7.86301 2.65944,3.00644 18.3848,0.11563 19.07856,-20.00442 0.69377,-20.12006 -2.5438,-18.73247 5.31889,-24.16719 7.86267,-5.43473 4.97198,-9.71313 -0.57815,-20.35132 -5.55013,-10.6382 3.00632,-18.73247 9.71273,-19.88879 6.70641,-1.15633 13.87532,-10.17567 9.25022,-30.98952 -4.62511,-20.81384 5.20324,-21.85453 7.28454,-15.03222 2.0813,6.82232 4.04697,20.58258 10.40649,19.77316 6.35952,-0.80943 8.20957,-15.72602 10.98463,-22.0858 2.77506,-6.3598 8.44082,-13.06648 17.92229,-11.33199 9.59711,1.61886 14.80035,4.50966 13.29719,20.69821 -1.50316,16.18855 -11.56277,29.02376 -12.60342,35.03665 -1.04065,6.01289 4.1626,11.10072 7.05329,13.41337 2.8907,2.31266 5.20324,7.51612 3.81572,15.03222 -1.38754,7.51612 -4.62511,11.67889 -11.6784,15.72603 -7.05329,4.04713 -15.14723,10.17566 -13.18156,22.31707 1.96567,12.14141 9.82836,12.25704 18.26918,8.78807 8.44082,-3.46898 21.04423,-2.65954 17.57541,3.35334 -3.46883,6.01289 -6.82204,5.3191 -15.841,9.94439 -9.01895,4.62531 -2.89069,7.97865 -5.08762,14.5697 -2.19692,6.59105 -15.95662,10.86946 -28.09753,10.52256 -12.14091,-0.34689 -18.96294,7.40048 -18.96294,12.71957 0,5.3191 5.66576,7.51612 12.02528,8.67244 6.35952,1.15633 6.82203,10.2913 -0.34688,15.37913 -7.16892,5.08782 -19.65671,7.05358 -30.64134,8.09427 -10.98463,1.04069 -23.47242,7.51612 -26.59437,13.41338 -3.12194,5.89725 -3.23757,12.71956 -6.82203,15.03222 -3.58447,2.31264 -7.97832,4.04713 -14.45347,0.69379 -6.47515,-3.35334 -10.52212,1.73449 -12.25653,6.93795 -1.73442,5.20347 -10.75337,15.61039 -30.98823,16.76671 -20.23484,1.15632 -39.66029,10.75383 -42.89787,14.5697 -3.23757,3.81587 -10.29086,26.13294 -6.47515,37.11803 3.81572,10.98509 6.35952,12.71958 5.20324,18.8481 -1.15627,6.12852 3.12195,13.529 5.20325,16.41982 2.0813,2.89081 6.12827,9.13496 2.31255,15.37912 -3.8157,6.24416 4.39386,15.95729 4.39386,15.95729 0,0 3.81572,7.28484 -3.23758,12.71956 -7.05328,5.43474 -1.15628,12.71958 1.50317,15.03224 2.65943,2.31264 3.23757,8.90369 3.23757,12.37267 0,3.46897 1.38754,3.12208 4.27823,5.20346 2.89068,2.08139 3.46883,8.90371 3.70008,12.14141 0.23125,3.23772 4.39385,4.27841 8.09394,5.55036 3.70009,1.38759 8.44082,6.59106 3.12195,14.10717 -5.43451,7.51612 5.66576,26.71111 6.93766,34.34286 1.2719,7.63174 -3.12194,18.84809 -10.29087,16.53544 -7.16891,-2.19702 -17.69103,-15.61039 -18.96294,-5.31909 -1.2719,10.29129 11.44714,26.01731 13.29718,32.37709 1.96568,6.3598 2.0813,20.46696 -5.55012,19.8888 -7.74706,-0.57816 -1.61879,6.24416 -2.08131,9.82876 -0.4625,3.58461 -4.39384,4.74094 -10.17523,2.89081 -5.78139,-1.96574 -3.93133,17.46052 -4.62511,23.4734 -0.69376,6.01289 -5.55013,17.11361 -16.65038,10.98508 -11.10026,-6.12851 -15.26286,-43.36217 -25.20684,-38.38998 -9.94398,4.97219 -14.22221,5.20346 -12.25654,-3.46898 1.96567,-8.67243 -2.77506,-10.17565 -7.9783,-6.70668 -5.20326,3.46898 -12.83469,0.23126 -7.5158,-16.41982 5.4345,-16.53544 16.76601,-19.31062 14.56908,-30.64261 -2.19693,-11.33199 -12.14091,-6.59105 -15.95662,-3.12208 -3.81572,3.46898 -9.48147,0.92507 -4.50948,-9.9444 4.97199,-10.86945 2.0813,-11.21635 9.71273,-19.54189 7.51579,-8.32554 -0.92502,-11.79451 0,-18.73246 0.92502,-6.93795 4.85636,-10.17566 10.63774,-12.48831 5.78139,-2.31265 13.87532,-11.56325 11.33152,-19.42626 -2.54381,-7.86301 -7.5158,-8.9037 -12.9503,-8.09428 -5.4345,0.80943 -12.4878,-3.2377 -4.972,-10.63819 7.5158,-7.28485 15.26286,-5.78162 20.58173,-9.48186 5.4345,-3.70025 4.62511,-8.67244 4.62511,-12.37268 0,-3.70024 7.86269,-7.28485 10.98464,-10.63819 3.12194,-3.23771 3.46883,-9.01933 -1.38754,-8.44118 -4.85636,0.57817 -6.59078,-3.81587 -1.96567,-8.32554 4.62511,-4.39403 7.5158,-6.59104 8.32519,-11.56324 0.80939,-4.9722 -6.59078,-2.89081 -1.15628,-8.67244 5.43451,-5.78162 4.85637,-10.63819 2.0813,-11.79452 -2.65943,-1.15632 -4.04696,-2.65954 -1.96567,-6.70668 2.0813,-4.04714 3.81572,-11.21635 3.70009,-16.99798 -0.23125,-5.78163 -0.34688,-9.9444 -6.01264,-16.07291 -5.66575,-6.12853 -11.33151,-12.25706 -26.82563,-15.49476 -15.37848,-3.23771 -29.71631,-1.50322 -39.89155,-6.01289 -10.17524,-4.39404 -2.0813,-13.29774 -10.17524,-17.11362 -8.09393,-3.81587 -22.66303,2.19703 -28.09753,0.57817 -5.4345,-1.61886 -6.59077,-12.83521 -5.55012,-16.76671 1.15628,-3.9315 -13.87533,-11.56325 -31.21949,-9.13496 -17.34414,2.42828 -44.51665,-5.78163 -27.75064,-21.04512 16.76602,-15.26349 1.38754,-21.73892 -9.01895,-23.35777 -10.4065,-1.50323 -30.98823,2.89081 -30.8726,-10.52256 0.11562,-13.41336 -9.94399,-9.01934 -14.10658,-12.48831 -5.08762,-4.2784 -3.93134,-10.17566 -0.57814,-13.18211 6.12827,-5.55036 28.90692,4.97221 27.05688,-9.13496 -1.96568,-14.10716 -3.23757,-14.33843 -10.869,-20.12006 -7.63143,-5.78162 -4.74074,-7.863 -10.17524,-18.03867 -5.4345,-10.17566 -3.93134,-19.31062 -1.15628,-22.31707 2.77507,-3.12208 3.23758,-12.14141 -3.12195,-17.57614 -6.35952,-5.43472 -11.79402,-33.18652 0,-41.28081 11.79403,-8.09427 27.98191,23.47341 33.53204,29.48629 5.55013,6.0129 9.71272,6.12853 8.90333,-9.59749 -0.80939,-15.72603 14.45346,-18.73246 14.68471,-2.42828 0.23126,16.30418 -7.63142,28.21433 1.27191,34.92101 8.90334,6.70669 9.01896,5.08783 14.80034,5.55036 5.78139,0.46254 11.21589,9.2506 1.38754,18.50121 -9.82836,9.25059 -1.50317,18.73246 3.23757,18.84809 4.62511,0.11563 13.06593,9.48186 10.98464,22.89524 -2.0813,13.41336 5.55013,22.89523 10.52211,22.89523 4.972,0 9.25022,-11.33199 16.99727,1.85012 7.74706,13.06648 5.78139,38.73689 21.96927,52.95969 16.18787,14.2228 26.36311,23.93593 24.28182,11.79452 -2.0813,-12.14142 5.78137,-12.95085 7.74704,0.92505 1.96568,13.8759 7.28456,14.45407 13.87534,15.37913 6.59078,0.92505 9.59709,9.01932 10.75337,13.64463 1.15628,4.6253 12.9503,15.37912 20.23484,17.34488 7.16892,2.31264 14.45347,6.82231 17.92229,6.70668 z" style="fill:#a0c0c0;fill-opacity:1;stroke:none;stroke-width:.264578;stroke-linecap:round;stroke-linejoin:round;stroke-miterlimit:10"/><path id="path50" d="m 477.38193,560.24493 c -5.31887,0 -10.40648,-0.80942 -15.37848,-2.54391 -14.10658,-4.74093 -25.78498,-16.30418 -31.45074,-30.98952 -5.08761,-13.1821 -4.27822,-27.28926 1.96568,-38.38998 l 0.8094,-1.50323 -1.6188,-0.23126 c -18.15354,-2.65955 -35.15081,-16.18855 -42.08848,-33.64906 -6.82202,-16.88235 -3.58445,-34.92102 8.78771,-50.99393 12.83467,-16.53545 30.52571,-24.5141 53.8825,-24.5141 19.30983,0 38.96654,5.3191 56.19506,10.06003 1.61879,0.46254 3.12195,0.80944 4.74074,1.27196 13.64406,3.70025 29.71631,5.66599 45.21043,5.66599 24.62869,0 42.89787,-4.85656 48.91052,-13.06647 l 0.23125,-0.34689 v -0.46254 c -3.3532,-28.0987 -15.0316,-39.54631 -46.48233,-70.30456 l -5.66576,-5.55036 c -22.31614,-21.97017 -35.72896,-50.06887 -35.72896,-75.27676 0,-16.53544 5.78139,-30.9895 16.88164,-41.85896 9.01896,-8.9037 19.19421,-13.41337 30.29446,-13.41337 20.81298,0 38.73527,16.07291 42.08848,20.00443 l 0.8094,0.92505 1.61878,-1.61885 c 15.49412,-15.72603 30.64134,-23.70467 45.0948,-23.70467 10.17524,0 19.88797,4.04714 28.7913,12.14141 11.6784,10.52257 17.80666,25.55479 17.92229,43.36219 0.11563,26.59548 -13.41281,57.93189 -32.95389,76.08619 -28.90693,26.94237 -49.71991,56.31302 -51.56996,72.9641 l -0.11563,0.6938 0.57815,0.3469 c 9.25021,5.666 28.90692,15.14786 56.31069,15.14786 14.91597,0 30.41008,-2.77518 45.90419,-8.32554 12.83467,-4.6253 27.05688,-7.05358 41.27908,-7.05358 37.00087,0 77.12368,17.22924 77.70181,55.1567 0.34689,19.88879 -6.93765,34.45849 -21.50675,43.24655 -10.98463,6.59106 -22.08488,7.28485 -22.20051,7.28485 l -1.50316,0.11563 0.46251,1.38759 c 0.11563,0.46254 14.68472,44.51852 -17.1129,63.94478 -7.5158,4.6253 -16.76601,7.05358 -26.82563,7.05358 v 0 c -31.45073,0 -70.18601,-24.28282 -80.70812,-77.47377 -13.87533,-69.49513 -52.6106,-87.41818 -52.95749,-87.5338 l -0.46251,-0.23127 -0.46251,0.11563 c -1.61879,0.57816 -41.27909,14.91659 -63.71086,89.49955 -22.08489,74.58297 -60.47328,82.56161 -75.9674,82.56161 z" style="fill:#d0b020;fill-opacity:1;stroke:none;stroke-width:.264578;stroke-linecap:round;stroke-linejoin:round;stroke-miterlimit:10"/></svg>