<svg xmlns="http://www.w3.org/2000/svg" xml:space="preserve" id="svg1" width="4608" height="3072" version="1.1" viewBox="0 0 1219.2 812.8"><defs id="defs1"><style id="style1">.cls-1{fill:#0283c0}.cls-2{fill:#fff}.cls-3{fill:#ef483f}</style></defs><path id="rect1" d="M 0 0 L 0 812.8 L 1219.2 812.8 L 1219.2 0 L 0 0 z" style="fill:#000;fill-rule:evenodd;stroke:none;stroke-width:8.46667;stroke-linecap:round;stroke-linejoin:round;fill-opacity:1"/><g id="g1" style="stroke-width:.777778" transform="matrix(1.2857143,0,0,1.2857143,283.02855,58.057146)"><path id="path19" d="M 253.99999,33.866666 C 141.77621,33.86666 50.799991,124.84284 50.799999,237.06666 h 8.466666 C 59.266661,129.51885 146.45218,42.333329 253.99999,42.333332 a 228.59999,228.59999 0 0 1 228.6,228.599998 228.59999,228.59999 0 0 1 -228.6,228.59999 v 8.46667 A 237.06667,237.06667 0 0 0 491.06666,270.93333 237.06667,237.06667 0 0 0 253.99999,33.866666 Z m 0,67.733334 a 135.46666,135.46666 0 0 0 -8.46666,0.555 v 8.51731 a 160.86667,160.86667 0 0 1 8.46666,-0.60565 160.86667,160.86667 0 0 1 156.84211,127 h 9.03097 A 169.33333,169.33333 0 0 0 253.99999,101.6 Z m 0,67.73333 a 67.73333,67.73333 0 0 0 -8.46666,0.555 v 8.52145 A 59.266666,59.266663 0 0 1 253.99999,177.8 Z m 0,67.73333 v 8.46667 a 25.399992,25.39999 0 0 1 25.4,25.4 25.399992,25.39999 0 0 1 -25.4,25.4 59.266666,59.266663 0 0 1 -8.46666,-0.60978 v 8.52144 a 67.73333,67.73333 0 0 0 8.46666,0.555 33.866653,33.86665 0 0 0 33.86667,-33.86666 33.866653,33.86665 0 0 0 -33.86667,-33.86667 z m -8.46666,126.39435 v 8.51731 a 135.46666,135.46666 0 0 0 8.46666,0.55501 v -8.46667 a 127,127 0 0 1 -8.46666,-0.60565 z" style="display:inline;fill:#fff;fill-opacity:1;stroke:none;stroke-width:3.29259;stroke-linecap:round;stroke-linejoin:round;stroke-miterlimit:128;stroke-dasharray:none;stroke-opacity:1"/><path id="path18" d="m 237.06666,84.666665 v 18.043345 c -67.71531,8.53132 -118.50939,66.10604 -118.53333,134.35665 0.0239,68.25061 50.81802,125.82533 118.53333,134.35666 v 18.04334 h 8.46667 v -59.26667 h -8.46667 v 15.09314 c -53.40655,-8.31475 -92.87305,-54.17717 -93.13333,-108.22647 0.28886,-54.02713 39.74851,-99.85685 93.13333,-108.16807 v 15.03474 h 8.46667 V 84.666665 Z m 0,71.966665 v 14.88901 c -29.89172,7.71801 -50.78259,34.67229 -50.8,65.54432 0.0174,30.87203 20.90828,57.82632 50.8,65.54432 v 19.12235 h 8.46667 v -59.26667 h -8.46667 v 13.16302 c -15.34912,-6.69859 -25.30648,-21.81614 -25.4,-38.56302 0.0935,-16.74688 10.05088,-31.86443 25.4,-38.56302 V 215.9 h 8.46667 v -59.26667 z m 16.93333,0 V 215.9 h 8.46667 v -20.67885 c 38.56122,4.31129 67.72519,36.9107 67.73333,75.71218 0,42.08394 -34.11606,76.2 -76.2,76.2 v 25.4 l 54.32589,31.36501 c -17.22708,7.14089 -35.67771,10.86605 -54.32589,10.96832 C 159.25194,414.65139 81.317229,340.17415 76.805646,245.53333 h 16.327685 v -8.46667 H 33.866666 v 8.46667 h 17.488338 c 4.532477,108.68975 93.860966,194.53067 202.644986,194.73333 93.52013,0 169.33333,-75.81321 169.33333,-169.33333 -0.0133,-8.50376 -0.66711,-16.99447 -1.95595,-25.4 h 14.65595 v -8.46667 h -59.26666 v 8.46667 h 18.64899 c 1.58977,8.37539 2.4323,16.87549 2.51767,25.4 -0.086,47.64553 -23.74457,92.16117 -63.18632,118.89041 l -42.79635,-24.70857 c 38.43655,-15.47748 63.62317,-52.74608 63.64934,-94.18184 -0.004,-52.82653 -40.49055,-96.83659 -93.13333,-101.23878 v -13.06122 z" style="display:inline;fill:#00c050;fill-opacity:1;stroke:none;stroke-width:3.29259;stroke-linecap:round;stroke-linejoin:round;stroke-miterlimit:128;stroke-dasharray:none;stroke-opacity:1"/></g></svg>