<svg xmlns="http://www.w3.org/2000/svg" xml:space="preserve" id="svg1" width="4608" height="3072" version="1.1" viewBox="0 0 1219.2 812.8"><defs id="defs1"><style id="style1">.cls-1{fill:#0283c0}.cls-2{fill:#fff}.cls-3{fill:#ef483f}</style></defs><path id="rect1" d="M 0 0 L 0 812.8 L 1219.2 812.8 L 1219.2 0 L 0 0 z" style="fill:#000;fill-rule:evenodd;stroke:none;stroke-width:8.46667;stroke-linecap:round;stroke-linejoin:round;fill-opacity:1"/><path id="path19" d="m 609.59997,101.6 c -144.28772,0 -261.25715,116.96937 -261.25713,261.25714 h 10.88571 C 359.22854,224.58138 471.32421,112.48571 609.59997,112.48572 A 293.91428,293.91428 0 0 1 903.51426,406.4 293.91428,293.91428 0 0 1 609.59997,700.31428 V 711.2 A 304.80001,304.80001 0 0 0 914.39998,406.4 304.80001,304.80001 0 0 0 609.59997,101.6 Z m 0,87.08572 a 174.17142,174.17142 0 0 0 -10.88571,0.71357 v 10.95083 a 206.82858,206.82858 0 0 1 10.88571,-0.7787 206.82858,206.82858 0 0 1 201.65414,163.28572 h 11.61125 A 217.71428,217.71428 0 0 0 609.59997,188.68572 Z m 0,87.08571 a 87.085711,87.085711 0 0 0 -10.88571,0.71357 v 10.95615 a 76.2,76.199996 0 0 1 10.88571,-0.784 z m 0,87.08571 v 10.88572 a 32.657133,32.65713 0 0 1 32.65714,32.65714 32.657133,32.65713 0 0 1 -32.65714,32.65715 76.2,76.199996 0 0 1 -10.88571,-0.78401 v 10.95614 a 87.085711,87.085711 0 0 0 10.88571,0.71357 A 43.54284,43.542836 0 0 0 653.14283,406.4 43.54284,43.542836 0 0 0 609.59997,362.85714 Z m -10.88571,162.50702 v 10.95083 a 174.17142,174.17142 0 0 0 10.88571,0.71359 v -10.88572 a 163.28572,163.28572 0 0 1 -10.88571,-0.7787 z" style="display:inline;fill:#fff;fill-opacity:1;stroke:none;stroke-width:4.23333;stroke-linecap:round;stroke-linejoin:round;stroke-miterlimit:128;stroke-dasharray:none;stroke-opacity:1"/><path id="path18" d="m 587.82854,166.91429 v 23.19858 c -87.06254,10.96884 -152.36921,84.99349 -152.39999,172.74427 0.0307,87.75079 65.33745,161.77543 152.39999,172.74428 V 558.8 h 10.88572 v -76.2 h -10.88572 v 19.40546 C 519.16298,491.31507 468.42034,432.3491 468.08569,362.85714 468.45708,293.39369 519.19092,234.46976 587.82854,223.78391 v 19.33038 h 10.88572 v -76.2 z m 0,92.52857 v 19.14301 c -38.43221,9.92316 -65.2919,44.57866 -65.31428,84.27127 0.0224,39.69261 26.88207,74.34813 65.31428,84.27127 v 24.58588 h 10.88572 v -76.20001 h -10.88572 v 16.92389 c -19.73458,-8.61248 -32.5369,-28.04933 -32.65714,-49.58103 0.12022,-21.5317 12.92256,-40.96855 32.65714,-49.58103 v 22.36675 h 10.88572 v -76.2 z m 21.77143,0 v 76.2 h 10.88572 v -26.58709 c 49.57871,5.54309 87.07524,47.45662 87.08571,97.34423 0,54.10793 -43.86351,97.97143 -97.97143,97.97143 v 32.65715 l 69.84757,40.32644 c -22.1491,9.18114 -45.87134,13.97063 -69.84757,14.10212 -121.81892,-0.27677 -222.0207,-96.03322 -227.8213,-217.71428 h 20.99274 v -10.88572 h -76.2 v 10.88572 h 22.485 c 5.82747,139.74397 120.67839,250.11086 260.54356,250.37143 120.24017,0 217.71428,-97.47413 217.71428,-217.71429 -0.0171,-10.9334 -0.85771,-21.85003 -2.51479,-32.65714 h 18.84336 v -10.88572 h -76.19999 v 10.88572 h 23.97728 c 2.04399,10.76836 3.12724,21.69706 3.237,32.65714 -0.11057,61.25854 -30.52873,118.49294 -81.23956,152.8591 L 658.39368,527.49094 C 707.8121,507.59132 740.1949,459.67455 740.22854,406.4 740.2234,338.48018 688.16926,281.89581 620.48569,276.23586 v -16.793 z" style="display:inline;fill:#00c050;fill-opacity:1;stroke:none;stroke-width:4.23333;stroke-linecap:round;stroke-linejoin:round;stroke-miterlimit:128;stroke-dasharray:none;stroke-opacity:1"/></svg>