<svg xmlns="http://www.w3.org/2000/svg" xml:space="preserve" id="svg1" width="4608" height="3072" version="1.1" viewBox="0 0 1219.2 812.8"><defs id="defs1"><style id="style1">.st0{fill:#000}.cls-1{fill:#0283c0}.cls-2{fill:#fff}.cls-3{fill:#ef483f}</style></defs><path id="path3" d="M 1219.2,812.8 V 0 H 0 v 812.8 z" style="fill:#000;fill-opacity:1;fill-rule:evenodd;stroke:none;stroke-width:8.46667;stroke-linecap:round;stroke-linejoin:round"/><path id="path1" d="M 609.6 101.6 L 899.35957 312.12255 A 304.80001 304.80001 0 0 0 609.6 101.6 z M 609.6 101.6 A 304.80001 304.80001 0 0 0 320.44556 311.68278 L 609.6 101.6 z M 498.42901 253.67651 L 541.10341 384.6127 L 430.23265 465.25894 L 567.38759 465.25894 L 609.77053 595.3001 L 652.15296 465.25894 L 789.30789 465.25894 L 678.43714 384.6127 L 721.11154 253.67651 L 609.77053 334.66484 L 498.42901 253.67651 z M 899.43606 312.35354 L 789.15648 651.75815 A 304.80001 304.80001 0 0 0 914.4 406.4 A 304.80001 304.80001 0 0 0 899.43606 312.35354 z M 319.96497 312.97159 A 304.80001 304.80001 0 0 0 304.8 406.4 A 304.80001 304.80001 0 0 0 430.04352 651.75815 L 319.96497 312.97159 z M 563.00594 342.52741 L 609.77157 376.54291 L 656.53305 342.52948 L 638.6096 397.52147 L 685.17575 431.39279 L 627.57048 431.39279 L 609.77157 486.00806 L 591.97059 431.39279 L 534.36532 431.39279 L 580.92992 397.52147 L 563.00594 342.52741 z M 431.68631 652.98805 A 304.80001 304.80001 0 0 0 609.6 711.2 A 304.80001 304.80001 0 0 0 787.51369 652.98805 L 431.68631 652.98805 z" style="fill:#b00020;fill-opacity:1;stroke:none;stroke-width:67.73333333;stroke-linecap:square;stroke-miterlimit:128;paint-order:normal;stroke-opacity:1;stroke-dasharray:none"/><path id="path34" d="M 609.6 101.6 L 498.42901 253.67651 L 721.11154 253.67651 L 609.6 101.6 z M 721.11154 253.67651 L 789.30789 465.25894 L 899.48205 312.21143 L 721.11154 253.67651 z M 789.30789 465.25894 L 609.77053 595.3001 L 788.75702 652.98805 L 789.30789 465.25894 z M 609.77053 595.3001 L 430.23265 465.25894 L 430.44298 652.98805 L 609.77053 595.3001 z M 430.23265 465.25894 L 498.42901 253.67651 L 319.71795 312.21143 L 430.23265 465.25894 z M 609.64082 158.92983 L 654.28306 219.81036 L 565.13656 219.81036 L 609.64082 158.92983 z M 445.80483 306.5508 L 418.52122 391.19318 L 374.31255 329.96694 L 445.80483 306.5508 z M 773.75019 306.59576 L 844.97065 329.96694 L 800.98057 391.07639 L 773.75019 306.59576 z M 464.17373 531.66005 L 535.78125 583.52562 L 464.25797 606.533 L 464.17373 531.66005 z M 755.24589 531.7479 L 755.0273 606.533 L 683.72261 583.55249 L 755.24589 531.7479 z" style="color:#000;fill:#fff;stroke-linecap:square;stroke-miterlimit:128;-inkscape-stroke:none"/></svg>