<svg xmlns="http://www.w3.org/2000/svg" xml:space="preserve" id="svg1" width="4608" height="3072" version="1.1" viewBox="0 0 1219.2 812.8"><defs id="defs1"><style id="style1">.st0{fill:#000}.cls-1{fill:#0283c0}.cls-2{fill:#fff}.cls-3{fill:#ef483f}</style></defs><path id="path3" d="M 1219.2,812.8 V 0 H 0 v 812.8 z" style="fill:#000;fill-opacity:1;fill-rule:evenodd;stroke:none;stroke-width:8.46667;stroke-linecap:round;stroke-linejoin:round"/><path id="path90" d="M 609.59948 135.46667 C 517.48142 135.46667 435.899 181.87572 386.91075 252.47244 L 430.26418 252.47244 A 237.06667 237.06667 0 0 1 609.6 169.33333 A 237.06667 237.06667 0 0 1 618.67025 169.57104 L 659.21403 140.11393 C 643.11419 137.11249 626.54736 135.46667 609.59948 135.46667 z M 687.11672 146.85512 L 700.31023 187.46246 A 237.06667 237.06667 0 0 1 837.64086 341.84218 L 878.17585 371.29258 C 864.25705 264.58296 787.90025 177.079 687.11672 146.85512 z M 371.70031 276.9955 C 350.65323 315.485 338.66615 359.58517 338.66615 406.40052 C 338.66615 468.06045 359.48509 524.98694 394.3966 570.60445 L 407.78803 529.39094 A 237.06667 237.06667 0 0 1 372.53333 406.4 A 237.06667 237.06667 0 0 1 387.39134 325.28454 L 371.70031 276.9955 z M 880.369 399.9389 L 845.16185 425.51925 A 237.06667 237.06667 0 0 1 741.69065 602.63608 L 725.99135 650.95355 C 817.24242 607.28195 880.53333 514.00766 880.53333 406.40052 C 880.53333 404.23367 880.42003 402.09384 880.369 399.9389 z M 413.24868 592.66615 C 462.67331 644.73459 532.42787 677.33385 609.59948 677.33385 C 641.06742 677.33385 671.28557 671.86551 699.42242 661.92549 L 664.20855 636.341 A 237.06667 237.06667 0 0 1 609.6 643.46667 A 237.06667 237.06667 0 0 1 463.78668 592.66615 L 413.24868 592.66615 z" style="color:#000;fill:#b00020;stroke-linecap:square;stroke-miterlimit:128;-inkscape-stroke:none;paint-order:stroke fill markers"/><path id="path4" d="M 688.91816,97.601794 499.06463,235.53911 h -158.6389 l 72.51961,223.18948 -49.02337,150.87089 H 598.5955 l 128.33997,93.24599 72.51754,-223.18741 128.34411,-93.24392 -189.8556,-137.93783 z m -17.80512,54.796656 27.01541,83.14066 -88.52897,64.32011 -70.72281,-51.38343 z M 387.03891,269.40629 h 87.41998 l 33.81448,104.07014 -70.72333,51.38394 z m 123.02918,0 99.53191,72.31445 99.53191,-72.31445 -38.01784,117.00682 99.53036,72.31341 -123.0266,5.2e-4 L 609.6,575.73282 571.58217,458.72704 H 448.55453 l 99.5314,-72.31393 z m 227.8724,20.92999 132.23895,96.07786 -70.72488,51.38188 -88.52896,-64.31959 z M 437.55055,492.59371 h 109.42588 l 27.01334,83.13859 H 410.53515 Z m 234.67198,0 h 87.41792 l -50.50957,155.45511 -70.72282,-51.38498 z" style="color:#000;fill:#fff;stroke-linecap:square;stroke-miterlimit:128;-inkscape-stroke:none"/></svg>