<svg xmlns="http://www.w3.org/2000/svg" xml:space="preserve" id="svg1" width="4608" height="3072" version="1.1" viewBox="0 0 1219.2 812.8"><defs id="defs1"><style id="style1">.st0{fill:#000}.cls-1{fill:#0283c0}.cls-2{fill:#fff}.cls-3{fill:#ef483f}</style></defs><path id="rect1" d="M 1219.2,812.8 V 0 H 0 v 812.8 z" style="fill:#000;fill-opacity:1;fill-rule:evenodd;stroke:none;stroke-width:8.46667;stroke-linecap:round;stroke-linejoin:round"/><path id="path90" d="M 609.59948 135.46667 C 517.48142 135.46667 435.899 181.87572 386.91075 252.47244 L 430.26418 252.47244 A 237.06667 237.06667 0 0 1 609.6 169.33333 A 237.06667 237.06667 0 0 1 618.67025 169.57104 L 659.21403 140.11393 C 643.11419 137.11249 626.54736 135.46667 609.59948 135.46667 z M 687.11672 146.85512 L 700.31023 187.46246 A 237.06667 237.06667 0 0 1 837.64086 341.84218 L 878.17585 371.29258 C 864.25705 264.58296 787.90025 177.079 687.11672 146.85512 z M 371.70031 276.9955 C 350.65323 315.485 338.66615 359.58517 338.66615 406.40052 C 338.66615 468.06045 359.48509 524.98694 394.3966 570.60445 L 407.78803 529.39094 A 237.06667 237.06667 0 0 1 372.53333 406.4 A 237.06667 237.06667 0 0 1 387.39134 325.28454 L 371.70031 276.9955 z M 880.369 399.9389 L 845.16185 425.51925 A 237.06667 237.06667 0 0 1 741.69065 602.63608 L 725.99135 650.95355 C 817.24242 607.28195 880.53333 514.00766 880.53333 406.40052 C 880.53333 404.23367 880.42003 402.09384 880.369 399.9389 z M 413.24868 592.66615 C 462.67331 644.73459 532.42787 677.33385 609.59948 677.33385 C 641.06742 677.33385 671.28557 671.86551 699.42242 661.92549 L 664.20855 636.341 A 237.06667 237.06667 0 0 1 609.6 643.46667 A 237.06667 237.06667 0 0 1 463.78668 592.66615 L 413.24868 592.66615 z" style="color:#000;fill:#b00020;stroke-linecap:square;stroke-miterlimit:128;-inkscape-stroke:none;paint-order:stroke fill markers"/><path id="path88" d="M 688.91816 97.601794 L 499.06463 235.53911 L 340.42573 235.53911 L 412.94534 458.72859 L 363.92197 609.59948 L 598.5955 609.59948 L 726.93547 702.84547 L 799.45301 479.65806 L 927.79712 386.41414 L 737.94152 248.47631 L 688.91816 97.601794 z M 671.11407 152.39897 L 695.53016 227.54477 L 609.6 289.97662 L 545.6778 243.53449 L 671.11407 152.39897 z M 387.03994 269.40526 L 466.05217 269.40578 L 498.87498 370.42338 L 434.95278 416.86551 L 387.03994 269.40526 z M 510.06809 269.40629 L 609.6 341.72074 L 709.13191 269.40629 L 671.11407 386.41311 L 770.64547 458.72704 L 647.61783 458.72704 L 609.6 575.73333 L 571.58217 458.72704 L 448.55453 458.72704 L 548.08593 386.41311 L 510.06809 269.40629 z M 744.74111 295.2781 L 870.17841 386.41311 L 806.2557 432.85575 L 720.32502 370.42338 L 744.74111 295.2781 z M 434.95123 500.58857 L 541.168 500.58857 L 565.58357 575.7323 L 410.53566 575.73282 L 434.95123 500.58857 z M 678.032 500.58857 L 757.0432 500.58857 L 709.13088 648.04778 L 645.2092 601.60566 L 678.032 500.58857 z" style="color:#000;fill:#fff;stroke-linecap:square;stroke-miterlimit:128;-inkscape-stroke:none;paint-order:stroke fill markers;fill-opacity:1"/></svg>