<svg xmlns="http://www.w3.org/2000/svg" xml:space="preserve" id="svg1" width="4608" height="3072" version="1.1" viewBox="0 0 1219.2 812.8"><defs id="defs1"><style id="style1">.cls-1{fill:#0283c0}.cls-2{fill:#fff}.cls-3{fill:#ef483f}</style></defs><path id="rect1" d="M 0 0 L 0 812.8 L 1219.2 812.8 L 1219.2 0 L 0 0 z" style="fill:#fff;stroke-width:16.9333;stroke-linecap:round;stroke-linejoin:round;stroke-miterlimit:128;fill-opacity:1;stroke:none"/><path id="path22" d="m 508,135.46667 c -18.70404,0 -33.86667,15.16262 -33.86667,33.86666 v 101.6 h -101.6 c -18.70404,0 -33.86666,15.16263 -33.86666,33.86667 v 338.66667 c 0,18.70404 15.16262,33.86666 33.86666,33.86666 h 67.73334 c 18.70404,0 33.86666,-15.16262 33.86666,-33.86666 V 406.4 H 609.6 V 270.93333 h 237.06667 c 18.70404,0 33.86666,-15.16262 33.86666,-33.86666 v -67.73334 c 0,-18.70404 -15.16262,-33.86666 -33.86666,-33.86666 z M 609.6,406.4 v 237.06667 c 0,18.70404 15.16263,33.86666 33.86667,33.86666 H 711.2 c 18.70404,0 33.86667,-15.16262 33.86667,-33.86666 v -101.6 h 101.6 c 18.70404,0 33.86666,-15.16263 33.86666,-33.86667 v -67.73333 c 0,-18.70404 -15.16262,-33.86667 -33.86666,-33.86667 z" style="fill:#000;fill-opacity:1;stroke:none;stroke-width:135.467;stroke-linecap:square;stroke-linejoin:miter;stroke-miterlimit:128;stroke-dasharray:none;stroke-opacity:1;paint-order:stroke fill markers"/></svg>