<svg xmlns="http://www.w3.org/2000/svg" xmlns:xlink="http://www.w3.org/1999/xlink" xml:space="preserve" id="svg1" width="4608" height="3072" version="1.1" viewBox="0 0 1219.2 812.8"><defs id="defs1"><linearGradient id="linearGradient2294"><stop id="stop2288" offset="0" style="stop-color:#8ebf6a;stop-opacity:1"/><stop id="stop2296" offset="0.64179093" style="stop-color:#48982f;stop-opacity:1"/><stop id="stop2290" offset="0.65040863" style="stop-color:#0f730d;stop-opacity:1"/><stop id="stop2292" offset="1" style="stop-color:#0b6e09;stop-opacity:1"/></linearGradient><linearGradient id="linearGradient2053"><stop id="stop2049" offset="0" style="stop-color:#f6f608;stop-opacity:0"/><stop id="stop2077" offset="0.14678285" style="stop-color:#f6f509;stop-opacity:0"/><stop id="stop2059" offset="0.36787742" style="stop-color:#f7f50b;stop-opacity:1"/><stop id="stop2051" offset="1" style="stop-color:#f7f608;stop-opacity:1"/></linearGradient><linearGradient id="linearGradient958"><stop id="stop954" offset="0" style="stop-color:#0d1414;stop-opacity:1"/><stop id="stop970" offset="0.33491516" style="stop-color:#120f14;stop-opacity:1"/><stop id="stop972" offset="0.52662152" style="stop-color:#14100d;stop-opacity:1"/><stop id="stop974" offset="0.78222996" style="stop-color:#12140a;stop-opacity:1"/><stop id="stop956" offset="1" style="stop-color:#0f140d;stop-opacity:1"/></linearGradient><linearGradient xlink:href="#linearGradient958" id="linearGradient960" x1="94.916" x2="136.32048" y1="6.6901026" y2="48.094578" gradientTransform="matrix(1.6268397,0,0,1.6268397,-486.22132,359.3229)" gradientUnits="userSpaceOnUse"/><linearGradient xlink:href="#linearGradient2294" id="linearGradient2286" x1="646.93994" x2="646.93994" y1="170.38812" y2="211.79395" gradientTransform="translate(-176.65821,180.73521)" gradientUnits="userSpaceOnUse"/><linearGradient xlink:href="#linearGradient2294" id="linearGradient2480" x1="651.75629" x2="651.75629" y1="180.15427" y2="205.87666" gradientTransform="translate(-161.72263,178.86827)" gradientUnits="userSpaceOnUse"/><linearGradient xlink:href="#linearGradient2294" id="linearGradient2486" x1="645.53314" x2="645.53314" y1="229.93953" y2="265.2041" gradientTransform="translate(-160.27056,197.53774)" gradientUnits="userSpaceOnUse"/><clipPath id="clipPath2520" clipPathUnits="userSpaceOnUse"><path id="path2522" d="M 0.06,651 H 476.1 V 0 H 0.06 Z"/></clipPath><clipPath id="clipPath2512" clipPathUnits="userSpaceOnUse"><path id="path2514" d="M 0,651 H 476 V 0 H 0 Z"/></clipPath><clipPath id="clipPath2452" clipPathUnits="userSpaceOnUse"><path id="path2454" d="M 0.06,651 H 476.1 V 0 H 0.06 Z"/></clipPath><clipPath id="clipPath2444" clipPathUnits="userSpaceOnUse"><path id="path2446" d="M 0,651 H 476 V 0 H 0 Z"/></clipPath><clipPath id="clipPath2436" clipPathUnits="userSpaceOnUse"><path id="path2438" d="M 260.55,378.32 H 375.6 V 355.9 H 260.55 Z" style="clip-rule:evenodd"/></clipPath><clipPath id="clipPath2426" clipPathUnits="userSpaceOnUse"><path id="path2428" d="M 0.06,651 H 476.1 V 0 H 0.06 Z"/></clipPath><clipPath id="clipPath2418" clipPathUnits="userSpaceOnUse"><path id="path2420" d="M 0,651 H 476 V 0 H 0 Z"/></clipPath><path id="rect1026" d="M9.720953 67.157089H659.462043V366.514239H9.720953z"/><path id="rect1026-8" d="M9.720953 67.157089H659.462043V366.514239H9.720953z"/><path id="rect1026-5" d="M9.720953 67.157089H659.462043V366.514239H9.720953z"/><radialGradient xlink:href="#linearGradient2053" id="radialGradient2057" cx="500.77231" cy="163.38313" r="37.110352" fx="500.77231" fy="163.38313" gradientTransform="matrix(3.1473262,0,-1.3593042e-7,3.3006668,-1077.6647,-377.08254)" gradientUnits="userSpaceOnUse"/><filter id="filter2107" width="1.0414356" height="1.0751979" x="-0.020717788" y="-0.037598945" style="color-interpolation-filters:sRGB"><feGaussianBlur id="feGaussianBlur2109" stdDeviation="0.74453307"/></filter><style id="style1">.cls-1{fill:#0283c0}.cls-2{fill:#fff}.cls-3{fill:#ef483f}.st0{fill:#fff}.st1{fill:#ed1c24}.st2{fill:#00529c}</style></defs><path id="rect1" d="M 0 0 L 0 812.8 L 1219.2 812.8 L 1219.2 0 L 0 0 z" style="fill:#008040;stroke-width:16.9333;stroke-linecap:round;stroke-linejoin:round;stroke-miterlimit:128;fill-opacity:1"/><path id="path3-0" d="M 2304,384 A 1152,1152 0 0 0 1152,1536 1152,1152 0 0 0 2304,2688 1152,1152 0 0 0 3456,1536 1152,1152 0 0 0 2304,384 Z" style="fill:#fff;fill-opacity:1;stroke-width:512;stroke-miterlimit:128;paint-order:stroke fill markers" transform="scale(0.26458333)"/><path id="rect2" d="M 524.93333 172.23858 L 524.93333 220.13333 L 575.73333 270.93333 L 524.93333 270.93333 L 524.93333 304.8 L 694.26667 304.8 L 694.26667 270.93333 L 643.46667 270.93333 L 694.26667 220.13333 L 694.26667 172.23858 L 609.6 256.90525 L 524.93333 172.23858 z M 358.50525 321.73333 L 443.17192 406.4 L 358.50525 491.06667 L 406.4 491.06667 L 457.2 440.26667 L 457.2 491.06667 L 491.06667 491.06667 L 491.06667 321.73333 L 457.2 321.73333 L 457.2 372.53333 L 406.4 321.73333 L 358.50525 321.73333 z M 728.13333 321.73333 L 728.13333 491.06667 L 762 491.06667 L 762 440.26667 L 812.8 491.06667 L 860.69475 491.06667 L 776.02808 406.4 L 860.69475 321.73333 L 812.8 321.73333 L 762 372.53333 L 762 321.73333 L 728.13333 321.73333 z M 524.93333 338.66667 L 524.93333 474.13333 L 558.8 474.13333 L 558.8 338.66667 L 524.93333 338.66667 z M 592.66667 338.66667 L 592.66667 474.13333 L 626.53333 474.13333 L 626.53333 338.66667 L 592.66667 338.66667 z M 660.4 338.66667 L 660.4 474.13333 L 694.26667 474.13333 L 694.26667 338.66667 L 660.4 338.66667 z M 524.93333 508 L 524.93333 541.86667 L 575.73333 541.86667 L 524.93333 592.66667 L 524.93333 640.56142 L 609.6 555.89475 L 694.26667 640.56142 L 694.26667 592.66667 L 643.46667 541.86667 L 694.26667 541.86667 L 694.26667 508 L 524.93333 508 z" style="fill:#000;fill-opacity:1;stroke-width:8.46667;stroke-linejoin:bevel;stroke-miterlimit:128"/></svg>