<svg xmlns="http://www.w3.org/2000/svg" xml:space="preserve" id="svg1" width="4608" height="3072" version="1.1" viewBox="0 0 1219.2 812.8"><defs id="defs1"><style id="style1">.cls-1{fill:#0283c0}.cls-2{fill:#fff}.cls-3{fill:#ef483f}</style></defs><path id="rect1" d="M 1219.2,812.8 V 0 H 0 v 812.8 z" style="fill:#ffd000;fill-opacity:1;fill-rule:evenodd;stroke:none;stroke-width:8.46667;stroke-linecap:round;stroke-linejoin:round"/><path id="path3" d="M 609.6 101.60052 L 521.73611 254.00052 L 346.00834 254.00052 L 433.87222 406.4 L 346.00834 558.79948 L 521.73611 558.79948 L 609.6 711.19948 L 629.14558 677.29716 L 584.45115 548.70501 C 583.32493 545.19771 580.06039 542.8213 576.3767 542.8263 C 566.10774 542.8414 559.16513 540.17109 553.35744 535.66188 C 547.54974 531.15264 542.84048 524.43717 538.81259 516.02173 C 538.51009 515.71812 538.18497 515.43792 537.84004 515.18354 L 518.60762 481.47449 C 520.68252 482.01129 522.88378 481.7413 524.76745 480.71898 L 573.75774 453.55681 C 573.84057 453.54751 573.92329 453.53699 574.00579 453.52529 L 622.97851 426.36726 C 623.06203 426.35816 623.14543 426.34785 623.22863 426.33625 L 638.13108 418.09593 L 615.53142 459.30685 C 613.2839 463.40631 614.78408 468.55155 618.88264 470.80072 L 622.59352 472.83625 C 626.69372 475.08545 631.84093 473.58481 634.08998 469.48452 L 652.709 435.52949 C 652.7155 435.51709 652.72163 435.50468 652.72863 435.49228 L 673.45502 397.25792 C 674.86257 394.6619 674.81596 391.52008 673.33203 388.96696 C 670.67293 384.39262 668.03818 379.71986 665.30461 375.01794 C 662.97524 371.01282 657.85944 369.62357 653.82417 371.9003 L 608.92976 397.2326 L 588.89274 363.31477 L 689.67987 306.44538 L 748.77548 406.82426 L 749.01578 407.93169 L 722.30475 481.98815 C 721.30739 484.75301 721.81518 487.8373 723.64627 490.13649 L 777.9861 558.79948 L 873.19166 558.79948 L 785.32778 406.4 L 873.19166 254.00052 L 697.46389 254.00052 L 609.6 101.60052 z M 645.55491 267.24002 L 663.34401 297.00203 L 633.92565 313.60153 L 616.00994 283.62507 L 645.55491 267.24002 z M 596.96305 295.25588 L 614.48446 324.57037 L 585.06455 341.16987 L 567.41601 311.64041 L 596.96305 295.25588 z M 548.73446 321.89043 L 567.14471 352.6932 C 566.27923 353.4368 565.57297 354.34766 565.06835 355.37107 L 564.287 358.29079 C 563.70005 360.48734 564.02111 362.82764 565.17791 364.78497 L 595.98429 416.92959 C 596.03602 416.96996 596.08827 417.00976 596.14087 417.04896 L 572.69941 430.04662 L 518.18336 338.83203 L 548.73446 321.89043 z M 499.50181 349.08205 L 554.01735 440.29871 L 523.46469 457.24031 L 468.94915 366.0252 L 499.50181 349.08205 z" style="fill:#000;fill-opacity:1;stroke:none;stroke-width:16.9333;stroke-linecap:round;stroke-linejoin:round;stroke-miterlimit:128;stroke-dasharray:none;stroke-opacity:1;paint-order:normal"/></svg>