<svg xmlns="http://www.w3.org/2000/svg" xml:space="preserve" id="svg1" width="4608" height="3072" version="1.1" viewBox="0 0 1219.2 812.8"><defs id="defs1"><style id="style1">.cls-1{fill:#0283c0}.cls-2{fill:#fff}.cls-3{fill:#ef483f}</style></defs><path id="rect1" d="M 1219.2,0 V 812.8 H 0 V 0 Z" style="fill:#000;fill-opacity:1;fill-rule:evenodd;stroke:none;stroke-width:8.46667;stroke-linecap:round;stroke-linejoin:round"/><path id="path12" d="M 67.733333 50.8 L 180.62205 135.46667 L 1038.578 135.46667 L 1151.4667 50.8 L 67.733333 50.8 z M 248.35538 186.26667 L 398.78031 299.0851 C 425.08571 247.56352 469.32211 207.43807 523.15721 186.26667 L 248.35538 186.26667 z M 697.43857 186.26667 C 750.83945 207.58555 794.67233 247.58627 820.77419 298.81949 L 970.84462 186.26667 L 697.43857 186.26667 z M 609.6 203.2 C 497.37617 203.19999 406.39999 294.17617 406.4 406.4 C 406.39999 518.62383 497.37617 609.60001 609.6 609.6 C 721.82383 609.60001 812.80001 518.62383 812.8 406.4 C 812.80001 294.17617 721.82383 203.19999 609.6 203.2 z M 609.6 237.06667 C 703.11986 237.06666 778.93334 312.88014 778.93333 406.4 C 778.93334 499.91986 703.11986 575.73334 609.6 575.73333 C 554.25468 575.73334 505.26274 549.06065 474.36381 508 L 524.93333 508 L 575.73333 406.4 L 524.93333 304.8 L 474.36381 304.8 C 505.26274 263.73935 554.25468 237.06666 609.6 237.06667 z M 778.93333 406.4 L 728.13333 304.8 L 651.93333 304.8 L 702.73333 406.4 L 651.93333 508 L 728.13333 508 L 778.93333 406.4 z M 550.33333 304.8 L 601.13333 406.4 L 550.33333 508 L 626.53333 508 L 677.33333 406.4 L 626.53333 304.8 L 550.33333 304.8 z M 459.95435 327.24204 L 499.53333 406.4 L 459.95435 485.55796 C 447.42707 461.92574 440.26666 435.01033 440.26667 406.4 C 440.26666 377.78967 447.42707 350.87426 459.95435 327.24204 z M 398.78031 513.7149 L 248.35538 626.53333 L 523.15721 626.53333 C 469.32211 605.36193 425.08571 565.23648 398.78031 513.7149 z M 820.77419 513.98051 C 794.67233 565.21373 750.83945 605.21445 697.43857 626.53333 L 970.84462 626.53333 L 820.77419 513.98051 z M 180.62205 677.33333 L 67.733333 762 L 1151.4667 762 L 1038.578 677.33333 L 180.62205 677.33333 z" style="fill:#ffd000;fill-opacity:1;stroke-width:33.8667;stroke-miterlimit:128;paint-order:stroke fill markers"/></svg>