<svg xmlns="http://www.w3.org/2000/svg" xml:space="preserve" id="svg1" width="4608" height="3072" version="1.1" viewBox="0 0 1219.2 812.8"><defs id="defs1"><style id="style1">.cls-1{fill:#0283c0}.cls-2{fill:#fff}.cls-3{fill:#ef483f}</style></defs><path id="rect1" d="M 1219.2,0 V 812.8 H 0 V 0 Z" style="fill:#000;fill-opacity:1;fill-rule:evenodd;stroke:none;stroke-width:8.46667;stroke-linecap:round;stroke-linejoin:round"/><path id="path12" d="M 76.2 50.8 L 203.2 135.46667 L 1016 135.46667 L 1143 50.8 L 76.2 50.8 z M 279.4 186.26667 L 413.5329 275.6886 C 440.12158 235.41883 478.36641 204.22205 523.15721 186.26667 L 279.4 186.26667 z M 697.43857 186.26667 C 741.82662 204.32308 779.70065 235.40764 806.06708 275.42195 L 939.8 186.26667 L 697.43857 186.26667 z M 609.6 203.2 C 497.37628 203.19999 406.39999 294.17628 406.4 406.4 C 406.39999 518.62372 497.37628 609.60001 609.6 609.6 C 721.82372 609.60001 812.80001 518.62372 812.8 406.4 C 812.80001 294.17628 721.82372 203.19999 609.6 203.2 z M 609.6 237.06667 C 703.11977 237.06666 778.93334 312.88023 778.93333 406.4 C 778.93334 499.91977 703.11977 575.73334 609.6 575.73333 C 554.25474 575.73334 505.26271 549.06061 474.36381 508 L 524.93333 508 L 575.73333 406.4 L 524.93333 304.8 L 474.36381 304.8 C 505.26271 263.73939 554.25474 237.06666 609.6 237.06667 z M 778.93333 406.4 L 728.13333 304.8 L 651.93333 304.8 L 702.73333 406.4 L 651.93333 508 L 728.13333 508 L 778.93333 406.4 z M 550.33333 304.8 L 601.13333 406.4 L 550.33333 508 L 626.53333 508 L 677.33333 406.4 L 626.53333 304.8 L 550.33333 304.8 z M 459.95435 327.24204 L 499.53333 406.4 L 459.95435 485.55796 C 447.42709 461.92576 440.26666 435.0103 440.26667 406.4 C 440.26666 377.7897 447.42709 350.87424 459.95435 327.24204 z M 413.5329 537.1114 L 279.4 626.53333 L 523.15721 626.53333 C 478.36641 608.57795 440.12158 577.38117 413.5329 537.1114 z M 806.06708 537.37805 C 779.70065 577.39236 741.82662 608.47692 697.43857 626.53333 L 939.8 626.53333 L 806.06708 537.37805 z M 203.2 677.33333 L 76.2 762 L 1143 762 L 1016 677.33333 L 203.2 677.33333 z" style="fill:#ffd000;fill-opacity:1;stroke-width:33.8667;stroke-miterlimit:128;paint-order:stroke fill markers"/></svg>