<svg xmlns="http://www.w3.org/2000/svg" xml:space="preserve" id="svg1" width="4608" height="3072" version="1.1" viewBox="0 0 1219.2 812.8"><defs id="defs1"><style id="style1">.cls-1{fill:#0283c0}.cls-2{fill:#fff}.cls-3{fill:#ef483f}</style></defs><path id="rect11" d="M 0,7.2606202e-5 V 812.8 H 1219.2 V 5.5330809e-5 Z" style="fill:#b0b040;stroke-width:.529167;stroke-linejoin:bevel;stroke-miterlimit:128;paint-order:stroke fill markers;fill-opacity:1"/><path id="rect1-6" d="m 475.66105,101.6 11.07858,34.0961 -29.00381,21.07247 h 35.84994 l 11.07859,34.09561 11.07859,-34.09561 h 35.84993 l -29.0038,-21.07247 11.07858,-34.0961 -29.0033,21.07195 z m 209.87077,0 11.07859,34.0961 -29.0033,21.07247 h 35.84993 l 11.0786,34.09561 11.07858,-34.09561 h 35.84994 L 732.46035,135.6961 743.53893,101.6 714.53564,122.67195 Z m -104.93564,76.24052 11.07859,34.09662 -29.0033,21.07196 h 35.84993 l 11.07859,34.09561 11.0786,-34.09561 h 35.84993 l -29.00382,-21.07196 11.0786,-34.09662 -29.00331,21.07247 z M 0,267.10471 V 415.13647 H 438.66816 L 609.59999,711.2 780.53182,415.13647 H 1219.2 V 267.10471 H 695.06641 L 609.59999,415.13647 524.13357,267.10471 Z m 0,172.70372 v 123.35981 h 324.71294 l 71.22201,-123.35981 z m 424.42276,0 L 267.73533,711.2 H 438.66816 L 509.88967,587.8402 424.42325,439.80843 Z m 370.35397,0 L 709.31031,587.8402 780.53182,711.2 h 170.93284 z m 28.4883,0 71.22202,123.35981 H 1219.2 V 439.80843 Z M 0,587.8402 V 711.2 h 239.24653 l 71.22201,-123.3598 z m 908.73144,0 L 979.95345,711.2 H 1219.2 V 587.8402 Z" style="display:inline;fill:#f0f0e0;fill-opacity:1;stroke-width:.529167;stroke-linejoin:bevel;stroke-miterlimit:128;paint-order:stroke fill markers"/></svg>