<svg xmlns="http://www.w3.org/2000/svg" xml:space="preserve" width="4608" height="3072" viewBox="0 0 1219.2 812.8"><path d="M 1219.2,0 V 812.8 H 0 V 0 Z" style="fill:#ffd000;fill-opacity:1;stroke-width:16.9333;stroke-linecap:round;stroke-linejoin:round;stroke-miterlimit:128"/><path d="M 338.66667 0 L 338.66667 812.8 L 880.53333 812.8 L 880.53333 0 L 338.66667 0 z M 169.33075 237.06667 C 163.00398 254.96166 162.93921 254.90756 156.74134 273.49855 L 165.06951 268.36346 L 165.06951 377.90148 L 133.0632 273.15955 L 142.52928 275.6302 C 131.28614 259.72459 130.90142 259.3102 119.84385 244.45485 C 119.02296 263.41862 118.95836 263.40241 118.46409 282.9941 L 124.92829 275.6302 L 157.92783 383.61844 L 95.439653 290.93935 L 105.22045 290.528 C 89.820618 278.60627 89.339703 278.34195 74.424398 267.37024 C 79.181043 285.74559 79.098659 285.74559 84.350924 304.62585 L 88.394088 295.71167 L 152.3106 390.54619 C 151.0303 390.5461 148.75899 390.54575 147.85609 390.54567 C 136.57252 376.21427 121.04504 368.75157 105.53516 369.06016 C 90.965345 369.35007 76.495321 376.3054 65.829574 390.32811 L 38.786263 390.32811 L 38.786263 395.19707 L 44.911987 395.19707 L 44.911987 399.43608 L 38.786263 399.43608 L 38.786263 406.04912 L 44.911987 406.04912 L 44.911987 410.28813 L 38.786263 410.28813 L 38.786263 414.69665 L 82.19705 414.69717 C 93.457297 384.13626 126.80139 386.44993 131.65966 424.79836 L 152.99066 424.79836 L 96.09491 509.1684 C 92.386559 510.34103 90.26595 511.03181 85.684692 512.94698 C 78.636893 523.49312 73.752213 530.73768 66.097774 542.16071 C 70.021242 542.0367 74.844315 542.08888 79.002413 542.13538 C 80.603767 545.97486 82.46517 550.43974 83.820207 554.12587 C 91.538533 542.74606 96.419339 535.498 103.55234 525.0093 C 103.61114 520.04191 103.46736 517.81865 103.16476 513.93917 L 155.96877 435.62509 L 128.6831 524.88837 C 125.4794 527.09459 123.6431 528.37836 119.82163 531.54998 C 116.16368 543.69697 113.61089 552.03305 109.62897 565.19599 C 113.34492 563.92973 117.98653 562.5884 121.97653 561.41741 C 124.63013 564.62064 127.71425 568.34129 130.08715 571.47003 C 134.14285 558.32966 136.66882 549.96472 140.42502 537.84779 C 139.02962 533.08029 138.24098 531.0048 136.81801 527.38331 L 165.07209 434.92281 L 165.07209 531.59804 C 162.65282 534.64501 161.28691 536.40989 158.55931 540.5608 C 158.61231 553.24708 158.59418 561.98074 158.63218 575.73333 C 161.81555 573.43546 165.85956 570.77744 169.33333 568.49036 C 172.80693 570.77743 176.85099 573.43546 180.03449 575.73333 C 180.07349 561.98074 180.05787 553.24708 180.10787 540.5608 C 177.37997 536.40989 176.01367 534.64501 173.59457 531.59804 L 173.59457 434.89852 L 201.84866 527.38331 C 200.42576 531.0048 199.63673 533.08029 198.24113 537.84779 C 201.99763 549.9647 204.52392 558.32965 208.57952 571.47003 C 210.95239 568.34129 214.03656 564.62066 216.69013 561.41741 C 220.68053 562.58842 225.34609 563.92973 229.06199 565.19599 C 225.08009 552.03301 222.50272 543.69695 218.84452 531.54998 C 215.02315 528.37832 213.18694 527.09458 209.98357 524.88837 L 182.69789 435.62509 L 235.5019 513.93917 C 235.1993 517.81862 235.05583 520.04192 235.11433 525.0093 C 242.2474 535.49796 247.12777 542.74604 254.84594 554.12587 C 256.20084 550.43976 258.06298 545.97489 259.66425 542.13538 C 263.82245 542.08798 268.66909 542.03571 272.59266 542.16071 C 264.93839 530.73766 260.02997 523.49306 252.98197 512.94698 C 248.4009 511.0318 246.27974 510.34105 242.57124 509.1684 L 185.67601 424.79784 L 207.007 424.79836 C 211.8655 386.44994 245.20903 384.13628 256.4691 414.69717 L 299.8804 414.69665 L 299.8804 410.28813 L 293.7552 410.28813 L 293.7552 406.04912 L 299.8804 406.04912 L 299.8804 399.43608 L 293.7552 399.43608 L 293.7552 395.19707 L 299.8804 395.19707 L 299.8804 390.32811 L 272.83709 390.32811 C 262.17122 376.3054 247.70106 369.35006 233.13099 369.06016 C 217.62115 368.75156 202.09392 376.21477 190.81058 390.54619 C 189.89718 390.54627 187.62118 390.54612 186.33178 390.54619 L 250.27258 295.71167 L 254.31574 304.62585 C 259.59484 285.87404 259.66207 285.31674 264.24227 267.37024 C 248.9956 278.66617 248.97454 278.5825 233.4457 290.52749 L 243.22701 290.93935 L 180.73884 383.61844 L 213.73837 275.6302 L 220.20258 282.9941 C 219.77118 263.51739 219.68702 262.95695 218.82282 244.45485 C 207.54305 259.71717 207.49681 259.6646 196.13687 275.6302 L 205.60347 273.15955 L 173.59664 377.95006 L 173.59664 268.36346 L 181.92533 273.49855 C 175.82136 254.99903 175.56879 254.50749 169.33592 237.06667 L 169.33075 237.06667 z M 482.24757 237.06667 C 490.30938 238.88501 497.62762 242.93048 505.55519 245.1716 C 522.26588 250.92617 537.86667 262.34641 557.0399 262.53075 C 595.49654 271.97911 622.14339 308.98328 628.25261 346.87288 C 626.07662 363.96329 637.55293 373.17105 648.40487 384.49901 C 663.67492 399.66788 658.18977 421.33761 662.01179 440.04497 C 670.36715 451.20848 676.11074 464.50201 677.95913 478.50774 C 683.42718 490.98065 669.63163 507.26661 681.0406 515.49773 C 695.56428 528.33431 712.28514 544.08431 733.45704 539.69626 C 752.85568 541.57171 758.14932 511.95736 776.25959 516.93951 C 779.17594 532.00419 765.39804 545.01179 753.93899 552.92232 C 735.05028 565.68578 709.83377 564.90535 690.59041 553.36416 C 679.25158 550.32758 667.72109 532.34982 659.30963 535.40143 C 639.45416 563.53712 604.51915 576.46269 570.9605 575.70129 C 540.45445 574.65537 507.7884 571.64685 481.65639 554.38011 C 460.68387 541.47641 450.32275 512.19544 464.00889 490.36232 C 466.5716 475.29263 498.75183 468.70771 485.75795 453.03591 C 476.01005 433.68937 487.31381 408.75362 506.49105 400.24999 C 508.36349 389.78576 492.87516 377.90797 501.56112 364.7488 C 511.67069 340.93505 541.34924 336.50372 564.29941 338.831 C 574.89487 336.48068 600.6138 353.2163 594.66086 334.20337 C 590.36397 303.30861 560.60812 281.97862 530.64306 280.68726 C 515.17465 276.61978 498.73768 285.68237 484.25106 280.68519 C 477.73911 265.27088 450.91997 276.01165 442.54456 270.42639 C 446.98372 259.91408 473.04862 272.53507 486.0525 271.41702 C 505.68256 273.97873 497.13281 253.96513 484.80917 251.03274 C 478.16596 268.02596 470.71037 239.67998 482.24757 237.06718 L 482.24757 237.06667 z M 1049.8641 237.06667 C 1043.5373 254.96166 1043.4726 254.90756 1037.2747 273.49855 L 1045.6028 268.36346 L 1045.6028 377.90148 L 1013.5965 273.15955 L 1023.0626 275.6302 C 1011.8194 259.72459 1011.4348 259.3102 1000.3772 244.45485 C 999.55625 263.41862 999.49169 263.40241 998.99742 282.9941 L 1005.4616 275.6302 L 1038.4612 383.61844 L 975.97299 290.93935 L 985.75378 290.528 C 970.35396 278.60627 969.87305 278.34195 954.95773 267.37024 C 959.71439 285.74559 959.63198 285.74559 964.88426 304.62585 L 968.92742 295.71167 L 1032.8439 390.54619 C 1031.5636 390.5461 1029.2923 390.54575 1028.3894 390.54567 C 1017.1058 376.21427 1001.5789 368.75157 986.06901 369.06016 C 971.49918 369.35007 957.02866 376.3054 946.36291 390.32811 L 919.3196 390.32811 L 919.3196 395.19707 L 925.44532 395.19707 L 925.44532 399.43608 L 919.3196 399.43608 L 919.3196 406.04912 L 925.44532 406.04912 L 925.44532 410.28813 L 919.3196 410.28813 L 919.3196 414.69665 L 962.73038 414.69717 C 973.99063 384.13626 1007.3347 386.44993 1012.193 424.79836 L 1033.524 424.79836 L 976.62824 509.1684 C 972.91991 510.34103 970.79927 511.03181 966.21803 512.94698 C 959.17021 523.49312 954.28608 530.73768 946.63162 542.16071 C 950.5551 542.0367 955.37764 542.08888 959.53575 542.13538 C 961.13708 545.97486 962.9985 550.43974 964.35354 554.12587 C 972.07186 542.74606 976.95269 535.498 984.08567 525.0093 C 984.14447 520.04191 984.0007 517.81865 983.6981 513.93917 L 1036.5021 435.62509 L 1009.2164 524.88837 C 1006.0127 527.09459 1004.1765 528.37836 1000.355 531.54998 C 996.69693 543.69697 994.14425 552.03305 990.1623 565.19599 C 993.87828 563.92973 998.51978 562.5884 1002.5099 561.41741 C 1005.1635 564.62064 1008.2476 568.34129 1010.6205 571.47003 C 1014.6762 558.32966 1017.2022 549.96472 1020.9584 537.84779 C 1019.563 533.08029 1018.7743 531.0048 1017.3513 527.38331 L 1045.6054 434.92281 L 1045.6054 531.59804 C 1043.1861 534.64501 1041.8202 536.40989 1039.0926 540.5608 C 1039.1456 553.24708 1039.1275 561.98074 1039.1655 575.73333 C 1042.3489 573.43546 1046.3929 570.77744 1049.8667 568.49036 C 1053.3403 570.77743 1057.3843 573.43546 1060.5678 575.73333 C 1060.6068 561.98074 1060.5912 553.24708 1060.6412 540.5608 C 1057.9133 536.40989 1056.547 534.64501 1054.1279 531.59804 L 1054.1279 434.89852 L 1082.382 527.38331 C 1080.9591 531.0048 1080.1701 533.08029 1078.7745 537.84779 C 1082.531 549.9647 1085.0575 558.32965 1089.1128 571.47003 C 1091.4857 568.34129 1094.5699 564.62066 1097.2235 561.41741 C 1101.2139 562.58842 1105.8794 563.92973 1109.5953 565.19599 C 1105.6134 552.03301 1103.0361 543.69695 1099.3779 531.54998 C 1095.5565 528.37832 1093.7203 527.09458 1090.5169 524.88837 L 1063.2317 435.62509 L 1116.0352 513.93917 C 1115.7326 517.81862 1115.5892 520.04192 1115.6477 525.0093 C 1122.7808 535.49796 1127.6611 542.74604 1135.3793 554.12587 C 1136.7342 550.43976 1138.5963 545.97489 1140.1976 542.13538 C 1144.3558 542.08798 1149.2024 542.03571 1153.126 542.16071 C 1145.4717 530.73766 1140.5633 523.49306 1133.5153 512.94698 C 1128.9342 511.0318 1126.8131 510.34105 1123.1046 509.1684 L 1066.2093 424.79784 L 1087.5403 424.79836 C 1092.3988 386.44994 1125.7429 384.13628 1137.003 414.69717 L 1180.4137 414.69665 L 1180.4137 410.28813 L 1174.2885 410.28813 L 1174.2885 406.04912 L 1180.4137 406.04912 L 1180.4137 399.43608 L 1174.2885 399.43608 L 1174.2885 395.19707 L 1180.4137 395.19707 L 1180.4137 390.32811 L 1153.3704 390.32811 C 1142.7045 376.3054 1128.2344 369.35006 1113.6643 369.06016 C 1098.1544 368.75156 1082.6273 376.21477 1071.3439 390.54619 C 1070.4305 390.54627 1068.1545 390.54612 1066.8651 390.54619 L 1130.8059 295.71167 L 1134.8491 304.62585 C 1140.1282 285.87404 1140.1954 285.31674 1144.7756 267.37024 C 1129.5289 278.66617 1129.5084 278.5825 1113.9795 290.52749 L 1123.7603 290.93935 L 1061.2722 383.61844 L 1094.2717 275.6302 L 1100.7359 282.9941 C 1100.3045 263.51739 1100.2204 262.95695 1099.3562 244.45485 C 1088.0764 259.71717 1088.0302 259.6646 1076.6702 275.6302 L 1086.1368 273.15955 L 1054.13 377.95006 L 1054.13 268.36346 L 1062.4587 273.49855 C 1056.3547 254.99903 1056.1019 254.50749 1049.8693 237.06667 L 1049.8641 237.06667 z M 482.38554 239.65876 C 480.5151 240.68064 479.68174 243.21548 481.10035 244.95869 C 487.11941 252.9103 519.5789 265.92906 498.59334 272.71152 C 499.93781 273.31363 498.4042 277.59742 490.10393 279.35866 C 491.04266 281.99951 509.96052 276.64546 518.01231 278.12618 C 514.75232 271.00909 523.37382 281.02876 526.69292 277.1867 C 555.6371 279.40378 584.97725 296.67537 593.45783 325.80389 C 598.73154 334.52491 606.71505 352.62452 601.29508 364.06253 C 604.88469 372.84366 588.95632 383.07015 595.39415 383.72335 C 585.03311 388.27772 595.14687 386.94242 602.09865 391.09706 C 606.93151 380.61881 597.38308 373.22516 607.60787 363.7778 C 610.09243 356.40926 614.52049 360.08119 618.12713 362.55875 C 618.19624 362.43151 618.25963 362.30102 618.33073 362.17479 C 618.44306 362.40229 618.53484 362.6395 618.60514 362.88328 C 621.10472 364.54532 623.13523 365.3486 623.64617 360.83431 C 612.65397 359.36261 622.14649 346.49514 618.15917 337.34633 C 611.50995 317.18931 618.72217 346.82293 616.8347 352.85701 C 607.85821 351.71592 596.36192 337.72802 607.54948 327.23274 C 619.88915 326.58655 612.07793 317.30749 604.84163 311.90758 C 599.03497 318.69003 596.93317 304.21442 593.47282 308.05148 C 580.1844 303.5432 585.24468 293.11379 580.33667 280.97148 C 579.12244 280.39542 577.87918 279.82738 576.64491 279.25634 C 580.84262 287.98036 568.70855 288.46651 575.85167 278.88892 C 566.43237 274.55997 556.47077 270.39842 546.27002 266.47521 C 552.96633 269.56892 541.76967 272.43383 546.07158 266.39976 C 540.56613 264.28192 535.03032 262.2446 529.46536 260.28851 C 515.87839 248.5319 498.11945 246.4733 482.38554 239.65979 L 482.38554 239.65876 z M 618.60514 362.88328 C 618.44985 362.77909 618.28542 362.66794 618.12713 362.55875 C 614.51348 369.1799 614.04163 377.15166 609.6155 383.39314 C 607.67793 391.08526 620.81019 370.33697 618.60514 362.88328 z M 478.22197 245.89042 C 474.05532 253.11068 479.29094 252.51257 478.22197 245.89042 z M 481.1174 248.48199 C 475.24562 255.77539 483.76828 255.07209 481.1174 248.48199 z M 507.75402 250.21935 C 508.74785 250.91863 509.74495 251.60846 510.81792 252.18151 C 524.00715 259.49695 505.47684 260.26079 507.75402 250.21935 z M 521.67979 260.78046 C 527.99639 261.60597 520.53369 266.20042 521.67979 260.78046 z M 538.17025 263.78597 C 541.43725 266.82656 549.11633 276.94924 539.88436 268.93552 C 542.50017 274.69812 526.40864 264.61951 538.17025 263.78597 z M 557.13809 265.01742 C 556.52124 265.0295 555.90574 265.07869 555.29479 265.16469 C 550.86163 264.83909 554.04734 267.78256 556.25339 267.81156 C 566.22771 273.07122 565.81403 264.86817 557.13809 265.01845 L 557.13809 265.01742 z M 531.30349 269.96337 C 539.24608 279.74334 521.02761 278.51107 531.30349 269.96337 z M 550.13696 271.34209 C 553.84477 276.44948 544.58275 273.97494 550.13696 271.34209 z M 553.41945 272.58336 C 554.97229 273.5882 554.17358 275.5636 555.1103 276.90506 C 570.67088 276.72072 547.48654 284.42512 553.41945 272.58336 z M 536.37811 273.10736 C 541.83313 273.99799 531.98805 275.91451 536.37811 273.10736 z M 541.58968 273.54816 C 548.06758 275.4156 538.22348 278.70865 541.58968 273.54816 z M 547.15988 273.57607 C 553.11783 281.08687 542.09358 279.64121 547.15988 273.57607 z M 564.61463 276.66373 C 567.9728 277.97413 562.65804 279.17033 564.61463 276.66373 z M 570.15693 277.57427 C 575.54784 280.4175 568.22339 282.66764 570.15693 277.57427 z M 563.29017 279.477 C 569.1309 282.27815 557.79306 282.59974 563.29017 279.477 z M 582.92463 280.55187 C 588.71727 291.6673 599.68415 298.69135 606.67098 308.92016 C 608.81191 305.24941 591.95322 286.35954 582.92463 280.55187 z M 568.08936 283.11657 C 570.51381 285.38975 563.9718 284.29674 568.08936 283.11657 z M 566.79279 286.34273 C 570.04377 287.81844 564.73402 288.35243 566.79279 286.34273 z M 576.11316 289.0175 C 579.38717 290.46015 573.65865 292.97477 576.11316 289.0175 z M 577.62986 293.40225 C 580.64941 294.72066 573.4081 296.18134 577.62986 293.40225 z M 586.70114 304.87338 C 591.37271 306.71477 581.8402 308.11234 586.70114 304.87338 z M 590.7288 311.07817 C 593.96074 313.22411 585.77469 312.79132 590.7288 311.07817 z M 594.20197 311.24353 C 599.29735 313.01278 590.60036 314.93431 594.20197 311.24353 z M 603.88097 315.54508 C 609.64957 318.64378 600.13409 320.1235 603.88097 315.54508 z M 597.98004 317.36461 C 602.44825 322.74249 596.20276 320.25993 597.98004 317.36461 z M 594.64381 317.53101 C 599.44963 322.56225 591.68636 322.3739 594.64381 317.53101 z M 607.32727 318.99138 C 611.6963 322.09208 606.35948 322.82442 607.32727 318.99138 z M 604.76257 319.87402 C 609.38206 322.78837 600.23225 322.54491 604.76257 319.87402 z M 602.8061 322.96272 C 608.17396 329.9155 601.22219 330.13791 602.8061 322.96272 z M 600.90234 326.38215 C 606.0528 331.86221 596.8619 331.11684 600.90234 326.38215 z M 567.64856 343.69892 C 569.71935 352.10336 556.71223 365.69625 545.12693 359.49485 C 532.00283 361.05973 534.3992 339.67551 523.52722 346.62329 C 526.124 350.7178 526.94046 371.8425 537.49484 361.56863 C 540.6246 362.32402 545.4355 361.77131 553.19776 362.55875 C 562.48784 363.31815 594.32861 373.92743 579.29901 355.98447 C 563.70836 344.06457 583.61273 350.2331 591.02336 354.03007 C 589.31227 348.57125 574.98228 345.346 567.64856 343.69892 z M 557.08589 345.57426 C 553.38209 345.62236 549.68207 345.81091 545.98528 346.03831 C 520.0887 348.18627 563.09494 350.54039 557.08589 345.57426 z M 570.791 349.90319 C 574.14917 351.2136 568.83441 352.4098 570.791 349.90319 z M 530.22758 350.75895 C 535.15363 353.49698 524.89779 354.04499 530.22758 350.75895 z M 607.54948 350.89641 C 613.95324 355.97273 600.84316 354.88174 607.54948 350.89641 z M 611.85051 352.52319 C 614.98426 355.74008 607.95135 356.43637 611.85051 352.52319 z M 566.15872 352.60638 C 572.88709 353.97389 563.26741 356.41137 566.15872 352.60638 z M 523.94115 352.66013 C 521.88537 353.44357 520.47174 355.2 519.12025 356.833 C 509.88328 368.75892 521.06186 359.43457 523.94115 352.66013 z M 532.48998 355.17005 C 536.73176 359.43489 527.02994 357.17875 532.48998 355.17005 z M 606.61104 356.05165 C 610.31885 361.16004 601.05684 358.6845 606.61104 356.05165 z M 563.92527 356.07956 C 570.13667 355.89823 565.48112 360.7852 563.92527 356.07956 z M 578.29183 357.84482 C 583.26597 359.5139 574.75834 360.01782 578.29183 357.84482 z M 571.34239 358.23033 C 577.73814 358.65711 567.7568 363.27159 571.34239 358.23033 z M 506.98301 359.30675 C 502.78629 369.4574 498.17681 381.76089 507.37472 390.73739 C 507.49894 380.19201 512.94605 372.05673 523.65072 377.18215 C 541.36326 359.82726 505.58844 378.39381 506.98301 359.30675 z M 562.43595 359.58219 C 566.18083 361.7151 558.58588 361.86037 562.43595 359.58219 z M 533.31732 360.46379 C 536.67147 362.42939 529.38309 363.848 533.31732 360.46379 z M 567.73072 360.54698 C 572.40332 362.13991 565.42749 363.823 567.73072 360.54698 z M 576.77513 361.70505 C 581.58397 363.27593 573.64939 365.25056 576.77513 361.70505 z M 625.19698 366.64119 C 623.20332 369.42029 622.61616 372.83347 621.66541 376.03234 C 613.09366 396.23746 630.64499 375.47142 625.19698 366.64119 z M 544.79155 366.93471 C 530.46825 367.09201 524.09518 378.08478 540.64659 386.95106 C 555.76336 392.20471 578.03362 393.26198 590.07974 380.77004 C 590.41135 366.48879 561.87777 368.98606 549.47499 367.24787 C 547.92387 367.02599 546.35841 366.92161 544.79155 366.93471 z M 507.28635 367.52382 C 512.84556 372.05615 501.57685 371.76862 507.28635 367.52382 z M 523.72049 371.05332 C 530.13428 374.29929 515.58756 378.66931 523.72049 371.05332 z M 510.98121 371.93595 C 513.73025 376.14568 504.33901 374.51169 510.98121 371.93595 z M 516.55142 371.93595 C 520.29528 374.06786 512.70033 374.21414 516.55142 371.93595 z M 505.43788 373.14777 C 508.12282 376.76841 501.28025 375.13641 505.43788 373.14777 z M 232.07627 375.10475 C 242.77414 375.10475 246.39375 378.04669 246.39375 378.04669 L 240.07527 389.45633 C 234.63277 387.85657 228.77878 387.9288 223.70831 389.45633 L 217.38931 378.04669 C 217.38931 378.04669 222.5512 375.10475 232.07627 375.10475 z M 1112.6096 375.10475 C 1123.3075 375.10475 1126.9271 378.04669 1126.9271 378.04669 L 1120.6086 389.45633 C 1115.1661 387.85657 1109.3121 387.9288 1104.2416 389.45633 L 1097.9226 378.04669 C 1097.9226 378.04669 1103.0845 375.10475 1112.6096 375.10475 z M 106.18938 375.24893 C 116.02386 375.24893 120.69134 378.04721 120.69134 378.04721 L 114.37235 389.45633 C 108.85593 387.63487 103.07642 387.9288 98.005904 389.45633 L 91.68691 378.04721 C 91.68691 378.04721 97.648266 375.24893 106.18938 375.24893 z M 986.72272 375.24893 C 996.5572 375.24893 1001.2247 378.04721 1001.2247 378.04721 L 994.9062 389.45633 C 989.38978 387.63487 983.60973 387.9288 978.53924 389.45633 L 972.22024 378.04721 C 972.22024 378.04721 978.1816 375.24893 986.72272 375.24893 z M 504.63845 377.22969 C 509.76287 382.16075 500.6882 381.83814 504.63845 377.22969 z M 88.05509 379.50035 L 94.374084 390.93376 C 90.046089 393.08583 86.205566 396.55292 82.946875 401.18016 L 72.099992 393.4287 C 76.723837 386.75906 82.062048 382.26932 88.05509 379.50035 z M 124.32316 379.50035 C 130.31623 382.26931 135.65397 386.75906 140.27774 393.4287 L 129.43138 401.18016 C 126.17288 396.55292 122.33143 393.08583 118.00365 390.93376 L 124.32316 379.50035 z M 213.7575 379.50035 L 220.07701 390.93376 C 215.74901 393.08583 211.90778 396.55292 208.64928 401.18016 L 197.80291 393.4287 C 202.42661 386.75906 207.7644 382.26932 213.7575 379.50035 z M 250.02557 379.50035 C 256.01854 382.26931 261.35635 386.75906 265.98015 393.4287 L 255.13378 401.18016 C 251.87528 396.55292 248.03457 393.08583 243.70657 390.93376 L 250.02557 379.50035 z M 968.58842 379.50035 L 974.90742 390.93376 C 970.57941 393.08583 966.73891 396.55292 963.48021 401.18016 L 952.63384 393.4287 C 957.2577 386.75906 962.59539 382.26932 968.58842 379.50035 z M 1004.8565 379.50035 C 1010.8496 382.26931 1016.1873 386.75906 1020.8111 393.4287 L 1009.9647 401.18016 C 1006.7062 396.55292 1002.8648 393.08583 998.53698 390.93376 L 1004.8565 379.50035 z M 1094.2913 379.50035 L 1100.6103 390.93376 C 1096.2823 393.08583 1092.4411 396.55292 1089.1826 401.18016 L 1078.3362 393.4287 C 1082.9599 386.75906 1088.2985 382.26932 1094.2913 379.50035 z M 1130.5589 379.50035 C 1136.5519 382.26931 1141.8897 386.75906 1146.5135 393.4287 L 1135.6671 401.18016 C 1132.4086 396.55292 1128.5679 393.08583 1124.2399 390.93376 L 1130.5589 379.50035 z M 515.20008 379.87707 C 515.66192 383.94254 519.31273 386.50238 522.09785 389.04705 C 538.89471 404.4193 522.48645 384.77708 515.20008 379.87707 z M 599.11123 381.91829 C 603.81287 385.41471 595.59477 385.45278 599.11123 381.91829 z M 641.60321 384.2892 L 641.34173 386.82393 L 641.38101 389.88163 C 644.04488 402.30646 636.30339 395.49086 630.47366 396.3324 C 616.10828 384.02579 623.12444 396.68626 628.94714 406.5664 C 629.64042 429.13687 644.06199 390.45768 651.98656 409.16004 C 657.00178 404.88418 645.98726 390.42649 641.60321 384.2892 z M 599.49674 386.93607 C 602.91102 388.56006 595.74283 388.75241 599.49674 386.93607 z M 614.0018 388.14943 C 610.31201 388.69343 604.2387 389.3277 605.15738 394.78572 C 595.11293 411.43631 623.66155 395.56305 614.0018 388.14943 z M 535.57764 389.00416 C 540.87638 400.12058 527.3982 404.4232 519.02982 399.54926 C 512.71923 405.79773 546.06459 408.18922 543.42574 420.62807 C 542.69941 418.43604 520.36236 405.92326 525.92759 419.0013 C 516.76576 427.55701 534.16706 429.51146 537.70155 422.31324 C 542.71075 431.38891 569.08915 417.09656 548.97218 421.52569 C 554.55343 416.4073 537.27959 409.96252 537.90774 400.92592 C 550.33457 397.15999 550.92886 389.94288 535.57764 389.00416 z M 613.69794 389.77673 C 616.04826 394.52845 606.57486 390.85069 613.69794 389.77673 z M 580.22143 391.70632 C 575.21424 394.05563 569.67924 395.4071 564.13404 395.3831 C 566.67071 396.09841 576.74697 405.92613 570.67783 411.57953 C 571.52037 411.17178 572.57765 410.78041 573.90709 410.43076 C 573.7969 419.23394 565.56249 416.34437 568.62111 413.00425 C 567.73303 413.46041 566.80395 413.83166 565.84608 414.11322 C 565.29107 419.62634 588.14021 417.79187 593.83869 410.15584 C 584.78906 415.15703 577.89995 406.6126 578.2045 398.28628 C 577.28482 398.27426 576.44727 397.75001 578.31871 396.64297 C 578.33671 396.65297 578.34615 396.66139 578.36315 396.67139 C 578.63064 394.92318 579.22961 393.22364 580.22143 391.70684 L 580.22143 391.70632 z M 540.43006 392.23084 C 544.67186 396.49567 534.97004 394.23953 540.43006 392.23084 z M 608.09983 392.313 C 616.14261 396.40251 603.50438 397.88223 608.09983 392.313 z M 544.78845 393.11347 C 548.14262 395.07807 540.85423 396.49668 544.78845 393.11347 z M 600.84808 394.32684 C 596.95813 395.81862 593.78012 398.60982 590.00533 400.32492 C 572.49096 406.74442 599.2629 402.22065 600.84808 394.32684 z M 645.38128 394.87771 C 649.12616 397.00962 641.5312 397.15588 645.38128 394.87771 z M 618.46768 395.15417 C 616.9038 397.55658 614.35205 399.22988 613.12278 401.85971 C 618.45561 413.71049 630.80834 404.18878 618.46768 395.15417 z M 572.14285 396.64297 C 575.88774 398.77489 568.29278 398.92116 572.14285 396.64297 z M 606.99654 398.40721 C 611.22431 399.95304 602.55139 400.53812 606.99654 398.40721 z M 575.86563 399.28984 C 578.88417 400.60827 571.64387 402.06995 575.86563 399.28984 z M 648.91181 399.28984 C 656.09502 405.45617 642.66232 405.45516 648.91181 399.28984 z M 632.94535 399.48311 C 636.62009 405.0884 624.4838 401.94463 632.94535 399.48311 z M 645.73991 399.62057 C 648.42485 403.24122 641.58227 401.60922 645.73991 399.62057 z M 638.76411 401.08301 C 642.03713 402.52467 636.30961 405.03829 638.76411 401.08301 z M 512.71858 401.60649 C 504.52351 409.21348 527.11501 406.42334 512.71858 401.60649 z M 635.7307 401.90983 C 639.18506 405.52647 632.52883 403.89748 635.7307 401.90983 z M 542.88469 402.5439 C 547.06537 406.10144 552.81603 406.65557 558.06568 406.92607 C 580.4478 406.2869 549.71724 405.41618 542.88469 402.5439 z M 532.04814 403.70197 C 537.53222 410.27906 524.77579 407.1393 532.04814 403.70197 z M 506.84451 404.58409 C 503.27496 407.38926 510.19467 406.8152 506.84451 404.58409 z M 632.11801 405.6326 C 637.40271 409.31738 627.17893 412.19166 632.11801 405.6326 z M 637.77141 405.6326 C 639.18601 407.93584 636.46701 408.2424 637.77141 405.6326 z M 537.39769 405.79797 C 542.05023 409.52182 532.98958 409.42465 537.39769 405.79797 z M 519.58379 407.75547 C 513.55071 409.48466 508.12569 413.08732 503.96304 417.7559 C 489.94628 437.12949 513.46859 413.56015 519.58482 407.75547 L 519.58379 407.75547 z M 645.27224 409.05203 C 643.86565 419.08246 645.04174 429.26699 643.70128 439.30342 C 650.33146 431.8337 646.14985 418.57051 645.27224 409.05203 z M 602.35238 409.82873 C 601.84444 409.82372 601.39414 409.86534 601.01344 409.96154 C 606.61874 415.38049 615.06627 415.82649 621.64836 419.60643 C 630.54269 420.6774 609.97138 409.90893 602.35238 409.82873 z M 578.20863 409.98893 C 586.74431 412.76703 570.23699 415.31371 578.20863 409.98893 z M 583.97159 411.06483 C 586.39605 413.33801 579.85503 412.245 583.97159 411.06483 z M 495.20802 412.63683 C 482.57681 421.42998 482.37648 439.94489 487.75938 452.92274 C 497.11356 468.64463 483.23901 432.0562 491.75965 448.81498 C 495.83214 445.36265 501.39567 438.89602 507.48685 447.4347 C 519.42478 455.99242 513.65599 447.18333 516.53126 437.61877 C 523.45699 427.20263 513.80818 426.59116 504.14442 430.89308 C 489.11081 439.66118 497.17662 419.43837 495.20802 412.63786 L 495.20802 412.63683 z M 598.25237 413.5453 C 599.41451 422.86842 566.14647 414.425 578.20863 425.22986 C 576.99941 415.36273 589.18169 430.56258 596.5362 431.72972 C 612.70892 435.45557 600.34422 421.46785 598.25237 413.5453 z M 529.78678 414.29151 C 533.20107 415.91549 526.0329 416.10685 529.78678 414.29151 z M 529.29069 417.82101 C 537.35249 418.33595 521.70475 419.8848 529.29069 417.82101 z M 537.06696 417.82101 C 538.44249 422.08884 528.79777 419.25765 537.06696 417.82101 z M 489.55461 420.77173 C 491.97907 423.04391 485.43706 421.95089 489.55461 420.77173 z M 593.84334 420.99187 C 601.65369 423.44238 588.8692 426.85565 593.84334 420.99187 z M 529.12429 422.28844 L 529.91287 422.98348 C 527.3151 425.74055 522.99303 422.50183 529.12429 422.28844 z M 630.90464 423.66716 C 629.40989 429.6221 626.99628 435.33326 623.87355 440.61497 C 610.25554 456.06333 633.15854 447.39749 640.94486 446.18827 C 638.85501 466.25814 652.78881 443.61778 654.10323 436.18113 C 658.69466 426.98623 653.98879 422.17613 651.38401 434.60396 C 643.90225 452.85047 638.87427 427.17561 630.90464 423.66716 z M 600.02074 423.99738 C 603.38291 426.60015 595.27199 426.47192 600.02074 423.99738 z M 625.03162 423.99738 C 621.1565 428.21913 614.7989 428.60983 610.46093 432.21444 C 608.96718 446.65698 632.42621 437.25773 625.03162 423.99738 z M 586.67427 424.02528 C 590.03244 425.33469 584.71768 426.53089 586.67427 424.02528 z M 593.98183 425.78951 C 600.3836 426.00792 594.32846 430.59836 593.98183 425.78951 z M 544.61895 427.06592 C 531.73629 427.36548 515.39847 432.94999 519.93881 448.3623 C 530.9811 459.01689 554.09457 448.67771 569.86754 453.91131 C 585.44917 458.26733 608.80799 464.73946 616.52516 444.36202 C 599.54096 430.7881 577.02671 426.95885 555.81775 427.16824 C 553.83118 427.16724 551.84428 427.19317 549.85843 427.24627 C 548.11706 427.08144 546.36753 427.02112 544.61895 427.06592 z M 622.43901 428.60278 C 626.50748 431.54318 616.441 431.94592 622.43901 428.60278 z M 489.19598 429.29111 C 492.61026 430.91609 485.44208 431.10744 489.19598 429.29111 z M 601.26201 429.29111 C 605.00587 431.42402 597.41092 431.56929 601.26201 429.29111 z M 617.72457 432.04908 C 625.94868 436.63751 605.2747 435.96227 617.72457 432.04908 z M 503.48038 432.13125 C 512.77946 433.70713 497.6687 438.24547 503.48038 432.13125 z M 486.41114 432.87694 C 495.4818 440.86862 482.95279 441.28739 486.41114 432.87694 z M 497.12469 434.48666 C 504.905 434.53474 496.32347 444.02399 494.1595 434.80705 C 495.34067 434.57767 496.32022 434.48269 497.12469 434.48769 L 497.12469 434.48666 z M 512.19458 434.64117 C 521.2412 440.65221 502.37255 441.15814 512.19458 434.64117 z M 491.84388 436.35114 C 495.58775 438.48305 487.99279 438.62831 491.84388 436.35114 z M 635.34468 437.23274 C 639.87802 438.14943 634.96298 440.76925 635.34468 437.23274 z M 505.16245 438.11641 C 508.6188 444.91389 495.80526 438.90887 505.16245 438.11641 z M 633.02751 440.76328 C 635.66836 444.79467 628.75566 446.31347 633.02751 440.76328 z M 628.09241 440.79015 C 637.68904 445.57694 612.60997 443.76762 628.09241 440.79015 z M 509.71307 440.92864 C 515.1731 448.62178 504.79905 447.37349 509.71307 440.92864 z M 493.96675 441.97664 C 496.65169 445.5963 489.80911 443.9643 493.96675 441.97664 z M 637.44068 442.52751 C 640.85394 444.1525 633.68578 444.34385 637.44068 442.52751 z M 505.16245 442.94144 C 509.48339 444.78782 502.62379 445.967 505.16245 442.94144 z M 499.97775 447.04972 C 500.80728 457.43279 506.84959 467.81398 516.28993 472.58976 C 517.42902 468.10852 500.88542 457.2184 499.97775 447.04972 z M 650.92461 448.92505 C 650.52689 451.31745 652.21371 453.24014 653.15445 455.23681 C 656.65488 470.59603 658.38833 452.47758 650.92461 448.92505 z M 637.05414 449.89089 C 634.46939 452.5127 632.32326 455.51149 629.98997 458.3467 C 614.70089 474.4573 637.23548 459.49654 637.05414 449.89089 z M 663.47061 451.87474 C 665.11363 463.95695 651.84921 473.79774 666.11541 484.39421 C 676.65979 484.00549 665.36083 487.31562 671.12441 493.3487 C 677.35886 481.0441 670.63378 463.83874 663.47061 451.87474 z M 618.30231 452.23441 C 599.61698 457.72651 627.54761 470.99605 607.31745 462.09169 C 598.95208 458.0643 574.99704 485.61688 586.45309 468.28304 C 583.66597 466.86645 573.55643 474.68251 565.705 473.861 C 567.43819 485.30699 556.36442 466.11056 547.62135 473.93593 C 551.50249 477.19993 578.92128 492.08657 555.55937 495.78938 C 552.19017 496.87733 575.8997 496.62103 583.90441 496.96967 C 601.08398 496.45673 580.41863 494.63331 575.70698 489.74633 C 580.52282 482.98091 589.44863 471.45562 599.54118 473.9442 C 616.59953 480.5844 619.62774 465.44568 618.30231 452.23441 z M 520.21941 455.15671 L 520.21941 455.15775 C 517.3822 455.17579 517.07545 458.3187 518.12238 460.22721 C 526.45067 470.68942 517.71629 481.16451 506.62592 475.92289 C 507.94133 490.15202 523.83191 468.19586 520.0189 484.79935 C 505.86892 481.10056 537.77741 498.62546 526.25625 486.17859 C 516.72073 474.16157 530.96801 471.05389 541.27394 474.18966 C 543.21852 470.90762 524.82787 462.71661 520.21941 455.15671 z M 550.5788 455.76391 L 548.28695 458.38236 C 542.55841 460.6395 541.06135 462.91797 541.92093 464.87757 C 541.88587 464.60508 542.15359 464.2205 543.02319 463.70555 C 545.6951 465.22633 542.60947 465.73006 542.01136 465.07084 C 543.72251 468.34085 551.99059 470.67397 557.90445 470.44054 C 575.12409 475.95667 558.1487 458.20842 550.5788 455.76391 z M 521.15579 459.29341 C 524.17533 460.61183 516.93403 462.07251 521.15579 459.29341 z M 555.37695 459.29341 C 558.73212 461.25902 551.44373 462.67662 555.37695 459.29341 z M 666.91795 460.50626 C 669.60288 464.1269 662.76031 462.49491 666.91795 460.50626 z M 549.69616 461.94131 C 552.93511 463.93698 544.95845 463.38196 549.69616 461.94131 z M 556.61822 463.15312 C 559.30316 466.77377 552.45959 465.14177 556.61822 463.15312 z M 522.28595 463.73242 C 525.55997 465.17507 519.83145 467.68968 522.28595 463.73242 z M 525.81648 463.73242 C 529.0895 465.17507 523.36197 467.68968 525.81648 463.73242 z M 603.35697 463.87091 C 618.27238 463.62646 602.04155 472.14111 603.35697 463.87091 z M 663.19518 464.94681 C 670.03375 470.78554 655.52109 471.73529 663.19518 464.94681 z M 552.14666 465.01864 C 557.2881 464.78822 549.35449 469.81064 550.9364 465.13905 C 551.33771 465.08003 551.74158 465.03984 552.14666 465.01864 z M 645.31823 465.61706 C 644.15411 465.55294 642.8384 465.6259 641.35568 465.85632 C 634.48807 473.48835 640.99536 483.2925 641.48126 491.82218 C 646.06467 498.48743 662.78234 466.58784 645.31823 465.61706 z M 666.55931 465.66305 C 671.65467 467.43329 662.9577 469.35484 666.55931 465.66305 z M 601.09561 467.26295 C 613.34011 472.75004 592.70619 472.62281 601.09561 467.26295 z M 491.7059 467.87015 C 490.91243 468.11961 490.06297 468.21386 489.33964 468.65667 C 473.40537 472.72213 495.09513 474.72073 491.7059 467.87015 z M 579.946 468.09029 C 576.02178 470.5999 582.52573 470.26127 579.946 468.09029 z M 523.61042 468.11716 C 526.96458 470.08177 519.67619 471.50038 523.61042 468.11716 z M 594.64381 468.99928 C 599.11702 471.49185 590.38598 471.70925 594.64381 468.99928 z M 613.61474 468.99928 C 617.35962 471.13219 609.76467 471.27746 613.61474 468.99928 z M 642.21041 469.27575 C 644.55572 472.00376 637.91552 471.42871 642.21041 469.27575 z M 608.87188 469.33053 C 613.04253 471.69287 606.0507 472.62257 608.87188 469.33053 z M 667.60731 470.37852 C 677.14282 474.76258 665.91018 478.38123 667.60731 470.37852 z M 632.17278 470.76455 C 622.57014 470.4119 612.84434 477.12502 611.93267 487.14443 C 599.42269 496.69898 617.28457 487.13863 620.96933 483.03408 C 619.04481 474.9322 631.35828 476.91184 632.17278 470.76455 z M 495.64882 471.48182 C 484.11664 474.93014 477.66368 485.87983 471.15574 495.12482 C 461.5551 486.48595 457.27668 513.36377 461.20389 522.94637 C 465.32146 524.37099 465.19118 521.87721 464.38871 518.3327 C 463.31574 519.49183 458.55357 518.89162 462.80638 515.96024 C 463.38746 516.30087 463.76115 516.60439 464.04868 516.8899 C 462.93663 512.32853 461.51648 506.77256 466.07284 505.23273 C 463.87882 509.93136 469.66123 515.60459 470.00387 504.65447 C 474.45004 513.62696 485.42809 500.86844 483.56066 511.67729 C 496.45134 524.31952 492.26667 503.46543 498.16753 497.38928 C 503.9211 495.58696 505.82669 490.27531 505.71849 485.48251 C 504.80481 485.94837 502.64776 484.78299 505.43788 483.44853 C 505.49705 483.52868 505.52834 483.59188 505.57844 483.66608 C 504.67678 476.74136 499.73277 472.18307 497.00274 483.8485 C 507.72244 498.87511 485.05053 494.50406 476.65411 496.95055 C 473.42818 491.80309 489.52256 478.6069 495.64882 471.48182 z M 664.60181 472.5293 C 673.50817 481.43165 662.82154 481.68411 664.60181 472.5293 z M 644.69295 472.69466 C 644.70795 482.51269 633.40221 477.62372 644.69295 472.69466 z M 648.91078 473.4109 C 652.64965 476.81014 645.10378 476.42343 648.91078 473.4109 z M 574.8445 473.63156 C 573.8627 482.99576 558.88318 475.38978 574.8445 473.63156 z M 662.14718 474.29353 C 665.89206 476.42645 658.29711 476.57171 662.14718 474.29353 z M 635.84078 474.37673 C 628.81787 477.28006 640.41818 481.52686 635.84078 474.37673 z M 617.36593 477.38275 C 621.40737 483.45991 612.96987 484.35857 617.36593 477.38275 z M 646.42928 477.87832 C 648.81565 482.92159 640.27296 480.09639 646.42928 477.87832 z M 659.38973 478.26538 C 659.01705 488.7326 657.11577 499.10226 654.2505 509.16375 C 658.96116 508.27212 659.66023 487.51537 659.38973 478.26538 z M 670.75079 478.26538 C 676.21983 484.46977 661.63103 485.71205 670.75079 478.26538 z M 574.4838 478.56149 L 574.48483 478.56149 C 575.84433 478.4563 577.23573 479.48646 577.28983 480.97219 C 574.87339 482.76649 564.97669 484.6758 573.90709 478.67879 C 574.09388 478.61607 574.28735 478.57659 574.4838 478.56149 z M 610.60924 479.31286 C 605.65515 481.31654 600.71727 483.40556 595.56882 484.87325 C 572.29305 489.50476 606.35746 487.26946 610.61027 479.31286 L 610.60924 479.31286 z M 501.88048 479.5883 C 507.75927 482.75112 498.34598 481.5409 501.88048 479.5883 z M 560.33996 479.91903 C 564.51062 482.28236 557.51778 483.21207 560.33996 479.91903 z M 642.48585 480.6363 C 646.4291 485.51126 637.56681 483.78208 642.48585 480.6363 z M 531.00118 480.71846 C 535.95029 483.86925 541.54243 485.86206 547.22086 487.22556 C 569.58495 492.08548 538.69332 482.66604 531.00118 480.71846 z M 649.29732 481.79436 C 649.04686 488.22016 640.75863 482.63891 649.29732 481.79436 z M 500.33639 482.56589 C 504.98893 486.29073 495.92828 486.19255 500.33639 482.56589 z M 573.43787 484.91045 C 576.79604 486.22086 571.48128 487.41705 573.43787 484.91045 z M 522.81098 485.29699 C 527.13192 487.14238 520.2723 488.32255 522.81098 485.29699 z M 644.49865 485.76466 C 648.24353 487.89759 640.64857 488.04285 644.49865 485.76466 z M 619.87431 487.55835 C 607.06578 492.77895 619.51566 497.70483 626.00158 499.54522 C 630.60904 511.91495 644.45548 491.41829 632.68386 492.60146 C 628.65747 500.63221 618.75126 497.52166 619.87431 487.55835 z M 513.62808 488.41257 C 506.34069 493.9277 494.65595 502.87544 499.58501 513.41982 C 511.80547 529.55647 533.1038 534.90502 552.31409 536.96981 C 575.21516 538.86029 601.48272 535.6595 618.59015 518.87065 C 637.37666 511.10839 619.69509 495.66317 606.8565 496.2803 C 576.08296 503.11386 542.18053 503.27988 513.62808 488.41257 z M 580.4147 492.99006 C 581.83031 495.2933 579.1113 495.59987 580.4147 492.99006 z M 567.8134 494.69952 C 571.8418 494.71962 565.1986 496.2123 567.8134 494.69952 z M 632.14591 495.47053 C 635.88378 498.87077 628.33791 498.48406 632.14591 495.47053 z M 464.82021 496.51956 C 466.23481 498.82379 463.51582 499.12935 464.82021 496.51956 z M 640.225 496.98827 L 640.225 496.9893 C 640.13583 499.33561 637.93633 500.94294 636.97456 502.85044 C 640.00311 508.94765 631.22407 513.90344 624.64198 518.59005 C 621.96173 522.0212 618.8963 525.13363 615.5061 527.86545 C 618.13493 529.67779 614.05339 530.46025 614.39402 528.73207 C 607.12567 534.31633 598.73035 538.09495 589.43327 541.13855 C 573.9348 539.02266 582.36144 553.37197 594.37251 550.46563 C 618.41468 549.11214 580.15231 576.30918 600.02281 569.01178 C 603.79674 565.43621 629.37985 560.30271 616.5603 557.26211 C 610.05234 558.06559 607.60788 554.15968 607.82026 550.29458 C 606.89357 551.16218 603.41333 551.58562 605.70153 548.91171 C 606.96685 549.075 607.63401 549.3227 607.9045 549.58919 C 608.38939 546.09979 610.98322 542.88198 614.70305 543.51514 C 610.01645 530.89296 625.18435 521.96863 638.39462 523.66674 C 651.16709 513.59022 649.6419 532.03315 648.70717 539.94069 C 654.49983 532.2766 664.74876 522.05168 664.42818 511.41013 C 656.30425 521.7331 650.18394 513.59197 644.70587 504.47722 C 643.51268 505.62032 636.92586 506.24635 640.41827 502.80704 C 642.32178 502.98436 643.45185 503.23311 644.12709 503.5026 C 642.80165 501.26649 641.49934 499.01399 640.225 496.98827 z M 483.76427 497.04356 C 485.30911 502.77009 473.53148 499.55218 483.76427 497.04356 z M 672.84679 497.29213 C 671.39412 498.06354 671.58334 499.83676 671.12751 501.14615 C 660.50599 513.36962 676.03464 506.38483 672.84679 497.29213 z M 489.2244 497.843 C 500.2146 502.33726 486.38919 505.40489 489.2244 497.843 z M 467.13634 499.00107 C 470.2691 502.21798 463.23718 502.91425 467.13634 499.00107 z M 475.96061 499.00107 C 479.70549 501.13398 472.11053 501.27925 475.96061 499.00107 z M 484.6469 500.98699 C 488.16938 503.5537 479.9643 503.59178 484.6469 500.98699 z M 471.98928 501.64793 C 476.21704 503.19377 467.54411 503.77885 471.98928 501.64793 z M 475.07798 502.61377 C 479.74956 504.20668 472.77375 505.88978 475.07798 502.61377 z M 487.43071 504.29583 C 491.16959 507.69509 483.62373 507.30837 487.43071 504.29583 z M 490.07861 505.17743 C 493.81748 508.57669 486.27162 508.18998 490.07861 505.17743 z M 486.10831 509.58957 C 491.03335 512.32861 480.77751 512.87561 486.10831 509.58957 z M 491.37517 510.25103 C 496.13692 512.49714 486.62545 513.11127 491.37517 510.25103 z M 641.49314 510.4722 C 644.85532 513.07498 636.74442 512.94675 641.49314 510.4722 z M 636.36374 512.23747 C 641.65547 521.16186 630.20242 521.72489 636.36374 512.23747 z M 645.54768 512.67827 C 649.89567 518.12327 638.54181 514.82421 645.54768 512.67827 z M 472.46935 512.97592 C 472.88713 521.24311 477.10183 529.18564 483.25112 534.63765 C 490.50846 536.12439 473.40007 520.68008 472.46935 512.97592 z M 769.74578 516.6496 C 765.88068 523.2958 782.27881 520.43856 769.74578 516.6496 z M 631.12478 516.67699 C 635.72623 524.72878 622.56005 519.25374 631.12478 516.67699 z M 642.73441 517.5312 C 646.14868 519.15618 638.98052 519.34754 642.73441 517.5312 z M 654.20555 517.5312 C 657.95043 519.66412 650.35547 519.80938 654.20555 517.5312 z M 495.56562 517.55911 C 491.72056 518.45976 495.92047 520.88429 494.91863 523.31276 C 488.76132 537.44472 500.13039 545.51694 513.51698 539.92467 C 537.50003 537.24675 507.70492 534.49932 502.99927 524.35869 C 503.96905 539.19695 500.54477 521.18376 495.56562 517.55911 z M 766.35374 520.1791 C 767.81544 530.77557 779.03704 526.40455 766.35374 520.1791 z M 658.72775 521.0607 C 661.1552 523.42504 653.02928 522.90008 658.72775 521.0607 z M 633.35927 521.2271 C 634.77388 523.53033 632.05589 523.8369 633.35927 521.2271 z M 624.20428 521.94333 C 627.61856 523.56832 620.45038 523.75967 624.20428 521.94333 z M 763.98127 523.7086 C 765.7946 536.25766 776.70065 530.27668 763.98127 523.7086 z M 653.32395 524.5902 C 662.51884 531.65318 645.01368 529.89696 653.32395 524.5902 z M 644.85831 524.72869 C 636.64823 534.29327 627.44409 543.17136 616.68432 549.83259 C 620.31599 551.35438 641.92293 536.82993 644.85831 524.72869 z M 666.6513 525.60099 L 666.6513 525.60203 C 665.71057 525.60443 664.77015 525.62581 663.83028 525.66611 C 666.64345 533.19995 682.72464 547.67884 688.60345 545.95066 C 696.93174 552.37547 704.97555 557.32458 715.20234 554.78991 C 719.95105 539.67213 703.60804 549.7285 695.77665 546.40541 C 695.78867 538.42575 692.24638 533.28445 686.97771 530.10563 C 689.2068 539.85353 679.09821 535.43002 686.79736 529.99504 C 681.25617 526.72302 673.85453 525.58299 666.6513 525.60099 z M 761.85944 527.21123 C 765.4831 544.27958 770.88802 531.93291 761.85944 527.21123 z M 498.02025 528.12074 C 501.75912 531.51998 494.21326 531.13327 498.02025 528.12074 z M 669.28938 529.00234 L 670.90737 529.68757 C 681.60002 536.72248 669.17217 537.24649 669.28938 529.00234 z M 675.27299 529.00234 C 686.17701 534.26 669.78291 533.15697 675.27299 529.00234 z M 758.74283 529.11241 C 758.04255 543.51887 768.72917 538.90539 758.74283 529.11241 z M 682.30409 529.22299 C 685.76445 531.39799 677.74671 531.58232 682.30409 529.22299 z M 497.05545 532.53287 C 501.36937 534.67781 494.49274 535.61553 497.05545 532.53287 z M 508.60978 532.72511 C 513.70515 534.49536 505.00717 536.41589 508.60978 532.72511 z M 755.35131 533.66303 C 755.64384 544.84658 763.98516 544.09019 755.35131 533.66303 z M 679.38179 535.17974 C 691.01717 542.47514 677.60854 543.35676 679.38179 535.17974 z M 516.52351 535.20712 C 521.49764 536.87619 512.99002 537.38011 516.52351 535.20712 z M 501.05417 536.06237 C 505.50435 536.7857 497.55573 538.14219 501.05417 536.06237 z M 604.01895 536.06237 C 607.81893 538.37161 598.13013 538.49685 604.01895 536.06237 z M 751.02134 536.11766 C 754.22022 556.25565 758.77858 539.55597 751.02134 536.11766 z M 509.05058 536.945 C 513.27835 538.48983 504.60542 539.07491 509.05058 536.945 z M 608.78971 536.945 C 611.81828 540.27011 603.41584 538.38163 608.78971 536.945 z M 531.93394 537.44575 L 531.93394 537.44678 C 530.97216 537.33558 526.45954 539.23818 528.98218 540.66881 C 543.01295 545.33437 548.20354 567.35392 529.34288 564.24721 C 533.2711 566.86302 538.55306 573.77504 542.19274 566.00576 C 540.94646 570.65831 578.32989 578.28288 558.99637 563.06692 C 542.66838 557.36245 561.65513 556.73147 567.30852 551.62008 C 558.39114 546.67299 571.21011 548.32376 572.79501 543.9978 C 571.82824 543.75536 570.81418 543.58938 569.78228 543.45313 C 571.93924 544.6904 565.49846 545.05619 568.6733 543.32601 C 556.84356 542.15285 541.58352 546.31208 532.07605 537.49587 C 532.03463 537.46547 531.98534 537.44775 531.93394 537.44575 z M 686.24752 537.469 C 696.68669 539.69708 683.91423 545.86442 686.24752 537.469 z M 748.18121 537.8266 C 743.91136 553.95122 757.37711 548.50422 748.18121 537.8266 z M 613.11917 537.9098 C 613.7433 541.58656 605.82076 541.27398 613.11917 537.9098 z M 598.09114 539.89521 C 600.5156 542.16739 593.97357 541.07438 598.09114 539.89521 z M 743.76907 540.06058 L 742.60583 540.74374 L 741.90252 541.89612 C 740.77245 554.48224 750.74589 549.1643 743.76907 540.06058 z M 738.75077 541.3561 C 733.71953 560.34699 745.50318 551.00382 738.75077 541.3561 z M 495.3186 541.77003 L 495.3186 541.77107 C 493.83087 545.23742 487.99778 546.09286 484.78488 544.88664 C 496.95524 541.53047 479.52326 542.56027 476.83033 545.89639 C 485.91 546.72692 486.10049 553.40634 494.64319 554.2008 C 505.99405 568.69041 503.47559 545.40973 495.3186 541.77003 z M 604.62614 541.82481 C 608.62249 543.65517 599.7071 544.52577 604.62614 541.82481 z M 591.6104 542.26561 C 594.84334 544.41255 586.6573 543.97976 591.6104 542.26561 z M 720.05527 543.12137 C 718.0516 544.19835 719.02336 547.00127 718.37217 548.63628 C 713.28984 564.17182 725.74172 550.545 720.05527 543.12137 z M 733.0984 543.25935 L 731.77394 544.28151 L 731.28094 546.09277 C 725.73676 561.93488 741.07506 552.48831 733.0984 543.25935 z M 725.8451 543.36993 C 723.49678 544.2806 724.16308 547.12561 723.96873 548.99905 C 719.50352 564.31118 734.57813 547.90326 725.8451 543.36993 z M 542.19533 543.59008 C 550.4004 548.56721 531.28528 546.29203 542.19533 543.59008 z M 584.49611 544.004 C 588.24098 546.13591 580.64603 546.28118 584.49611 544.004 z M 548.73033 545.54758 C 553.49208 547.79371 543.9816 548.40684 548.73033 545.54758 z M 504.99708 546.18217 C 514.41639 552.00486 525.55999 553.87195 535.92904 557.34634 C 535.4592 551.83922 514.50154 548.73185 504.99708 546.18217 z M 596.29797 546.18217 C 597.17958 551.19637 589.44237 546.85639 596.29797 546.18217 z M 589.40433 546.65087 C 592.64329 548.64653 584.66663 548.09152 589.40433 546.65087 z M 558.05173 546.87101 C 562.78543 548.54609 551.58585 548.5491 558.05173 546.87101 z M 539.9071 547.56038 C 543.26526 548.87078 537.95051 550.06698 539.9071 547.56038 z M 711.01086 547.56038 C 716.50997 553.5083 706.44045 554.00119 703.03719 552.73887 C 690.93294 545.32625 711.02796 556.37657 711.01086 547.56038 z M 492.17461 547.6167 C 500.63015 549.98405 489.40652 553.36927 492.17461 547.6167 z M 601.59274 547.69887 C 603.00735 550.00311 600.28834 550.30967 601.59274 547.69887 z M 543.90582 548.4151 C 547.65069 550.54802 540.05474 550.69329 543.90582 548.4151 z M 553.08769 548.74583 C 555.77262 552.36649 548.93005 550.7345 553.08769 548.74583 z M 498.90288 551.063 C 502.64776 553.19492 495.0528 553.34119 498.90288 551.063 z M 547.9309 551.9446 C 552.85293 555.10742 541.20553 554.09054 547.9309 551.9446 z M 508.16795 552.08361 C 501.77119 554.32073 512.56102 555.6101 508.16795 552.08361 z M 554.0251 554.62041 C 557.38326 555.92982 552.0685 557.12603 554.0251 554.62041 z M 609.53437 556.52314 C 610.94997 558.82637 608.23097 559.13293 609.53437 556.52314 z M 614.58057 559.11471 C 617.73838 562.68727 609.35097 560.79179 614.58057 559.11471 z M 547.65546 559.88727 C 553.6164 563.76639 543.2173 564.26832 547.65546 559.88727 z M 606.96967 560.54821 C 611.73142 562.79434 602.22094 563.40746 606.96967 560.54821 z M 553.99823 563.41677 C 558.4484 564.1391 550.49979 565.4966 553.99823 563.41677 z M 599.49674 563.41677 C 603.24162 565.5487 595.64665 565.69396 599.49674 563.41677 z M 606.05913 563.49894 C 606.68428 567.17669 598.76173 566.86311 606.05913 563.49894 z M 558.05069 565.18152 C 561.51505 571.59431 553.43822 569.23498 558.05069 565.18152 z M 549.19955 566.06364 C 555.59129 567.80685 544.52896 569.90771 549.19955 566.06364 z" style="fill:#000;fill-opacity:1;stroke-width:16.9333;stroke-linecap:round;stroke-linejoin:round;stroke-miterlimit:128"/></svg>