<svg xmlns="http://www.w3.org/2000/svg" xml:space="preserve" width="4608" height="3072" viewBox="0 0 1219.2 812.8"><path d="M 0 0 L 0 812.8 L 1219.2 812.8 L 1219.2 0 L 0 0 z" style="fill:#b00020;stroke-width:16.9333;stroke-linecap:round;stroke-linejoin:round;stroke-miterlimit:128;fill-opacity:1"/><path d="m 609.59999,101.60002 304.8,304.79998 -304.8,304.79999 L 304.80001,406.4 Z" style="fill:#fff;fill-opacity:1;stroke-width:1.05833;stroke-linecap:round;stroke-linejoin:round;stroke-miterlimit:128;paint-order:stroke fill markers"/><path d="M 515.01404 263.91929 L 372.53333 406.4 L 419.82657 453.69272 L 514.81199 359.50622 L 561.70577 406.4 L 466.81853 501.2862 L 609.90076 643.16539 L 752.38147 501.2862 L 657.19399 406.70024 L 704.38801 359.50622 L 798.77192 454.29423 L 846.66667 406.39948 L 704.18544 263.91981 L 609.90076 358.80601 L 515.01404 263.91929 z M 609.5013 454.39294 L 656.99401 501.48619 L 609.75141 548.42957 L 562.90879 500.98544 L 609.5013 454.39294 z" style="fill:#103070;fill-opacity:1;stroke-width:1.05833;stroke-linecap:round;stroke-linejoin:round;stroke-miterlimit:128;paint-order:stroke fill markers"/></svg>