<svg xmlns="http://www.w3.org/2000/svg" xml:space="preserve" id="svg1" width="4608" height="3072" version="1.1" viewBox="0 0 1219.2 812.8"><defs id="defs1"><style id="style1">.cls-1{fill:#0283c0}.cls-2{fill:#fff}.cls-3{fill:#ef483f}</style></defs><path id="rect1" d="m 0,0 v 812.8 l 338.66665,-4e-5 V -4.2724609e-5 Z M 880.53329,-4.2724609e-5 V 812.79996 L 1219.2,812.8 V 0 Z" style="fill:#2060c0;fill-opacity:1;fill-rule:evenodd;stroke:none;stroke-width:8.46667;stroke-linecap:round;stroke-linejoin:round"/><path id="path1" d="m 338.66665,0 0,812.79996 541.86664,0 V -4.2724609e-5 Z" style="fill:#fff;fill-opacity:1;fill-rule:evenodd;stroke:none;stroke-width:8.46667;stroke-linecap:round;stroke-linejoin:round"/><path id="path1-9" d="M 730.2676,362.0395 C 777.478,351.97879 812.8,306.16484 812.8,266.22905 c 0,-79.02266 -45.15581,-90.31162 -45.15581,-90.31162 0,80.9034 -21.69284,96.65713 -22.5779,97.83683 v -63.96997 c -56.44476,11.28895 -56.44476,109.12578 -56.44476,131.70481 0,8.37076 -6.11183,15.32475 -14.10441,16.67716 -6.51937,-49.8441 -23.23605,-81.05805 -38.07651,-99.6916 6.51373,-7.12445 14.09765,-19.4757 17.04519,-39.76984 7.43491,-3.69375 12.55783,-11.34427 12.55783,-20.20948 0,-12.46865 -10.10926,-22.57792 -22.5779,-22.57792 -12.46978,0 -22.57791,10.10927 -22.57791,22.57792 0,7.80292 3.95791,14.67902 9.97605,18.73514 -2.16296,12.89198 -6.59275,20.58314 -10.13748,24.88311 -6.64806,-5.62303 -11.12639,-7.86954 -11.12639,-7.86954 0,0 -4.47946,2.2465 -11.12638,7.86954 -3.54587,-4.29997 -7.97452,-11.99114 -10.13749,-24.88311 6.01702,-4.05612 9.97605,-10.93335 9.97605,-18.73514 0,-12.46865 -10.10925,-22.57792 -22.5779,-22.57792 -12.46978,0 -22.57791,10.10927 -22.57791,22.57792 0,8.86634 5.1218,16.51572 12.55783,20.20948 2.94642,20.29414 10.53146,32.64426 17.04519,39.76984 -14.84046,18.63355 -31.556,49.8475 -38.0765,99.6916 -7.99258,-1.35241 -14.10442,-8.3064 -14.10442,-16.67716 0,-22.57791 0,-120.41586 -56.44475,-131.70481 v 63.96997 c -0.88506,-1.1797 -22.57791,-16.93343 -22.57791,-97.83683 0,0 -45.15581,11.28896 -45.15581,90.31162 0,39.93692 35.322,85.75087 82.53239,95.81045 7.90453,22.46277 28.37479,39.04623 52.93729,41.27015 0,0.0903 -0.002,0.17725 -0.002,0.26755 v 16.93343 h -23.70651 c -15.56182,0 -28.22238,-12.66057 -28.22238,-28.22238 h -22.5779 c 0,28.01128 22.789,50.80028 50.80028,50.80028 h 23.70681 v 16.93343 h -23.70681 c -28.01128,0 -50.80028,22.78901 -50.80028,50.80027 h 22.5779 c 0,-15.56181 12.66056,-28.22237 28.22238,-28.22237 h 23.70681 c 0,9.13841 3.62713,17.42564 9.51093,23.51828 -5.8838,6.09264 -9.51093,14.37873 -9.51093,23.51827 0,11.7518 5.98765,22.10151 15.07638,28.17496 l -26.36647,52.7307 c 0,0 21.68947,26.34051 79.02266,26.34051 57.3332,0 79.02267,-26.34051 79.02267,-26.34051 L 662.2587,557.8125 c 9.08873,-6.07345 15.07526,-16.42316 15.07526,-28.17496 0,-9.13953 -3.62714,-17.42563 -9.51094,-23.51827 5.8838,-6.09266 9.51094,-14.37987 9.51094,-23.51828 h 23.7068 c 15.56181,0 28.22238,12.66057 28.22238,28.22238 h 22.5779 c 0,-28.01127 -22.78788,-50.80028 -50.80028,-50.80028 h -23.7068 v -16.93343 h 23.7068 c 28.0124,0 50.80028,-22.78901 50.80028,-50.80028 h -22.5779 c 0,15.56182 -12.66057,28.22238 -28.22238,28.22238 h -23.7068 v -16.93343 c 0,-0.0903 -0.002,-0.17836 -0.002,-0.26755 24.56363,-2.22505 45.03163,-18.80739 52.93615,-41.27128 z" style="fill:#ff4000;fill-opacity:1;stroke-width:.518368"/></svg>