<?xml version="1.0" encoding="UTF-8" standalone="no"?>
<svg
   xml:space="preserve"
   id="svg1"
   width="4608"
   height="3072"
   version="1.1"
   viewBox="0 0 1219.2 812.8"
   sodipodi:docname="Popular Action.svg"
   inkscape:version="1.3 (0e150ed6c4, 2023-07-21)"
   xmlns:inkscape="http://www.inkscape.org/namespaces/inkscape"
   xmlns:sodipodi="http://sodipodi.sourceforge.net/DTD/sodipodi-0.dtd"
   xmlns="http://www.w3.org/2000/svg"
   xmlns:svg="http://www.w3.org/2000/svg"><sodipodi:namedview
     id="namedview1"
     pagecolor="#505050"
     bordercolor="#eeeeee"
     borderopacity="1"
     inkscape:showpageshadow="0"
     inkscape:pageopacity="0"
     inkscape:pagecheckerboard="0"
     inkscape:deskcolor="#505050"
     inkscape:zoom="0.14301215"
     inkscape:cx="2304"
     inkscape:cy="1538.3308"
     inkscape:window-width="1366"
     inkscape:window-height="705"
     inkscape:window-x="-8"
     inkscape:window-y="-8"
     inkscape:window-maximized="1"
     inkscape:current-layer="svg1" /><defs
     id="defs1"><style
       id="style1">.cls-1{fill:#0283c0}.cls-2{fill:#fff}.cls-3{fill:#ef483f}</style></defs><path
     id="rect1"
     d="M 0 0 L 0 812.8 L 1219.2 812.8 L 1219.2 0 L 0 0 z"
     style="fill:#d01030;fill-rule:evenodd;stroke:none;stroke-width:8.46667;stroke-linecap:round;stroke-linejoin:round;fill-opacity:1" /><path
     id="star"
     d="m 609.73397,101.60001 -16.26147,49.75888 h -52.72697 l 42.59867,30.98636 -16.37441,50.10821 42.63022,-31.00999 42.6302,31.00999 -16.29299,-50.16864 42.51727,-30.92593 h -52.5615 z m -133.945,97.09863 -16.26409,49.75887 h -52.72697 l 42.60131,30.98636 -16.37704,50.10559 42.63019,-31.00737 42.63284,31.00737 -16.29299,-50.166 42.51726,-30.92595 h -52.56149 z m 267.88999,0 -16.26147,49.75887 h -52.72697 l 42.59868,30.98636 -16.37441,50.10559 42.63283,-31.00737 42.63021,31.00737 -16.29298,-50.166 42.51725,-30.92595 h -52.5615 z m -217.32473,157.31675 -16.26147,49.75887 h -52.72697 l 42.59868,30.98636 -16.37441,50.10821 42.63021,-31.00999 42.6302,31.00999 -16.29299,-50.16863 42.51727,-30.92594 h -52.5615 z m 166.75948,0 -16.26147,49.75887 h -52.72697 l 42.59868,30.98636 -16.37441,50.10821 42.63021,-31.00999 42.6302,31.00999 -16.29299,-50.16863 42.51726,-30.92594 h -52.56149 z m -291.4246,91.61159 a 213.78834,213.78834 0 1 0 415.82179,0 h -1.34484 a 212.48385,212.48385 0 0 1 -413.13211,0 z"
     style="stroke-width:0.264583;stroke:none;fill:#ffffff;fill-opacity:1" /></svg>
