<svg xmlns="http://www.w3.org/2000/svg" xml:space="preserve" id="svg1" width="4608" height="3072" version="1.1" viewBox="0 0 1219.2 812.8"><defs id="defs1"><style id="style1">.cls-1{fill:#0283c0}.cls-2{fill:#fff}.cls-3{fill:#ef483f}</style></defs><path id="rect1" d="M 0 0 L 0 812.8 L 1219.2 812.8 L 1219.2 0 L 0 0 z" style="fill:#103070;fill-rule:evenodd;stroke:none;stroke-width:8.46667;stroke-linecap:round;stroke-linejoin:round;fill-opacity:1"/><path id="rect2" d="M 0 0 L 0 406.4 L 406.4 406.4 L 406.4 0 L 0 0 z" style="fill:#fff;fill-opacity:1;stroke-width:1.05833;stroke-miterlimit:128"/><path id="path2" d="M 173.56667 0 L 173.56667 173.56667 L 0 173.56667 L 0 232.83385 L 173.56667 232.83385 L 173.56667 406.40052 L 232.83385 406.40052 L 232.83385 232.83385 L 406.40052 232.83385 L 406.40052 173.56667 L 232.83385 173.56667 L 232.83385 0 L 173.56667 0 z" style="color:#000;fill:#b00020;stroke-miterlimit:128;-inkscape-stroke:none;fill-opacity:1"/><path id="path3777-8" d="m 102.42146,154.51667 c 0,0 -2.624436,-4.08582 -4.058006,-6.98639 -3.73907,-7.32419 -4.42341,-20.30311 -5.38195,-33.56124 0,0 5.77688,8.65458 9.781936,11.62983 1.22928,0.91325 4.47254,1.79804 4.47254,1.79804 l 7.07381,5.84824 c 0,0 12.29424,8.73904 13.86947,6.71268 1.36445,-1.75562 -8.6546,-9.44392 -12.22103,-14.10307 -3.56656,-4.65915 -9.71375,-12.72724 -8.72225,-13.68207 0,0 4.76459,6.21402 8.3293,7.71798 0.75492,0.31871 2.46041,-0.10994 3.08929,0.45663 4.17451,3.75991 9.31087,6.49879 14.26241,9.13157 6.67584,3.54984 20.85378,6.72966 20.90038,4.242 0.0212,-1.10804 -9.09057,-6.09224 -17.90748,-14.15017 -9.44817,-8.63548 -18.19703,-21.505312 -19.61498,-23.410312 -1.38166,-1.85661 10.93072,8.973702 16.62208,8.280712 0.52865,-0.0641 0.44775,-1.59817 0.95549,-1.42164 4.04861,1.40765 8.29753,2.88274 11.62261,3.65213 9.04873,2.09424 9.0866,0.21304 9.00994,-1.18273 -0.0728,-1.32827 -26.87149,-8.714422 -44.58833,-31.512372 -0.68038,-0.87546 6.85126,5.57919 10.69863,4.38502 0.55632,-0.17272 0.46762,-1.32956 1.04102,-1.25486 3.40742,0.44303 14.29392,4.69521 14.2121,1.40721 -0.0477,-1.88844 -9.15875,-4.85861 -17.18938,-11.09089 -6.89363,-5.34959 -12.12346,-10.69706 -15.09835,-13.87941 -0.7573,-0.81013 5.16747,4.16008 7.79245,3.21501 0.39294,-0.1413 0.0768,-0.87038 0.48641,-0.81435 2.2887,0.31105 10.08406,5.10982 10.85896,2.17319 0.17053,-0.64674 -7.08798,-5.01392 -13.32162,-10.41657 -6.23364,-5.40264 -11.513516,-11.52162 -11.513516,-11.52162 1.66804,1.1059 3.783426,2.63024 5.154626,2.43207 0.2023,-0.12904 0.61418,-0.26183 0.37706,-1.02146 0.87579,0.18121 6.29389,3.26085 6.71728,1.27437 0.21977,-0.60429 -8.35698,-5.58046 -13.127266,-9.81013 -5.07506,-4.50002 -10.22162,-10.00407 -10.22162,-10.00407 0,0 -5.14668,5.50405 -10.22174,10.00407 -4.77029,4.22967 -13.34704,9.20584 -13.12727,9.81013 0.42339,1.98648 5.84149,-1.09316 6.71714,-1.27437 -0.23698,0.75963 0.1749,0.89244 0.3772,1.02146 1.3712,0.19817 3.48659,-1.32617 5.15463,-2.43207 0,0 -5.27988,6.11898 -11.51352,11.52162 -6.23364,5.40265 -13.49215,9.76983 -13.32163,10.41657 0.77491,2.93663 8.57027,-1.86214 10.85897,-2.17319 0.40976,-0.056 0.094,0.67305 0.48641,0.81435 2.62498,0.94507 8.54975,-4.02514 7.79245,-3.21501 -2.97489,3.18235 -8.20472,8.52982 -15.09835,13.87941 -8.03076,6.23228 -17.14239,9.20245 -17.18938,11.09089 -0.0821,3.288 10.80468,-0.96418 14.2121,-1.40721 0.5734,-0.0747 0.4847,1.08214 1.04102,1.25486 3.84737,1.19417 11.379,-5.26048 10.69863,-4.38502 -17.71684,22.79795 -44.51552,30.184102 -44.58847,31.512372 -0.0768,1.39577 -0.0384,3.27697 9.01008,1.18273 3.32508,-0.76939 7.574,-2.24448 11.62261,-3.65213 0.50773,-0.17653 0.42684,1.35756 0.95549,1.42164 5.69135,0.69299 18.00374,-10.137322 16.62207,-8.280712 -1.41794,1.905 -10.1668,14.774832 -19.61497,23.410312 -8.81679,8.05793 -17.92815,13.04213 -17.90749,14.15017 0.0463,2.48766 14.22455,-0.69216 20.90039,-4.242 4.95154,-2.63278 10.0879,-5.37166 14.26241,-9.13157 0.62888,-0.56654 2.33437,-0.13792 3.08928,-0.45663 3.56471,-1.50396 8.32931,-7.71798 8.32931,-7.71798 0.9915,0.95483 -5.15569,9.02292 -8.72225,13.68207 -3.56643,4.65915 -13.58548,12.34745 -12.22103,14.10307 1.57522,2.02636 13.86947,-6.71268 13.86947,-6.71268 l 7.07381,-5.84824 c 0,0 3.24313,-0.88479 4.47254,-1.79804 4.00505,-2.97525 9.78193,-11.62983 9.78193,-11.62983 -0.95853,13.25813 -1.64287,26.23705 -5.38194,33.56124 -1.43357,2.90057 -4.05828,6.98639 -4.05828,6.98639 10.4255,0 20.85101,0 31.276366,0 z" style="fill:#205020;stroke:none;stroke-width:.0698336;fill-opacity:1"/></svg>