<svg xmlns="http://www.w3.org/2000/svg" xml:space="preserve" id="svg1" width="4608" height="3072" version="1.1" viewBox="0 0 1219.2 812.8"><defs id="defs1"><style id="style1">.cls-1{fill:#0283c0}.cls-2{fill:#fff}.cls-3{fill:#ef483f}</style></defs><path id="rect1" d="M 0 0 L 0 812.8 L 1219.2 812.8 L 1219.2 0 L 0 0 z" style="fill:#181038;fill-rule:evenodd;stroke:none;stroke-width:8.46667;stroke-linecap:round;stroke-linejoin:round;fill-opacity:1"/><path id="path7" d="M 609.60012 101.59998 A 304.79995 304.79995 0 0 0 304.80012 406.39998 A 304.79995 304.79995 0 0 0 609.60012 711.19998 A 304.79995 304.79995 0 0 0 914.40012 406.39998 A 304.79995 304.79995 0 0 0 609.60012 101.59998 z M 608.17902 169.33332 A 237.06661 237.06661 0 0 1 845.24569 406.39998 A 237.06661 237.06661 0 0 1 608.17902 643.46665 A 237.06661 237.06661 0 0 1 371.11235 406.39998 A 237.06661 237.06661 0 0 1 608.17902 169.33332 z M 506.57902 220.13332 L 506.57902 287.86665 L 574.31235 287.86665 L 574.31235 372.53332 L 489.64569 372.53332 L 489.64569 304.79998 L 421.91235 304.79998 L 421.91235 507.99998 L 489.64569 507.99998 L 489.64569 440.26665 L 574.31235 440.26665 L 574.31235 524.93332 L 506.57902 524.93332 L 506.57902 592.66665 L 709.77902 592.66665 L 709.77902 524.93332 L 642.04569 524.93332 L 642.04569 440.26665 L 726.71235 440.26665 L 726.71235 507.99998 L 794.44569 507.99998 L 794.44569 304.79998 L 726.71235 304.79998 L 726.71235 372.53332 L 642.04569 372.53332 L 642.04569 287.86665 L 709.77902 287.86665 L 709.77902 220.13332 L 506.57902 220.13332 z" style="fill:#ffe060;fill-opacity:1;stroke-width:25.4;stroke-miterlimit:128" transform="translate(1.4209812,1.6455082e-5)"/></svg>