<svg xmlns="http://www.w3.org/2000/svg" xml:space="preserve" width="4608" height="3072" viewBox="0 0 1219.2 812.8"><path d="M -1.0720444e-5,3.3002738e-6 -8.7257291e-6,812.8 1219.2,812.80004 1219.2,4.9275996e-6 Z" style="fill:#404040;fill-opacity:1;fill-rule:evenodd;stroke:none;stroke-width:8.46667;stroke-linecap:round;stroke-linejoin:round"/><path d="M 609.6 101.6 C 602.42184 101.85895 595.25489 102.37155 588.11294 103.13686 L 573.7226 172.21171 C 556.65778 174.97528 539.94609 179.59721 523.88637 185.99485 L 476.34767 132.76657 C 463.49345 139.01738 451.09466 146.16471 439.24347 154.15545 L 461.5434 221.85519 C 448.08935 232.65396 435.85396 244.88934 425.05519 258.3434 L 357.35493 236.04347 C 349.36436 247.89468 342.21721 260.29346 335.96657 273.14767 L 389.19485 320.68637 C 382.79721 336.74609 378.17528 353.45779 375.41171 370.5226 L 306.33686 384.91294 C 305.57155 392.05489 305.05895 399.22184 304.8 406.4 C 305.05895 413.57816 305.57155 420.74511 306.33686 427.88706 L 375.41171 442.2774 C 378.17528 459.34221 382.79721 476.05391 389.19485 492.11363 L 335.96657 539.65233 C 342.21721 552.50654 349.36436 564.90532 357.35493 576.75653 L 425.05519 554.4566 C 435.85396 567.91066 448.08934 580.14604 461.5434 590.94481 L 439.24347 658.64455 C 451.09466 666.63529 463.49345 673.78262 476.34767 680.03343 L 523.88637 626.80515 C 539.94609 633.20279 556.65779 637.82472 573.7226 640.58829 L 588.11294 709.66314 C 595.25489 710.42845 602.42184 710.94105 609.6 711.2 C 616.77816 710.94105 623.94511 710.42845 631.08706 709.66314 L 645.4774 640.58829 C 662.54221 637.82472 679.25391 633.20279 695.31363 626.80515 L 742.85233 680.03343 C 755.70655 673.78262 768.10534 666.63529 779.95653 658.64455 L 757.6566 590.94481 C 771.11066 580.14604 783.34604 567.91066 794.14481 554.4566 L 861.84507 576.75653 C 869.83564 564.90532 876.98279 552.50654 883.23343 539.65233 L 830.00515 492.11363 C 836.40279 476.05391 841.02472 459.34221 843.78829 442.2774 L 912.86314 427.88706 C 913.62845 420.74511 914.14105 413.57816 914.4 406.4 C 914.14105 399.22184 913.62845 392.05489 912.86314 384.91294 L 843.78829 370.5226 C 841.02472 353.45779 836.40279 336.74609 830.00515 320.68637 L 883.23343 273.14767 C 876.98279 260.29346 869.83564 247.89468 861.84507 236.04347 L 794.14481 258.3434 C 783.34604 244.88934 771.11066 232.65396 757.6566 221.85519 L 779.95653 154.15545 C 768.10534 146.16471 755.70655 139.01738 742.85233 132.76657 L 695.31363 185.99485 C 679.25391 179.59721 662.54221 174.97528 645.4774 172.21171 L 631.08706 103.13686 C 623.94511 102.37155 616.77816 101.85895 609.6 101.6 z M 609.6 220.13333 C 712.47164 220.13334 795.86666 303.52836 795.86667 406.4 C 795.86666 509.27164 712.47164 592.66666 609.6 592.66667 C 506.72836 592.66666 423.33334 509.27164 423.33333 406.4 C 423.33334 303.52836 506.72836 220.13334 609.6 220.13333 z" style="display:inline;fill:gray;fill-opacity:1;stroke:none;stroke-width:33.8667;stroke-linejoin:bevel;stroke-miterlimit:128;stroke-dasharray:none;stroke-opacity:1;paint-order:stroke fill markers"/><path d="M 609.6 220.13333 L 573.97995 255.75338 L 573.97995 558.8 L 524.93333 558.8 L 524.93333 571.85398 A 186.26665 186.26665 0 0 0 580.52891 590.23684 L 602.08211 693.69513 C 604.59031 693.85682 607.08967 694.13863 609.60155 694.23463 C 612.11214 694.13873 614.61046 693.85672 617.11737 693.69513 L 638.64422 590.36448 A 186.26665 186.26665 0 0 0 694.26667 572.25241 L 694.26667 558.8 L 645.22005 558.8 L 645.22005 255.75338 L 609.6 220.13333 z" style="display:inline;fill:#ffd000;fill-opacity:1;stroke-width:2.11667;stroke-linecap:round;stroke-linejoin:round;stroke-miterlimit:128;paint-order:stroke fill markers"/></svg>