<svg xmlns="http://www.w3.org/2000/svg" xml:space="preserve" id="svg1" width="4608" height="3072" version="1.1" viewBox="0 0 1219.2 812.8"><defs id="defs1"><style id="style1">.cls-1{fill:#0283c0}.cls-2{fill:#fff}.cls-3{fill:#ef483f}</style></defs><path id="rect1" d="M 0 0 L 0 812.8 L 1219.2 812.8 L 1219.2 0 L 0 0 z" style="fill:#000;fill-rule:evenodd;stroke:none;stroke-width:8.46667;stroke-linecap:round;stroke-linejoin:round;fill-opacity:1"/><path id="path3" d="M 2304,384 A 1152,1152 0 0 0 1152,1536 1152,1152 0 0 0 2304,2688 1152,1152 0 0 0 3456,1536 1152,1152 0 0 0 2304,384 Z" style="fill:#b00020;fill-opacity:1;stroke-width:512;stroke-miterlimit:128;paint-order:stroke fill markers" transform="scale(0.26458333)"/><path id="path1" d="M 609.6 169.33333 A 237.06666 237.06666 0 0 0 442.39574 239.19574 L 508 304.8 L 508 372.53333 L 575.73333 372.53333 L 575.73333 237.06667 L 775.44414 237.06667 A 237.06666 237.06666 0 0 0 609.6 169.33333 z M 777.23163 238.76837 L 711.2 304.8 L 643.46667 304.8 L 643.46667 372.53333 L 778.93333 372.53333 L 778.93333 571.47571 A 237.06666 237.06666 0 0 0 846.66667 406.4 A 237.06666 237.06666 0 0 0 777.23163 238.76837 z M 440.26667 241.32429 A 237.06666 237.06666 0 0 0 372.53333 406.4 A 237.06666 237.06666 0 0 0 442.39574 573.60426 L 508 508 L 575.73333 508 L 575.73333 440.26667 L 440.26667 440.26667 L 440.26667 241.32429 z M 643.46667 440.26667 L 643.46667 575.73333 L 444.52429 575.73333 A 237.06666 237.06666 0 0 0 609.6 643.46667 A 237.06666 237.06666 0 0 0 776.80426 573.60426 L 711.2 508 L 711.2 440.26667 L 643.46667 440.26667 z" style="fill:silver;fill-opacity:1;stroke-width:135.467;stroke-miterlimit:128;paint-order:stroke fill markers"/></svg>