<svg xmlns="http://www.w3.org/2000/svg" xml:space="preserve" id="svg1" width="4608" height="3072" version="1.1" viewBox="0 0 1219.2 812.8"><defs id="defs1"><style id="style1">.cls-1{fill:#0283c0}.cls-2{fill:#fff}.cls-3{fill:#ef483f}</style></defs><path id="path13" d="M 2.8407372e-7,812.8 4.3820696e-6,6.6357256e-6 1219.2,-1.0877535e-5 1219.2,812.79997 Z" style="display:inline;fill:#000;fill-opacity:1;fill-rule:evenodd;stroke:none;stroke-width:8.46667;stroke-linecap:round;stroke-linejoin:round"/><path id="path1" d="M 0 0 L 0 162.81125 L 121.63857 243.90243 L 0 324.99463 L 0 487.80588 L 121.6365 568.89654 L 0 649.9872 L 0 812.8 L 244.21868 812.8 L 365.8557 731.70883 L 487.49066 812.8 L 731.70934 812.8 L 853.34585 731.70883 L 974.98287 812.8 L 1219.2 812.8 L 1219.2 649.99082 L 1097.5604 568.89861 L 1219.2 487.80537 L 1219.2 324.99515 L 1097.5604 243.90243 L 1219.2 162.81022 L 1219.2 0 L 974.9839 0 L 853.34585 81.091691 L 731.70779 0 L 487.49117 0 L 365.85364 81.091691 L 244.21662 0 L 0 0 z" style="color:#000;fill:#fff;stroke-linejoin:bevel;stroke-miterlimit:128;-inkscape-stroke:none;paint-order:stroke fill markers"/><path id="path2" d="M 0 0 L 0 81.405367 L 243.74585 243.90294 L 0 406.4 L 243.74533 568.89654 L 0 731.39308 L 0 812.8 L 122.10986 812.8 L 365.85467 650.30294 L 609.6 812.8 L 853.34533 650.30294 L 1097.0912 812.8 L 1219.2 812.8 L 1219.2 731.39567 L 975.45364 568.89757 L 1219.2 406.4 L 975.45415 243.90243 L 1219.2 81.40485 L 1219.2 0 L 1097.0927 0 L 853.34585 162.49757 L 609.6 0 L 365.85415 162.49757 L 122.10831 0 L 0 0 z" style="color:#000;fill:#b00020;stroke-linejoin:bevel;stroke-miterlimit:128;-inkscape-stroke:none;paint-order:stroke fill markers;fill-opacity:1"/><path id="path3" d="M 609.6 101.6 A 67.733334 67.733334 0 0 0 541.86667 169.33333 A 67.733334 67.733334 0 0 0 609.6 237.06667 A 67.733334 67.733334 0 0 0 673.27157 192.4172 C 676.84176 204.44409 684.81287 215.18908 696.53526 221.95699 L 725.86474 238.89033 C 742.33463 248.39923 761.8982 247.60037 777.17427 238.55495 L 777.44505 238.82573 C 768.39962 254.1018 767.60077 273.66538 777.10967 290.13526 L 794.04301 319.46474 C 803.55176 335.93438 820.89356 345.02384 838.64545 344.82856 L 838.74467 345.19857 C 823.27308 353.90531 812.8 370.44886 812.8 389.46667 L 812.8 423.33333 C 812.80001 442.35114 823.27308 458.89469 838.74467 467.60143 L 838.64545 467.97144 C 820.89355 467.77616 803.55176 476.86561 794.04301 493.33526 L 777.10967 522.66474 C 767.60082 539.13456 768.3992 558.69823 777.44454 573.97427 L 777.17427 574.24454 C 761.89823 565.19919 742.33456 564.40081 725.86474 573.90967 L 696.53526 590.84301 C 686.79386 596.4672 679.67244 604.85187 675.47712 614.41986 L 657.90299 608.35563 C 659.50812 603.41141 660.4 598.14595 660.4 592.66667 L 660.4 550.0703 A 152.39999 152.39999 0 0 0 762 406.4 A 152.39999 152.39999 0 0 0 609.6 254 A 152.39999 152.39999 0 0 0 457.2 406.4 A 152.39999 152.39999 0 0 0 558.8 549.69358 L 558.8 592.66667 C 558.8 620.72265 581.54402 643.46667 609.6 643.46667 C 619.01176 643.46667 627.79538 640.86136 635.35347 636.40043 L 673.3403 649.50868 C 674.4497 653.17382 675.94379 656.77786 677.94105 660.23722 C 691.96899 684.53432 723.03818 692.85885 747.33526 678.83092 L 776.66474 661.89758 C 798.39737 649.35026 807.29717 623.18063 798.90679 600.40676 L 803.60676 595.70679 C 826.38064 604.09717 852.55028 595.19738 865.09758 573.46474 L 882.03092 544.13526 C 894.5782 522.40267 889.20099 495.28907 870.5479 479.76141 L 872.26872 473.34062 C 896.18646 469.21971 914.40001 448.42784 914.4 423.33333 L 914.4 389.46667 C 914.4 364.37216 896.18646 343.58029 872.26872 339.45938 L 870.5479 333.03859 C 889.20108 317.51093 894.57877 290.39732 882.03143 268.66474 L 865.09758 239.33526 C 852.55027 217.60263 826.38064 208.70283 803.60676 217.09321 L 798.90679 212.39324 C 807.29718 189.61936 798.39738 163.44972 776.66474 150.90242 L 747.33526 133.96908 C 738.98313 129.147 729.83062 126.96612 720.84541 127.16743 C 703.72021 127.55112 687.20605 136.59205 677.99117 152.48785 L 675.07507 152.48062 A 67.733334 67.733334 0 0 0 609.6 101.6 z M 484.45725 128.99936 C 464.68445 138.0664 445.89329 149.1423 428.48961 162.2056 L 446.92104 211.70336 C 435.31662 221.40141 424.60142 232.11662 414.90336 243.72104 L 365.4056 225.28961 C 351.46759 243.85864 339.69676 263.9597 330.32247 285.2012 L 371.65948 319.36914 C 366.42582 333.4788 362.45641 348.02586 359.79819 362.83832 L 307.28202 371.69824 C 305.79466 383.20877 304.96597 394.79496 304.8 406.4 C 304.96597 418.00502 305.79466 429.59124 307.28202 441.10176 L 359.79819 449.96168 C 362.45638 464.77433 366.42579 479.32152 371.65948 493.43138 L 330.32247 527.5988 C 339.69672 548.84047 351.46756 568.94172 365.4056 587.51091 L 414.90336 569.07948 C 424.60144 580.68366 435.31664 591.39876 446.92104 601.09664 L 428.48961 650.5944 C 445.89329 663.6577 464.68445 674.73358 484.45725 683.80064 L 517.85211 642.41195 L 517.85211 587.65095 C 498.83761 578.03267 481.26574 565.43426 465.91575 550.08425 C 427.80851 511.97702 406.39999 460.29181 406.4 406.4 C 406.39999 352.5082 427.80852 300.82298 465.91575 262.71575 C 481.26567 247.36581 498.83773 234.76735 517.85211 225.14905 L 517.85211 170.38857 L 484.45725 128.99936 z M 609.6 135.46667 A 33.866666 33.866666 0 0 1 639.35426 153.50278 A 16.93335 16.93335 0 0 0 626.53333 169.29096 A 16.93335 16.93335 0 0 0 639.50515 185.20678 A 33.866666 33.866666 0 0 1 609.6 203.2 A 33.866666 33.866666 0 0 1 575.73333 169.33333 A 33.866666 33.866666 0 0 1 609.6 135.46667 z M 722.39001 161.03255 C 725.1196 161.10344 727.87097 161.83679 730.40193 163.29804 L 759.7314 180.23138 C 762.60037 181.88774 764.76198 184.27703 766.20026 187.00616 A 16.93335 16.93335 0 0 0 761.5468 187.00564 A 16.93335 16.93335 0 0 0 753.95501 191.38883 A 16.93335 16.93335 0 0 0 751.89984 211.7757 C 748.81723 211.89469 745.66702 211.21724 742.79807 209.56085 L 713.4686 192.62752 C 710.79837 191.08586 708.77217 188.89258 707.33564 186.40051 A 16.93335 16.93335 0 0 0 724.20334 169.53901 A 16.93335 16.93335 0 0 0 721.96162 161.07802 C 722.10618 161.07807 722.24529 161.02879 722.39001 161.03255 z M 829.50647 250.07569 C 832.01954 251.51297 834.21677 253.58065 835.76862 256.2686 L 852.70196 285.59807 C 854.35853 288.46734 855.03599 291.61796 854.91681 294.70087 A 16.93335 16.93335 0 0 0 842.12121 292.37285 A 16.93335 16.93335 0 0 0 830.14623 308.99974 C 827.41753 307.56149 825.02868 305.40002 823.37248 302.5314 L 806.43915 273.20193 C 804.78277 270.333 804.10533 267.18275 804.2243 264.10016 A 16.93335 16.93335 0 0 0 824.61117 262.04499 A 16.93335 16.93335 0 0 0 829.50647 250.07569 z M 609.6 287.86667 A 16.933332 16.933332 0 0 1 626.53333 304.8 A 16.933332 16.933332 0 0 1 609.6 321.73333 A 84.666654 84.666654 0 0 0 524.93333 406.4 A 16.933332 16.933332 0 0 1 508 423.33333 A 16.933332 16.933332 0 0 1 491.06667 406.4 A 118.5333 118.5333 0 0 1 609.6 287.86667 z M 849.29958 380.47652 A 16.93335 16.93335 0 0 0 867.98268 388.89047 A 16.93335 16.93335 0 0 0 878.18826 381.0062 C 879.64063 383.50416 880.53333 386.36902 880.53333 389.46667 L 880.53333 423.33333 C 880.53333 426.43139 879.64047 429.29665 878.18774 431.79483 A 16.93335 16.93335 0 0 0 867.98268 423.91004 A 16.93335 16.93335 0 0 0 859.21681 423.91004 A 16.93335 16.93335 0 0 0 849.29958 432.324 C 847.65491 429.71369 846.66667 426.64647 846.66667 423.33333 L 846.66667 389.46667 C 846.66667 386.15368 847.65506 383.08675 849.29958 380.47652 z M 830.14623 503.7894 A 16.93335 16.93335 0 0 0 842.12121 520.42767 A 16.93335 16.93335 0 0 0 854.91681 518.10016 C 855.03579 521.18277 854.35835 524.33298 852.70196 527.20193 L 835.76862 556.5314 C 834.21963 559.2144 832.01367 561.24893 829.50647 562.68607 A 16.93335 16.93335 0 0 0 824.61117 550.75605 A 16.93335 16.93335 0 0 0 808.25402 546.37285 A 16.93335 16.93335 0 0 0 804.2243 548.70036 C 804.10523 545.61761 804.78268 542.46715 806.43915 539.59807 L 823.37248 510.2686 C 825.03014 507.39744 827.41446 505.22755 830.14623 503.7894 z M 592.66667 557.5887 A 152.39999 152.39999 0 0 0 609.6 558.8 A 152.39999 152.39999 0 0 0 626.53333 557.82021 L 626.53333 592.66667 C 626.53333 594.27848 626.23619 595.80657 625.81555 597.28344 L 615.12318 593.59374 A 16.93335 16.93335 0 0 0 606.38108 592.97466 A 16.93335 16.93335 0 0 0 595.26754 601.5979 C 593.64488 598.99967 592.66667 595.95568 592.66667 592.66667 L 592.66667 557.5887 z M 750.80999 600.97314 C 751.16593 600.96389 751.50897 601.07212 751.86367 601.08527 A 16.93335 16.93335 0 0 0 753.95501 621.41013 A 16.93335 16.93335 0 0 0 766.20078 625.79281 C 764.76251 628.52237 762.60073 630.91205 759.7314 632.56862 L 730.40193 649.50196 C 727.541 651.15371 724.40035 651.83025 721.326 651.71629 A 16.93335 16.93335 0 0 0 723.2773 648.8281 A 16.93335 16.93335 0 0 0 712.79473 627.29711 L 707.83431 625.58559 C 709.24002 623.43764 711.09362 621.54368 713.4686 620.17248 L 742.79807 603.23915 C 745.32903 601.7779 748.0804 601.04403 750.80999 600.97314 z" style="display:inline;fill:#fff;fill-opacity:1;stroke-width:1.12007;stroke-linecap:round;stroke-linejoin:round;stroke-miterlimit:128"/></svg>