<svg xmlns="http://www.w3.org/2000/svg" xml:space="preserve" id="svg1" width="4608" height="3072" version="1.1" viewBox="0 0 1219.2 812.8"><defs id="defs1"><style id="style1">.cls-1{fill:#0283c0}.cls-2{fill:#fff}.cls-3{fill:#ef483f}</style></defs><path id="rect5" d="M 0,812.8 V 0 h 1219.2 v 812.8 z" style="fill:green;fill-opacity:1;stroke:none;stroke-width:135.467;stroke-linecap:round;stroke-linejoin:round;stroke-miterlimit:128;stroke-dasharray:none;stroke-opacity:1;paint-order:stroke fill markers"/><path id="path3" d="M 0,0 V 122.10831 L 274.03702,304.8 H 0 V 508 H 274.03702 L 0,690.69014 V 812.8 H 183.16401 L 508,596.24268 V 812.8 H 711.2 V 596.24319 L 1036.0365,812.8 H 1219.2 V 690.69066 L 945.16298,508 H 1219.2 V 304.8 H 945.1635 L 1219.2,122.10831 V 0 H 1036.0381 L 711.2,216.55784 V 0 H 508 V 216.55836 L 183.16298,0 Z" style="color:#000;display:inline;fill:#fff;stroke-linejoin:bevel;stroke-miterlimit:128;-inkscape-stroke:none;paint-order:stroke fill markers"/><path id="path10" d="M 0,0 V 81.405367 L 335.09117,304.8 h 99.05701 a 203.20001,203.20001 0 0 1 6.55825,-10.99571 z M 541.86667,0 V 215.34189 A 203.20001,203.20001 0 0 1 609.6,203.2 203.20001,203.20001 0 0 1 677.33333,214.8396 V 0 Z M 1097.0907,0 731.41169,243.78564 a 203.20001,203.20001 0 0 1 47.25654,49.90238 L 1219.1995,0 Z M 0,338.66667 V 474.13333 H 418.54189 A 203.20001,203.20001 0 0 1 406.4,406.4 203.20001,203.20001 0 0 1 418.54189,338.66667 Z m 801.1604,0 A 203.20001,203.20001 0 0 1 812.8,406.4 203.20001,203.20001 0 0 1 801.1604,474.13333 H 1219.2 V 338.66667 Z M 785.51381,508 a 203.20001,203.20001 0 0 1 -6.84558,11.1125 L 1219.2,812.8 V 731.3936 L 884.10831,508 Z M 440.70643,518.99571 0,812.8 H 122.10986 L 488.22601,568.72239 a 203.20001,203.20001 0 0 1 -47.51958,-49.72668 z m 101.16024,78.4624 V 812.8 H 677.33333 V 597.9604 A 203.20001,203.20001 0 0 1 609.6,609.6 203.20001,203.20001 0 0 1 541.86667,597.45811 Z" style="color:#000;display:inline;fill:#ff8000;fill-opacity:1;stroke-linecap:round;stroke-linejoin:round;stroke-miterlimit:128;-inkscape-stroke:none;paint-order:stroke fill markers"/><path id="path39" d="m 609.5964,237.06664 c -93.38491,0 -169.32974,75.94933 -169.32974,169.33265 0,93.38337 75.94485,169.33407 169.32974,169.33407 93.38492,0 169.33694,-75.9507 169.33694,-169.33407 0,-93.38331 -75.95203,-169.33264 -169.33694,-169.33265 z m 0,22.88689 h 10e-4 c 4.30135,4e-5 8.54835,0.22196 12.7544,0.58352 a 6.4072344,6.4071261 0 0 0 5.52624,7.02067 6.4072344,6.4071261 0 0 0 7.15808,-5.36741 c 8.49293,1.48197 16.74358,3.65677 24.66212,6.53012 a 6.4072344,6.4071261 0 0 0 3.49252,8.29925 6.4072344,6.4071261 0 0 0 8.3294,-3.3838 c 7.76201,3.61765 15.14461,7.89845 22.09067,12.7642 a 6.4072344,6.4071261 0 0 0 1.23998,8.8985 6.4072344,6.4071261 0 0 0 8.92292,-1.11411 c 6.5267,5.47941 12.56343,11.51666 18.04323,18.04294 a 6.4072344,6.4071261 0 0 0 -1.11413,8.92132 6.4072344,6.4071261 0 0 0 8.89863,1.23855 c 4.8668,6.9463 9.14758,14.32927 12.76588,22.09169 a 6.4072344,6.4071261 0 0 0 -3.38528,8.33073 6.4072344,6.4071261 0 0 0 8.30223,3.4896 c 2.87395,7.91915 5.04813,16.17084 6.53023,24.66459 a 6.4072349,6.4071269 0 0 0 -5.37036,7.15795 6.4072349,6.4071269 0 0 0 7.02223,5.52616 c 0.36135,4.20546 0.58492,8.4505 0.58492,12.75129 0,4.3013 -0.2236,8.54827 -0.58492,12.75422 a 6.4072344,6.4071261 0 0 0 -7.02223,5.52613 6.4072344,6.4071261 0 0 0 5.36893,7.15941 c -1.4822,8.49329 -3.65633,16.74439 -6.53023,24.66316 a 6.4072344,6.4071261 0 0 0 -8.3008,3.48956 6.4072344,6.4071261 0 0 0 3.38525,8.3307 c -3.61835,7.7624 -7.89902,15.14549 -12.76585,22.0917 a 6.4072344,6.4071261 0 0 0 -8.89863,1.23855 6.4072344,6.4071261 0 0 0 1.11268,8.92134 c -5.47945,6.5257 -11.51563,12.56251 -18.0418,18.04151 a 6.4072344,6.4071261 0 0 0 -8.9229,-1.11266 6.4072344,6.4071261 0 0 0 -1.23998,8.89703 c -6.9464,4.86602 -14.32966,9.14644 -22.09209,12.76419 a 6.4072344,6.4071261 0 0 0 -8.32798,-3.38233 6.4072344,6.4071261 0 0 0 -3.49252,8.29778 c -7.91852,2.87338 -16.16919,5.04817 -24.66212,6.53014 a 6.4072344,6.4071261 0 0 0 -7.15811,-5.36599 6.4072344,6.4071261 0 0 0 -5.52622,7.01925 c -4.20604,0.36144 -8.45305,0.58349 -12.7544,0.58352 h -8.4e-4 c -4.29799,0 -8.54019,-0.22277 -12.74296,-0.58352 a 6.4072344,6.4071261 0 0 0 -5.53484,-7.01925 6.4072344,6.4071261 0 0 0 -7.15805,5.36742 c -8.49146,-1.48153 -16.74066,-3.65759 -24.65787,-6.53014 a 6.4072344,6.4071261 0 0 0 -3.49678,-8.29921 6.4072344,6.4071261 0 0 0 -8.32799,3.38377 c -7.76148,-3.61726 -15.14365,-7.89746 -22.08923,-12.76276 a 6.4072344,6.4071261 0 0 0 -1.24425,-8.8999 6.4072344,6.4071261 0 0 0 -8.92152,1.11266 c -6.52482,-5.47811 -12.56047,-11.51416 -18.03894,-18.03865 a 6.4072344,6.4071261 0 0 0 1.10982,-8.9242 6.4072344,6.4071261 0 0 0 -8.89717,-1.23995 c -4.8653,-6.94461 -9.1455,-14.32565 -12.76298,-22.086 a 6.4072344,6.4071261 0 0 0 3.38095,-8.335 6.4072344,6.4071261 0 0 0 -8.29938,-3.491 c -2.87268,-7.91622 -5.04823,-16.1642 -6.5302,-24.65457 a 6.4072349,6.4071269 0 0 0 5.36747,-7.16655 6.4072349,6.4071269 0 0 0 -7.0208,-5.52614 c -0.36135,-4.2055 -0.58347,-8.452 -0.5835,-12.75276 v -8.4e-4 c 0,-4.30076 0.22223,-8.54582 0.5835,-12.75131 a 6.4072344,6.4071261 0 0 0 7.0208,-5.52615 6.4072344,6.4071261 0 0 0 -5.36747,-7.16511 c 1.48192,-8.49119 3.65587,-16.74053 6.52878,-24.65744 a 6.4072344,6.4071261 0 0 0 8.3008,-3.48959 6.4072344,6.4071261 0 0 0 -3.3824,-8.335 c 3.61769,-7.76096 7.89878,-15.14235 12.76443,-22.0874 a 6.4072344,6.4071261 0 0 0 8.89717,-1.23853 6.4072344,6.4071261 0 0 0 -1.11122,-8.92564 c 5.4786,-6.52476 11.51531,-12.56031 18.04034,-18.03865 a 6.4072344,6.4071261 0 0 0 8.92292,1.1141 6.4072344,6.4071261 0 0 0 1.24286,-8.90132 c 6.94524,-4.86508 14.32676,-9.14563 22.08779,-12.76279 a 6.4072344,6.4071261 0 0 0 8.32942,3.3852 6.4072344,6.4071261 0 0 0 3.49536,-8.30065 c 7.91759,-2.87275 16.16735,-5.0485 24.65929,-6.53015 a 6.4072344,6.4071261 0 0 0 7.15805,5.36885 6.4072344,6.4071261 0 0 0 5.53484,-7.02066 c 4.20277,-0.36085 8.44497,-0.5835 12.74296,-0.5835 z m -146.44819,146.44721 88.12807,5.4918 29.16148,-3.66979 a 29.290215,29.28972 0 0 0 0.52059,3.96584 l -29.11715,4.0016 -83.70307,28.11413 86.5463,-17.50372 27.20501,-11.0881 a 29.290215,29.28972 0 0 0 1.52597,3.69841 l -27.072,11.39414 -73.57592,48.82001 79.06786,-39.30804 23.38496,-17.73258 a 29.290215,29.28972 0 0 0 2.42703,3.18211 l -23.17189,17.99 -58.43312,66.19935 66.19902,-58.43212 17.99175,-23.1715 a 29.290215,29.28972 0 0 0 3.17934,2.427 l -17.73148,23.38315 -39.30863,79.06654 48.82082,-73.57468 11.39426,-27.07157 a 29.290215,29.28972 0 0 0 3.69849,1.52455 l -11.0868,27.20599 -17.5055,86.54624 28.11464,-83.70308 4.00162,-29.1167 a 29.290215,29.28972 0 0 0 3.9659,0.5206 l -3.66985,29.16244 5.49194,88.12372 5.4919,-88.12374 -3.66985,-29.16244 a 29.290215,29.28972 0 0 0 3.96731,-0.5206 l 4.0017,29.11671 28.11314,83.70309 -17.50405,-86.54624 -11.0868,-27.20599 a 29.290215,29.28972 0 0 0 3.69704,-1.52455 l 11.39571,27.07157 48.81942,73.57468 -39.30725,-79.06653 -17.73287,-23.38315 a 29.290215,29.28972 0 0 0 3.18074,-2.427 l 17.99176,23.1715 66.19902,58.43211 -58.43312,-66.19935 -23.1719,-17.99 a 29.290215,29.28972 0 0 0 2.42704,-3.18211 l 23.385,17.73256 79.06642,39.30803 -73.57452,-48.81999 -27.072,-11.39414 a 29.290215,29.28972 0 0 0 1.52601,-3.69841 l 27.20501,11.0881 86.54626,17.50371 -83.7045,-28.11411 -29.11572,-4.0016 a 29.290215,29.28972 0 0 0 0.51915,-3.96584 l 29.16292,3.66979 88.12811,-5.4918 -88.12811,-5.49184 -29.09572,3.66265 a 29.290215,29.28972 0 0 0 -0.51768,-3.96726 l 29.04705,-3.993 83.7045,-28.11415 -86.54626,17.50375 -27.15926,11.06946 a 29.290215,29.28972 0 0 0 -1.53171,-3.69696 l 27.03195,-11.37695 73.57452,-48.82002 -79.06642,39.30802 -23.36355,17.71685 a 29.290215,29.28972 0 0 0 -2.43989,-3.1721 l 23.1633,-17.9843 58.43312,-66.19933 -66.19902,58.43213 -17.9846,23.16291 a 29.290215,29.28972 0 0 0 -3.17219,-2.43844 l 17.71716,-23.36311 39.30725,-79.06655 -48.81942,73.57471 -11.37714,27.02864 a 29.290215,29.28972 0 0 0 -3.69701,-1.53026 l 11.0682,-27.15734 17.50405,-86.54632 -28.11315,83.70313 -3.9931,29.04804 a 29.290215,29.28972 0 0 0 -3.96876,-0.51771 l 3.66271,-29.09664 -5.4919,-88.12519 -5.49195,88.12519 3.66986,29.16241 a 29.290215,29.28972 0 0 0 -3.9659,0.52056 l -4.00165,-29.11665 -28.11461,-83.70312 17.50549,86.54628 11.08681,27.20596 a 29.290215,29.28972 0 0 0 -3.6985,1.52456 l -11.39429,-27.07153 -48.8208,-73.5747 39.30865,79.06653 17.73145,23.38315 a 29.290215,29.28972 0 0 0 -3.17931,2.42699 l -17.99175,-23.17149 -66.19906,-58.43213 58.43316,66.19933 23.17186,17.99001 a 29.290215,29.28972 0 0 0 -2.42701,3.1821 l -23.38497,-17.73256 -79.06786,-39.30802 73.57593,48.82002 27.072,11.3941 a 29.290215,29.28972 0 0 0 -1.52599,3.69841 l -27.205,-11.08806 -86.54628,-17.50375 83.70307,28.11415 29.11715,4.00159 a 29.290215,29.28972 0 0 0 -0.5206,3.96582 l -29.16149,-3.6698 z" style="color:#000;display:inline;fill:#103070;fill-opacity:1;stroke-width:.999999;-inkscape-stroke:none"/></svg>