<svg xmlns="http://www.w3.org/2000/svg" xml:space="preserve" id="svg1" width="4608" height="3072" version="1.1" viewBox="0 0 1219.2 812.8"><defs id="defs1"><style id="style1">.cls-1{fill:#0283c0}.cls-2{fill:#fff}.cls-3{fill:#ef483f}</style></defs><path id="rect1" d="M 0 0 L 0 812.8 L 1219.2 812.8 L 1219.2 0 L 0 0 z" style="fill:#fff;stroke-width:16.9333;stroke-linecap:round;stroke-linejoin:round;stroke-miterlimit:128;fill-opacity:1"/><path id="path1" d="M 541.64946,702.90286 C 889.82537,755.622 902.06217,539.87014 902.06217,539.87014 915.59597,385.40649 757.40132,340.05625 709.63206,254.23484 c -47.8438,-85.77296 63.09598,-98.6732 56.33837,-43.48285 -6.70543,55.10835 25.76318,64.97454 27.61193,69.26095 1.81895,4.26032 48.99931,51.49658 55.76431,42.61811 6.7204,-8.93063 -19.3074,-42.61811 -19.3074,-42.61811 0,0 20.2095,-11.68511 27.8542,-38.01487 22.0731,-60.09921 -86.99555,-204.71901 -202.20682,-107.90577 -112.81091,104.21946 37.94405,217.04152 77.22621,273.40598 39.23,56.37935 37.78381,98.92293 13.4519,106.65709 -24.86866,7.86466 -44.28424,-16.89591 -54.48962,-55.20152 -9.4972,-35.72257 -72.30245,-150.7363 -205.95277,-114.02972 -99.27702,31.92072 -87.67761,71.12088 -167.40112,49.05518 -28.15988,268.46357 223.12821,308.92355 223.12821,308.92355 z" style="fill:#000;stroke-width:1.29421"/></svg>