<svg xmlns="http://www.w3.org/2000/svg" xml:space="preserve" id="svg1" width="4608" height="3072" version="1.1" viewBox="0 0 1219.2 812.8"><defs id="defs1"><style id="style1">.cls-1{fill:#0283c0}.cls-2{fill:#fff}.cls-3{fill:#ef483f}</style></defs><path id="rect1" d="M 1219.2,0 V 812.8 H 0 V 0 Z" style="fill:#000;fill-opacity:1;fill-rule:evenodd;stroke:none;stroke-width:8.46667;stroke-linecap:round;stroke-linejoin:round"/><path id="path2" d="M 455.65274 34.738468 C 421.01732 49.084936 400.35549 82.693811 400.62715 118.00774 L 344.46872 141.26932 L 320.91461 198.13399 A 89.396326 89.396326 0 0 0 286.31912 204.07166 A 89.396326 89.396326 0 0 0 237.93808 252.45257 A 89.396326 89.396326 0 0 0 258.20368 349.53282 L 234.64846 406.40016 L 257.90978 462.55796 C 232.74696 487.33661 223.59204 525.71182 237.93849 560.3472 C 252.28485 594.98241 285.89341 615.64444 321.20713 615.37306 L 344.46871 671.53148 L 401.33694 695.08707 A 89.396326 89.396326 0 0 0 455.65258 778.06186 A 89.396326 89.396326 0 0 0 552.73132 757.79615 L 609.59955 781.35175 L 665.75797 758.09016 C 690.53662 783.25298 728.91179 792.40791 763.54721 778.06146 C 798.18265 763.71498 818.84448 730.1061 818.57281 694.79218 L 874.73061 671.53086 L 898.28683 614.66237 A 89.396326 89.396326 0 0 0 981.26188 560.34736 A 89.396326 89.396326 0 0 0 932.88088 443.54529 A 89.396326 89.396326 0 0 0 864.45985 443.54538 A 89.396326 89.396326 0 0 0 842.86597 456.59739 L 552.53839 180.7242 C 569.57247 163.80225 579.28391 140.70331 579.09949 116.65423 L 609.60184 104.01975 L 640.81003 116.9466 A 89.396326 89.396326 0 0 0 695.12631 199.92113 A 89.396326 89.396326 0 0 0 811.92837 151.54013 A 89.396326 89.396326 0 0 0 763.54737 34.738064 A 89.396326 89.396326 0 0 0 695.12634 34.738154 A 89.396326 89.396326 0 0 0 666.46507 55.002293 L 609.59926 31.447179 L 596.77148 36.761356 L 553.44109 54.709391 C 528.66247 29.547069 490.28789 20.392124 455.65274 34.738468 z M 472.75799 76.03419 A 44.698166 44.698166 0 0 1 531.15896 100.22466 A 44.698166 44.698166 0 0 1 506.96849 158.62563 A 44.698166 44.698166 0 0 1 448.56752 134.43516 A 44.698166 44.698166 0 0 1 472.75799 76.03419 z M 460.66276 105.23467 L 466.36442 118.99971 L 480.12945 113.29804 L 485.83137 127.0637 L 472.06634 132.76537 L 477.768 146.5304 L 519.06373 129.42515 L 513.36206 115.66012 L 499.59703 121.36178 L 488.19345 93.831089 L 460.66276 105.23467 z M 395.78493 192.58414 L 426.28502 179.95132 C 443.15973 197.08719 466.36024 206.55323 490.37086 206.4741 L 480.14944 606.83877 A 89.396326 89.396326 0 0 0 455.65262 612.87888 A 89.396326 89.396326 0 0 0 426.99209 633.14124 L 395.78541 620.21449 L 383.15108 589.71429 C 408.31307 564.93563 417.46764 526.56115 403.12137 491.9262 C 388.77503 457.29105 355.16644 436.62897 319.85273 436.90035 L 307.21866 406.40078 L 320.14662 375.18991 A 89.396326 89.396326 0 0 0 403.12115 320.87363 A 89.396326 89.396326 0 0 0 383.14451 223.10082 L 395.78493 192.58414 z M 300.52213 246.69281 A 44.698166 44.698166 0 0 1 337.63488 245.36733 A 44.698166 44.698166 0 0 1 361.82538 303.76837 A 44.698166 44.698166 0 0 1 303.42435 327.95887 A 44.698166 44.698166 0 0 1 279.23385 269.55783 A 44.698166 44.698166 0 0 1 300.52213 246.69281 z M 709.32873 77.359567 A 44.698166 44.698166 0 0 1 746.44211 76.033831 A 44.698166 44.698166 0 0 1 770.63261 134.43486 A 44.698166 44.698166 0 0 1 712.23158 158.62536 A 44.698166 44.698166 0 0 1 688.04107 100.22433 A 44.698166 44.698166 0 0 1 709.32873 77.359567 z M 291.32913 274.56786 L 308.43438 315.86358 L 349.7301 298.75834 L 332.62485 257.46261 L 291.32913 274.56786 z M 700.13636 105.23436 L 717.2416 146.53008 L 758.53733 129.42483 L 741.43208 88.129112 L 700.13636 105.23436 z M 310.79582 282.63123 L 324.56148 276.92931 L 330.26341 290.69497 L 316.49775 296.39689 L 310.79582 282.63123 z M 719.60305 113.29773 L 733.36871 107.59581 L 739.07063 121.36147 L 725.30497 127.06339 L 719.60305 113.29773 z M 555.66102 276.18159 L 640.88026 357.15753 L 552.66056 393.69933 L 555.66102 276.18159 z M 303.42468 484.84098 A 44.698166 44.698166 0 0 1 361.82565 509.03145 A 44.698166 44.698166 0 0 1 337.63518 567.43242 A 44.698166 44.698166 0 0 1 279.23421 543.24195 A 44.698166 44.698166 0 0 1 303.42468 484.84098 z M 291.32944 514.04146 L 297.03111 527.80649 L 310.79614 522.10483 L 316.49806 535.87049 L 302.73303 541.57215 L 308.43469 555.33719 L 349.73041 538.23194 L 344.02875 524.46691 L 330.26372 530.16857 L 318.86013 502.63788 L 291.32944 514.04146 z M 550.78764 467.04802 L 694.06998 407.69853 L 810.0046 517.85986 A 89.396326 89.396326 0 0 0 836.34362 589.00466 L 823.41603 620.21464 L 792.91431 632.84886 C 768.13568 607.68674 729.76121 598.53228 695.12622 612.87857 C 660.491 627.22494 639.82895 660.8335 640.10036 696.14721 L 609.59927 708.78118 L 579.08411 696.14086 A 89.396326 89.396326 0 0 0 546.71373 626.60549 L 550.78764 467.04802 z M 469.85563 655.50004 A 44.698166 44.698166 0 0 1 506.96838 654.17456 A 44.698166 44.698166 0 0 1 531.15888 712.57559 A 44.698166 44.698166 0 0 1 472.75785 736.76609 A 44.698166 44.698166 0 0 1 448.56735 678.36506 A 44.698166 44.698166 0 0 1 469.85563 655.50004 z M 878.66223 486.16679 A 44.698166 44.698166 0 0 1 915.77561 484.84106 A 44.698166 44.698166 0 0 1 939.96611 543.24209 A 44.698166 44.698166 0 0 1 881.56508 567.43259 A 44.698166 44.698166 0 0 1 857.37458 509.03156 A 44.698166 44.698166 0 0 1 878.66223 486.16679 z M 460.66263 683.37509 L 477.76788 724.67081 L 519.0636 707.56556 L 501.95835 666.26984 L 460.66263 683.37509 z M 869.46986 514.04159 L 886.57511 555.33731 L 927.87083 538.23206 L 910.76558 496.93634 L 869.46986 514.04159 z M 480.12932 691.43846 L 493.89499 685.73653 L 499.59691 699.50219 L 485.83125 705.20412 L 480.12932 691.43846 z M 888.93655 522.10496 L 902.70221 516.40303 L 908.40414 530.16869 L 894.63847 535.87062 L 888.93655 522.10496 z M 712.23147 654.17429 A 44.698166 44.698166 0 0 1 770.63244 678.36476 A 44.698166 44.698166 0 0 1 746.44197 736.76573 A 44.698166 44.698166 0 0 1 688.041 712.57526 A 44.698166 44.698166 0 0 1 712.23147 654.17429 z M 700.13623 683.37478 L 705.83789 697.13981 L 719.60293 691.43814 L 725.30485 705.2038 L 711.53982 710.90547 L 717.24148 724.6705 L 758.5372 707.56525 L 752.83554 693.80022 L 739.07051 699.50188 L 727.66692 671.97119 L 700.13623 683.37478 z" style="color:#000;fill:#fff;stroke-miterlimit:128;-inkscape-stroke:none;paint-order:stroke fill markers;fill-opacity:1" transform="matrix(0.70000007,0.28994953,-0.28994953,0.70000007,300.71545,-54.833229)"/></svg>