<svg xmlns="http://www.w3.org/2000/svg" xml:space="preserve" id="svg1" width="4608" height="3072" version="1.1" viewBox="0 0 1219.2 812.8"><defs id="defs1"><style id="style1">.cls-1{fill:#0283c0}.cls-2{fill:#fff}.cls-3{fill:#ef483f}</style></defs><path id="rect1" d="M 0,0 V 812.79997 H 1219.2 V 0 Z" style="fill:#b31942;fill-opacity:1;fill-rule:evenodd;stroke:none;stroke-width:8.46668;stroke-linecap:round;stroke-linejoin:round"/><path id="path9" d="M 0 62.522799 L 0 125.04611 L 1219.2 125.04611 L 1219.2 62.522799 L 0 62.522799 z M 0 187.56943 L 0 250.09223 L 1219.2 250.09223 L 1219.2 187.56943 L 0 187.56943 z M 0 312.61554 L 0 375.13834 L 1219.2 375.13834 L 1219.2 312.61554 L 0 312.61554 z M 0 437.66166 L 0 500.18446 L 1219.2 500.18446 L 1219.2 437.66166 L 0 437.66166 z M 0 562.70777 L 0 625.23057 L 1219.2 625.23057 L 1219.2 562.70777 L 0 562.70777 z M 0 687.75389 L 0 750.27668 L 1219.2 750.27668 L 1219.2 687.75389 L 0 687.75389 z" style="fill:#fff;fill-opacity:1;fill-rule:evenodd;stroke:none;stroke-width:8.46667;stroke-linecap:round;stroke-linejoin:round"/><path id="path7" d="M 609.6,101.59999 A 304.79995,304.79995 0 0 0 304.79998,406.4 304.79995,304.79995 0 0 0 609.6,711.20001 304.79995,304.79995 0 0 0 914.40002,406.4 304.79995,304.79995 0 0 0 609.6,101.59999 Z" style="fill:#0a3161;fill-opacity:1;stroke-width:25.4;stroke-miterlimit:128"/><path id="rect2" d="m 372.53332,406.4 33.86667,33.86667 67.73334,-67.73334 67.73334,67.73334 L 575.73333,406.4 508,338.66668 575.73333,270.93334 541.86667,237.06666 Z M 575.73333,203.19999 643.46667,270.93334 575.73333,338.66667 609.6,372.53333 677.33334,304.8 745.06667,372.53333 778.93335,338.66667 609.6,169.33333 Z M 440.26666,474.13334 609.6,643.46667 643.46667,609.60001 575.73333,541.86666 643.46667,474.13334 609.6,440.26667 541.86668,508.00001 474.13333,440.26667 Z m 203.2,-67.73334 67.73335,67.73333 -67.73335,67.73333 33.86667,33.86668 L 846.66668,406.4 812.80001,372.53333 745.06667,440.26667 677.33334,372.53333 Z" style="fill:#fff;fill-opacity:1;stroke-width:25.4;stroke-miterlimit:128"/></svg>