<svg xmlns="http://www.w3.org/2000/svg" xml:space="preserve" id="svg1" width="4608" height="3072" version="1.1" viewBox="0 0 1219.2 812.8"><defs id="defs1"><style id="style1">.cls-1{fill:#0283c0}.cls-2{fill:#fff}.cls-3{fill:#ef483f}</style></defs><path id="rect1" d="M 0 0 L 0 812.8 L 1219.2 812.8 L 1219.2 0 L 0 0 z" style="fill:#b00020;stroke-width:16.9333;stroke-linecap:round;stroke-linejoin:round;stroke-miterlimit:128;fill-opacity:1"/><path id="path10" d="m 415.44854,101.89249 c -36.34611,-2.063217 -65.22935,6.82931 -84.37831,25.97826 -44.17775,44.40275 -31.72289,138.63559 32.66106,247.11205 6.94003,-9.92397 14.22432,-19.84542 21.85809,-29.74858 -11.65329,-20.74017 -21.41857,-41.04772 -28.8649,-60.40819 -26.62911,-69.23573 -20.2686,-114.44618 -1.70687,-133.00791 9.81198,-9.81199 24.21969,-15.82542 46.96457,-16.38866 22.74488,-0.56325 52.62417,5.24201 86.04333,18.09554 66.83828,25.70702 147.38053,78.994 221.41801,153.03148 22.97798,22.97798 44.28025,47.01444 63.53359,71.3574 6.93586,-9.99177 13.50819,-19.90257 19.51199,-29.64935 C 774.17613,325.68239 754.3507,303.65741 733.39089,282.60962 627.72613,176.94482 504.58615,106.95256 415.44854,101.89249 Z m 388.3024,0 c -46.26191,2.72631 -102.7259,23.03863 -162.33273,58.39747 9.91743,7.00976 19.81522,14.25882 29.66072,21.92372 20.63131,-11.57501 40.83199,-21.27982 60.09504,-28.68868 69.23573,-26.62913 114.44618,-20.26861 133.00791,-1.70688 9.81199,9.81198 15.82542,24.2197 16.38866,46.96458 0.56325,22.74488 -5.24201,52.62417 -18.09554,86.04333 -25.70702,66.83828 -78.994,147.38053 -153.03148,221.418 -22.97798,22.97798 -47.01444,44.28025 -71.3574,63.53359 10.04388,6.97209 20.00735,13.58262 29.80335,19.61276 22.54091,-18.35922 44.51413,-38.21839 65.50142,-59.19949 73.87049,-73.87061 131.67322,-157.75782 160.69228,-233.20745 29.01906,-75.44963 26.87737,-136.28127 -5.95392,-169.11269 -19.14896,-19.14895 -48.0322,-28.041477 -84.37831,-25.97826 z M 551.46401,223.5109 c -22.58232,18.31312 -44.60748,38.13872 -65.65542,59.09872 -153.82733,153.82757 -223.10599,333.95226 -154.73836,402.32015 44.35481,44.32673 138.67918,31.90438 247.28103,-32.56649 -10.00718,-6.99633 -19.95926,-14.3558 -29.86019,-21.98522 -20.76017,11.66769 -41.08721,21.44425 -60.46556,28.89746 -69.23571,26.62911 -114.44617,20.2686 -133.0079,1.70687 -9.81199,-9.81198 -15.82543,-24.21969 -16.38867,-46.96457 -0.56325,-22.74488 5.24201,-52.62417 18.09554,-86.04333 25.70702,-66.83828 78.994,-147.38053 153.03149,-221.41801 22.97796,-22.97798 47.01443,-44.28025 71.3574,-63.53359 -9.99178,-6.93585 -19.90257,-13.5082 -29.64936,-19.51199 z M 446.22238,434.88663 c -6.93591,9.99178 -13.50869,19.90257 -19.51251,29.64936 18.31315,22.58216 38.13875,44.60714 59.09872,65.6549 73.87064,73.87065 157.75795,131.67353 233.2077,160.6927 75.44975,29.01916 136.2815,26.87751 169.11296,-5.95382 44.18046,-44.4057 31.72088,-138.64756 -32.67294,-247.13169 -6.96458,9.95672 -14.28752,19.85893 -21.87877,29.71033 11.66779,20.76031 21.44421,41.0876 28.89746,60.46608 26.62913,69.23571 20.26861,114.44617 1.70688,133.0079 -9.81198,9.81199 -24.2197,15.82543 -46.96458,16.38867 -22.74488,0.56325 -52.62417,-5.24201 -86.04333,-18.09554 -66.83828,-25.70702 -147.38053,-78.994 -221.418,-153.03149 -22.97798,-22.97796 -44.28025,-47.01443 -63.53359,-71.3574 z" style="color:#000;fill:#fff;fill-opacity:1;stroke-linejoin:bevel;stroke-miterlimit:128;-inkscape-stroke:none"/><path id="path41" d="M 609.59948 279.40052 L 566.54061 338.66615 L 496.86786 361.30456 L 539.92725 420.57071 L 539.92725 493.82877 L 609.6 471.19088 L 679.27172 493.82877 L 679.27223 420.57071 L 722.3311 361.30559 L 652.65887 338.66615 L 609.59948 279.40052 z M 609.59948 337.01767 L 631.72837 367.47473 L 667.53341 379.10916 L 645.40608 409.56622 L 645.40608 447.21508 L 609.59948 435.5822 L 573.79288 447.21663 L 573.79288 409.56622 L 551.664 379.10916 L 587.4706 367.47473 L 609.59948 337.01767 z" style="color:#000;fill:#ffd000;stroke-miterlimit:128;-inkscape-stroke:none;fill-opacity:1"/></svg>