<svg xmlns="http://www.w3.org/2000/svg" xml:space="preserve" id="svg1" width="4608" height="3072" version="1.1" viewBox="0 0 1219.2 812.8"><defs id="defs1"><style id="style1">.cls-1{fill:#0283c0}.cls-2{fill:#fff}.cls-3{fill:#ef483f}</style></defs><path id="rect1" d="M 0 0 L 0 812.8 L 1219.2 812.8 L 1219.2 0 L 0 0 z" style="fill:#00a0ff;fill-rule:evenodd;stroke:none;stroke-width:8.46667;stroke-linecap:round;stroke-linejoin:round;fill-opacity:1"/><path id="circle7" d="M 609.6 101.6 A 304.79995 304.79999 0 0 0 306.0113 389.46667 L 304.8 389.46667 L 304.8 423.33333 L 306.0113 423.33333 A 304.79995 304.79999 0 0 0 609.6 711.2 A 304.79995 304.79999 0 0 0 914.4 406.4 A 304.79995 304.79999 0 0 0 609.6 101.6 z M 626.53333 136.05474 A 270.93327 270.9333 0 0 1 821.05273 237.06667 L 626.53333 237.06667 L 626.53333 136.05474 z M 592.66667 136.7994 L 592.66667 237.06667 L 399.02164 237.06667 A 270.93327 270.9333 0 0 1 592.66667 136.7994 z M 375.83546 270.93333 L 508.71985 270.93333 A 169.33333 169.33333 0 0 0 441.47745 389.46667 L 339.9994 389.46667 A 270.93327 270.9333 0 0 1 375.83546 270.93333 z M 711.16796 270.93333 L 844.23529 270.93333 A 270.93327 270.9333 0 0 1 879.94526 389.46667 L 778.07654 389.46667 A 169.33333 169.33333 0 0 0 711.16796 270.93333 z M 626.53333 272.03921 A 135.46667 135.46667 0 0 1 743.96079 389.46667 L 626.53333 389.46667 L 626.53333 272.03921 z M 592.66667 272.26607 L 592.66667 389.46667 L 475.46607 389.46667 A 135.46667 135.46667 0 0 1 592.66667 272.26607 z M 339.9994 423.33333 L 441.47745 423.33333 A 169.33333 169.33333 0 0 0 508.71985 541.86667 L 375.83546 541.86667 A 270.93327 270.9333 0 0 1 339.9994 423.33333 z M 475.46607 423.33333 L 592.66667 423.33333 L 592.66667 540.53393 A 135.46667 135.46667 0 0 1 475.46607 423.33333 z M 626.53333 423.33333 L 743.73393 423.33333 A 135.46667 135.46667 0 0 1 626.53333 540.53393 L 626.53333 423.33333 z M 777.72255 423.33333 L 879.94526 423.33333 A 270.93327 270.9333 0 0 1 844.23529 541.86667 L 710.48015 541.86667 A 169.33333 169.33333 0 0 0 777.72255 423.33333 z M 399.02164 575.73333 L 592.66667 575.73333 L 592.66667 676.0006 A 270.93327 270.9333 0 0 1 399.02164 575.73333 z M 626.53333 575.73333 L 821.05273 575.73333 A 270.93327 270.9333 0 0 1 626.53333 676.74526 L 626.53333 575.73333 z" style="fill:#fff;fill-opacity:1;stroke-width:1.05833;stroke-miterlimit:128"/></svg>