<svg xmlns="http://www.w3.org/2000/svg" xml:space="preserve" width="2888.261" height="323.14258" viewBox="0 0 764.18563 85.498129"><path d="m 218.13498,0 c -5.2832,0 -10.26141,1.01588 -14.93501,3.04788 -4.67359,2.032 -8.73762,4.77507 -12.19202,8.22947 -3.45439,3.556 -6.19747,7.62023 -8.22947,12.29382 -2.03199,4.6736 -3.04839,9.65181 -3.04839,14.93501 0,5.28319 1.0164,10.26192 3.04839,14.93552 2.032,4.67359 4.77508,8.73762 8.22947,12.19202 3.4544,3.55599 7.51843,6.29876 12.19202,8.33075 4.6736,2.032 9.65181,3.0484 14.93501,3.0484 5.28319,0 10.26141,-1.0164 14.935,-3.0484 4.6736,-2.03199 8.73783,-4.77476 12.29382,-8.33075 3.4544,-3.4544 6.19748,-7.51843 8.22947,-12.19202 2.032,-4.6736 3.0484,-9.65233 3.0484,-14.93552 0,-5.2832 -1.0164,-10.26141 -3.0484,-14.93501 C 251.56128,18.89758 248.8182,14.83335 245.3638,11.27735 241.80781,7.82295 237.74358,5.07988 233.06998,3.04788 228.39639,1.01588 223.41817,0 218.13498,0 Z m 215.69688,0 c -5.28319,0 -10.26192,1.01588 -14.93552,3.04788 -4.6736,2.032 -8.73762,4.77507 -12.19202,8.22947 -3.4544,3.556 -6.19747,7.62023 -8.22947,12.29382 -2.032,4.6736 -3.04788,9.65181 -3.04788,14.93501 0,5.28319 1.01588,10.26192 3.04788,14.93552 2.032,4.67359 4.77507,8.73762 8.22947,12.19202 3.4544,3.55599 7.51842,6.29876 12.19202,8.33075 4.6736,2.032 9.65233,3.0484 14.93552,3.0484 5.2832,0 10.26141,-1.0164 14.935,-3.0484 4.6736,-2.03199 8.73783,-4.77476 12.29383,-8.33075 3.45439,-3.4544 6.19747,-7.51843 8.22947,-12.19202 2.03199,-4.6736 3.04787,-9.65233 3.04787,-14.93552 0,-5.2832 -1.01588,-10.26141 -3.04787,-14.93501 -2.032,-4.67359 -4.77508,-8.73782 -8.22947,-12.29382 -3.556,-3.4544 -7.62023,-6.19747 -12.29383,-8.22947 C 444.09327,1.01588 439.11506,0 433.83186,0 Z M 294.03008,0.3049 c -3.2512,0 -6.60391,0.30476 -10.0583,1.01595 -3.4544,0.7112 -6.60404,2.03175 -9.34724,3.75895 -2.84479,1.8288 -5.18162,4.26732 -7.01042,7.31531 -1.8288,3.048 -2.74298,6.90864 -2.74298,11.58224 0,3.1496 0.50794,5.89319 1.52393,8.22999 0.9144,2.3368 2.23515,4.36855 3.86075,6.09575 1.6256,1.7272 3.45417,3.04804 5.58777,4.16564 2.032,1.11759 4.06396,1.93049 6.19755,2.64169 2.1336,0.7112 4.16556,1.32094 6.19756,1.62574 1.9304,0.4064 3.65759,0.71116 5.18159,1.01596 1.524,0.3048 3.04834,0.60916 4.57233,0.81236 1.524,0.2032 2.84495,0.50807 3.96255,0.81287 1.1176,0.3048 1.92998,0.71156 2.64118,1.21956 0.7112,0.508 1.01596,1.2188 1.01596,2.1332 0,1.7272 -0.81281,2.94666 -2.33681,3.75946 -1.52399,0.9144 -3.86042,1.32085 -6.80681,1.32085 -3.1496,0 -6.50282,-0.71112 -10.05882,-2.03191 -3.556,-1.3208 -7.21357,-3.2515 -10.87117,-5.58829 -0.508,-0.3048 -1.11763,-0.40649 -1.82883,-0.30489 -0.7112,0.1016 -1.21882,0.50796 -1.62522,1.01595 l -7.8233,11.27787 c -0.40639,0.508 -0.60957,1.11763 -0.50797,1.82883 0.1016,0.7112 0.40615,1.32062 0.91415,1.72702 1.9304,1.524 3.96256,3.04793 6.29936,4.36873 2.23519,1.4224 4.67371,2.64166 7.31531,3.65766 2.6416,1.01599 5.48637,1.8288 8.53436,2.3368 3.048,0.6096 6.29922,0.91468 9.85521,0.91468 4.3688,0 8.33114,-0.50826 11.88713,-1.42266 3.556,-0.9144 6.60415,-2.23523 9.14415,-4.16563 2.53999,-1.9304 4.47026,-4.36892 5.89266,-7.31532 1.4224,-2.94639 2.13372,-6.40048 2.13372,-10.46447 0,-4.3688 -0.8127,-7.92478 -2.5399,-10.87117 -1.7272,-2.8448 -3.86116,-5.18163 -6.40116,-7.01043 -2.53999,-1.7272 -5.28307,-3.14943 -8.22947,-4.06383 -2.94639,-0.9144 -5.58798,-1.52444 -8.02638,-2.03244 -0.508,-0.1016 -1.52377,-0.30446 -3.25096,-0.60926 -1.7272,-0.3048 -3.4546,-0.71156 -5.2834,-1.21956 -1.8288,-0.508 -3.45431,-1.21892 -4.87671,-1.93012 -1.42239,-0.7112 -2.13372,-1.6255 -2.13372,-2.5399 0,-0.91439 0.30456,-1.72752 0.91416,-2.23552 0.508,-0.508 1.21932,-0.91424 2.13372,-1.21904 0.9144,-0.2032 1.82879,-0.30458 2.84479,-0.40618 h 2.53989 c 2.54,0 5.28359,0.40593 8.22999,1.32033 2.9464,0.9144 6.19721,2.54002 9.65161,4.67362 0.508,0.4064 1.11763,0.50829 1.82883,0.40669 0.71119,-0.1016 1.21934,-0.50796 1.62574,-1.01596 l 7.92509,-11.27786 c 0.4064,-0.508 0.60958,-1.11763 0.50798,-1.82883 -0.1016,-0.7112 -0.40667,-1.21903 -0.91467,-1.72703 -4.1656,-3.14959 -8.43269,-5.58811 -12.90309,-7.31531 -4.57199,-1.6256 -9.6521,-2.43809 -15.34169,-2.43809 z M 36.37245,1.32085 c -0.7112,0 -1.21903,0.20307 -1.72703,0.71107 -0.508,0.508 -0.71106,1.01583 -0.71106,1.72703 v 69.49446 c 0,0.7112 0.20306,1.21954 0.71106,1.72754 0.508,0.508 1.01583,0.71107 1.72703,0.71107 h 27.736798 c 5.2832,0 10.16004,-0.81281 14.52883,-2.33681 4.3688,-1.524 8.22996,-3.86114 11.58276,-6.90914 3.65759,-3.3528 6.40036,-7.41631 8.33075,-12.1915 1.930402,-4.6736 2.845312,-9.9572 2.845312,-15.74839 0,-5.7912 -0.91491,-11.07428 -2.845312,-15.74788 -1.93039,-4.67359 -4.67316,-8.73742 -8.33075,-12.09021 -6.8072,-6.1976 -15.4436,-9.34724 -26.11159,-9.34724 z m 79.55276,0 c -0.7112,0 -1.21903,0.20307 -1.72703,0.71107 -0.508,0.508 -0.71107,1.01583 -0.71107,1.72703 v 69.49446 c 0,0.7112 0.20307,1.21954 0.71107,1.72754 0.508,0.508 1.01583,0.71107 1.72703,0.71107 h 51.71466 c 0.7112,0 1.21903,-0.20307 1.72703,-0.71107 0.508,-0.508 0.71107,-1.01634 0.71107,-1.72754 V 59.23256 c 0,-0.7112 -0.20307,-1.21903 -0.71107,-1.72703 -0.508,-0.508 -1.01583,-0.71107 -1.72703,-0.71107 h -31.59755 c -0.7112,0 -1.21954,-0.20358 -1.72754,-0.71158 -0.508,-0.508 -0.71107,-1.01583 -0.71107,-1.72703 v -3.86074 c 0,-0.7112 0.20307,-1.21903 0.71107,-1.72703 0.508,-0.508 1.01634,-0.71158 1.72754,-0.71158 h 27.5332 c 0.7112,0 1.21955,-0.20307 1.72755,-0.71107 0.508,-0.508 0.71106,-1.01583 0.71106,-1.72703 V 31.59756 c 0,-0.7112 -0.20306,-1.21903 -0.71106,-1.72703 -0.508,-0.508 -1.01635,-0.71158 -1.72755,-0.71158 h -27.5332 c -0.7112,0 -1.21954,-0.20307 -1.72754,-0.71107 -0.508,-0.508 -0.71107,-1.01583 -0.71107,-1.72703 v -4.26744 c 0,-0.7112 0.20307,-1.21902 0.71107,-1.72702 0.508,-0.508 1.01634,-0.71107 1.72754,-0.71107 h 31.59755 c 0.7112,0 1.21903,-0.20359 1.72703,-0.71159 0.508,-0.508 0.71107,-1.01582 0.71107,-1.72702 V 3.75895 c 0,-0.7112 -0.20307,-1.21903 -0.71107,-1.72703 -0.508,-0.508 -1.01583,-0.71107 -1.72703,-0.71107 z m 222.6055,0 c -0.7112,0 -1.32062,0.20307 -1.72702,0.71107 -0.508,0.508 -0.71107,1.01583 -0.71107,1.72703 v 69.49446 c 0,0.7112 0.20307,1.21954 0.71107,1.72754 0.4064,0.508 1.01582,0.71107 1.72702,0.71107 h 50.69871 c 0.7112,0 1.21903,-0.20307 1.72703,-0.71107 0.508,-0.508 0.71106,-1.01634 0.71106,-1.72754 V 59.43616 c 0,-0.7112 -0.20306,-1.21954 -0.71106,-1.72754 -0.508,-0.508 -1.01583,-0.71107 -1.72703,-0.71107 h -30.58159 c -0.7112,0 -1.32063,-0.20307 -1.72703,-0.71107 -0.508,-0.50799 -0.71158,-1.01634 -0.71158,-1.72754 V 3.75895 c 0,-0.7112 -0.20307,-1.21903 -0.71107,-1.72703 -0.508,-0.508 -1.01583,-0.71107 -1.72703,-0.71107 z m 146.60912,0 c -0.7112,0 -1.21954,0.20307 -1.72754,0.71107 -0.508,0.508 -0.71107,1.01583 -0.71107,1.72703 v 69.49446 c 0,0.7112 0.20307,1.21954 0.71107,1.72754 0.508,0.508 1.01634,0.71107 1.72754,0.71107 h 15.34118 c 0.7112,0 1.21955,-0.20307 1.72755,-0.71107 0.508,-0.508 0.71106,-1.01634 0.71106,-1.72754 v -15.1381 c 0,-0.7112 0.20307,-1.21954 0.71107,-1.72754 0.508,-0.508 1.01635,-0.71107 1.72755,-0.71107 h 8.83925 c 4.97839,0 9.24517,-0.71132 13.00437,-2.13372 3.6576,-1.3208 6.70595,-3.25117 9.24595,-5.68957 2.43839,-2.3368 4.26728,-5.18157 5.48648,-8.53436 1.2192,-3.2512 1.82831,-6.80709 1.82831,-10.56628 0,-3.7592 -0.7108,-7.31529 -2.1332,-10.66808 -1.524,-3.3528 -3.45478,-6.19746 -5.89318,-8.73745 -2.54,-2.54 -5.38465,-4.47078 -8.73745,-5.89318 -3.35279,-1.4224 -7.01017,-2.13321 -10.76937,-2.13321 z m 68.88468,0 c -0.7112,0 -1.21954,0.20307 -1.72754,0.71107 -0.508,0.508 -0.71107,1.01583 -0.71107,1.72703 v 69.49446 c 0,0.7112 0.20307,1.21954 0.71107,1.72754 0.508,0.508 1.01634,0.71107 1.72754,0.71107 h 15.3417 c 0.7112,0 1.21902,-0.20307 1.72702,-0.71107 0.508,-0.508 0.71107,-1.01634 0.71107,-1.72754 v -15.1381 c 0,-0.7112 0.20307,-1.21954 0.71107,-1.72754 0.508,-0.508 1.01634,-0.71107 1.72754,-0.71107 h 8.83925 c 4.9784,0 9.24518,-0.71132 13.00438,-2.13372 3.65759,-1.3208 6.70594,-3.25117 9.24594,-5.68957 2.4384,-2.3368 4.26729,-5.18157 5.48649,-8.53436 1.2192,-3.2512 1.82883,-6.80709 1.82883,-10.56628 0,-3.7592 -0.71132,-7.31529 -2.13372,-10.66808 -1.524,-3.3528 -3.45427,-6.19746 -5.89267,-8.73745 -2.53999,-2.54 -5.38517,-4.47078 -8.73796,-5.89318 -3.3528,-1.4224 -7.01017,-2.13321 -10.76937,-2.13321 z m 68.88467,0 c -0.71119,0 -1.21902,0.20307 -1.72702,0.71107 -0.508,0.508 -0.71159,1.01583 -0.71159,1.72703 v 69.49446 c 0,0.7112 0.20359,1.21954 0.71159,1.72754 0.508,0.508 1.01583,0.71107 1.72702,0.71107 h 51.71415 c 0.7112,0 1.21955,-0.20307 1.72755,-0.71107 0.508,-0.508 0.71107,-1.01634 0.71107,-1.72754 V 59.23256 c 0,-0.7112 -0.20307,-1.21903 -0.71107,-1.72703 -0.508,-0.508 -1.01635,-0.71107 -1.72755,-0.71107 h -31.59755 c -0.7112,0 -1.21902,-0.20358 -1.72702,-0.71158 -0.508,-0.508 -0.71107,-1.01583 -0.71107,-1.72703 v -3.86074 c 0,-0.7112 0.20307,-1.21903 0.71107,-1.72703 0.508,-0.508 1.01582,-0.71158 1.72702,-0.71158 h 27.53372 c 0.7112,0 1.21903,-0.20307 1.72703,-0.71107 0.508,-0.508 0.71158,-1.01583 0.71158,-1.72703 V 31.59756 c 0,-0.7112 -0.20358,-1.21903 -0.71158,-1.72703 -0.508,-0.508 -1.01583,-0.71158 -1.72703,-0.71158 h -27.53372 c -0.7112,0 -1.21902,-0.20307 -1.72702,-0.71107 -0.508,-0.508 -0.71107,-1.01583 -0.71107,-1.72703 v -4.26744 c 0,-0.7112 0.20307,-1.21902 0.71107,-1.72702 0.508,-0.508 1.01582,-0.71107 1.72702,-0.71107 h 31.59755 c 0.7112,0 1.21955,-0.20359 1.72755,-0.71159 0.508,-0.508 0.71107,-1.01582 0.71107,-1.72702 V 3.75895 c 0,-0.7112 -0.20307,-1.21903 -0.71107,-1.72703 -0.508,-0.508 -1.01635,-0.71107 -1.72755,-0.71107 z m 69.59627,0 c -0.7112,0 -1.21955,0.20307 -1.72755,0.71107 -0.508,0.508 -0.71107,1.01583 -0.71107,1.72703 v 69.49446 c 0,0.7112 0.20307,1.21954 0.71107,1.72754 0.508,0.508 1.01635,0.71107 1.72755,0.71107 h 15.13809 c 0.7112,0 1.21954,-0.20307 1.72754,-0.71107 0.508,-0.508 0.71107,-1.01634 0.71107,-1.72754 V 56.79446 c 0,-0.7112 0.20307,-1.21954 0.71107,-1.72754 0.50799,-0.508 1.01582,-0.71107 1.72702,-0.71107 h 2.23552 c 0.7112,0 1.42201,0.20318 2.13321,0.50798 0.7112,0.4064 1.32114,0.91466 1.72754,1.42265 l 6.40064,8.83926 c 2.1336,2.94639 4.26705,5.79085 6.40064,8.63565 0.4064,0.50799 1.01603,1.01604 1.82883,1.32084 0.7112,0.4064 1.42252,0.60979 2.13372,0.60979 h 18.89755 c 0.7112,0 1.11765,-0.30476 1.32085,-1.01596 0.2032,-0.6096 0.10151,-1.21955 -0.30489,-1.72755 -2.23519,-2.94639 -4.77489,-6.29921 -7.61969,-9.85521 -2.84479,-3.55599 -5.58818,-7.11168 -8.12818,-10.46447 -0.4064,-0.508 -0.50809,-1.11795 -0.30489,-1.72755 0.1016,-0.50799 0.50796,-1.01573 1.01596,-1.42213 1.62559,-1.016 3.04792,-2.33675 4.36872,-3.86075 1.3208,-1.52399 2.43889,-3.14991 3.35328,-5.08031 0.9144,-1.93039 1.72701,-3.96215 2.23501,-6.09575 0.508,-2.13359 0.71107,-4.26704 0.71107,-6.40064 0,-3.9624 -0.60932,-7.51869 -1.93012,-10.76988 -1.3208,-3.2512 -3.14969,-6.09576 -5.48648,-8.43256 -2.3368,-2.3368 -5.18157,-4.26749 -8.53436,-5.58829 -3.3528,-1.3208 -6.90878,-1.93012 -10.87117,-1.93012 z M 2.43809,1.42214 c -0.7112,0 -1.32063,0.20359 -1.72703,0.71158 C 0.20306,2.64172 0,3.14955 0,3.86075 v 69.39266 c 0,0.7112 0.20306,1.21954 0.71106,1.72754 0.4064,0.508 1.01583,0.71107 1.72703,0.71107 h 15.3417 c 0.7112,0 1.21902,-0.20307 1.72702,-0.71107 0.508,-0.508 0.71159,-1.01634 0.71159,-1.72754 V 3.86075 c 0,-0.7112 -0.20359,-1.21903 -0.71159,-1.72703 -0.508,-0.50799 -1.01582,-0.71158 -1.72702,-0.71158 z m 215.69689,17.9834 c 2.53999,0 4.87703,0.50794 7.11222,1.52393 2.2352,1.1176 4.16547,2.43844 5.89267,4.16564 1.72719,1.7272 3.04815,3.75895 3.96254,6.09575 0.9144,2.3368 1.42214,4.77532 1.42214,7.31532 0,2.53999 -0.50774,4.97851 -1.42214,7.31531 -0.91439,2.3368 -2.23535,4.36907 -3.96254,6.09627 -1.7272,1.7272 -3.65747,3.14912 -5.89267,4.16512 -2.23519,1.1176 -4.57223,1.62574 -7.11222,1.62574 -2.54,0 -4.87652,-0.50814 -7.11171,-1.62574 -2.2352,-1.016 -4.16578,-2.43792 -5.79138,-4.16512 -1.7272,-1.7272 -3.04815,-3.75947 -3.96255,-6.09627 -0.9144,-2.3368 -1.42213,-4.77532 -1.42213,-7.31531 0,-2.54 0.50773,-4.97852 1.42213,-7.31532 0.9144,-2.3368 2.23535,-4.36855 3.96255,-6.09575 1.6256,-1.7272 3.55618,-3.04804 5.79138,-4.16564 2.23519,-1.01599 4.57171,-1.52393 7.11171,-1.52393 z m 215.69688,0 c 2.54,0 4.87651,0.50794 7.11171,1.52393 2.2352,1.1176 4.16598,2.43844 5.89318,4.16564 1.7272,1.7272 3.04763,3.75895 3.96203,6.09575 0.9144,2.3368 1.42265,4.77532 1.42265,7.31532 0,2.53999 -0.50825,4.97851 -1.42265,7.31531 -0.9144,2.3368 -2.23483,4.36907 -3.96203,6.09627 -1.7272,1.7272 -3.65798,3.14912 -5.89318,4.16512 -2.2352,1.1176 -4.57171,1.62574 -7.11171,1.62574 -2.54,0 -4.87703,-0.50814 -7.11223,-1.62574 -2.23519,-1.016 -4.16526,-2.43792 -5.79086,-4.16512 -1.72719,-1.7272 -3.04815,-3.75947 -3.96254,-6.09627 -0.9144,-2.3368 -1.42266,-4.77532 -1.42266,-7.31531 0,-2.54 0.50826,-4.97852 1.42266,-7.31532 0.91439,-2.3368 2.23535,-4.36855 3.96254,-6.09575 1.6256,-1.7272 3.55567,-3.04804 5.79086,-4.16564 2.2352,-1.01599 4.57223,-1.52393 7.11223,-1.52393 z m 71.52638,0.60978 h 9.55032 c 1.42239,0 2.64134,0.20307 3.75894,0.71107 1.1176,0.508 2.0323,1.21911 2.7435,2.03191 0.7112,0.8128 1.32063,1.72699 1.72703,2.74299 0.3048,1.1176 0.50798,2.13388 0.50798,3.25148 0,2.1336 -0.60943,3.96217 -1.72703,5.58777 -1.2192,1.7272 -3.14958,2.54041 -5.68958,2.54041 h -10.87116 c -0.7112,0 -1.21955,-0.20358 -1.72755,-0.71158 -0.508,-0.508 -0.71107,-1.01583 -0.71107,-1.72703 V 22.45341 c 0,-0.7112 0.20307,-1.21902 0.71107,-1.72702 0.508,-0.508 1.01635,-0.71107 1.72755,-0.71107 z m 68.88467,0 h 9.55032 c 1.4224,0 2.64135,0.20307 3.75894,0.71107 1.1176,0.508 2.03231,1.21911 2.74351,2.03191 0.7112,0.8128 1.32062,1.72699 1.72702,2.74299 0.3048,1.1176 0.50798,2.13388 0.50798,3.25148 0,2.1336 -0.60943,3.96217 -1.72702,5.58777 -1.2192,1.7272 -3.14958,2.54041 -5.68958,2.54041 h -10.87117 c -0.7112,0 -1.21954,-0.20358 -1.72754,-0.71158 -0.508,-0.508 -0.71107,-1.01583 -0.71107,-1.72703 V 22.45341 c 0,-0.7112 0.20307,-1.21902 0.71107,-1.72702 0.508,-0.508 1.01634,-0.71107 1.72754,-0.71107 z m 138.27733,0 h 10.76989 c 1.42239,0 2.64165,0.30435 3.65765,0.81235 0.9144,0.6096 1.72721,1.32092 2.33681,2.13372 0.508,0.9144 0.91425,1.7273 1.21905,2.6417 0.2032,0.9144 0.30489,1.72741 0.30489,2.43861 0,1.3208 -0.20307,2.43837 -0.71107,3.35277 -0.508,0.9144 -1.11763,1.72721 -1.82883,2.33681 -0.7112,0.71119 -1.52421,1.11733 -2.43861,1.42213 -0.9144,0.3048 -1.7271,0.50798 -2.53989,0.50798 h -10.76989 c -0.7112,0 -1.21903,-0.20307 -1.72702,-0.71107 -0.508,-0.508 -0.71107,-1.01582 -0.71107,-1.72702 V 22.45341 c 0,-0.7112 0.20307,-1.21902 0.71107,-1.72702 0.50799,-0.508 1.01582,-0.71107 1.72702,-0.71107 z M 56.489558,20.21841 h 7.61969 c 1.9304,0 3.86119,0.20306 5.89318,0.71106 1.9304,0.508 3.75878,1.3209 5.48597,2.6417 1.6256,1.3208 2.94676,3.25098 4.06436,5.58778 1.01599,2.43839 1.52393,5.58823 1.52393,9.44903 0,3.8608 -0.50794,7.01043 -1.52393,9.34723 -1.1176,2.4384 -2.43876,4.26697 -4.06436,5.58777 -1.62559,1.3208 -3.45397,2.23551 -5.48597,2.7435 -2.03199,0.508 -3.96278,0.71107 -5.89318,0.71107 h -7.61969 c -0.71119,0 -1.21954,-0.20307 -1.72754,-0.71107 -0.508,-0.50799 -0.71107,-1.01634 -0.71107,-1.72754 V 22.6565 c 0,-0.7112 0.20307,-1.21903 0.71107,-1.72703 0.508,-0.508 1.01635,-0.71106 1.72754,-0.71106 z M 218.13498,0 c -5.283,0 -10.26101,1.0158776 -14.93501,3.0478756 -4.67399,2.031998 -8.73802,4.7751243 -12.19201,8.2294704 -3.454,3.555997 -6.19799,7.620227 -8.22999,12.293822 -2.032,4.673595 -3.04788,9.651809 -3.04788,14.935004 0,5.283195 1.01588,10.261925 3.04788,14.935521 2.032,4.673595 4.77599,8.737622 8.22999,12.192019 0.123,0.1271 0.2481,0.253271 0.3731,0.378271 l 8.48475,8.485269 c 3.373,3.372997 7.31344,5.993088 11.81943,7.952486 4.674,2.031998 9.65201,3.048392 14.93501,3.048392 5.28299,0 10.26201,-1.016394 14.935,-3.048392 4.674,-2.031998 8.73783,-4.774761 12.29382,-8.330757 3.454,-3.454397 6.19799,-7.518424 8.22999,-12.192019 2.032,-4.673596 3.04788,-9.652326 3.04788,-14.935521 0,-5.283195 -1.01588,-10.261408 -3.04788,-14.935004 -2.032,-4.673595 -4.77599,-8.737825 -8.22999,-12.293821 l -8.48527,-8.48527 C 241.80781,7.8228999 237.74398,5.0798736 233.06998,3.0478756 228.39599,1.0158776 223.41797,0 218.13498,0 Z m 215.69688,0 c -5.28299,0 -10.26204,1.0158776 -14.93603,3.0478756 -4.673,2.031998 -8.73703,4.7751243 -12.19202,8.2294704 -3.454,3.555997 -6.19696,7.620227 -8.22896,12.293822 -2.03199,4.673595 -3.04787,9.651809 -3.04787,14.935004 0,5.283195 1.01588,10.261925 3.04787,14.935521 2.032,4.673595 4.77496,8.737622 8.22896,12.192019 0.124,0.1271 0.2481,0.253271 0.3731,0.378271 l 8.48527,8.485269 c 3.373,3.372997 7.31295,5.993088 11.81995,7.952486 4.67299,2.031998 9.65201,3.048392 14.935,3.048392 5.283,0 10.26201,-1.016394 14.93501,-3.048392 4.67399,-2.031998 8.73782,-4.774761 12.29382,-8.330757 3.454,-3.454397 6.19695,-7.518424 8.22895,-12.192019 2.032,-4.673596 3.04788,-9.652326 3.04788,-14.935521 0,-5.283195 -1.01588,-10.261408 -3.04788,-14.935004 -2.032,-4.673595 -4.77495,-8.737825 -8.22895,-12.293821 l -8.48475,-8.48527 C 457.50521,7.8228999 453.43986,5.0798736 448.76687,3.0478756 444.09287,1.0158776 439.11486,0 433.83186,0 Z M 294.03008,0.30489091 c -3.251,0 -6.6043,0.30476925 -10.0583,1.01595849 -3.455,0.7111993 -6.60372,2.031745 -9.34672,3.7589433 -2.84499,1.8287981 -5.18194,4.2673379 -7.01094,7.3153153 -1.829,3.047996 -2.74298,6.908642 -2.74298,11.582237 0,3.149597 0.50794,5.89319 1.52394,8.229987 0.914,2.336798 2.23474,4.368553 3.86074,6.095752 0.136,0.145 0.27393,0.28693 0.41393,0.42633 l 8.48527,8.485269 c 1.521,1.520999 3.21885,2.715508 5.17384,3.739306 2.032,1.117599 4.06404,1.9305 6.19704,2.641699 2.134,0.7112 4.16607,1.320941 6.19807,1.625741 1.93,0.406399 3.65811,0.711159 5.18211,1.015958 0.4487,0.08974 0.89748,0.17852 1.34617,0.265617 -1.52446,0.904688 -3.85191,1.307414 -6.78304,1.307414 -3.15,0 -6.50334,-0.711119 -10.05934,-2.031917 -3.55599,-1.320799 -7.21365,-3.251491 -10.87065,-5.588289 -0.508,-0.3048 -1.11835,-0.406491 -1.82935,-0.304891 -0.71099,0.1016 -1.2187,0.507959 -1.6247,1.015959 l -7.82433,11.277863 c -0.406,0.507999 -0.60898,1.117629 -0.50798,1.828828 0.089,0.6209 0.33222,1.164396 0.73122,1.562696 l 8.48475,8.485269 c 0.058,0.058 0.11897,0.112731 0.18397,0.164331 1.93,1.523998 3.96236,3.047926 6.29936,4.368725 2.235,1.422398 4.6738,2.641658 7.3148,3.657657 2.64199,1.015999 5.48688,1.828809 8.53488,2.336808 3.04799,0.6096 6.29921,0.914673 9.85521,0.914673 4.36899,0 8.33113,-0.508253 11.88712,-1.422652 3.556,-0.914399 6.60363,-2.235239 9.14363,-4.165637 2.54,-1.930398 4.47118,-4.368918 5.89318,-7.315315 1.422,-2.946297 2.13424,-6.40048 2.13424,-10.464476 0,-4.368796 -0.81342,-7.924773 -2.54042,-10.87117 -1.05599,-1.738198 -2.263,-3.286712 -3.622,-4.64571 l -8.48475,-8.485269 c -0.865,-0.8651 -1.79219,-1.653414 -2.78019,-2.364714 -2.54,-1.727198 -5.28296,-3.149435 -8.22895,-4.063834 -2.946,-0.914399 -5.58787,-1.524434 -8.02587,-2.032434 -0.508,-0.1016 -1.52397,-0.304465 -3.25096,-0.609265 -0.53736,-0.09478 -1.07515,-0.200739 -1.61541,-0.315226 0.26225,-0.125896 0.54558,-0.24084 0.85421,-0.343648 0.914,-0.2032 1.82931,-0.304577 2.84531,-0.406177 h 2.53989 c 2.54,0 5.28299,0.405934 8.22999,1.320333 2.946,0.914399 6.19709,2.540018 9.65109,4.673616 0.508,0.406399 1.11783,0.508293 1.82883,0.406693 0.711,-0.1016 1.21926,-0.507959 1.62626,-1.015958 l 7.92458,-11.277863 c 0.40599,-0.508 0.60897,-1.11763 0.50797,-1.828829 -0.102,-0.711199 -0.40667,-1.219027 -0.91467,-1.727026 L 322.27486,10.0583 c -4.16599,-3.1495873 -8.43309,-5.588117 -12.90308,-7.3153153 -4.572,-1.6255984 -9.65171,-2.43809379 -15.3417,-2.43809379 z M 36.372452,1.3208494 c -0.711199,0 -1.219026,0.2030682 -1.727026,0.7110677 -0.507999,0.5079995 -0.711067,1.0158268 -0.711067,1.7270261 V 73.253401 c 0,0.711199 0.203068,1.219443 0.711067,1.727543 l 8.485269,8.485269 c 0.508,0.507999 1.015827,0.711067 1.727027,0.711067 h 27.736804 c 5.283195,0 10.160032,-0.812809 14.528828,-2.336808 4.368795,-1.523998 8.229957,-3.861141 11.582754,-6.909138 3.657892,-3.352796 6.399762,-7.416407 8.330752,-12.191502 1.93,-4.673595 2.84531,-9.957197 2.84531,-15.748391 0,-5.791194 -0.91531,-11.074279 -2.84531,-15.747874 -1.74899,-4.232896 -4.16288,-7.965537 -7.320478,-11.122834 l -8.485269,-8.485269 c -0.3287,-0.3287 -0.665375,-0.651283 -1.010275,-0.967383 C 83.413645,4.4704776 74.777247,1.3208494 64.109257,1.3208494 Z m 79.552758,0 c -0.711,0 -1.21903,0.2030682 -1.72703,0.7110677 -0.508,0.5079995 -0.71106,1.0158268 -0.71106,1.7270261 V 73.253401 c 0,0.711199 0.20306,1.219443 0.71106,1.727543 l 8.48476,8.485269 c 0.508,0.507999 1.01602,0.711067 1.72702,0.711067 h 51.71519 c 0.71099,0 1.21902,-0.203068 1.72702,-0.711067 0.508,-0.508 0.71107,-1.016344 0.71107,-1.727543 V 67.717822 c 0,-0.711199 -0.20307,-1.219027 -0.71107,-1.727026 l -8.48527,-8.485269 c -0.508,-0.508 -1.01602,-0.711068 -1.72702,-0.711068 h -24.23573 c 0.32959,-0.175482 0.68838,-0.252698 1.12396,-0.252698 h 27.53268 c 0.711,0 1.21903,-0.203068 1.72703,-0.711067 0.508,-0.508 0.71107,-1.015827 0.71107,-1.727026 V 40.08282 c 0,-0.7112 -0.20307,-1.219027 -0.71107,-1.727026 l -8.48475,-8.48527 c -0.508,-0.507999 -1.01603,-0.711584 -1.72703,-0.711584 H 142.8569 c 0.48931,-0.467267 0.98578,-0.658358 1.67121,-0.658358 h 31.59704 c 0.71099,0 1.21902,-0.203584 1.72702,-0.711584 0.508,-0.507999 0.71107,-1.015827 0.71107,-1.727026 v -13.81776 c 0,-0.711199 -0.20307,-1.219026 -0.71107,-1.727026 L 169.3669,2.0319171 c -0.508,-0.5079995 -1.01602,-0.7110677 -1.72702,-0.7110677 z m 222.60602,0 c -0.711,0 -1.32102,0.2030682 -1.72702,0.7110677 -0.508,0.5079995 -0.71107,1.0158268 -0.71107,1.7270261 V 73.253401 c 0,0.711199 0.20307,1.219443 0.71107,1.727543 0.041,0.0518 0.0847,0.100644 0.1297,0.146244 l 8.48631,8.485269 c 0.401,0.4012 0.95677,0.564823 1.59577,0.564823 h 50.69922 c 0.711,0 1.21903,-0.203068 1.72703,-0.711067 0.508,-0.508 0.71055,-1.016344 0.71055,-1.727543 V 67.921427 c 0,-0.711199 -0.20255,-1.219543 -0.71055,-1.727543 l -8.48631,-8.485269 c -0.508,-0.507999 -1.01502,-0.711068 -1.72702,-0.711068 h -24.5339 V 12.244212 c 0,-0.711199 -0.2041,-1.219026 -0.7121,-1.727026 l -8.48476,-8.4852689 c -0.508,-0.5079995 -1.01602,-0.7110677 -1.72702,-0.7110677 z m 146.60861,0 c -0.711,0 -1.22006,0.2030682 -1.72806,0.7110677 -0.508,0.5079995 -0.71055,1.0158268 -0.71055,1.7270261 V 73.253401 c 0,0.711199 0.20255,1.219443 0.71055,1.727543 l 8.4863,8.485269 c 0.508,0.507999 1.01603,0.711067 1.72703,0.711067 h 15.34066 c 0.711,0 1.22006,-0.203068 1.72806,-0.711067 0.508,-0.508 0.71107,-1.016344 0.71107,-1.727543 V 66.600578 c 0,-0.7112 0.20307,-1.219544 0.71106,-1.727543 0.508,-0.508 1.01607,-0.711068 1.72806,-0.711068 h 8.83874 c 4.978,0 9.24538,-0.711321 13.00437,-2.133719 3.658,-1.320799 6.70595,-3.251177 9.24595,-5.689575 2.438,-2.336798 4.267,-5.181565 5.487,-8.534362 0.48618,-1.296687 0.87364,-2.642543 1.16582,-4.029727 v 29.478817 c 0,0.711199 0.20307,1.219443 0.71107,1.727543 l 8.48527,8.485269 c 0.508,0.507999 1.01654,0.711067 1.72754,0.711067 h 15.34118 c 0.712,0 1.22006,-0.203068 1.72806,-0.711067 0.508,-0.508 0.71107,-1.016344 0.71107,-1.727543 V 66.600578 c 0,-0.7112 0.20307,-1.219544 0.71107,-1.727543 0.508,-0.508 1.01602,-0.711068 1.72702,-0.711068 h 8.83874 c 4.97899,0 9.24589,-0.711321 13.00489,-2.133719 3.65699,-1.320799 6.70595,-3.251177 9.24594,-5.689575 2.438,-2.336798 4.26749,-5.181565 5.48649,-8.534362 0.48666,-1.297972 0.87439,-2.645219 1.16685,-4.033861 v 29.482951 c 0,0.711199 0.20307,1.219543 0.71107,1.727543 l 8.48475,8.485269 c 0.508,0.507999 1.01603,0.711067 1.72703,0.711067 h 51.71518 c 0.711,0 1.21903,-0.203068 1.72703,-0.711067 0.508,-0.508 0.71107,-1.016344 0.71107,-1.727543 V 67.717822 c 0,-0.711199 -0.20307,-1.219027 -0.71107,-1.727026 l -8.48527,-8.485269 c -0.508,-0.508 -1.01606,-0.711068 -1.72806,-0.711068 h -24.23469 c 0.3295,-0.175482 0.68795,-0.252698 1.12293,-0.252698 h 27.53371 c 0.711,0 1.21903,-0.203068 1.72703,-0.711067 0.508,-0.508 0.71107,-1.015827 0.71107,-1.727026 V 40.08282 c 0,-0.7112 -0.20307,-1.219027 -0.71107,-1.727026 l -8.48475,-8.48527 c -0.508,-0.507999 -1.01603,-0.711584 -1.72703,-0.711584 h -20.71915 c 0.48932,-0.467267 0.98572,-0.658358 1.67019,-0.658358 h 31.59806 c 0.711,0 1.21903,-0.203584 1.72703,-0.711584 0.508,-0.507999 0.71107,-1.015827 0.71107,-1.727026 v -13.81776 c 0,-0.711199 -0.20307,-1.219026 -0.71107,-1.727026 l -8.48527,-8.4852689 c -0.508,-0.5079995 -1.01606,-0.7110677 -1.72806,-0.7110677 h -51.71363 c -0.711,0 -1.21903,0.2030682 -1.72703,0.7110677 -0.508,0.5079995 -0.71107,1.0158268 -0.71107,1.7270261 V 31.147966 c -0.35104,-1.565776 -0.8416,-3.092085 -1.47226,-4.578015 -1.524,-3.352796 -3.45363,-6.197452 -5.89163,-8.73745 l -8.4863,-8.4852691 c -2.54,-2.5399774 -5.38497,-4.470791 -8.73797,-5.8931796 -3.35199,-1.4223986 -7.00985,-2.1332029 -10.76885,-2.1332029 h -31.08905 c -0.712,0 -1.22006,0.2030682 -1.72806,0.7110677 -0.508,0.5079995 -0.71107,1.0158268 -0.71107,1.7270261 V 31.147966 c -0.35091,-1.565776 -0.84049,-3.092085 -1.47071,-4.578015 -1.524,-3.352796 -3.45518,-6.197452 -5.89318,-8.73745 l -8.48578,-8.4852691 c -2.54,-2.5399974 -5.38446,-4.470781 -8.73745,-5.8931796 -3.353,-1.4223986 -7.00989,-2.1332029 -10.76989,-2.1332029 z m 207.36509,0 c -0.711,0 -1.21902,0.2030682 -1.72702,0.7110677 -0.508,0.5079995 -0.71107,1.0158268 -0.71107,1.7270261 V 73.253401 c 0,0.711199 0.20307,1.219443 0.71107,1.727543 l 8.48526,8.485269 c 0.508,0.507999 1.01707,0.711067 1.72806,0.711067 h 15.13758 c 0.711,0 1.21903,-0.203068 1.72703,-0.711067 0.508,-0.508 0.71106,-1.016344 0.71106,-1.727543 V 65.279728 c 0,-0.711199 0.20411,-1.219543 0.7121,-1.727543 0.507,-0.507999 1.01503,-0.711067 1.72703,-0.711067 h 2.23501 c 0.0417,0 0.0834,0.0028 0.12505,0.0041 l 1.65107,2.280481 c 2.13399,2.946397 4.26664,5.79085 6.40064,8.635647 0.091,0.1142 0.1934,0.228131 0.3054,0.340031 l 8.48476,8.485269 c 0.386,0.3859 0.89394,0.744519 1.52394,0.980819 0.71099,0.406399 1.42223,0.609781 2.13423,0.609781 h 18.89704 c 0.711,0 1.11785,-0.304759 1.32085,-1.015958 0.203,-0.609599 0.1021,-1.219543 -0.30489,-1.727543 -2.235,-2.946397 -4.77521,-6.299215 -7.62021,-9.855211 -2.844,-3.555997 -5.58767,-7.11168 -8.12767,-10.464476 -0.406,-0.508 -0.50841,-1.117944 -0.30541,-1.727543 0.102,-0.508 0.50796,-1.015736 1.01596,-1.422136 1.626,-1.015999 3.04825,-2.336747 4.36924,-3.860745 1.321,-1.523999 2.43877,-3.149912 3.35277,-5.08031 0.915,-1.930398 1.72701,-3.962153 2.23501,-6.095751 0.508,-2.133598 0.71106,-4.267044 0.71106,-6.400642 0,-3.962396 -0.60911,-7.518687 -1.93011,-10.769884 -1.321,-3.251197 -3.14897,-6.095762 -5.48597,-8.432559 L 743.50905,8.8392527 C 741.17205,6.502455 738.32717,4.5717626 734.97417,3.250964 731.62117,1.9301653 728.065,1.3208494 724.103,1.3208494 Z M 2.4380938,1.4221352 c -0.7111993,0 -1.3206266,0.2035949 -1.72702618,0.7115844 C 0.20306813,2.6417191 0,3.1495465 0,3.8607458 V 73.253401 c 0,0.711199 0.20306813,1.219443 0.71106762,1.727543 0.04149,0.0518 0.0851264,0.100644 0.13074136,0.146244 l 8.48526912,8.485269 c 0.4011896,0.4012 0.9576859,0.564823 1.5962849,0.564823 H 26.26506 c 0.7112,0 1.219027,-0.203068 1.727026,-0.711067 0.508,-0.508 0.711585,-1.016344 0.711585,-1.727543 V 12.346015 c 0,-0.711199 -0.203585,-1.219027 -0.711585,-1.727026 L 19.506817,2.1337196 C 18.998818,1.6257301 18.49099,1.4221352 17.779791,1.4221352 Z M 226.62025,8.4852691 c 5.28299,0 10.26201,1.0158377 14.935,3.0478759 2.76691,1.202901 5.31807,2.657081 7.6786,4.358389 1.70156,2.360854 3.15583,4.91255 4.35891,7.679634 2.032,4.673595 3.04942,9.651809 3.04942,14.935004 0,5.283195 -1.01742,10.261925 -3.04942,14.935521 -2.032,4.673595 -4.77496,8.737622 -8.22896,12.192019 -3.55599,3.555996 -7.61982,6.298758 -12.29382,8.330756 -4.67399,2.031998 -9.65201,3.048393 -14.935,3.048393 -5.283,0 -10.26101,-1.016395 -14.93501,-3.048393 -2.69904,-1.173399 -5.19274,-2.585848 -7.48481,-4.252969 -1.74129,-2.373966 -3.22668,-4.967674 -4.45141,-7.784537 -2.03199,-4.673596 -3.04891,-9.652326 -3.04891,-14.935521 0,-5.283195 1.01692,-10.261408 3.04891,-14.935004 2.032,-4.673595 4.77548,-8.737825 8.22947,-12.293821 3.455,-3.454397 7.51903,-6.197473 12.19202,-8.229471 4.674,-2.0320382 9.65201,-3.0478759 14.93501,-3.0478759 z m 215.69688,0 c 5.283,0 10.26201,1.0158377 14.93501,3.0478759 2.76698,1.202931 5.31853,2.657025 7.67911,4.358389 1.70152,2.36081 3.15585,4.912601 4.35891,7.679634 2.032,4.673595 3.04788,9.651809 3.04788,14.935004 0,5.283195 -1.01588,10.261925 -3.04788,14.935521 -2.032,4.673595 -4.77496,8.737622 -8.22895,12.192019 -3.556,3.555996 -7.62135,6.298758 -12.29434,8.330756 -4.674,2.031998 -9.65201,3.048393 -14.93501,3.048393 -5.28299,0 -10.26204,-1.016395 -14.93603,-3.048393 -2.69868,-1.173498 -5.19239,-2.586179 -7.48482,-4.253486 -1.74137,-2.37385 -3.22624,-4.967325 -4.45089,-7.78402 -2.032,-4.673596 -3.04787,-9.652326 -3.04787,-14.935521 0,-5.283195 1.01587,-10.261408 3.04787,-14.935004 2.032,-4.673595 4.77499,-8.737825 8.22999,-12.293821 3.454,-3.454397 7.51802,-6.197473 12.19202,-8.229471 4.67299,-2.0320382 9.65201,-3.0478759 14.935,-3.0478759 z M 302.51483,8.79016 c 5.69,0 10.77022,0.8124654 15.34221,2.438094 1.67145,0.645843 3.31445,1.391299 4.93459,2.236039 -0.0351,0.05061 -0.0706,0.101124 -0.10956,0.149861 l -7.92613,11.277864 c -0.406,0.507999 -0.9137,0.914358 -1.6247,1.015958 -0.711,0.1016 -1.32135,-2.94e-4 -1.82935,-0.406693 -3.455,-2.133598 -6.70513,-3.759217 -9.65212,-4.673616 -2.946,-0.914399 -5.68999,-1.320333 -8.22999,-1.320333 h -2.5399 c -1.016,0.1016 -1.92975,0.202977 -2.84375,0.406177 -0.915,0.304799 -1.62624,0.711047 -2.13424,1.219047 -0.61,0.507999 -0.91364,1.321123 -0.91364,2.235522 0,0.541899 0.2498,1.083766 0.7488,1.583365 l 8.48475,8.48527 c 0.344,0.343399 0.80544,0.666731 1.38544,0.95653 1.422,0.7112 3.04768,1.422115 4.87567,1.930115 1.829,0.507999 3.55692,0.914764 5.28392,1.219563 1.727,0.3048 2.74296,0.507666 3.25096,0.609265 2.438,0.508 5.08039,1.118035 8.02638,2.032434 2.20648,0.684628 4.29845,1.654222 6.27662,2.823083 1.63537,2.900567 2.40812,6.382441 2.40812,10.637076 0,4.063996 -0.71068,7.518079 -2.13268,10.464476 -1.423,2.946397 -3.35318,5.384917 -5.89318,7.315315 -2.54,1.930398 -5.58815,3.251238 -9.14414,4.165637 -3.556,0.914399 -7.51814,1.422652 -11.88713,1.422652 -3.556,0 -6.8067,-0.305074 -9.8547,-0.914673 -3.04799,-0.507999 -5.89288,-1.320809 -8.53488,-2.336808 -2.04881,-0.788183 -3.97475,-1.699859 -5.77949,-2.732649 0.0704,-0.126552 0.15153,-0.248363 0.24443,-0.364319 l 7.82278,-11.277863 c 0.406,-0.508 0.91422,-0.914359 1.62522,-1.015959 0.711,-0.1016 1.32083,9.1e-5 1.82883,0.304891 3.658,2.336798 7.31518,4.26749 10.87117,5.588289 3.556,1.320798 6.90882,2.031917 10.05882,2.031917 2.946,0 5.28282,-0.406451 6.80682,-1.32085 1.524,-0.812799 2.33732,-2.032261 2.33732,-3.75946 0,-0.759799 -0.21088,-1.378668 -0.68988,-1.857767 l -8.48527,-8.485269 c -0.098,-0.0975 -0.20611,-0.189536 -0.32711,-0.275436 -0.711,-0.507999 -1.52267,-0.914664 -2.64066,-1.219563 -1.117,-0.3047 -2.43804,-0.609671 -3.96204,-0.81287 -1.52399,-0.2032 -3.04936,-0.507554 -4.57336,-0.812354 -1.524,-0.3048 -3.25056,-0.609559 -5.18056,-1.015958 -2.032,-0.3048 -4.06407,-0.914541 -6.19807,-1.625741 -2.133,-0.711199 -4.16504,-1.5241 -6.19704,-2.641699 -0.0756,-0.0396 -0.14837,-0.08132 -0.22324,-0.121439 -0.2699,-0.533518 -0.51794,-1.084902 -0.74104,-1.654679 -1.016,-2.336798 -1.52394,-5.080391 -1.52394,-8.229988 0,-4.673595 0.91499,-8.53424 2.74299,-11.582237 1.82899,-3.047997 4.16594,-5.486517 7.01094,-7.315315 2.74299,-1.727198 5.89323,-3.047774 9.34723,-3.7589434 C 295.91104,9.0949293 299.26383,8.79016 302.51483,8.79016 Z M 44.857722,9.8061186 h 27.736804 c 8.842395,0 16.287802,2.1658984 22.453924,6.4357824 1.377244,2.012782 2.541628,4.188551 3.503145,6.516397 1.930395,4.673595 2.845305,9.95668 2.845305,15.747874 0,5.791194 -0.91491,11.074795 -2.845305,15.748391 -1.930398,4.775195 -4.67316,8.838706 -8.330757,12.191502 -3.352796,3.047997 -7.213958,5.38514 -11.582754,6.909138 -4.368795,1.523999 -9.245632,2.336808 -14.528827,2.336808 H 42.419628 V 12.244212 c 0,-0.711199 0.203068,-1.219026 0.711067,-1.727026 0.508,-0.507999 1.015827,-0.7110674 1.727027,-0.7110674 z m 79.552238,0 h 45.66801 v 7.7705844 c 0,0.711199 -0.20307,1.219026 -0.71107,1.727026 -0.508,0.507999 -1.01602,0.711584 -1.72702,0.711584 h -31.59807 c -0.711,0 -1.21903,0.203068 -1.72703,0.711068 -0.508,0.507999 -0.71055,1.015827 -0.71055,1.727026 v 4.267439 c 0,0.7111 0.20255,1.219027 0.71055,1.727026 l 8.48527,8.48527 c 0.508,0.507999 1.01606,0.711067 1.72806,0.711067 h 21.48603 v 7.97419 c 0,0.711199 -0.20307,1.219026 -0.71107,1.727026 -0.508,0.507999 -1.01603,0.711067 -1.72703,0.711067 h -27.53423 c -0.711,0 -1.21903,0.203585 -1.72703,0.711585 -0.508,0.507999 -0.71055,1.015827 -0.71055,1.727026 v 3.860746 c 0,0.711099 0.20255,1.219026 0.71055,1.727026 l 8.48527,8.485269 c 0.508,0.507999 1.01606,0.711584 1.72806,0.711584 h 25.54986 v 7.973673 c 0,0.711199 -0.20307,1.219543 -0.71107,1.727543 -0.508,0.507999 -1.01602,0.711067 -1.72702,0.711067 H 121.97187 V 12.244212 c 0,-0.711199 0.20307,-1.219026 0.71107,-1.727026 0.508,-0.507999 1.01602,-0.7110674 1.72702,-0.7110674 z m 222.60603,0 h 9.19323 V 54.558937 c 0,0.711199 0.20359,1.219543 0.71159,1.727543 0.041,0.0518 0.0852,0.100644 0.13125,0.146244 l 8.48476,8.485269 c 0.401,0.4012 0.95828,0.564824 1.59628,0.564824 h 24.53493 v 7.770584 c 0,0.711199 -0.2041,1.219543 -0.7121,1.727543 -0.508,0.507999 -1.01502,0.711067 -1.72702,0.711067 H 344.57789 V 12.244212 c 0,-0.711199 0.20307,-1.219026 0.71107,-1.727026 0.406,-0.507999 1.01603,-0.7110674 1.72703,-0.7110674 z m 146.60912,0 h 31.09008 c 3.759,0 7.41586,0.7108044 10.76885,2.1332024 1.38675,0.58828 2.68511,1.265166 3.91243,2.034501 0.82696,1.28505 1.56822,2.649624 2.23242,4.11086 1.423,3.352797 2.13423,6.908885 2.13423,10.668081 0,3.759197 -0.61034,7.315082 -1.82934,10.566279 -1.219,3.352697 -3.04797,6.197564 -5.48597,8.534362 -2.54,2.438397 -5.58895,4.368776 -9.24595,5.689574 -3.75899,1.422399 -8.02589,2.13372 -13.00489,2.13372 h -8.83873 c -0.711,0 -1.21903,0.203068 -1.72703,0.711068 -0.508,0.507999 -0.71107,1.016343 -0.71107,1.727543 v 15.138092 c 0,0.711199 -0.20306,1.219543 -0.71106,1.727543 -0.508,0.507999 -1.01706,0.711067 -1.72806,0.711067 h -9.29401 V 12.244212 c 0,-0.711199 0.20307,-1.219026 0.71107,-1.727026 0.508,-0.507999 1.01603,-0.7110674 1.72703,-0.7110674 z m 68.88467,0 h 31.08906 c 3.75999,0 7.4174,0.7108044 10.7704,2.1332024 1.38651,0.588184 2.68476,1.264806 3.9119,2.033985 0.82706,1.285158 1.56868,2.649999 2.23294,4.111376 1.422,3.352797 2.13372,6.908885 2.13372,10.668081 0,3.759197 -0.60983,7.315082 -1.82883,10.566279 -1.219,3.352697 -3.048,6.197564 -5.487,8.534362 -2.54,2.438397 -5.58792,4.368776 -9.24491,5.689574 -3.76,1.422399 -8.0259,2.13372 -13.00489,2.13372 h -8.83926 c -0.711,0 -1.22006,0.203068 -1.72806,0.711068 -0.50799,0.507999 -0.71106,1.016343 -0.71106,1.727543 v 15.138092 c 0,0.711199 -0.20255,1.219543 -0.71055,1.727543 -0.508,0.507999 -1.01603,0.711067 -1.72703,0.711067 h -9.29504 V 12.244212 c 0,-0.711199 0.20307,-1.219026 0.71107,-1.727026 0.508,-0.507999 1.01654,-0.7110674 1.72754,-0.7110674 z m 68.88416,0 h 45.66801 v 7.7705844 c 0,0.711199 -0.20307,1.219026 -0.71107,1.727026 -0.508,0.507999 -1.01606,0.711584 -1.72806,0.711584 h -31.59703 c -0.711,0 -1.21903,0.203068 -1.72703,0.711068 -0.508,0.507999 -0.71055,1.015827 -0.71055,1.727026 v 4.267439 c 0,0.7111 0.20255,1.219027 0.71055,1.727026 l 8.48527,8.48527 c 0.508,0.507999 1.01603,0.711067 1.72703,0.711067 h 21.48705 v 7.97419 c 0,0.711199 -0.20306,1.219026 -0.71106,1.727026 -0.508,0.507999 -1.01603,0.711067 -1.72703,0.711067 h -27.53423 c -0.711,0 -1.21903,0.203585 -1.72703,0.711585 -0.508,0.507999 -0.71055,1.015827 -0.71055,1.727026 v 3.860746 c 0,0.711099 0.20255,1.219026 0.71055,1.727026 l 8.48527,8.485269 c 0.508,0.507999 1.01603,0.711584 1.72703,0.711584 h 25.55089 v 7.973673 c 0,0.711199 -0.20307,1.219543 -0.71107,1.727543 -0.508,0.507999 -1.01606,0.711067 -1.72806,0.711067 H 628.95585 V 12.244212 c 0,-0.711199 0.20307,-1.219026 0.71106,-1.727026 0.508,-0.507999 1.01603,-0.7110674 1.72703,-0.7110674 z m 69.59729,0 h 31.59652 c 3.963,0 7.51917,0.6093154 10.87117,1.9301144 1.3084,0.515401 2.53859,1.12483 3.69228,1.813843 0.69656,1.170628 1.31192,2.412643 1.84382,3.721736 1.321,3.251197 1.93011,6.807488 1.93011,10.769884 0,2.133598 -0.20307,4.267144 -0.71107,6.400642 -0.508,2.133598 -1.321,4.165353 -2.235,6.095751 -0.914,1.930398 -2.03229,3.556311 -3.35329,5.08031 -1.32099,1.523998 -2.74272,2.844746 -4.36872,3.860745 -0.508,0.4064 -0.91396,0.914136 -1.01596,1.422136 -0.203,0.609599 -0.10111,1.219543 0.30489,1.727542 2.54,3.352797 5.28319,6.90848 8.12819,10.464477 2.84499,3.555996 5.38469,6.908814 7.61969,9.855211 0.406,0.507999 0.50789,1.117943 0.30489,1.727543 -0.203,0.711199 -0.60985,1.015958 -1.32085,1.015958 h -18.89807 c -0.12471,0 -0.24943,-0.0087 -0.37414,-0.02119 -0.50121,-0.682217 -1.00249,-1.367684 -1.50378,-2.059822 l -6.40013,-8.839253 c -0.102,-0.127 -0.21555,-0.253905 -0.34055,-0.379305 l -8.4863,-8.485269 c -0.376,-0.3764 -0.85296,-0.738447 -1.38596,-1.043347 -0.711,-0.3048 -1.4222,-0.507979 -2.1332,-0.507979 h -2.23553 c -0.71099,0 -1.21902,0.203068 -1.72702,0.711067 -0.508,0.508 -0.71107,1.016344 -0.71107,1.727543 v 16.458942 c 0,0.711199 -0.20307,1.219543 -0.71107,1.727543 -0.508,0.507999 -1.01602,0.711067 -1.72702,0.711067 h -9.09195 V 12.244212 c 0,-0.711199 0.20307,-1.219026 0.71106,-1.727026 0.508,-0.507999 1.01707,-0.7110674 1.72806,-0.7110674 z M 10.923363,9.9074044 h 9.295039 V 73.253401 c 0,0.711199 -0.203585,1.219543 -0.711585,1.727543 -0.507999,0.507999 -1.015827,0.711067 -1.727026,0.711067 H 8.4852691 V 12.346015 c 0,-0.711199 0.2030682,-1.219027 0.7110677,-1.727026 0.4063996,-0.508 1.0158272,-0.7115846 1.7270262,-0.7115846 z M 218.13498,19.405531 c -2.54,0 -4.87723,0.507939 -7.11223,1.523938 -2.235,1.117599 -4.16586,2.438439 -5.79086,4.165637 -1.727,1.727198 -3.04806,3.758953 -3.96306,6.095751 -0.914,2.336798 -1.42162,4.775318 -1.42162,7.315315 0,2.539997 0.50762,4.978517 1.42162,7.315315 0.915,2.336798 2.23606,4.36907 3.96306,6.096268 0.134,0.1428 0.27128,0.283596 0.40928,0.422196 l 8.48579,8.485269 c 1.53699,1.537499 3.3311,2.810925 5.38209,3.742924 2.235,1.117599 4.5712,1.62574 7.1112,1.62574 2.54,0 4.87671,-0.508141 7.11171,-1.62574 2.236,-1.015999 4.16618,-2.437922 5.89318,-4.16512 1.727,-1.727198 3.04806,-3.75947 3.96306,-6.096268 0.914,-2.336798 1.42162,-4.775317 1.42162,-7.315315 0,-2.539997 -0.50762,-4.978517 -1.42162,-7.315315 -0.915,-2.336797 -2.23606,-4.368553 -3.96306,-6.095751 l -8.48527,-8.485269 c -1.727,-1.727198 -3.65767,-3.048038 -5.89266,-4.165637 -2.235,-1.015999 -4.57223,-1.523938 -7.11223,-1.523938 z m 215.69688,0 c -2.53999,0 -4.87671,0.507939 -7.11171,1.523938 -2.23599,1.117599 -4.16637,2.438439 -5.79137,4.165637 -1.727,1.727198 -3.04755,3.758953 -3.96255,6.095751 -0.914,2.336798 -1.42214,4.775318 -1.42214,7.315315 0,2.539997 0.50814,4.978517 1.42214,7.315315 0.915,2.336798 2.23555,4.36907 3.96255,6.096268 0.134,0.1429 0.27131,0.283496 0.41031,0.422196 l 8.48475,8.485786 c 1.537,1.537299 3.33107,2.810408 5.38107,3.742407 2.23499,1.117599 4.57223,1.62574 7.11222,1.62574 2.54,0 4.87671,-0.508141 7.11171,-1.62574 2.235,-1.015999 4.16618,-2.437922 5.89318,-4.16512 1.727,-1.727198 3.04803,-3.75947 3.96203,-6.096268 0.914,-2.336798 1.42317,-4.775317 1.42317,-7.315315 0,-2.539997 -0.50917,-4.978517 -1.42317,-7.315315 -0.914,-2.336797 -2.23503,-4.368553 -3.96203,-6.095751 l -8.48527,-8.485269 c -1.727,-1.727198 -3.65766,-3.048038 -5.89266,-4.165637 -2.236,-1.015999 -4.57223,-1.523938 -7.11223,-1.523938 z m 71.52638,0.609782 c -0.711,0 -1.21903,0.203068 -1.72703,0.711068 -0.508,0.507999 -0.71107,1.015827 -0.71107,1.727026 v 11.988931 c 0,0.711199 0.20307,1.219027 0.71107,1.727026 l 8.48475,8.485269 c 0.508,0.508 1.01607,0.711585 1.72806,0.711585 h 10.87117 c 2.54,0 4.47006,-0.813215 5.68906,-2.540414 1.118,-1.625598 1.72651,-3.454174 1.72651,-5.587771 0,-1.117599 -0.20298,-2.133882 -0.50798,-3.251481 -0.406,-1.015999 -1.01602,-1.930186 -1.72702,-2.742985 -0.115,-0.1318 -0.23574,-0.261056 -0.36174,-0.387056 l -8.48527,-8.484753 c -0.651,-0.651199 -1.44473,-1.219778 -2.38073,-1.645377 -1.118,-0.508 -2.33695,-0.711068 -3.75894,-0.711068 z m 68.88467,0 c -0.711,0 -1.22006,0.203068 -1.72806,0.711068 -0.50799,0.507999 -0.71106,1.015827 -0.71106,1.727026 v 11.988931 c 0,0.711199 0.20307,1.219027 0.71106,1.727026 l 8.48631,8.485269 c 0.508,0.508 1.01602,0.711585 1.72702,0.711585 h 10.87066 c 2.53999,0 4.47109,-0.813215 5.69009,-2.540414 1.118,-1.625598 1.72702,-3.454174 1.72702,-5.587771 0,-1.117599 -0.20298,-2.133882 -0.50798,-3.251481 -0.406,-1.015999 -1.01602,-1.930186 -1.72702,-2.742985 -0.115,-0.1318 -0.23574,-0.261056 -0.36174,-0.387056 l -8.48527,-8.484753 c -0.651,-0.651199 -1.44476,-1.219778 -2.38176,-1.645377 -1.117,-0.508 -2.33595,-0.711068 -3.75895,-0.711068 z m 138.27733,0 c -0.71099,0 -1.21902,0.203068 -1.72702,0.711068 -0.508,0.507999 -0.71107,1.015827 -0.71107,1.727026 v 10.769884 c 0,0.711199 0.20307,1.219027 0.71107,1.727026 l 8.48578,8.485269 c 0.508,0.508 1.01503,0.711068 1.72703,0.711068 h 10.76885 c 0.813,0 1.6259,-0.20318 2.5399,-0.507979 0.915,-0.3048 1.72813,-0.710936 2.43912,-1.422136 0.711,-0.609599 1.32135,-1.422409 1.82935,-2.336808 0.508,-0.914399 0.71055,-2.031967 0.71055,-3.352766 0,-0.711199 -0.10189,-1.524212 -0.30489,-2.438611 -0.305,-0.914399 -0.71105,-1.727299 -1.21905,-2.641699 -0.216,-0.287999 -0.45785,-0.563289 -0.71985,-0.825789 l -8.48527,-8.485269 c -0.479,-0.478299 -1.02695,-0.914331 -1.61695,-1.30793 -1.016,-0.508 -2.23466,-0.812354 -3.65766,-0.812354 z M 56.489568,20.218402 c -0.711199,0 -1.219543,0.203068 -1.727543,0.711067 -0.507999,0.508 -0.711067,1.015827 -0.711067,1.727026 v 31.902442 c 0,0.711199 0.203068,1.219543 0.711067,1.727543 l 8.485269,8.485269 c 0.508,0.508 1.016344,0.711068 1.727543,0.711068 h 7.619689 c 1.930398,0 3.861182,-0.203068 5.89318,-0.711068 2.031998,-0.507999 3.860371,-1.422703 5.485969,-2.743501 1.625599,-1.320799 2.946752,-3.149375 4.064351,-5.587772 1.015999,-2.336798 1.523938,-5.486436 1.523938,-9.347232 0,-3.860796 -0.507939,-7.010637 -1.523938,-9.449035 -0.925699,-1.935598 -1.991149,-3.592084 -3.253548,-4.854483 l -8.485269,-8.485269 c -0.261599,-0.2616 -0.531703,-0.506589 -0.810803,-0.733289 -1.727198,-1.320799 -3.555571,-2.133699 -5.485969,-2.641699 -2.031998,-0.507999 -3.962782,-0.711067 -5.89318,-0.711067 z m 170.130682,7.672399 c 2.54,0 4.87671,0.507938 7.11171,1.523937 0.25954,0.129727 0.51386,0.262906 0.76533,0.398426 0.21779,0.447075 0.42001,0.905739 0.60461,1.377693 0.915,2.336798 1.42317,4.775318 1.42317,7.315315 0,2.539997 -0.50817,4.978517 -1.42317,7.315315 -0.914,2.336798 -2.23503,4.36907 -3.96203,6.096268 -1.727,1.727198 -3.65767,3.149121 -5.89266,4.16512 -2.235,1.117599 -4.57223,1.62574 -7.11223,1.62574 -2.54,0 -4.87723,-0.508141 -7.11223,-1.62574 -0.20664,-0.09395 -0.40989,-0.192198 -0.61133,-0.293006 -0.23772,-0.480137 -0.45718,-0.974062 -0.65629,-1.483113 -0.915,-2.336798 -1.42317,-4.775317 -1.42317,-7.315315 0,-2.539997 0.50817,-4.978517 1.42317,-7.315315 0.914,-2.336797 2.23503,-4.368553 3.96203,-6.095751 1.626,-1.727198 3.5559,-3.048038 5.79189,-4.165637 2.235,-1.015999 4.5712,-1.523937 7.1112,-1.523937 z m 215.69688,0 c 2.54,0 4.87671,0.507938 7.11171,1.523937 0.25943,0.129727 0.51394,0.262906 0.76533,0.398426 0.21785,0.44706 0.41982,0.905755 0.60461,1.377693 0.914,2.336798 1.42214,4.775318 1.42214,7.315315 0,2.539997 -0.50814,4.978517 -1.42214,7.315315 -0.91499,2.336798 -2.23503,4.36907 -3.96203,6.096268 -1.727,1.727198 -3.65766,3.149121 -5.89266,4.16512 -2.236,1.117599 -4.57223,1.62574 -7.11223,1.62574 -2.53999,0 -4.87671,-0.508141 -7.11171,-1.62574 -0.20674,-0.09395 -0.41035,-0.192202 -0.61184,-0.293006 -0.23773,-0.480137 -0.45719,-0.974062 -0.6563,-1.483113 -0.91499,-2.336798 -1.42316,-4.775317 -1.42316,-7.315315 0,-2.539997 0.50817,-4.978517 1.42316,-7.315315 0.914,-2.336797 2.23504,-4.368553 3.96204,-6.095751 1.62599,-1.727198 3.55586,-3.048038 5.79086,-4.165637 2.23499,-1.015999 4.57223,-1.523937 7.11222,-1.523937 z m 71.52689,0.609781 h 9.54981 c 0.0836,0 0.16426,0.0032 0.24649,0.0047 0.002,0.08229 0.006,0.164197 0.006,0.24753 0,2.133598 -0.60903,3.962174 -1.72703,5.587772 -1.219,1.727199 -3.15009,2.540413 -5.69009,2.540413 h -4.82399 v -5.942272 c 0,-0.711199 0.20307,-1.219026 0.71106,-1.727026 0.508,-0.507999 1.01607,-0.711068 1.72806,-0.711068 z m 68.88416,0 h 9.55084 c 0.0836,0 0.16426,0.0032 0.2465,0.0047 0.002,0.08229 0.006,0.164197 0.006,0.24753 0,2.133598 -0.61003,3.962174 -1.72702,5.587772 -1.22,1.727199 -3.1501,2.540413 -5.6901,2.540413 h -4.82399 v -5.942272 c 0,-0.711199 0.20307,-1.219026 0.71107,-1.727026 0.508,-0.507999 1.01602,-0.711068 1.72702,-0.711068 z m 138.27785,0 h 9.79372 c -0.0437,1.122509 -0.25479,2.087458 -0.7028,2.89388 -0.508,0.914399 -1.1168,1.727209 -1.8278,2.336808 -0.712,0.7112 -1.52513,1.117336 -2.43912,1.422135 -0.914,0.3048 -1.7269,0.50798 -2.5399,0.50798 h -4.72323 v -4.722709 c 0,-0.711199 0.20411,-1.219026 0.7121,-1.727026 0.507,-0.507999 1.01503,-0.711068 1.72703,-0.711068 z M 64.974837,28.703671 h 7.619689 c 1.930398,0 3.861182,0.203068 5.89318,0.711067 0.445318,0.117189 0.884827,0.252494 1.319299,0.404627 0.845429,2.338328 1.26969,5.266619 1.26969,8.78861 0,3.860796 -0.508039,7.010434 -1.523938,9.347231 -1.117599,2.438398 -2.438752,4.266974 -4.064351,5.587772 -1.625598,1.320799 -3.453971,2.235502 -5.485969,2.743502 -2.031998,0.507999 -3.962782,0.711067 -5.89318,0.711067 h -1.57303 V 31.141765 c 0,-0.7112 0.203068,-1.219027 0.711067,-1.727027 0.508,-0.507999 1.016344,-0.711067 1.727543,-0.711067 z" style="font-size:101.6px;line-height:1;font-family:Heavitas;-inkscape-font-specification:Heavitas;text-align:center;letter-spacing:0;word-spacing:0;text-orientation:upright;text-anchor:middle;fill:#a0a0a0;fill-opacity:1;stroke:none;stroke-width:.79375;stroke-linecap:round;stroke-linejoin:round;stroke-miterlimit:128"/><path d="m 218.13498,0 c -5.2832,0 -10.26141,1.01588 -14.93501,3.04788 -4.67359,2.032 -8.73762,4.77507 -12.19202,8.22947 -3.45439,3.556 -6.19747,7.62023 -8.22947,12.29382 -2.03199,4.6736 -3.04839,9.65181 -3.04839,14.93501 0,5.28319 1.0164,10.26192 3.04839,14.93552 2.032,4.67359 4.77508,8.73762 8.22947,12.19202 3.4544,3.55599 7.51843,6.29876 12.19202,8.33075 4.6736,2.032 9.65181,3.0484 14.93501,3.0484 5.28319,0 10.26141,-1.0164 14.935,-3.0484 4.6736,-2.03199 8.73783,-4.77476 12.29382,-8.33075 3.4544,-3.4544 6.19748,-7.51843 8.22947,-12.19202 2.032,-4.6736 3.0484,-9.65233 3.0484,-14.93552 0,-5.2832 -1.0164,-10.26141 -3.0484,-14.93501 C 251.56128,18.89758 248.8182,14.83335 245.3638,11.27735 241.80781,7.82295 237.74358,5.07988 233.06998,3.04788 228.39639,1.01588 223.41817,0 218.13498,0 Z m 215.69688,0 c -5.28319,0 -10.26192,1.01588 -14.93552,3.04788 -4.6736,2.032 -8.73762,4.77507 -12.19202,8.22947 -3.4544,3.556 -6.19747,7.62023 -8.22947,12.29382 -2.032,4.6736 -3.04788,9.65181 -3.04788,14.93501 0,5.28319 1.01588,10.26192 3.04788,14.93552 2.032,4.67359 4.77507,8.73762 8.22947,12.19202 3.4544,3.55599 7.51842,6.29876 12.19202,8.33075 4.6736,2.032 9.65233,3.0484 14.93552,3.0484 5.2832,0 10.26141,-1.0164 14.935,-3.0484 4.6736,-2.03199 8.73783,-4.77476 12.29383,-8.33075 3.45439,-3.4544 6.19747,-7.51843 8.22947,-12.19202 2.03199,-4.6736 3.04787,-9.65233 3.04787,-14.93552 0,-5.2832 -1.01588,-10.26141 -3.04787,-14.93501 -2.032,-4.67359 -4.77508,-8.73782 -8.22947,-12.29382 -3.556,-3.4544 -7.62023,-6.19747 -12.29383,-8.22947 C 444.09327,1.01588 439.11506,0 433.83186,0 Z M 294.03008,0.3049 c -3.2512,0 -6.60391,0.30476 -10.0583,1.01595 -3.4544,0.7112 -6.60404,2.03175 -9.34724,3.75895 -2.84479,1.8288 -5.18162,4.26732 -7.01042,7.31531 -1.8288,3.048 -2.74298,6.90864 -2.74298,11.58224 0,3.1496 0.50794,5.89319 1.52393,8.22999 0.9144,2.3368 2.23515,4.36855 3.86075,6.09575 1.6256,1.7272 3.45417,3.04804 5.58777,4.16564 2.032,1.11759 4.06396,1.93049 6.19755,2.64169 2.1336,0.7112 4.16556,1.32094 6.19756,1.62574 1.9304,0.4064 3.65759,0.71116 5.18159,1.01596 1.524,0.3048 3.04834,0.60916 4.57233,0.81236 1.524,0.2032 2.84495,0.50807 3.96255,0.81287 1.1176,0.3048 1.92998,0.71156 2.64118,1.21956 0.7112,0.508 1.01596,1.2188 1.01596,2.1332 0,1.7272 -0.81281,2.94666 -2.33681,3.75946 -1.52399,0.9144 -3.86042,1.32085 -6.80681,1.32085 -3.1496,0 -6.50282,-0.71112 -10.05882,-2.03191 -3.556,-1.3208 -7.21357,-3.2515 -10.87117,-5.58829 -0.508,-0.3048 -1.11763,-0.40649 -1.82883,-0.30489 -0.7112,0.1016 -1.21882,0.50796 -1.62522,1.01595 l -7.8233,11.27787 c -0.40639,0.508 -0.60957,1.11763 -0.50797,1.82883 0.1016,0.7112 0.40615,1.32062 0.91415,1.72702 1.9304,1.524 3.96256,3.04793 6.29936,4.36873 2.23519,1.4224 4.67371,2.64166 7.31531,3.65766 2.6416,1.01599 5.48637,1.8288 8.53436,2.3368 3.048,0.6096 6.29922,0.91468 9.85521,0.91468 4.3688,0 8.33114,-0.50826 11.88713,-1.42266 3.556,-0.9144 6.60415,-2.23523 9.14415,-4.16563 2.53999,-1.9304 4.47026,-4.36892 5.89266,-7.31532 1.4224,-2.94639 2.13372,-6.40048 2.13372,-10.46447 0,-4.3688 -0.8127,-7.92478 -2.5399,-10.87117 -1.7272,-2.8448 -3.86116,-5.18163 -6.40116,-7.01043 -2.53999,-1.7272 -5.28307,-3.14943 -8.22947,-4.06383 -2.94639,-0.9144 -5.58798,-1.52444 -8.02638,-2.03244 -0.508,-0.1016 -1.52377,-0.30446 -3.25096,-0.60926 -1.7272,-0.3048 -3.4546,-0.71156 -5.2834,-1.21956 -1.8288,-0.508 -3.45431,-1.21892 -4.87671,-1.93012 -1.42239,-0.7112 -2.13372,-1.6255 -2.13372,-2.5399 0,-0.91439 0.30456,-1.72752 0.91416,-2.23552 0.508,-0.508 1.21932,-0.91424 2.13372,-1.21904 0.9144,-0.2032 1.82879,-0.30458 2.84479,-0.40618 h 2.53989 c 2.54,0 5.28359,0.40593 8.22999,1.32033 2.9464,0.9144 6.19721,2.54002 9.65161,4.67362 0.508,0.4064 1.11763,0.50829 1.82883,0.40669 0.71119,-0.1016 1.21934,-0.50796 1.62574,-1.01596 l 7.92509,-11.27786 c 0.4064,-0.508 0.60958,-1.11763 0.50798,-1.82883 -0.1016,-0.7112 -0.40667,-1.21903 -0.91467,-1.72703 -4.1656,-3.14959 -8.43269,-5.58811 -12.90309,-7.31531 -4.57199,-1.6256 -9.6521,-2.43809 -15.34169,-2.43809 z M 36.37245,1.32085 c -0.7112,0 -1.21903,0.20307 -1.72703,0.71107 -0.508,0.508 -0.71106,1.01583 -0.71106,1.72703 v 69.49446 c 0,0.7112 0.20306,1.21954 0.71106,1.72754 0.508,0.508 1.01583,0.71107 1.72703,0.71107 h 27.736798 c 5.2832,0 10.16004,-0.81281 14.52883,-2.33681 4.3688,-1.524 8.22996,-3.86114 11.58276,-6.90914 3.65759,-3.3528 6.40036,-7.41631 8.33075,-12.1915 1.930402,-4.6736 2.845312,-9.9572 2.845312,-15.74839 0,-5.7912 -0.91491,-11.07428 -2.845312,-15.74788 -1.93039,-4.67359 -4.67316,-8.73742 -8.33075,-12.09021 -6.8072,-6.1976 -15.4436,-9.34724 -26.11159,-9.34724 z m 79.55276,0 c -0.7112,0 -1.21903,0.20307 -1.72703,0.71107 -0.508,0.508 -0.71107,1.01583 -0.71107,1.72703 v 69.49446 c 0,0.7112 0.20307,1.21954 0.71107,1.72754 0.508,0.508 1.01583,0.71107 1.72703,0.71107 h 51.71466 c 0.7112,0 1.21903,-0.20307 1.72703,-0.71107 0.508,-0.508 0.71107,-1.01634 0.71107,-1.72754 V 59.23256 c 0,-0.7112 -0.20307,-1.21903 -0.71107,-1.72703 -0.508,-0.508 -1.01583,-0.71107 -1.72703,-0.71107 h -31.59755 c -0.7112,0 -1.21954,-0.20358 -1.72754,-0.71158 -0.508,-0.508 -0.71107,-1.01583 -0.71107,-1.72703 v -3.86074 c 0,-0.7112 0.20307,-1.21903 0.71107,-1.72703 0.508,-0.508 1.01634,-0.71158 1.72754,-0.71158 h 27.5332 c 0.7112,0 1.21955,-0.20307 1.72755,-0.71107 0.508,-0.508 0.71106,-1.01583 0.71106,-1.72703 V 31.59756 c 0,-0.7112 -0.20306,-1.21903 -0.71106,-1.72703 -0.508,-0.508 -1.01635,-0.71158 -1.72755,-0.71158 h -27.5332 c -0.7112,0 -1.21954,-0.20307 -1.72754,-0.71107 -0.508,-0.508 -0.71107,-1.01583 -0.71107,-1.72703 v -4.26744 c 0,-0.7112 0.20307,-1.21902 0.71107,-1.72702 0.508,-0.508 1.01634,-0.71107 1.72754,-0.71107 h 31.59755 c 0.7112,0 1.21903,-0.20359 1.72703,-0.71159 0.508,-0.508 0.71107,-1.01582 0.71107,-1.72702 V 3.75895 c 0,-0.7112 -0.20307,-1.21903 -0.71107,-1.72703 -0.508,-0.508 -1.01583,-0.71107 -1.72703,-0.71107 z m 222.6055,0 c -0.7112,0 -1.32062,0.20307 -1.72702,0.71107 -0.508,0.508 -0.71107,1.01583 -0.71107,1.72703 v 69.49446 c 0,0.7112 0.20307,1.21954 0.71107,1.72754 0.4064,0.508 1.01582,0.71107 1.72702,0.71107 h 50.69871 c 0.7112,0 1.21903,-0.20307 1.72703,-0.71107 0.508,-0.508 0.71106,-1.01634 0.71106,-1.72754 V 59.43616 c 0,-0.7112 -0.20306,-1.21954 -0.71106,-1.72754 -0.508,-0.508 -1.01583,-0.71107 -1.72703,-0.71107 h -30.58159 c -0.7112,0 -1.32063,-0.20307 -1.72703,-0.71107 -0.508,-0.50799 -0.71158,-1.01634 -0.71158,-1.72754 V 3.75895 c 0,-0.7112 -0.20307,-1.21903 -0.71107,-1.72703 -0.508,-0.508 -1.01583,-0.71107 -1.72703,-0.71107 z m 146.60912,0 c -0.7112,0 -1.21954,0.20307 -1.72754,0.71107 -0.508,0.508 -0.71107,1.01583 -0.71107,1.72703 v 69.49446 c 0,0.7112 0.20307,1.21954 0.71107,1.72754 0.508,0.508 1.01634,0.71107 1.72754,0.71107 h 15.34118 c 0.7112,0 1.21955,-0.20307 1.72755,-0.71107 0.508,-0.508 0.71106,-1.01634 0.71106,-1.72754 v -15.1381 c 0,-0.7112 0.20307,-1.21954 0.71107,-1.72754 0.508,-0.508 1.01635,-0.71107 1.72755,-0.71107 h 8.83925 c 4.97839,0 9.24517,-0.71132 13.00437,-2.13372 3.6576,-1.3208 6.70595,-3.25117 9.24595,-5.68957 2.43839,-2.3368 4.26728,-5.18157 5.48648,-8.53436 1.2192,-3.2512 1.82831,-6.80709 1.82831,-10.56628 0,-3.7592 -0.7108,-7.31529 -2.1332,-10.66808 -1.524,-3.3528 -3.45478,-6.19746 -5.89318,-8.73745 -2.54,-2.54 -5.38465,-4.47078 -8.73745,-5.89318 -3.35279,-1.4224 -7.01017,-2.13321 -10.76937,-2.13321 z m 68.88468,0 c -0.7112,0 -1.21954,0.20307 -1.72754,0.71107 -0.508,0.508 -0.71107,1.01583 -0.71107,1.72703 v 69.49446 c 0,0.7112 0.20307,1.21954 0.71107,1.72754 0.508,0.508 1.01634,0.71107 1.72754,0.71107 h 15.3417 c 0.7112,0 1.21902,-0.20307 1.72702,-0.71107 0.508,-0.508 0.71107,-1.01634 0.71107,-1.72754 v -15.1381 c 0,-0.7112 0.20307,-1.21954 0.71107,-1.72754 0.508,-0.508 1.01634,-0.71107 1.72754,-0.71107 h 8.83925 c 4.9784,0 9.24518,-0.71132 13.00438,-2.13372 3.65759,-1.3208 6.70594,-3.25117 9.24594,-5.68957 2.4384,-2.3368 4.26729,-5.18157 5.48649,-8.53436 1.2192,-3.2512 1.82883,-6.80709 1.82883,-10.56628 0,-3.7592 -0.71132,-7.31529 -2.13372,-10.66808 -1.524,-3.3528 -3.45427,-6.19746 -5.89267,-8.73745 -2.53999,-2.54 -5.38517,-4.47078 -8.73796,-5.89318 -3.3528,-1.4224 -7.01017,-2.13321 -10.76937,-2.13321 z m 68.88467,0 c -0.71119,0 -1.21902,0.20307 -1.72702,0.71107 -0.508,0.508 -0.71159,1.01583 -0.71159,1.72703 v 69.49446 c 0,0.7112 0.20359,1.21954 0.71159,1.72754 0.508,0.508 1.01583,0.71107 1.72702,0.71107 h 51.71415 c 0.7112,0 1.21955,-0.20307 1.72755,-0.71107 0.508,-0.508 0.71107,-1.01634 0.71107,-1.72754 V 59.23256 c 0,-0.7112 -0.20307,-1.21903 -0.71107,-1.72703 -0.508,-0.508 -1.01635,-0.71107 -1.72755,-0.71107 h -31.59755 c -0.7112,0 -1.21902,-0.20358 -1.72702,-0.71158 -0.508,-0.508 -0.71107,-1.01583 -0.71107,-1.72703 v -3.86074 c 0,-0.7112 0.20307,-1.21903 0.71107,-1.72703 0.508,-0.508 1.01582,-0.71158 1.72702,-0.71158 h 27.53372 c 0.7112,0 1.21903,-0.20307 1.72703,-0.71107 0.508,-0.508 0.71158,-1.01583 0.71158,-1.72703 V 31.59756 c 0,-0.7112 -0.20358,-1.21903 -0.71158,-1.72703 -0.508,-0.508 -1.01583,-0.71158 -1.72703,-0.71158 h -27.53372 c -0.7112,0 -1.21902,-0.20307 -1.72702,-0.71107 -0.508,-0.508 -0.71107,-1.01583 -0.71107,-1.72703 v -4.26744 c 0,-0.7112 0.20307,-1.21902 0.71107,-1.72702 0.508,-0.508 1.01582,-0.71107 1.72702,-0.71107 h 31.59755 c 0.7112,0 1.21955,-0.20359 1.72755,-0.71159 0.508,-0.508 0.71107,-1.01582 0.71107,-1.72702 V 3.75895 c 0,-0.7112 -0.20307,-1.21903 -0.71107,-1.72703 -0.508,-0.508 -1.01635,-0.71107 -1.72755,-0.71107 z m 69.59627,0 c -0.7112,0 -1.21955,0.20307 -1.72755,0.71107 -0.508,0.508 -0.71107,1.01583 -0.71107,1.72703 v 69.49446 c 0,0.7112 0.20307,1.21954 0.71107,1.72754 0.508,0.508 1.01635,0.71107 1.72755,0.71107 h 15.13809 c 0.7112,0 1.21954,-0.20307 1.72754,-0.71107 0.508,-0.508 0.71107,-1.01634 0.71107,-1.72754 V 56.79446 c 0,-0.7112 0.20307,-1.21954 0.71107,-1.72754 0.50799,-0.508 1.01582,-0.71107 1.72702,-0.71107 h 2.23552 c 0.7112,0 1.42201,0.20318 2.13321,0.50798 0.7112,0.4064 1.32114,0.91466 1.72754,1.42265 l 6.40064,8.83926 c 2.1336,2.94639 4.26705,5.79085 6.40064,8.63565 0.4064,0.50799 1.01603,1.01604 1.82883,1.32084 0.7112,0.4064 1.42252,0.60979 2.13372,0.60979 h 18.89755 c 0.7112,0 1.11765,-0.30476 1.32085,-1.01596 0.2032,-0.6096 0.10151,-1.21955 -0.30489,-1.72755 -2.23519,-2.94639 -4.77489,-6.29921 -7.61969,-9.85521 -2.84479,-3.55599 -5.58818,-7.11168 -8.12818,-10.46447 -0.4064,-0.508 -0.50809,-1.11795 -0.30489,-1.72755 0.1016,-0.50799 0.50796,-1.01573 1.01596,-1.42213 1.62559,-1.016 3.04792,-2.33675 4.36872,-3.86075 1.3208,-1.52399 2.43889,-3.14991 3.35328,-5.08031 0.9144,-1.93039 1.72701,-3.96215 2.23501,-6.09575 0.508,-2.13359 0.71107,-4.26704 0.71107,-6.40064 0,-3.9624 -0.60932,-7.51869 -1.93012,-10.76988 -1.3208,-3.2512 -3.14969,-6.09576 -5.48648,-8.43256 -2.3368,-2.3368 -5.18157,-4.26749 -8.53436,-5.58829 -3.3528,-1.3208 -6.90878,-1.93012 -10.87117,-1.93012 z M 2.43809,1.42214 c -0.7112,0 -1.32063,0.20359 -1.72703,0.71158 C 0.20306,2.64172 0,3.14955 0,3.86075 v 69.39266 c 0,0.7112 0.20306,1.21954 0.71106,1.72754 0.4064,0.508 1.01583,0.71107 1.72703,0.71107 h 15.3417 c 0.7112,0 1.21902,-0.20307 1.72702,-0.71107 0.508,-0.508 0.71159,-1.01634 0.71159,-1.72754 V 3.86075 c 0,-0.7112 -0.20359,-1.21903 -0.71159,-1.72703 -0.508,-0.50799 -1.01582,-0.71158 -1.72702,-0.71158 z m 215.69689,17.9834 c 2.53999,0 4.87703,0.50794 7.11222,1.52393 2.2352,1.1176 4.16547,2.43844 5.89267,4.16564 1.72719,1.7272 3.04815,3.75895 3.96254,6.09575 0.9144,2.3368 1.42214,4.77532 1.42214,7.31532 0,2.53999 -0.50774,4.97851 -1.42214,7.31531 -0.91439,2.3368 -2.23535,4.36907 -3.96254,6.09627 -1.7272,1.7272 -3.65747,3.14912 -5.89267,4.16512 -2.23519,1.1176 -4.57223,1.62574 -7.11222,1.62574 -2.54,0 -4.87652,-0.50814 -7.11171,-1.62574 -2.2352,-1.016 -4.16578,-2.43792 -5.79138,-4.16512 -1.7272,-1.7272 -3.04815,-3.75947 -3.96255,-6.09627 -0.9144,-2.3368 -1.42213,-4.77532 -1.42213,-7.31531 0,-2.54 0.50773,-4.97852 1.42213,-7.31532 0.9144,-2.3368 2.23535,-4.36855 3.96255,-6.09575 1.6256,-1.7272 3.55618,-3.04804 5.79138,-4.16564 2.23519,-1.01599 4.57171,-1.52393 7.11171,-1.52393 z m 215.69688,0 c 2.54,0 4.87651,0.50794 7.11171,1.52393 2.2352,1.1176 4.16598,2.43844 5.89318,4.16564 1.7272,1.7272 3.04763,3.75895 3.96203,6.09575 0.9144,2.3368 1.42265,4.77532 1.42265,7.31532 0,2.53999 -0.50825,4.97851 -1.42265,7.31531 -0.9144,2.3368 -2.23483,4.36907 -3.96203,6.09627 -1.7272,1.7272 -3.65798,3.14912 -5.89318,4.16512 -2.2352,1.1176 -4.57171,1.62574 -7.11171,1.62574 -2.54,0 -4.87703,-0.50814 -7.11223,-1.62574 -2.23519,-1.016 -4.16526,-2.43792 -5.79086,-4.16512 -1.72719,-1.7272 -3.04815,-3.75947 -3.96254,-6.09627 -0.9144,-2.3368 -1.42266,-4.77532 -1.42266,-7.31531 0,-2.54 0.50826,-4.97852 1.42266,-7.31532 0.91439,-2.3368 2.23535,-4.36855 3.96254,-6.09575 1.6256,-1.7272 3.55567,-3.04804 5.79086,-4.16564 2.2352,-1.01599 4.57223,-1.52393 7.11223,-1.52393 z m 71.52638,0.60978 h 9.55032 c 1.42239,0 2.64134,0.20307 3.75894,0.71107 1.1176,0.508 2.0323,1.21911 2.7435,2.03191 0.7112,0.8128 1.32063,1.72699 1.72703,2.74299 0.3048,1.1176 0.50798,2.13388 0.50798,3.25148 0,2.1336 -0.60943,3.96217 -1.72703,5.58777 -1.2192,1.7272 -3.14958,2.54041 -5.68958,2.54041 h -10.87116 c -0.7112,0 -1.21955,-0.20358 -1.72755,-0.71158 -0.508,-0.508 -0.71107,-1.01583 -0.71107,-1.72703 V 22.45341 c 0,-0.7112 0.20307,-1.21902 0.71107,-1.72702 0.508,-0.508 1.01635,-0.71107 1.72755,-0.71107 z m 68.88467,0 h 9.55032 c 1.4224,0 2.64135,0.20307 3.75894,0.71107 1.1176,0.508 2.03231,1.21911 2.74351,2.03191 0.7112,0.8128 1.32062,1.72699 1.72702,2.74299 0.3048,1.1176 0.50798,2.13388 0.50798,3.25148 0,2.1336 -0.60943,3.96217 -1.72702,5.58777 -1.2192,1.7272 -3.14958,2.54041 -5.68958,2.54041 h -10.87117 c -0.7112,0 -1.21954,-0.20358 -1.72754,-0.71158 -0.508,-0.508 -0.71107,-1.01583 -0.71107,-1.72703 V 22.45341 c 0,-0.7112 0.20307,-1.21902 0.71107,-1.72702 0.508,-0.508 1.01634,-0.71107 1.72754,-0.71107 z m 138.27733,0 h 10.76989 c 1.42239,0 2.64165,0.30435 3.65765,0.81235 0.9144,0.6096 1.72721,1.32092 2.33681,2.13372 0.508,0.9144 0.91425,1.7273 1.21905,2.6417 0.2032,0.9144 0.30489,1.72741 0.30489,2.43861 0,1.3208 -0.20307,2.43837 -0.71107,3.35277 -0.508,0.9144 -1.11763,1.72721 -1.82883,2.33681 -0.7112,0.71119 -1.52421,1.11733 -2.43861,1.42213 -0.9144,0.3048 -1.7271,0.50798 -2.53989,0.50798 h -10.76989 c -0.7112,0 -1.21903,-0.20307 -1.72702,-0.71107 -0.508,-0.508 -0.71107,-1.01582 -0.71107,-1.72702 V 22.45341 c 0,-0.7112 0.20307,-1.21902 0.71107,-1.72702 0.50799,-0.508 1.01582,-0.71107 1.72702,-0.71107 z M 56.489558,20.21841 h 7.61969 c 1.9304,0 3.86119,0.20306 5.89318,0.71106 1.9304,0.508 3.75878,1.3209 5.48597,2.6417 1.6256,1.3208 2.94676,3.25098 4.06436,5.58778 1.01599,2.43839 1.52393,5.58823 1.52393,9.44903 0,3.8608 -0.50794,7.01043 -1.52393,9.34723 -1.1176,2.4384 -2.43876,4.26697 -4.06436,5.58777 -1.62559,1.3208 -3.45397,2.23551 -5.48597,2.7435 -2.03199,0.508 -3.96278,0.71107 -5.89318,0.71107 h -7.61969 c -0.71119,0 -1.21954,-0.20307 -1.72754,-0.71107 -0.508,-0.50799 -0.71107,-1.01634 -0.71107,-1.72754 V 22.6565 c 0,-0.7112 0.20307,-1.21903 0.71107,-1.72703 0.508,-0.508 1.01635,-0.71106 1.72754,-0.71106 z" style="font-size:101.6px;line-height:1;font-family:Heavitas;-inkscape-font-specification:Heavitas;text-align:center;letter-spacing:0;word-spacing:0;text-orientation:upright;text-anchor:middle;fill:#fff;fill-opacity:1;stroke:none;stroke-width:.79375;stroke-linecap:round;stroke-linejoin:round;stroke-miterlimit:128"/></svg>