<svg xmlns="http://www.w3.org/2000/svg" xml:space="preserve" width="3204.4316" height="420.16602" viewBox="0 0 847.83911 111.16891"><path d="m 290.84785,0 c -7.04428,0 -13.68255,1.354497 -19.91403,4.0638342 -6.23147,2.7093372 -11.64998,6.3670988 -16.25585,10.9729728 -4.60588,4.74134 -8.26364,10.160287 -10.97298,16.391762 -2.70933,6.231476 -4.06383,12.869234 -4.06383,19.913511 0,7.044277 1.3545,13.682036 4.06383,19.913511 2.70934,6.231476 6.3671,11.649981 10.97298,16.255854 4.60587,4.74134 10.02438,8.399027 16.25585,11.108364 6.23148,2.709341 12.86975,4.064351 19.91403,4.064351 7.04428,0 13.68203,-1.35501 19.91351,-4.064351 6.23147,-2.709337 11.64991,-6.367024 16.39125,-11.108364 4.60587,-4.605873 8.26363,-10.024378 10.97297,-16.255854 2.70933,-6.231475 4.06383,-12.869234 4.06383,-19.913511 0,-7.044277 -1.3545,-13.682035 -4.06383,-19.913511 -2.70934,-6.231475 -6.3671,-11.650422 -10.97297,-16.391762 C 322.41127,10.430933 316.99283,6.7731714 310.76136,4.0638342 304.52988,1.354497 297.89213,0 290.84785,0 Z m 204.96111,0.27078448 c -7.17974,0 -13.95275,1.35501372 -20.31969,4.06435092 -6.36694,2.7093372 -11.78581,6.3665826 -16.52715,10.9724556 -4.74134,4.605873 -8.53442,10.024895 -11.24376,16.25637 -2.70934,6.231476 -4.06383,12.869235 -4.06383,19.913511 0,7.044277 1.35449,13.682036 4.06383,19.913511 2.70934,6.231476 6.50242,11.650498 11.24376,16.256371 4.74134,4.605873 10.16021,8.263118 16.52715,10.972455 6.36694,2.709341 13.13995,4.064351 20.31969,4.064351 5.82507,0 11.10834,-0.67776 15.84968,-2.03243 4.74134,-1.354672 9.21174,-3.251175 13.14028,-5.689578 3.92854,-2.438404 7.45106,-5.4184 10.56679,-8.940539 3.11574,-3.386671 6.09589,-7.315068 8.66976,-11.514541 0.4064,-0.812801 0.54172,-1.625809 0.27078,-2.438611 -0.27093,-0.677334 -0.81294,-1.219339 -1.62574,-1.62574 l -19.23603,-7.586099 c -0.94827,-0.406401 -1.7612,-0.406401 -2.574,0 -0.94827,0.4064 -1.62552,0.948406 -2.03192,1.62574 -2.30294,3.793072 -5.55409,6.908903 -9.48263,9.21184 -4.064,2.438403 -8.5347,3.657657 -13.54697,3.657657 -3.38667,0 -6.63775,-0.67769 -9.61802,-2.167826 -3.11574,-1.490135 -5.68985,-3.386638 -7.99279,-5.689574 -2.30294,-2.302937 -4.06368,-5.14784 -5.28288,-8.263578 -1.2192,-3.115738 -1.89653,-6.366737 -1.89653,-9.753409 0,-3.386671 0.67733,-6.637671 1.89653,-9.753408 1.2192,-3.115738 2.97994,-5.960566 5.28288,-8.39897 2.30294,-2.302937 4.87705,-4.199439 7.99279,-5.689575 2.98027,-1.490135 6.23135,-2.167826 9.61802,-2.167826 5.28321,0 9.75398,1.084011 13.41158,3.251481 3.65761,2.302937 6.90876,5.418544 9.48263,9.618017 0.4064,0.677334 1.08365,1.219339 2.03191,1.62574 0.94827,0.406401 1.76113,0.406401 2.7094,0 l 19.23603,-7.586099 c 0.8128,-0.406401 1.35481,-0.948332 1.62574,-1.761133 0.27094,-0.812801 0.13562,-1.625884 -0.27078,-2.303218 -2.57387,-4.199473 -5.41863,-7.992403 -8.53436,-11.514542 -3.11574,-3.386671 -6.63826,-6.366743 -10.5668,-8.8051461 C 521.00577,5.5543894 516.67128,3.6573702 511.92994,2.3027016 507.1886,0.94803297 501.7695,0.27078448 495.80896,0.27078448 Z M 392.04114,0.40617671 c -4.33494,0 -8.80519,0.40668789 -13.41106,1.35495589 -4.60588,0.948268 -8.8052,2.70916 -12.46281,5.0120966 -3.79307,2.4384035 -6.90882,5.6899198 -9.34723,9.7539258 -2.4384,4.064006 -3.65766,9.211508 -3.65766,15.442983 0,4.199473 0.67725,7.857235 2.03192,10.972973 1.2192,3.115737 2.98054,5.825248 5.14801,8.128185 2.16747,2.302936 4.6059,4.06353 7.4507,5.553665 2.70934,1.490136 5.41826,2.573998 8.26306,3.522266 2.84481,0.948268 5.55424,1.761425 8.26358,2.167826 2.57387,0.541867 4.87714,0.948038 6.90914,1.354439 2.032,0.4064 4.06375,0.812721 6.09575,1.083654 2.032,0.270934 3.79326,0.677255 5.2834,1.083655 1.49014,0.406401 2.57348,0.948406 3.52175,1.62574 0.94827,0.677335 1.35495,1.625586 1.35495,2.844788 0,2.302936 -1.08356,3.928362 -3.11557,5.012096 -2.032,1.219202 -5.14791,1.761133 -9.07645,1.761133 -4.19947,0 -8.66972,-0.948326 -13.41106,-2.709395 -4.74134,-1.761069 -9.61843,-4.334969 -14.49524,-7.450707 -0.67733,-0.406401 -1.48983,-0.541644 -2.43809,-0.406177 -0.94827,0.135467 -1.62596,0.677105 -2.16783,1.354439 l -10.43089,15.037324 c -0.54186,0.677334 -0.81294,1.489825 -0.67747,2.438093 0.13546,0.948268 0.54223,1.761351 1.21956,2.303219 2.57387,2.032003 5.28323,4.063897 8.39897,5.824967 2.98027,1.896536 6.23127,3.522035 9.75341,4.876704 3.52214,1.354669 7.31514,2.438235 11.37915,3.115575 4.064,0.8128 8.39894,1.21956 13.14028,1.21956 5.82507,0 11.10834,-0.67732 15.84968,-1.89652 4.74134,-1.219206 8.80534,-2.980316 12.19202,-5.554187 3.38667,-2.57387 5.96086,-5.825386 7.8574,-9.753925 1.89653,-3.928539 2.84478,-8.534478 2.84478,-13.953152 0,-5.825075 -1.08393,-10.566182 -3.38687,-14.494721 -2.30294,-3.793072 -5.14769,-6.908829 -8.53436,-9.347232 -3.38667,-2.302937 -7.04444,-4.199589 -10.97297,-5.41879 -3.92854,-1.219202 -7.45047,-2.032061 -10.70168,-2.709395 -0.67733,-0.135467 -2.03219,-0.40647 -4.33513,-0.812871 -2.30294,-0.4064 -4.60561,-0.947889 -7.04401,-1.625223 -2.43841,-0.677335 -4.60591,-1.625735 -6.50245,-2.574003 -1.89654,-0.948268 -2.84479,-2.167671 -2.84479,-3.386873 0,-1.219202 0.40625,-2.302845 1.21905,-2.98018 0.67733,-0.677334 1.62559,-1.219339 2.84479,-1.62574 1.2192,-0.270934 2.43838,-0.406102 3.79305,-0.541569 h 3.38687 c 3.38667,0 7.04392,0.541931 10.97246,1.761133 3.92854,1.219201 8.26362,3.386339 12.86949,6.231143 0.67734,0.541868 1.49035,0.677553 2.43861,0.542086 0.94827,-0.135467 1.62545,-0.677622 2.16731,-1.354956 l 10.56628,-15.036807 c 0.54187,-0.677334 0.81295,-1.489825 0.67748,-2.438093 -0.13547,-0.948268 -0.54171,-1.625884 -1.21905,-2.303219 C 424.14723,9.2115936 418.45728,5.9605941 412.49674,3.6576575 406.40073,1.4901877 399.62729,0.40617671 392.04114,0.40617671 Z M 48.497293,1.7611326 c -0.948268,0 -1.625884,0.2709282 -2.303218,0.9482625 -0.677335,0.6773342 -0.948263,1.3544335 -0.948263,2.3027015 V 97.671547 c 0,0.948268 0.270928,1.625884 0.948263,2.303218 0.677334,0.677335 1.35495,0.948265 2.303218,0.948265 h 36.982235 c 7.044276,0 13.546867,-1.084088 19.371942,-3.116091 5.82507,-2.032003 10.97309,-5.147317 15.4435,-9.211323 4.87681,-4.470406 8.53398,-9.889428 11.10785,-16.25637 2.57387,-6.231476 3.79305,-13.275555 3.79305,-20.997166 0,-7.721611 -1.21918,-14.766207 -3.79305,-20.997682 C 128.82895,24.112922 125.17178,18.694343 120.29497,14.223936 111.21869,5.960458 99.703548,1.7611326 85.479528,1.7611326 Z m 106.070517,0 c -0.94827,0 -1.62588,0.2709282 -2.30322,0.9482625 -0.67733,0.6773342 -0.94826,1.3544335 -0.94826,2.3027015 V 97.671547 c 0,0.948268 0.27093,1.625884 0.94826,2.303218 0.67734,0.677335 1.35495,0.948265 2.30322,0.948265 h 68.95289 c 0.94827,0 1.62537,-0.27093 2.3027,-0.948265 0.67734,-0.677334 0.94826,-1.35495 0.94826,-2.303218 V 78.977083 c 0,-0.948268 -0.27092,-1.625367 -0.94826,-2.302702 -0.67733,-0.677334 -1.35443,-0.948262 -2.3027,-0.948262 h -42.13024 c -0.94827,0 -1.62589,-0.270928 -2.30322,-0.948263 -0.67733,-0.677334 -0.94826,-1.35495 -0.94826,-2.303218 v -5.147489 c 0,-0.948268 0.27093,-1.625884 0.94826,-2.303218 0.67733,-0.677334 1.35495,-0.948263 2.30322,-0.948263 h 36.71145 c 0.94827,0 1.62537,-0.270928 2.3027,-0.948262 0.67733,-0.677334 0.94826,-1.354433 0.94826,-2.302702 V 42.13024 c 0,-0.948268 -0.27093,-1.625367 -0.94826,-2.302701 -0.67733,-0.677335 -1.35443,-0.948263 -2.3027,-0.948263 h -36.71145 c -0.94827,0 -1.62589,-0.270928 -2.30322,-0.948262 -0.67733,-0.677334 -0.94826,-1.35495 -0.94826,-2.303218 v -5.689575 c 0,-0.948268 0.27093,-1.625367 0.94826,-2.302702 0.67733,-0.677334 1.35495,-0.948262 2.30322,-0.948262 h 42.13024 c 0.94827,0 1.62537,-0.271445 2.3027,-0.948779 0.67734,-0.677334 0.94826,-1.354434 0.94826,-2.302702 V 5.0120966 c 0,-0.948268 -0.27092,-1.6253673 -0.94826,-2.3027015 -0.67733,-0.6773343 -1.35443,-0.9482625 -2.3027,-0.9482625 z m 403.01412,0 c -0.94827,0 -1.62537,0.2709282 -2.30271,0.9482625 -0.67733,0.6773342 -0.94826,1.3544335 -0.94826,2.3027015 V 97.671547 c 0,0.948268 0.27093,1.625884 0.94826,2.303218 0.67734,0.677335 1.35444,0.948265 2.30271,0.948265 h 20.18481 c 0.94827,0 1.62537,-0.27093 2.3027,-0.948265 0.67733,-0.677334 0.94826,-1.35495 0.94826,-2.303218 V 75.726119 c 0,-0.948268 0.27093,-1.625884 0.94826,-2.303218 0.67734,-0.677335 1.35495,-0.948263 2.30322,-0.948263 h 2.98018 c 0.94827,0 1.89652,0.271077 2.84479,0.677478 0.94827,0.541868 1.76083,1.219191 2.3027,1.896525 l 8.53436,11.785843 c 2.84481,3.928538 5.69008,7.721469 8.53488,11.514541 0.54187,0.677334 1.35436,1.354732 2.4381,1.761135 0.94826,0.54187 1.89651,0.81287 2.84478,0.81287 h 25.19691 c 0.94827,0 1.4902,-0.40669 1.76113,-1.354958 0.026,-0.0781 10e-4,-0.153012 0.0196,-0.230994 0.09,0.157558 0.10049,0.351639 0.25115,0.502295 0.27093,0.406397 0.67718,0.676887 1.21905,0.812357 0.4064,0.13546 0.94855,0.2713 1.35495,0.2713 h 23.30039 c 0.94826,0 1.76112,-0.27093 2.70939,-0.948265 0.8128,-0.541867 1.35473,-1.219116 1.76113,-2.031917 l 3.79305,-8.128185 c 0.4064,-0.812801 0.94826,-1.489975 1.89653,-2.167309 0.8128,-0.541868 1.76112,-0.81287 2.70939,-0.81287 h 28.58327 c 0.94827,0 1.76113,0.271002 2.70939,0.81287 0.8128,0.677334 1.49013,1.354508 1.89653,2.167309 l 3.65766,8.128185 c 0.4064,0.812801 1.08364,1.49005 2.03191,2.031917 0.8128,0.677335 1.76113,0.948265 2.7094,0.948265 h 23.16499 c 1.49013,0 2.43831,-0.40669 2.98018,-1.354958 0.4064,-0.948268 0.54179,-1.760685 0.13539,-2.573486 L 709.03416,4.8767044 c -0.4064,-0.8128012 -0.94833,-1.4899751 -1.76113,-2.1673093 -0.94827,-0.5418675 -1.76113,-0.8128702 -2.70939,-0.8128702 h -18.96525 c -0.94827,0 -1.8966,0.2710027 -2.7094,0.8128702 -0.94827,0.6773342 -1.49012,1.3545081 -1.89652,2.1673093 L 641.70701,96.587892 c -0.22788,0.379812 -0.17038,0.707575 -0.22789,1.063501 -0.07,-0.12639 -0.0833,-0.267235 -0.17828,-0.386023 -2.98027,-3.928539 -6.36703,-8.398941 -10.1601,-13.140281 -3.79308,-4.741341 -7.45091,-9.482746 -10.83758,-13.953152 -0.54187,-0.677335 -0.67712,-1.490418 -0.40618,-2.303219 0.13547,-0.677334 0.6771,-1.354657 1.35444,-1.896525 2.16747,-1.354668 4.0639,-3.115486 5.82496,-5.147489 1.76107,-2.032002 3.25133,-4.199358 4.47053,-6.773229 1.2192,-2.57387 2.30285,-5.283381 2.98018,-8.128185 0.67734,-2.844804 0.94826,-5.689558 0.94826,-8.534362 0,-5.283207 -0.81241,-10.024389 -2.57348,-14.359328 -1.76107,-4.33494 -4.19958,-8.12802 -7.31532,-11.243757 C 622.47082,8.6701049 618.67781,6.0962046 614.2074,4.3351354 609.737,2.5740663 604.99537,1.7611326 599.71217,1.7611326 Z m 203.60667,0 c -0.94827,0 -1.62537,0.2709282 -2.3027,0.9482625 -0.67734,0.6773342 -0.94827,1.3544335 -0.94827,2.3027015 V 97.671547 c 0,0.948268 0.27093,1.625884 0.94827,2.303218 0.67733,0.677335 1.35443,0.948265 2.3027,0.948265 h 20.45559 c 0.94827,0 1.62589,-0.27093 2.30322,-0.948265 0.67734,-0.677334 0.94826,-1.35495 0.94826,-2.303218 V 77.487251 c 0,-0.948268 0.27093,-1.625884 0.94827,-2.303218 0.67733,-0.677334 1.35443,-0.948262 2.3027,-0.948262 h 11.78584 c 6.63788,0 12.32724,-0.948252 17.33951,-2.844788 4.87681,-1.761069 8.94074,-4.334894 12.32741,-7.586099 3.25121,-3.115738 5.68971,-6.908743 7.31532,-11.379149 1.6256,-4.33494 2.43861,-9.076271 2.43861,-14.088544 0,-5.012274 -0.94825,-9.75353 -2.84479,-14.223937 -2.032,-4.470406 -4.6062,-8.263779 -7.8574,-11.65045 C 825.26447,9.0761323 821.47161,6.5024559 817.00121,4.6059199 812.5308,2.7093839 807.65415,1.7611326 802.64188,1.7611326 Z M 3.250964,1.8965249 c -0.948268,0 -1.7608341,0.2709281 -2.30270157,0.9482624 C 0.27092813,3.5221216 0,4.1992208 0,5.1474889 V 97.671547 c 0,0.948268 0.27092813,1.625884 0.94826243,2.303218 C 1.4901299,100.6521 2.302696,100.92303 3.250964,100.92303 h 20.455597 c 0.948268,0 1.625884,-0.27093 2.303218,-0.948265 0.677334,-0.677334 0.948263,-1.35495 0.948263,-2.303218 V 5.1474889 c 0,-0.9482681 -0.270929,-1.6253673 -0.948263,-2.3027016 C 25.332445,2.167453 24.654829,1.8965249 23.706561,1.8965249 Z M 290.84785,25.874387 c 3.38667,0 6.50235,0.677248 9.48262,2.031917 2.98027,1.490135 5.55395,3.251246 7.85689,5.554182 2.30293,2.302937 4.06419,5.011931 5.28339,8.127669 1.21921,3.115737 1.89653,6.367254 1.89653,9.753925 0,3.386672 -0.67732,6.637671 -1.89653,9.753409 -1.2192,3.115738 -2.98046,5.825248 -5.28339,8.128185 -2.30294,2.302937 -4.87662,4.199514 -7.85689,5.554182 -2.98027,1.490136 -6.09595,2.16731 -9.48262,2.16731 -3.38667,0 -6.50287,-0.677174 -9.48314,-2.16731 -2.98027,-1.354668 -5.55402,-3.251245 -7.72149,-5.554182 -2.30294,-2.302937 -4.06368,-5.012447 -5.28289,-8.128185 -1.2192,-3.115738 -1.89652,-6.366737 -1.89652,-9.753409 0,-3.386671 0.67732,-6.638188 1.89652,-9.753925 1.21921,-3.115738 2.97995,-5.824732 5.28289,-8.127669 2.16747,-2.302936 4.74122,-4.064047 7.72149,-5.554182 2.98027,-1.354669 6.09647,-2.031917 9.48314,-2.031917 z m 293.42133,0.81287 h 14.35933 c 1.89654,0 3.52204,0.40632 4.87671,1.083655 1.2192,0.812801 2.30277,1.761052 3.11557,2.844787 0.67733,1.219202 1.21934,2.302547 1.62574,3.521748 0.27093,1.219202 0.40669,2.303213 0.40669,3.251481 0,1.761069 -0.27093,3.251326 -0.94826,4.470528 -0.67734,1.219202 -1.49034,2.302771 -2.43861,3.115572 -0.94827,0.948268 -2.03176,1.490124 -3.25097,1.896525 -1.2192,0.4064 -2.30313,0.677477 -3.38687,0.677477 h -14.35933 c -0.94827,0 -1.62588,-0.270928 -2.30322,-0.948262 -0.67733,-0.677334 -0.94826,-1.35495 -0.94826,-2.303218 V 29.938221 c 0,-0.948268 0.27093,-1.625367 0.94826,-2.302702 0.67734,-0.677334 1.35495,-0.948262 2.30322,-0.948262 z m 203.87746,0 h 12.7341 c 1.89654,0 3.52196,0.270928 5.0121,0.948262 1.49014,0.677335 2.70939,1.625144 3.65766,2.708879 0.94827,1.083735 1.76135,2.302989 2.30322,3.657657 0.4064,1.490136 0.67696,2.845 0.67696,4.335136 0,2.844804 -0.81257,5.283237 -2.3027,7.450707 -1.62561,2.302936 -4.19943,3.386873 -7.5861,3.386873 h -14.49524 c -0.94827,0 -1.62537,-0.270928 -2.3027,-0.948263 -0.67734,-0.677334 -0.94827,-1.35495 -0.94827,-2.303218 V 29.938221 c 0,-0.948268 0.27093,-1.625367 0.94827,-2.302702 0.67733,-0.677334 1.35443,-0.948262 2.3027,-0.948262 z M 75.319425,26.958042 h 10.160103 c 2.57387,0 5.148063,0.270928 7.8574,0.948262 2.573871,0.677334 5.012379,1.761196 7.315312,3.522265 2.16747,1.761069 3.92814,4.33497 5.41828,7.450707 1.35467,3.251205 2.03191,7.450456 2.03191,12.598196 0,5.147741 -0.67724,9.347066 -2.03191,12.462804 -1.49014,3.251205 -3.25081,5.689638 -5.41828,7.450707 -2.167466,1.76107 -4.605974,2.980324 -7.315312,3.657658 -2.709337,0.677334 -5.28353,0.948262 -7.8574,0.948262 H 75.319425 c -0.948268,0 -1.625367,-0.270928 -2.302701,-0.948262 -0.677334,-0.677334 -0.948263,-1.354434 -0.948263,-2.302702 V 30.209006 c 0,-0.948269 0.270929,-1.625368 0.948263,-2.302702 0.677334,-0.677334 1.354433,-0.948262 2.302701,-0.948262 z M 694.94562,43.213895 c 0.4064,0 0.81265,0.406246 1.21905,1.219047 1.08373,2.57387 2.30306,5.418699 3.52226,8.39897 1.2192,3.115737 2.3027,5.689856 3.25097,7.992792 0.4064,0.812802 0.54179,1.49005 0.13539,2.031918 -0.4064,0.677334 -1.08365,0.948262 -2.03192,0.948262 h -12.05663 c -0.94826,0 -1.62551,-0.270928 -2.03191,-0.948262 -0.4064,-0.541868 -0.4064,-1.219116 0,-2.031918 l 6.77323,-16.391762 c 0.4064,-0.812801 0.81316,-1.219047 1.21956,-1.219047 z M 290.84785,0 c -7.044,0 -13.68304,1.3545069 -19.91403,4.0638342 -6.232,2.7093373 -11.64986,6.3670768 -16.25585,10.9729728 -4.606,4.741295 -8.26398,10.160268 -10.97298,16.391762 -2.70899,6.231394 -4.06383,12.869218 -4.06383,19.913511 0,7.044293 1.35484,13.682017 4.06383,19.913511 2.709,6.231493 6.36698,11.650058 10.97298,16.255853 0.16499,0.1696 0.33012,0.337562 0.49712,0.504362 l 8.48579,8.485269 c 4.49699,4.496695 9.75021,7.992005 15.75821,10.604005 6.23199,2.709 12.87003,4.06383 19.91403,4.06383 7.04399,0 13.68203,-1.35483 19.91402,-4.06383 6.231,-2.709 11.64974,-6.36707 16.39073,-11.108367 4.606,-4.605795 8.26398,-10.024459 10.97297,-16.255853 2.709,-6.231494 4.06436,-12.869318 4.06436,-19.913511 0,-7.044293 -1.35536,-13.682117 -4.06436,-19.913511 -2.70899,-6.231494 -6.36697,-11.650467 -10.97297,-16.391762 l -8.48475,-8.485269 C 322.41112,10.430911 316.99283,6.7731715 310.76084,4.0638342 304.52985,1.3545069 297.89184,0 290.84785,0 Z m 204.96111,0.27078447 c -7.18,0 -13.95322,1.35501363 -20.32021,4.06435093 -6.36699,2.7093273 -11.78564,6.3665606 -16.52664,10.9724556 -4.74099,4.605895 -8.53427,10.024876 -11.24427,16.25637 -2.709,6.231394 -4.0628,12.869218 -4.0628,19.913511 0,7.044193 1.3538,13.682017 4.0628,19.913511 2.606,5.992194 6.21319,11.23294 10.70219,15.722036 l 8.48475,8.485269 c 0.18,0.1792 0.36009,0.357534 0.54209,0.534334 4.74199,4.606398 10.16119,8.263458 16.52818,10.972458 6.366,2.709 13.14018,4.06383 20.31917,4.06383 5.825,0 11.10869,-0.67692 15.84968,-2.03192 4.741,-1.35499 9.21229,-3.25109 13.14028,-5.69009 3.929,-2.43799 7.4508,-5.417922 10.5668,-8.940018 3.116,-3.386697 6.09627,-7.315146 8.67027,-11.514541 0.406,-0.8128 0.54078,-1.625812 0.27078,-2.438611 -0.136,-0.3386 -0.33878,-0.643773 -0.60978,-0.914673 l -8.48527,-8.485269 c -0.271,-0.271 -0.60996,-0.507868 -1.01596,-0.711068 l -19.23706,-7.586099 c -0.948,-0.4064 -1.76101,-0.4064 -2.57401,0 -0.94799,0.4064 -1.62488,0.948341 -2.03088,1.62574 -2.303,3.792997 -5.55514,6.908943 -9.48314,9.21184 -4.064,2.438398 -8.53498,3.657658 -13.54697,3.657658 -3.387,0 -6.63802,-0.677628 -9.61802,-2.167826 -1.02442,-0.489886 -1.9894,-1.024751 -2.90628,-1.602486 -0.72895,-1.223334 -1.35686,-2.519051 -1.88361,-3.865397 -1.22,-3.115797 -1.89704,-6.366812 -1.89704,-9.753409 0,-3.386696 0.67704,-6.637612 1.89704,-9.753408 1.219,-3.115697 2.97885,-5.960572 5.28185,-8.39897 2.303,-2.302998 4.87731,-4.199476 7.99331,-5.689575 2.97999,-1.490098 6.23202,-2.167826 9.61801,-2.167826 5.283,0 9.75359,1.083983 13.41159,3.251481 0.1582,0.0996 0.31463,0.202745 0.47129,0.305408 0.17816,0.271301 0.35387,0.546418 0.52606,0.827339 0.136,0.2259 0.30061,0.43682 0.49661,0.63252 l 8.48527,8.485269 c 0.392,0.3913 0.90279,0.722321 1.53479,0.993221 0.949,0.4064 1.76091,0.4064 2.70991,0 l 19.23604,-7.586099 c 0.813,-0.4064 1.35525,-0.948334 1.62625,-1.761133 0.27,-0.812799 0.13522,-1.625919 -0.27078,-2.303218 -2.574,-4.199496 -5.4194,-7.992345 -8.5354,-11.514542 -0.512,-0.556499 -1.03486,-1.102176 -1.56786,-1.636075 l -8.48579,-8.48527 c -2.71499,-2.715497 -5.71541,-5.131362 -8.99841,-7.1690701 -3.928,-2.4383976 -8.26286,-4.3354227 -13.00386,-5.6900913 C 507.18894,0.94803591 501.76895,0.27078447 495.80896,0.27078447 Z M 392.04114,0.40617671 c -4.33499,0 -8.80507,0.40669185 -13.41107,1.35495589 -4.60599,0.9482691 -8.80532,2.7091589 -12.46332,5.0120966 -3.79299,2.4383976 -6.90871,5.6898298 -9.34671,9.7539258 -2.438,4.063996 -3.65818,9.211589 -3.65818,15.442983 0,4.199496 0.67792,7.857275 2.03192,10.972972 1.219,3.115697 2.98101,5.825288 5.14801,8.128185 0.182,0.1931 0.36639,0.382741 0.55138,0.568441 l 8.48579,8.484752 c 2.028,2.028198 4.29281,3.620643 6.8988,4.985742 2.71,1.490199 5.41907,2.573966 8.26306,3.522265 2.845,0.948299 5.5551,1.761427 8.2641,2.167826 2.574,0.5419 4.87714,0.94804 6.90914,1.354439 2.03199,0.4064 4.06375,0.812755 6.09575,1.083655 0.27864,0.03716 0.55113,0.07695 0.81959,0.118856 -0.52373,0.789671 -1.28053,1.439611 -2.26033,1.962154 -2.032,1.219199 -5.14794,1.761132 -9.07593,1.761132 -4.2,0 -8.67007,-0.948396 -13.41107,-2.709395 -4.74199,-1.761098 -9.61927,-4.33501 -14.49627,-7.450707 -0.677,-0.406399 -1.48958,-0.541676 -2.43758,-0.406176 -0.948,0.135399 -1.62634,0.677139 -2.16834,1.354439 l -10.42985,15.037323 c -0.542,0.677399 -0.813,1.489895 -0.678,2.438094 0.118,0.827799 0.44314,1.552811 0.97514,2.08411 l 8.48475,8.485269 c 0.077,0.0773 0.15895,0.150308 0.24495,0.219108 2.57399,2.031998 5.28297,4.064488 8.39897,5.825488 2.97999,1.89599 6.23141,3.52167 9.7534,4.87567 3.522,1.355 7.31464,2.43909 11.37864,3.11609 4.06399,0.81299 8.39932,1.21904 13.14131,1.21904 5.825,0 11.10765,-0.67701 15.84865,-1.89601 4.74199,-1.21899 8.80602,-2.97966 12.19201,-5.55366 3.387,-2.574 5.96092,-5.825948 7.85792,-9.754444 1.896,-3.928496 2.84531,-8.534557 2.84531,-13.953152 0,-5.825094 -1.08388,-10.566124 -3.38688,-14.49472 -1.408,-2.317998 -3.01719,-4.382872 -4.83019,-6.19497 l -8.48476,-8.485786 c -1.15299,-1.153099 -2.3882,-2.203447 -3.70519,-3.151746 -3.387,-2.302897 -7.04398,-4.199591 -10.97298,-5.41879 -3.92799,-1.219199 -7.45019,-2.031995 -10.70219,-2.709395 -0.67699,-0.1354 -2.03213,-0.40647 -4.33513,-0.81287 -2.303,-0.4064 -4.60502,-0.947824 -7.04401,-1.625224 -0.0227,-0.0063 -0.0445,-0.01328 -0.0672,-0.01964 0.12652,-0.159038 0.26755,-0.305432 0.42426,-0.436149 0.678,-0.677399 1.62631,-1.21934 2.8453,-1.62574 1.219,-0.2709 2.43905,-0.406169 3.79305,-0.541569 h 3.38688 c 3.38699,0 7.04397,0.541934 10.97297,1.761133 3.92799,1.219198 8.26298,3.386346 12.86898,6.231143 0.677,0.5419 1.49013,0.677586 2.43913,0.542086 0.948,-0.1354 1.62479,-0.677657 2.16679,-1.354956 l 10.56628,-15.036807 c 0.542,-0.677399 0.81299,-1.489894 0.67799,-2.438093 -0.136,-0.948299 -0.54204,-1.625919 -1.21904,-2.303219 l -8.48631,-8.485269 C 424.14686,9.2115603 418.45725,5.9605851 412.49725,3.6576575 406.40126,1.4901896 399.62713,0.40617671 392.04114,0.40617671 Z M 48.497293,1.7611326 c -0.9483,0 -1.625919,0.2709231 -2.303219,0.9482624 -0.677399,0.6773294 -0.948262,1.3544325 -0.948262,2.3027016 V 97.671546 c 0,0.948299 0.270863,1.625819 0.948262,2.303219 l 8.485269,8.485265 c 0.6773,0.677 1.35492,0.94775 2.303219,0.94775 h 36.982234 c 7.044194,0 13.547464,-1.08357 19.372454,-3.11557 5.825,-2.032 10.97299,-5.14723 15.44299,-9.211325 4.87699,-4.470396 8.53385,-9.889377 11.10785,-16.256371 2.57399,-6.231393 3.79305,-13.275573 3.79305,-20.997165 0,-7.721592 -1.21906,-14.766189 -3.79305,-20.997682 -2.331,-5.643895 -5.55117,-10.620922 -9.76116,-14.830618 l -8.48476,-8.485269 c -0.438,-0.4383 -0.8872,-0.868244 -1.3472,-1.289844 C 111.21898,5.9605046 99.703513,1.7611326 85.479527,1.7611326 Z m 106.070517,0 c -0.948,0 -1.6257,0.2709231 -2.3027,0.9482624 -0.678,0.6773294 -0.9493,1.3544325 -0.9493,2.3027016 V 97.671546 c 0,0.948299 0.2713,1.625819 0.9493,2.303219 l 8.48475,8.485265 c 0.677,0.677 1.35522,0.94775 2.30322,0.94775 h 68.95289 c 0.948,0 1.62522,-0.27075 2.30321,-0.94775 0.677,-0.677 0.94775,-1.35522 0.94775,-2.30321 V 87.462351 c 0,-0.948299 -0.27075,-1.625402 -0.94775,-2.302701 l -8.4863,-8.485269 c -0.677,-0.6774 -1.35367,-0.948263 -2.30167,-0.948263 h -36.89386 c 0.0166,-0.902245 0.28896,-1.560879 0.94567,-2.216918 0.677,-0.6773 1.35422,-0.948263 2.30322,-0.948263 h 36.71094 c 0.948,0 1.6257,-0.270963 2.3027,-0.948262 0.677,-0.6773 0.94826,-1.354403 0.94826,-2.302702 V 50.615509 c 0,-0.948199 -0.27126,-1.625302 -0.94826,-2.302701 l -8.48475,-8.48527 c -0.678,-0.677299 -1.35522,-0.948262 -2.30322,-0.948262 H 186.62425 V 38.42349 c 0,-0.948299 0.27078,-1.625402 0.94877,-2.302702 0.677,-0.677299 1.35422,-0.948262 2.30322,-0.948262 h 42.12973 c 0.948,0 1.62522,-0.27148 2.30321,-0.948779 0.677,-0.6774 0.94775,-1.354503 0.94775,-2.302702 V 13.497366 c 0,-0.948299 -0.27075,-1.625402 -0.94775,-2.302702 l -8.4863,-8.485269 c -0.677,-0.6773193 -1.35367,-0.9482624 -2.30167,-0.9482624 z m 403.01411,0 c -0.948,0 -1.6247,0.2709231 -2.3027,0.9482624 -0.677,0.6773294 -0.94826,1.3544325 -0.94826,2.3027016 V 97.671546 c 0,0.948299 0.27126,1.625819 0.94826,2.303219 l 8.48579,8.485265 c 0.677,0.677 1.35418,0.94775 2.30218,0.94775 H 586.252 c 0.948,0 1.62522,-0.27075 2.30322,-0.94775 0.677,-0.677 0.94775,-1.35522 0.94775,-2.30321 V 84.211387 c 0,-0.948299 0.27126,-1.625919 0.94826,-2.303218 0.678,-0.677399 1.3547,-0.948262 2.3027,-0.948262 h 2.98121 c 0.33776,0 0.67562,0.0355 1.01338,0.09819 l 4.18269,5.776391 c 2.845,3.928496 5.68988,7.721545 8.53488,11.514541 0.122,0.1524 0.25769,0.304419 0.40669,0.453719 l 8.48527,8.485272 c 0.514,0.515 1.19188,0.9919 2.03088,1.3069 0.949,0.542 1.89731,0.81287 2.84531,0.81287 h 25.19691 c 0.93426,0 1.47337,-0.3954 1.74821,-1.31517 l 0.5116,0.5116 c 0.254,0.254 0.58515,0.43079 0.99115,0.53278 0.406,0.135 0.94896,0.27079 1.35496,0.27079 h 23.29986 c 0.949,0 1.76192,-0.27075 2.70991,-0.94775 0.813,-0.542 1.35514,-1.21891 1.76114,-2.03191 l 3.79305,-8.128193 c 0.406,-0.8128 0.94804,-1.48991 1.89704,-2.16731 0.812,-0.541799 1.76088,-0.81287 2.70888,-0.81287 h 27.18076 l 1.18029,2.623095 c 0.204,0.4065 0.47487,0.779162 0.81287,1.117762 l 8.48631,8.485276 c 0.338,0.338 0.74504,0.64315 1.21904,0.91415 0.812,0.677 1.76088,0.94775 2.70888,0.94775 h 23.16499 c 1.49,0 2.43767,-0.40596 2.97967,-1.35496 0.407,-0.948 0.54242,-1.75997 0.13642,-2.57297 L 717.51891,13.361974 c -0.304,-0.6095 -0.68489,-1.142547 -1.19889,-1.656747 l -8.48579,-8.4852689 c -0.171,-0.1715398 -0.3582,-0.3411332 -0.5612,-0.5105631 -0.948,-0.5418694 -1.76088,-0.8128702 -2.70888,-0.8128702 h -18.96628 c -0.948,0 -1.89588,0.2710008 -2.70888,0.8128702 -0.948,0.6773294 -1.49005,1.3545102 -1.89704,2.1673093 L 642.08115,95.71456 c -0.80088,-1.021414 -1.61437,-2.053213 -2.45515,-3.104203 -3.793,-4.741395 -7.4511,-9.482756 -10.8381,-13.953152 -0.541,-0.677299 -0.67666,-1.490419 -0.40566,-2.303218 0.136,-0.677299 0.67696,-1.354726 1.35496,-1.896525 2.167,-1.354699 4.06397,-3.115491 5.82497,-5.147489 1.76099,-2.031998 3.25101,-4.199432 4.47001,-6.773229 1.219,-2.573897 2.30266,-5.283388 2.97966,-8.128185 0.678,-2.844797 0.94929,-5.689565 0.94929,-8.534362 0,-5.283195 -0.813,-10.024433 -2.574,-14.359328 -1.761,-4.334996 -4.19932,-8.12796 -7.31531,-11.243757 l -8.48476,-8.485269 C 622.47107,8.6701357 618.67788,6.0961936 614.20688,4.3351354 609.73689,2.5740672 604.99516,1.7611326 599.71216,1.7611326 Z m 203.60719,0 c -0.949,0 -1.62622,0.2709231 -2.30322,0.9482624 -0.677,0.6773294 -0.94775,1.3544325 -0.94775,2.3027016 V 97.671546 c 0,0.948299 0.27075,1.625819 0.94775,2.303219 l 8.48527,8.485265 c 0.678,0.677 1.3547,0.94775 2.3027,0.94775 h 20.45508 c 0.949,0 1.62625,-0.27075 2.30425,-0.94775 0.677,-0.677 0.94775,-1.35522 0.94775,-2.30321 v -20.1843 c 0,-0.948199 0.27126,-1.625919 0.94826,-2.303218 0.678,-0.6773 1.3547,-0.948263 2.3027,-0.948263 h 11.78584 c 6.638,0 12.32752,-0.948289 17.33951,-2.844787 4.877,-1.761098 8.94093,-4.334903 12.32793,-7.586099 3.251,-3.115797 5.6888,-6.908754 7.3148,-11.379149 1.626,-4.334896 2.43913,-9.076349 2.43913,-14.088544 0,-5.012295 -0.94931,-9.753541 -2.84531,-14.223937 -2.032,-4.470395 -4.60592,-8.263753 -7.85792,-11.65045 l -8.48475,-8.485269 C 825.26414,9.0761371 821.47219,6.502448 817.0012,4.6059199 812.5312,2.7093818 807.65387,1.7611326 802.64187,1.7611326 Z M 3.250964,1.8965248 c -0.9482591,0 -1.7608341,0.2709231 -2.30270158,0.9482625 C 0.2709291,3.5221166 0,4.1992198 0,5.1474888 V 97.671546 c 0,0.948299 0.2709291,1.625819 0.94826242,2.303219 0.055338,0.06919 0.11330958,0.134335 0.17414958,0.195335 l 8.4852692,8.48475 c 0.5349298,0.535 1.2771528,0.75293 2.1285518,0.75293 H 32.19183 c 0.948299,0 1.625819,-0.27075 2.303218,-0.94775 0.677299,-0.677 0.948262,-1.35522 0.948262,-2.30321 V 13.632758 c 0,-0.948299 -0.270963,-1.625402 -0.948262,-2.302702 L 26.009779,2.8447873 C 25.33238,2.1674479 24.65476,1.8965248 23.706561,1.8965248 Z M 299.33312,8.4852692 c 7.04399,0 13.68203,1.3545169 19.91402,4.0638338 4.32895,1.88234 8.26506,4.223539 11.85509,7.021276 2.79845,3.590854 5.14066,7.527858 7.02386,11.85819 2.709,6.231394 4.0628,12.869218 4.0628,19.913511 0,7.044293 -1.3538,13.682017 -4.0628,19.913511 -2.71,6.231493 -6.36798,11.650058 -10.97297,16.255853 -4.742,4.741395 -10.16029,8.399067 -16.39228,11.108365 -6.23099,2.709201 -12.869,4.064351 -19.91299,4.064351 -7.044,0 -13.68304,-1.35515 -19.91403,-4.064351 -4.22983,-1.838909 -8.083,-4.11689 -11.56364,-6.871932 -2.86742,-3.595989 -5.26244,-7.596759 -7.18043,-12.007017 -2.709,-6.231494 -4.06384,-12.869318 -4.06384,-19.913511 0,-7.044293 1.35484,-13.682117 4.06384,-19.913511 2.70999,-6.231494 6.36749,-11.650467 10.97348,-16.391762 4.606,-4.605896 10.02486,-8.263575 16.25586,-10.972973 6.23199,-2.7093169 12.87003,-4.0638338 19.91403,-4.0638338 z m 204.9611,0.2707845 c 5.961,0 11.37999,0.6772284 16.12098,2.0319173 4.742,1.354698 9.0759,3.251693 13.00489,5.690091 1.55428,0.964714 3.04242,2.017024 4.4695,3.14296 2.19618,2.712316 4.24539,5.590448 6.14536,8.691458 0.407,0.6773 0.5423,1.49042 0.2713,2.303219 -0.271,0.812799 -0.81323,1.354733 -1.62523,1.761132 l -19.23706,7.5861 c -0.5762,0.247012 -1.10261,0.343164 -1.6397,0.289904 l -7.43623,-7.435721 c -1.591,-1.591798 -3.31898,-2.946441 -5.14698,-4.09794 -3.65799,-2.167498 -8.1291,-3.251481 -13.41209,-3.251481 -3.387,0 -6.63802,0.677728 -9.61802,2.167826 -3.116,1.490199 -5.6898,3.386677 -7.99279,5.689575 -2.303,2.438397 -4.0644,5.283172 -5.2834,8.398969 -1.219,3.115697 -1.89549,6.366712 -1.89549,9.753409 0,3.386597 0.67649,6.637612 1.89549,9.753409 1.219,3.115697 2.9804,5.960679 5.2834,8.263577 l 8.48475,8.485269 c 2.303,2.302998 4.87731,4.199476 7.99331,5.689575 2.97999,1.490198 6.23202,2.167826 9.61801,2.167826 5.013,0 9.48298,-1.21926 13.54698,-3.657658 3.929,-2.302997 7.17963,-5.418743 9.48262,-9.211839 0.406,-0.6773 1.08344,-1.219341 2.03244,-1.625741 0.813,-0.406399 1.62448,-0.406399 2.57348,0 l 11.29337,4.453991 c -2.38043,3.713415 -5.06326,7.188438 -7.85688,10.225732 -3.116,3.522196 -6.63932,6.502041 -10.56732,8.940538 -3.92899,2.438398 -8.39877,4.335193 -13.13976,5.690089 -4.742,1.354 -10.0252,2.03192 -15.85019,2.03192 -7.18,0 -13.95322,-1.35515 -20.32021,-4.064351 -4.64741,-1.977578 -8.78773,-4.462255 -12.52998,-7.450191 -2.69915,-3.409258 -4.96369,-7.173733 -6.75463,-11.293366 -2.71,-6.231494 -4.06435,-12.869318 -4.06435,-19.913511 0,-7.044293 1.35435,-13.682017 4.06435,-19.913511 2.709,-6.231393 6.50173,-11.650574 11.24273,-16.25637 4.74199,-4.605895 10.16119,-8.263058 16.52818,-10.972455 6.366,-2.709298 13.14018,-4.0643513 20.31917,-4.0643513 z M 400.52589,8.8914459 c 7.587,0 14.36012,1.0840529 20.45612,3.2514811 3.36984,1.30192 6.65279,2.907291 9.87381,4.815209 -0.11458,0.436204 -0.32494,0.834374 -0.61288,1.194242 l -10.56576,15.036807 c -0.542,0.677299 -1.21935,1.219556 -2.16835,1.354956 -0.948,0.1355 -1.76057,-2.87e-4 -2.43757,-0.542086 -4.606,-2.844797 -8.94102,-5.011945 -12.87002,-6.231144 -3.92799,-1.219198 -7.58646,-1.761132 -10.97245,-1.761132 h -3.38688 c -1.35499,0.1354 -2.57405,0.270669 -3.79305,0.541569 -1.21899,0.406399 -2.16778,0.948441 -2.84478,1.62574 -0.813,0.6773 -1.21905,1.760981 -1.21905,2.98018 0,0.722599 0.33291,1.445199 0.99891,2.111498 l 8.4863,8.48527 c 0.458,0.457799 1.07285,0.889174 1.84485,1.275374 1.897,0.948299 4.06396,1.896703 6.50296,2.574003 2.438,0.677399 4.74101,1.218824 7.04401,1.625223 2.303,0.4064 3.65714,0.677471 4.33514,0.81287 3.25099,0.6774 6.77264,1.490197 10.70064,2.709395 3.59366,1.115142 6.9581,2.801477 10.09757,4.842598 0.3167,0.468931 0.62605,0.946459 0.92449,1.438155 2.303,3.928496 3.38687,8.669627 3.38687,14.494721 0,5.418695 -0.94775,10.024656 -2.84375,13.953152 -1.897,3.928596 -4.47092,7.180028 -7.85792,9.753925 -3.38699,2.573798 -7.45102,4.335101 -12.19202,5.554698 -4.74099,1.219 -10.0252,1.89601 -15.85019,1.89601 -4.741,0 -9.07577,-0.40705 -13.13977,-1.21905 -4.06399,-0.678 -7.85715,-1.761387 -11.37914,-3.116086 -3.522,-1.354598 -6.7729,-2.980106 -9.7529,-4.876704 -0.37968,-0.214576 -0.75326,-0.433128 -1.12138,-0.655257 0.0944,-0.528021 0.32689,-1.003074 0.66508,-1.425753 l 10.4314,-15.037323 c 0.542,-0.677299 1.21883,-1.219039 2.16783,-1.354439 0.948,-0.1355 1.76009,-2.23e-4 2.43809,0.406176 4.876,3.115797 9.75373,5.689709 14.49472,7.450708 4.741,1.761098 9.21107,2.709395 13.41107,2.709395 3.928,0 7.04393,-0.541934 9.07593,-1.761133 2.032,-1.083699 3.11609,-2.709199 3.11609,-5.012097 0,-1.012999 -0.28084,-1.838985 -0.91984,-2.477884 l -8.48527,-8.485269 c -0.13,-0.13 -0.2746,-0.252303 -0.4346,-0.366903 -0.949,-0.677299 -2.03227,-1.219341 -3.52226,-1.62574 -1.49,-0.4064 -3.25089,-0.812655 -5.28288,-1.083655 -2.032,-0.2709 -4.06427,-0.677255 -6.09627,-1.083655 -2.032,-0.406399 -4.33463,-0.812639 -6.90862,-1.354439 -2.71,-0.406399 -5.4191,-1.219527 -8.2641,-2.167826 -2.845,-0.948199 -5.55406,-2.032167 -8.26306,-3.522265 -0.74284,-0.38915 -1.45523,-0.799547 -2.14509,-1.230416 -0.75768,-1.2397 -1.41817,-2.561259 -1.96784,-3.966166 -1.35499,-3.115696 -2.03191,-6.773476 -2.03191,-10.972972 0,-6.231494 1.21862,-11.378987 3.65662,-15.442983 2.439,-4.063996 5.55427,-7.315528 9.34827,-9.753926 3.65699,-2.302897 7.85577,-4.063797 12.46177,-5.012096 4.60599,-0.9482493 9.07607,-1.3549561 13.41106,-1.3549561 z M 56.982562,10.246402 h 36.982234 c 12.596504,0 23.066814,3.295922 31.601684,9.788548 2.35454,3.124897 4.29181,6.569775 5.83634,10.309448 2.57399,6.231493 3.79305,13.27609 3.79305,20.997682 0,7.721592 -1.21906,14.765772 -3.79305,20.997165 -2.574,6.366994 -6.23086,11.785975 -11.10785,16.25637 -4.47,4.063996 -9.61802,7.179325 -15.44402,9.211323 -5.824592,2.031998 -12.32713,3.116092 -19.371423,3.116092 H 53.731081 V 13.497366 c 0,-0.948299 0.270863,-1.625402 0.948262,-2.302702 0.6773,-0.677399 1.35492,-0.948262 2.303219,-0.948262 z m 106.070518,0 h 63.7191 v 13.189374 c 0,0.948199 -0.2713,1.625302 -0.9493,2.302702 -0.677,0.677299 -1.35367,0.948779 -2.30167,0.948779 h -42.13127 c -0.948,0 -1.6247,0.270963 -2.3027,0.948262 -0.677,0.6774 -0.94826,1.354503 -0.94826,2.302702 v 5.689574 c 0,0.948299 0.27126,1.625919 0.94826,2.303219 l 8.48578,8.485269 c 0.677,0.677299 1.35422,0.948262 2.30322,0.948262 h 31.47663 v 13.460159 c 0,0.948299 -0.27075,1.625402 -0.94774,2.302702 -0.678,0.677299 -1.35522,0.948262 -2.30322,0.948262 h -36.71197 c -0.948,0 -1.6247,0.270963 -2.3027,0.948262 -0.677,0.6774 -0.94826,1.35502 -0.94826,2.303219 v 5.147489 c 0,0.948299 0.27126,1.625819 0.94826,2.303218 l 8.48578,8.485269 c 0.677,0.677399 1.35422,0.948262 2.30322,0.948262 h 36.89594 v 13.460159 c 0,0.948299 -0.2713,1.625819 -0.9493,2.303219 -0.677,0.677195 -1.35367,0.948265 -2.30167,0.948265 h -63.7191 V 13.497366 c 0,-0.948299 0.27075,-1.625402 0.94775,-2.302702 0.677,-0.677399 1.35522,-0.948262 2.30322,-0.948262 z m 403.01411,0 h 42.12972 c 5.284,0 10.02528,0.812904 14.49628,2.574003 2.41916,0.953106 4.63799,2.146319 6.66057,3.5326 1.38988,2.044474 2.57335,4.277118 3.5481,6.676594 1.761,4.334896 2.57297,9.076134 2.57297,14.359329 0,2.844797 -0.27074,5.689565 -0.94774,8.534362 -0.677,2.844797 -1.76118,5.554287 -2.98018,8.128185 -1.219,2.573797 -2.71005,4.741231 -4.47105,6.773229 -1.761,2.031998 -3.65697,3.79279 -5.82496,5.147489 -0.677,0.541899 -1.21893,1.219225 -1.35393,1.896525 -0.271,0.812799 -0.13582,1.625919 0.40618,2.303218 3.387,4.470396 7.0451,9.211757 10.8381,13.953152 3.79299,4.741295 7.17959,9.211685 10.15958,13.140282 0.095,0.118799 0.10829,0.259623 0.17829,0.386022 l 3.27111,3.271638 h -0.19843 c -0.407,0 -0.94896,-0.13579 -1.35496,-0.27079 -0.0771,-0.0193 -0.15014,-0.0424 -0.22169,-0.0672 l -1.24799,-1.247983 c -0.019,0.078 0.006,0.152894 -0.0202,0.230994 -0.271,0.947899 -0.81313,1.354959 -1.76113,1.354959 h -25.19691 c -0.45114,0 -0.90255,-0.0633 -1.35392,-0.18604 -1.32633,-1.78603 -2.6529,-3.585975 -3.97909,-5.417238 L 600.88212,83.53391 c -0.135,-0.1694 -0.28827,-0.33913 -0.45527,-0.506429 l -8.48579,-8.48527 c -0.501,-0.501499 -1.13592,-0.983796 -1.84691,-1.390096 -0.948,-0.406399 -1.89631,-0.677477 -2.84531,-0.677477 h -2.97966 c -0.948,0 -1.62622,0.270963 -2.30322,0.948262 -0.677,0.677299 -0.94775,1.355019 -0.94775,2.303218 v 21.945428 c 0,0.948299 -0.27129,1.625819 -0.94929,2.303219 -0.677,0.677195 -1.35367,0.948265 -2.30167,0.948265 H 562.81623 V 13.497366 c 0,-0.948299 0.27078,-1.625402 0.94878,-2.302702 0.677,-0.677399 1.35418,-0.948262 2.30218,-0.948262 z m 203.60667,0 h 41.45328 c 5.01199,0 9.88882,0.948289 14.35881,2.844787 2.4813,1.052514 4.75317,2.314638 6.86315,3.807519 1.59038,2.209012 2.96923,4.594915 4.15995,7.214546 1.896,4.470396 2.84375,9.211641 2.84375,14.223936 0,5.012295 -0.81258,9.753649 -2.43757,14.088544 -1.626,4.470396 -4.06436,8.263353 -7.31635,11.37915 -3.386,3.251196 -7.4499,5.825001 -12.3269,7.586099 -5.01199,1.896498 -10.70203,2.844787 -17.34002,2.844787 h -11.78481 c -0.949,0 -1.62622,0.270963 -2.30322,0.948263 -0.677,0.677399 -0.94774,1.354919 -0.94774,2.303218 v 20.184295 c 0,0.948299 -0.2713,1.625819 -0.9493,2.303219 -0.677,0.677195 -1.3547,0.948265 -2.3027,0.948265 H 766.4229 V 13.497366 c 0,-0.948299 0.27126,-1.625402 0.94826,-2.302702 0.678,-0.677399 1.3547,-0.948262 2.3027,-0.948262 z M 11.736233,10.381794 h 15.221808 v 87.289752 c 0,0.948299 -0.270963,1.625819 -0.948262,2.303219 -0.677399,0.677195 -1.355019,0.948265 -2.303218,0.948265 H 8.4852692 V 13.632758 c 0,-0.948299 0.2709331,-1.625402 0.9482624,-2.302702 0.5418695,-0.677399 1.3545024,-0.948262 2.3027014,-0.948262 z m 682.347937,0 h 17.31367 l 37.19204,86.612791 c 0.407,0.812799 0.27112,1.625187 -0.13488,2.573486 -0.542,0.947899 -1.49018,1.354959 -2.98018,1.354959 h -21.8984 l -1.18029,-2.623098 c -0.257,-0.5151 -0.62405,-0.975652 -1.06505,-1.416451 l -8.48527,-8.485269 c -0.255,-0.2546 -0.53399,-0.502859 -0.83199,-0.750859 -0.948,-0.541899 -1.76088,-0.81287 -2.70888,-0.81287 h -28.58275 c -0.94899,0 -1.89743,0.270971 -2.71042,0.81287 -0.948,0.677299 -1.49001,1.35451 -1.89601,2.167309 l -3.79254,8.128185 c -0.40699,0.8128 -0.94913,1.490018 -1.76113,2.031918 -0.949,0.677195 -1.76191,0.948265 -2.70991,0.948265 h -15.88275 l 37.50882,-87.561056 c 0.406,-0.8128 0.94801,-1.49001 1.89601,-2.16731 0.813,-0.541899 1.76091,-0.81287 2.70991,-0.81287 z M 290.84785,25.874387 c -3.387,0 -6.50263,0.677218 -9.48263,2.031917 -2.981,1.490098 -5.55401,3.251184 -7.72201,5.554182 -2.30299,2.302898 -4.0634,5.011871 -5.28339,8.127668 -1.219,3.115697 -1.89601,6.367229 -1.89601,9.753926 0,3.386696 0.67701,6.637712 1.89601,9.753408 1.21999,3.115697 2.9804,5.825188 5.28339,8.128186 0.18,0.190599 0.36174,0.378373 0.54674,0.563273 l 8.48527,8.485269 c 2.05,2.049798 4.44076,3.74841 7.17475,4.990909 2.98,1.490199 6.09615,2.167309 9.48315,2.167309 3.38699,0 6.50214,-0.67711 9.48314,-2.167309 2.97999,-1.354599 5.55388,-3.251285 7.85688,-5.554182 2.303,-2.302998 4.06388,-5.012488 5.28288,-8.128185 1.219,-3.115797 1.89704,-6.366812 1.89704,-9.753409 0,-3.386697 -0.67804,-6.638129 -1.89704,-9.753925 -1.219,-3.115697 -2.97988,-5.824771 -5.28288,-8.127669 l -8.4863,-8.485269 c -2.303,-2.302898 -4.87589,-4.064084 -7.85689,-5.554182 -2.97999,-1.354699 -6.09511,-2.031917 -9.4821,-2.031917 z m 293.42133,0.81287 c -0.948,0 -1.62622,0.270963 -2.30322,0.948262 -0.677,0.6774 -0.94775,1.354503 -0.94775,2.302702 v 14.359328 c 0,0.948199 0.27075,1.625819 0.94775,2.303219 l 8.48527,8.485269 c 0.678,0.677399 1.3547,0.948262 2.3027,0.948262 h 14.35985 c 1.08399,0 2.16739,-0.271078 3.38739,-0.677478 1.21899,-0.406399 2.30196,-0.948225 3.25096,-1.896525 0.948,-0.812799 1.76109,-1.896372 2.43809,-3.115571 0.678,-1.219199 0.94878,-2.70943 0.94878,-4.470528 0,-0.948299 -0.13621,-2.032282 -0.40721,-3.251481 -0.407,-1.219198 -0.94874,-2.302549 -1.62574,-3.521748 -0.288,-0.384 -0.61015,-0.751225 -0.96015,-1.101225 l -8.48475,-8.485269 c -0.638,-0.637699 -1.36894,-1.218763 -2.15594,-1.743563 -1.354,-0.677299 -2.98019,-1.083654 -4.87619,-1.083654 z m 203.87797,0 c -0.949,0 -1.62622,0.270963 -2.30322,0.948262 -0.677,0.6774 -0.94774,1.354503 -0.94774,2.302702 V 45.92329 c 0,0.948299 0.27074,1.625919 0.94774,2.303218 l 8.48527,8.485269 c 0.678,0.6773 1.3547,0.948263 2.3027,0.948263 h 14.49524 c 3.387,0 5.9611,-1.083976 7.5861,-3.386873 1.49,-2.167498 2.3027,-4.60591 2.3027,-7.450707 0,-1.490199 -0.27096,-2.844937 -0.67696,-4.335136 -0.542,-1.354599 -1.35522,-2.573958 -2.30322,-3.657657 -0.154,-0.1757 -0.31466,-0.347731 -0.48266,-0.515731 l -8.48527,-8.485269 c -0.868,-0.868099 -1.927,-1.625648 -3.175,-2.193148 -1.48999,-0.677299 -3.11558,-0.948262 -5.01158,-0.948262 z M 75.319425,26.958041 c -0.948199,0 -1.625302,0.270963 -2.302702,0.948263 -0.677299,0.677299 -0.948262,1.354402 -0.948262,2.302701 v 42.536934 c 0,0.948299 0.270963,1.625402 0.948262,2.302701 l 8.485269,8.48527 c 0.6773,0.677399 1.354403,0.948262 2.302702,0.948262 h 10.160102 c 2.573898,0 5.148303,-0.270863 7.857404,-0.948262 2.70999,-0.6773 5.14783,-1.89666 7.31583,-3.657658 2.167,-1.761098 3.92776,-4.19951 5.41775,-7.450707 1.354,-3.115797 2.03244,-7.315109 2.03244,-12.462804 0,-5.147795 -0.67844,-9.346999 -2.03244,-12.598196 -1.23499,-2.581397 -2.65472,-4.790624 -4.33771,-6.474022 l -8.48631,-8.48527 c -0.348,-0.348499 -0.70752,-0.674684 -1.07952,-0.976684 -2.302695,-1.761098 -4.741415,-2.844966 -7.315312,-3.522265 -2.709298,-0.6773 -5.283504,-0.948263 -7.857401,-0.948263 z m 224.013695,7.401615 c 3.38699,0 6.50214,0.677218 9.48314,2.031917 1.0192,0.509634 1.98958,1.052204 2.9192,1.636076 0.66571,1.121468 1.24508,2.307508 1.73529,3.560505 1.219,3.115697 1.89601,6.367229 1.89601,9.753926 0,3.386696 -0.67701,6.637712 -1.89601,9.753408 -1.219,3.115697 -2.98091,5.825188 -5.28391,8.128186 -2.303,2.302897 -4.87589,4.199483 -7.85689,5.554182 -2.97999,1.490098 -6.09511,2.167309 -9.4821,2.167309 -3.387,0 -6.50263,-0.677211 -9.48263,-2.167309 -0.92236,-0.419212 -1.80509,-0.891291 -2.64945,-1.41025 -0.72282,-1.187596 -1.34644,-2.449559 -1.86965,-3.786848 -1.22,-3.115797 -1.89704,-6.366812 -1.89704,-9.753409 0,-3.386697 0.67704,-6.638129 1.89704,-9.753925 1.219,-3.115697 2.97988,-5.824771 5.28288,-8.127669 2.167,-2.302997 4.74098,-4.064084 7.72097,-5.554182 2.98,-1.354699 6.09615,-2.031917 9.48315,-2.031917 z m 293.42081,0.81287 h 14.35985 c 0.46499,0 0.91367,0.02443 1.34617,0.07131 0.1274,0.778292 0.19327,1.494497 0.19327,2.145089 0,1.761098 -0.27127,3.251329 -0.94827,4.470528 -0.67699,1.219198 -1.49012,2.302772 -2.43912,3.115571 -0.948,0.948299 -2.03097,1.490126 -3.25097,1.896525 -1.219,0.4064 -2.30284,0.677478 -3.38584,0.677478 h -9.12605 v -9.12554 c 0,-0.948299 0.27126,-1.625402 0.94826,-2.302702 0.678,-0.677299 1.3547,-0.948262 2.3027,-0.948262 z m 203.87797,0 h 12.73411 c 1.01662,0 1.95453,0.07879 2.836,0.255282 0.20422,0.963321 0.32918,1.906014 0.32918,2.909382 0,2.844798 -0.81322,5.28321 -2.30322,7.450707 -1.626,2.302898 -4.1991,3.386873 -7.5861,3.386873 h -9.26093 V 38.42349 c 0,-0.948299 0.27126,-1.625402 0.94826,-2.302702 0.678,-0.677299 1.3547,-0.948262 2.3027,-0.948262 z M 83.804694,35.44331 h 10.160102 c 2.573898,0 5.148303,0.270964 7.857404,0.948263 1.24969,0.328833 2.46707,0.754895 3.653,1.30638 0.20279,0.385423 0.40243,0.777062 0.59583,1.181323 1.354,3.251197 2.03089,7.450401 2.03089,12.598196 0,5.147695 -0.67689,9.347007 -2.03089,12.462804 -1.491,3.251196 -3.25079,5.689609 -5.41879,7.450707 -2.167195,1.761098 -4.605915,2.980358 -7.315312,3.657657 -2.709298,0.6774 -5.283504,0.948263 -7.857401,0.948263 H 80.55373 V 38.694274 c 0,-0.948299 0.270963,-1.625402 0.948262,-2.302701 0.6773,-0.677299 1.354403,-0.948263 2.302702,-0.948263 z m 611.141436,7.770585 c -0.407,0 -0.81408,0.406247 -1.22008,1.219047 l -6.77323,16.391762 c -0.407,0.812799 -0.407,1.490118 0,2.031917 0.083,0.1383 0.17719,0.259753 0.28319,0.365352 l 8.48475,8.48527 c 0.411,0.411499 0.99425,0.58291 1.74925,0.58291 h 12.05714 c 0.948,0 1.62492,-0.270963 2.03192,-0.948263 0.406,-0.541899 0.27109,-1.219118 -0.13591,-2.031917 -0.948,-2.302998 -2.03197,-4.877096 -3.25096,-7.992793 -1.219,-2.980297 -2.43827,-5.825072 -3.52227,-8.398969 -0.203,-0.4064 -0.40578,-0.710956 -0.60978,-0.914156 l -8.48527,-8.485269 c -0.203,-0.2031 -0.40575,-0.304891 -0.60875,-0.304891 z m 5.99912,12.766661 c 0.71756,1.766151 1.38614,3.370836 1.99264,4.844148 0.406,0.812799 0.54188,1.490118 0.13488,2.031917 -0.406,0.677399 -1.08292,0.948263 -2.03192,0.948263 h -3.32796 z" style="font-style:normal;font-variant:normal;font-weight:400;font-stretch:normal;font-size:135.467px;line-height:1;font-family:Heavitas;-inkscape-font-specification:Heavitas;text-align:center;letter-spacing:0;word-spacing:0;text-orientation:upright;text-anchor:middle;fill:#a0a0a0;fill-opacity:1;stroke-width:1.05833;stroke-miterlimit:128"/><path d="m 290.84785,0 c -7.04428,0 -13.68255,1.354497 -19.91403,4.0638342 -6.23147,2.7093372 -11.64998,6.3670988 -16.25585,10.9729728 -4.60588,4.74134 -8.26364,10.160287 -10.97298,16.391762 -2.70933,6.231476 -4.06383,12.869234 -4.06383,19.913511 0,7.044277 1.3545,13.682036 4.06383,19.913511 2.70934,6.231476 6.3671,11.649981 10.97298,16.255854 4.60587,4.74134 10.02438,8.399027 16.25585,11.108364 6.23148,2.709341 12.86975,4.064351 19.91403,4.064351 7.04428,0 13.68203,-1.35501 19.91351,-4.064351 6.23147,-2.709337 11.64991,-6.367024 16.39125,-11.108364 4.60587,-4.605873 8.26363,-10.024378 10.97297,-16.255854 2.70933,-6.231475 4.06383,-12.869234 4.06383,-19.913511 0,-7.044277 -1.3545,-13.682035 -4.06383,-19.913511 -2.70934,-6.231475 -6.3671,-11.650422 -10.97297,-16.391762 C 322.41127,10.430933 316.99283,6.7731714 310.76136,4.0638342 304.52988,1.354497 297.89213,0 290.84785,0 Z m 204.96111,0.27078448 c -7.17974,0 -13.95275,1.35501372 -20.31969,4.06435092 -6.36694,2.7093372 -11.78581,6.3665826 -16.52715,10.9724556 -4.74134,4.605873 -8.53442,10.024895 -11.24376,16.25637 -2.70934,6.231476 -4.06383,12.869235 -4.06383,19.913511 0,7.044277 1.35449,13.682036 4.06383,19.913511 2.70934,6.231476 6.50242,11.650498 11.24376,16.256371 4.74134,4.605873 10.16021,8.263118 16.52715,10.972455 6.36694,2.709341 13.13995,4.064351 20.31969,4.064351 5.82507,0 11.10834,-0.67776 15.84968,-2.03243 4.74134,-1.354672 9.21174,-3.251175 13.14028,-5.689578 3.92854,-2.438404 7.45106,-5.4184 10.56679,-8.940539 3.11574,-3.386671 6.09589,-7.315068 8.66976,-11.514541 0.4064,-0.812801 0.54172,-1.625809 0.27078,-2.438611 -0.27093,-0.677334 -0.81294,-1.219339 -1.62574,-1.62574 l -19.23603,-7.586099 c -0.94827,-0.406401 -1.7612,-0.406401 -2.574,0 -0.94827,0.4064 -1.62552,0.948406 -2.03192,1.62574 -2.30294,3.793072 -5.55409,6.908903 -9.48263,9.21184 -4.064,2.438403 -8.5347,3.657657 -13.54697,3.657657 -3.38667,0 -6.63775,-0.67769 -9.61802,-2.167826 -3.11574,-1.490135 -5.68985,-3.386638 -7.99279,-5.689574 -2.30294,-2.302937 -4.06368,-5.14784 -5.28288,-8.263578 -1.2192,-3.115738 -1.89653,-6.366737 -1.89653,-9.753409 0,-3.386671 0.67733,-6.637671 1.89653,-9.753408 1.2192,-3.115738 2.97994,-5.960566 5.28288,-8.39897 2.30294,-2.302937 4.87705,-4.199439 7.99279,-5.689575 2.98027,-1.490135 6.23135,-2.167826 9.61802,-2.167826 5.28321,0 9.75398,1.084011 13.41158,3.251481 3.65761,2.302937 6.90876,5.418544 9.48263,9.618017 0.4064,0.677334 1.08365,1.219339 2.03191,1.62574 0.94827,0.406401 1.76113,0.406401 2.7094,0 l 19.23603,-7.586099 c 0.8128,-0.406401 1.35481,-0.948332 1.62574,-1.761133 0.27094,-0.812801 0.13562,-1.625884 -0.27078,-2.303218 -2.57387,-4.199473 -5.41863,-7.992403 -8.53436,-11.514542 -3.11574,-3.386671 -6.63826,-6.366743 -10.5668,-8.8051461 C 521.00577,5.5543894 516.67128,3.6573702 511.92994,2.3027016 507.1886,0.94803297 501.7695,0.27078448 495.80896,0.27078448 Z M 392.04114,0.40617671 c -4.33494,0 -8.80519,0.40668789 -13.41106,1.35495589 -4.60588,0.948268 -8.8052,2.70916 -12.46281,5.0120966 -3.79307,2.4384035 -6.90882,5.6899198 -9.34723,9.7539258 -2.4384,4.064006 -3.65766,9.211508 -3.65766,15.442983 0,4.199473 0.67725,7.857235 2.03192,10.972973 1.2192,3.115737 2.98054,5.825248 5.14801,8.128185 2.16747,2.302936 4.6059,4.06353 7.4507,5.553665 2.70934,1.490136 5.41826,2.573998 8.26306,3.522266 2.84481,0.948268 5.55424,1.761425 8.26358,2.167826 2.57387,0.541867 4.87714,0.948038 6.90914,1.354439 2.032,0.4064 4.06375,0.812721 6.09575,1.083654 2.032,0.270934 3.79326,0.677255 5.2834,1.083655 1.49014,0.406401 2.57348,0.948406 3.52175,1.62574 0.94827,0.677335 1.35495,1.625586 1.35495,2.844788 0,2.302936 -1.08356,3.928362 -3.11557,5.012096 -2.032,1.219202 -5.14791,1.761133 -9.07645,1.761133 -4.19947,0 -8.66972,-0.948326 -13.41106,-2.709395 -4.74134,-1.761069 -9.61843,-4.334969 -14.49524,-7.450707 -0.67733,-0.406401 -1.48983,-0.541644 -2.43809,-0.406177 -0.94827,0.135467 -1.62596,0.677105 -2.16783,1.354439 l -10.43089,15.037324 c -0.54186,0.677334 -0.81294,1.489825 -0.67747,2.438093 0.13546,0.948268 0.54223,1.761351 1.21956,2.303219 2.57387,2.032003 5.28323,4.063897 8.39897,5.824967 2.98027,1.896536 6.23127,3.522035 9.75341,4.876704 3.52214,1.354669 7.31514,2.438235 11.37915,3.115575 4.064,0.8128 8.39894,1.21956 13.14028,1.21956 5.82507,0 11.10834,-0.67732 15.84968,-1.89652 4.74134,-1.219206 8.80534,-2.980316 12.19202,-5.554187 3.38667,-2.57387 5.96086,-5.825386 7.8574,-9.753925 1.89653,-3.928539 2.84478,-8.534478 2.84478,-13.953152 0,-5.825075 -1.08393,-10.566182 -3.38687,-14.494721 -2.30294,-3.793072 -5.14769,-6.908829 -8.53436,-9.347232 -3.38667,-2.302937 -7.04444,-4.199589 -10.97297,-5.41879 -3.92854,-1.219202 -7.45047,-2.032061 -10.70168,-2.709395 -0.67733,-0.135467 -2.03219,-0.40647 -4.33513,-0.812871 -2.30294,-0.4064 -4.60561,-0.947889 -7.04401,-1.625223 -2.43841,-0.677335 -4.60591,-1.625735 -6.50245,-2.574003 -1.89654,-0.948268 -2.84479,-2.167671 -2.84479,-3.386873 0,-1.219202 0.40625,-2.302845 1.21905,-2.98018 0.67733,-0.677334 1.62559,-1.219339 2.84479,-1.62574 1.2192,-0.270934 2.43838,-0.406102 3.79305,-0.541569 h 3.38687 c 3.38667,0 7.04392,0.541931 10.97246,1.761133 3.92854,1.219201 8.26362,3.386339 12.86949,6.231143 0.67734,0.541868 1.49035,0.677553 2.43861,0.542086 0.94827,-0.135467 1.62545,-0.677622 2.16731,-1.354956 l 10.56628,-15.036807 c 0.54187,-0.677334 0.81295,-1.489825 0.67748,-2.438093 -0.13547,-0.948268 -0.54171,-1.625884 -1.21905,-2.303219 C 424.14723,9.2115936 418.45728,5.9605941 412.49674,3.6576575 406.40073,1.4901877 399.62729,0.40617671 392.04114,0.40617671 Z M 48.497293,1.7611326 c -0.948268,0 -1.625884,0.2709282 -2.303218,0.9482625 -0.677335,0.6773342 -0.948263,1.3544335 -0.948263,2.3027015 V 97.671547 c 0,0.948268 0.270928,1.625884 0.948263,2.303218 0.677334,0.677335 1.35495,0.948265 2.303218,0.948265 h 36.982235 c 7.044276,0 13.546867,-1.084088 19.371942,-3.116091 5.82507,-2.032003 10.97309,-5.147317 15.4435,-9.211323 4.87681,-4.470406 8.53398,-9.889428 11.10785,-16.25637 2.57387,-6.231476 3.79305,-13.275555 3.79305,-20.997166 0,-7.721611 -1.21918,-14.766207 -3.79305,-20.997682 C 128.82895,24.112922 125.17178,18.694343 120.29497,14.223936 111.21869,5.960458 99.703548,1.7611326 85.479528,1.7611326 Z m 106.070517,0 c -0.94827,0 -1.62588,0.2709282 -2.30322,0.9482625 -0.67733,0.6773342 -0.94826,1.3544335 -0.94826,2.3027015 V 97.671547 c 0,0.948268 0.27093,1.625884 0.94826,2.303218 0.67734,0.677335 1.35495,0.948265 2.30322,0.948265 h 68.95289 c 0.94827,0 1.62537,-0.27093 2.3027,-0.948265 0.67734,-0.677334 0.94826,-1.35495 0.94826,-2.303218 V 78.977083 c 0,-0.948268 -0.27092,-1.625367 -0.94826,-2.302702 -0.67733,-0.677334 -1.35443,-0.948262 -2.3027,-0.948262 h -42.13024 c -0.94827,0 -1.62589,-0.270928 -2.30322,-0.948263 -0.67733,-0.677334 -0.94826,-1.35495 -0.94826,-2.303218 v -5.147489 c 0,-0.948268 0.27093,-1.625884 0.94826,-2.303218 0.67733,-0.677334 1.35495,-0.948263 2.30322,-0.948263 h 36.71145 c 0.94827,0 1.62537,-0.270928 2.3027,-0.948262 0.67733,-0.677334 0.94826,-1.354433 0.94826,-2.302702 V 42.13024 c 0,-0.948268 -0.27093,-1.625367 -0.94826,-2.302701 -0.67733,-0.677335 -1.35443,-0.948263 -2.3027,-0.948263 h -36.71145 c -0.94827,0 -1.62589,-0.270928 -2.30322,-0.948262 -0.67733,-0.677334 -0.94826,-1.35495 -0.94826,-2.303218 v -5.689575 c 0,-0.948268 0.27093,-1.625367 0.94826,-2.302702 0.67733,-0.677334 1.35495,-0.948262 2.30322,-0.948262 h 42.13024 c 0.94827,0 1.62537,-0.271445 2.3027,-0.948779 0.67734,-0.677334 0.94826,-1.354434 0.94826,-2.302702 V 5.0120966 c 0,-0.948268 -0.27092,-1.6253673 -0.94826,-2.3027015 -0.67733,-0.6773343 -1.35443,-0.9482625 -2.3027,-0.9482625 z m 403.01412,0 c -0.94827,0 -1.62537,0.2709282 -2.30271,0.9482625 -0.67733,0.6773342 -0.94826,1.3544335 -0.94826,2.3027015 V 97.671547 c 0,0.948268 0.27093,1.625884 0.94826,2.303218 0.67734,0.677335 1.35444,0.948265 2.30271,0.948265 h 20.18481 c 0.94827,0 1.62537,-0.27093 2.3027,-0.948265 0.67733,-0.677334 0.94826,-1.35495 0.94826,-2.303218 V 75.726119 c 0,-0.948268 0.27093,-1.625884 0.94826,-2.303218 0.67734,-0.677335 1.35495,-0.948263 2.30322,-0.948263 h 2.98018 c 0.94827,0 1.89652,0.271077 2.84479,0.677478 0.94827,0.541868 1.76083,1.219191 2.3027,1.896525 l 8.53436,11.785843 c 2.84481,3.928538 5.69008,7.721469 8.53488,11.514541 0.54187,0.677334 1.35436,1.354732 2.4381,1.761135 0.94826,0.54187 1.89651,0.81287 2.84478,0.81287 h 25.19691 c 0.94827,0 1.4902,-0.40669 1.76113,-1.354958 0.026,-0.0781 10e-4,-0.153012 0.0196,-0.230994 0.09,0.157558 0.10049,0.351639 0.25115,0.502295 0.27093,0.406397 0.67718,0.676887 1.21905,0.812357 0.4064,0.13546 0.94855,0.2713 1.35495,0.2713 h 23.30039 c 0.94826,0 1.76112,-0.27093 2.70939,-0.948265 0.8128,-0.541867 1.35473,-1.219116 1.76113,-2.031917 l 3.79305,-8.128185 c 0.4064,-0.812801 0.94826,-1.489975 1.89653,-2.167309 0.8128,-0.541868 1.76112,-0.81287 2.70939,-0.81287 h 28.58327 c 0.94827,0 1.76113,0.271002 2.70939,0.81287 0.8128,0.677334 1.49013,1.354508 1.89653,2.167309 l 3.65766,8.128185 c 0.4064,0.812801 1.08364,1.49005 2.03191,2.031917 0.8128,0.677335 1.76113,0.948265 2.7094,0.948265 h 23.16499 c 1.49013,0 2.43831,-0.40669 2.98018,-1.354958 0.4064,-0.948268 0.54179,-1.760685 0.13539,-2.573486 L 709.03416,4.8767044 c -0.4064,-0.8128012 -0.94833,-1.4899751 -1.76113,-2.1673093 -0.94827,-0.5418675 -1.76113,-0.8128702 -2.70939,-0.8128702 h -18.96525 c -0.94827,0 -1.8966,0.2710027 -2.7094,0.8128702 -0.94827,0.6773342 -1.49012,1.3545081 -1.89652,2.1673093 L 641.70701,96.587892 c -0.22788,0.379812 -0.17038,0.707575 -0.22789,1.063501 -0.07,-0.12639 -0.0833,-0.267235 -0.17828,-0.386023 -2.98027,-3.928539 -6.36703,-8.398941 -10.1601,-13.140281 -3.79308,-4.741341 -7.45091,-9.482746 -10.83758,-13.953152 -0.54187,-0.677335 -0.67712,-1.490418 -0.40618,-2.303219 0.13547,-0.677334 0.6771,-1.354657 1.35444,-1.896525 2.16747,-1.354668 4.0639,-3.115486 5.82496,-5.147489 1.76107,-2.032002 3.25133,-4.199358 4.47053,-6.773229 1.2192,-2.57387 2.30285,-5.283381 2.98018,-8.128185 0.67734,-2.844804 0.94826,-5.689558 0.94826,-8.534362 0,-5.283207 -0.81241,-10.024389 -2.57348,-14.359328 -1.76107,-4.33494 -4.19958,-8.12802 -7.31532,-11.243757 C 622.47082,8.6701049 618.67781,6.0962046 614.2074,4.3351354 609.737,2.5740663 604.99537,1.7611326 599.71217,1.7611326 Z m 203.60667,0 c -0.94827,0 -1.62537,0.2709282 -2.3027,0.9482625 -0.67734,0.6773342 -0.94827,1.3544335 -0.94827,2.3027015 V 97.671547 c 0,0.948268 0.27093,1.625884 0.94827,2.303218 0.67733,0.677335 1.35443,0.948265 2.3027,0.948265 h 20.45559 c 0.94827,0 1.62589,-0.27093 2.30322,-0.948265 0.67734,-0.677334 0.94826,-1.35495 0.94826,-2.303218 V 77.487251 c 0,-0.948268 0.27093,-1.625884 0.94827,-2.303218 0.67733,-0.677334 1.35443,-0.948262 2.3027,-0.948262 h 11.78584 c 6.63788,0 12.32724,-0.948252 17.33951,-2.844788 4.87681,-1.761069 8.94074,-4.334894 12.32741,-7.586099 3.25121,-3.115738 5.68971,-6.908743 7.31532,-11.379149 1.6256,-4.33494 2.43861,-9.076271 2.43861,-14.088544 0,-5.012274 -0.94825,-9.75353 -2.84479,-14.223937 -2.032,-4.470406 -4.6062,-8.263779 -7.8574,-11.65045 C 825.26447,9.0761323 821.47161,6.5024559 817.00121,4.6059199 812.5308,2.7093839 807.65415,1.7611326 802.64188,1.7611326 Z M 3.250964,1.8965249 c -0.948268,0 -1.7608341,0.2709281 -2.30270157,0.9482624 C 0.27092813,3.5221216 0,4.1992208 0,5.1474889 V 97.671547 c 0,0.948268 0.27092813,1.625884 0.94826243,2.303218 C 1.4901299,100.6521 2.302696,100.92303 3.250964,100.92303 h 20.455597 c 0.948268,0 1.625884,-0.27093 2.303218,-0.948265 0.677334,-0.677334 0.948263,-1.35495 0.948263,-2.303218 V 5.1474889 c 0,-0.9482681 -0.270929,-1.6253673 -0.948263,-2.3027016 C 25.332445,2.167453 24.654829,1.8965249 23.706561,1.8965249 Z M 290.84785,25.874387 c 3.38667,0 6.50235,0.677248 9.48262,2.031917 2.98027,1.490135 5.55395,3.251246 7.85689,5.554182 2.30293,2.302937 4.06419,5.011931 5.28339,8.127669 1.21921,3.115737 1.89653,6.367254 1.89653,9.753925 0,3.386672 -0.67732,6.637671 -1.89653,9.753409 -1.2192,3.115738 -2.98046,5.825248 -5.28339,8.128185 -2.30294,2.302937 -4.87662,4.199514 -7.85689,5.554182 -2.98027,1.490136 -6.09595,2.16731 -9.48262,2.16731 -3.38667,0 -6.50287,-0.677174 -9.48314,-2.16731 -2.98027,-1.354668 -5.55402,-3.251245 -7.72149,-5.554182 -2.30294,-2.302937 -4.06368,-5.012447 -5.28289,-8.128185 -1.2192,-3.115738 -1.89652,-6.366737 -1.89652,-9.753409 0,-3.386671 0.67732,-6.638188 1.89652,-9.753925 1.21921,-3.115738 2.97995,-5.824732 5.28289,-8.127669 2.16747,-2.302936 4.74122,-4.064047 7.72149,-5.554182 2.98027,-1.354669 6.09647,-2.031917 9.48314,-2.031917 z m 293.42133,0.81287 h 14.35933 c 1.89654,0 3.52204,0.40632 4.87671,1.083655 1.2192,0.812801 2.30277,1.761052 3.11557,2.844787 0.67733,1.219202 1.21934,2.302547 1.62574,3.521748 0.27093,1.219202 0.40669,2.303213 0.40669,3.251481 0,1.761069 -0.27093,3.251326 -0.94826,4.470528 -0.67734,1.219202 -1.49034,2.302771 -2.43861,3.115572 -0.94827,0.948268 -2.03176,1.490124 -3.25097,1.896525 -1.2192,0.4064 -2.30313,0.677477 -3.38687,0.677477 h -14.35933 c -0.94827,0 -1.62588,-0.270928 -2.30322,-0.948262 -0.67733,-0.677334 -0.94826,-1.35495 -0.94826,-2.303218 V 29.938221 c 0,-0.948268 0.27093,-1.625367 0.94826,-2.302702 0.67734,-0.677334 1.35495,-0.948262 2.30322,-0.948262 z m 203.87746,0 h 12.7341 c 1.89654,0 3.52196,0.270928 5.0121,0.948262 1.49014,0.677335 2.70939,1.625144 3.65766,2.708879 0.94827,1.083735 1.76135,2.302989 2.30322,3.657657 0.4064,1.490136 0.67696,2.845 0.67696,4.335136 0,2.844804 -0.81257,5.283237 -2.3027,7.450707 -1.62561,2.302936 -4.19943,3.386873 -7.5861,3.386873 h -14.49524 c -0.94827,0 -1.62537,-0.270928 -2.3027,-0.948263 -0.67734,-0.677334 -0.94827,-1.35495 -0.94827,-2.303218 V 29.938221 c 0,-0.948268 0.27093,-1.625367 0.94827,-2.302702 0.67733,-0.677334 1.35443,-0.948262 2.3027,-0.948262 z M 75.319425,26.958042 h 10.160103 c 2.57387,0 5.148063,0.270928 7.8574,0.948262 2.573871,0.677334 5.012379,1.761196 7.315312,3.522265 2.16747,1.761069 3.92814,4.33497 5.41828,7.450707 1.35467,3.251205 2.03191,7.450456 2.03191,12.598196 0,5.147741 -0.67724,9.347066 -2.03191,12.462804 -1.49014,3.251205 -3.25081,5.689638 -5.41828,7.450707 -2.167466,1.76107 -4.605974,2.980324 -7.315312,3.657658 -2.709337,0.677334 -5.28353,0.948262 -7.8574,0.948262 H 75.319425 c -0.948268,0 -1.625367,-0.270928 -2.302701,-0.948262 -0.677334,-0.677334 -0.948263,-1.354434 -0.948263,-2.302702 V 30.209006 c 0,-0.948269 0.270929,-1.625368 0.948263,-2.302702 0.677334,-0.677334 1.354433,-0.948262 2.302701,-0.948262 z M 694.94562,43.213895 c 0.4064,0 0.81265,0.406246 1.21905,1.219047 1.08373,2.57387 2.30306,5.418699 3.52226,8.39897 1.2192,3.115737 2.3027,5.689856 3.25097,7.992792 0.4064,0.812802 0.54179,1.49005 0.13539,2.031918 -0.4064,0.677334 -1.08365,0.948262 -2.03192,0.948262 h -12.05663 c -0.94826,0 -1.62551,-0.270928 -2.03191,-0.948262 -0.4064,-0.541868 -0.4064,-1.219116 0,-2.031918 l 6.77323,-16.391762 c 0.4064,-0.812801 0.81316,-1.219047 1.21956,-1.219047 z" style="font-style:normal;font-variant:normal;font-weight:400;font-stretch:normal;font-size:135.467px;line-height:1;font-family:Heavitas;-inkscape-font-specification:Heavitas;text-align:center;letter-spacing:0;word-spacing:0;text-orientation:upright;text-anchor:middle;fill:#fff;fill-opacity:1;stroke-width:1.05833;stroke-miterlimit:128"/></svg>